<?xml version="1.0" encoding="UTF-8" standalone="no"?>
<svg
   xmlns:dc="http://purl.org/dc/elements/1.1/"
   xmlns:cc="http://creativecommons.org/ns#"
   xmlns:rdf="http://www.w3.org/1999/02/22-rdf-syntax-ns#"
   xmlns:svg="http://www.w3.org/2000/svg"
   xmlns="http://www.w3.org/2000/svg"
   xmlns:sodipodi="http://sodipodi.sourceforge.net/DTD/sodipodi-0.dtd"
   xmlns:inkscape="http://www.inkscape.org/namespaces/inkscape"
   data-name="Layer 1"
   viewBox="0 0 64 64"
   height="16"
   width="16"
   version="1.1"
   id="svg22"
   sodipodi:docname="logo_azure.svg"
   inkscape:version="1.0.2-2 (e86c870879, 2021-01-15)">
  <metadata
     id="metadata28">
    <rdf:RDF>
      <cc:Work
         rdf:about="">
        <dc:format>image/svg+xml</dc:format>
        <dc:type
           rdf:resource="http://purl.org/dc/dcmitype/StillImage" />
      </cc:Work>
    </rdf:RDF>
  </metadata>
  <defs
     id="defs26">
    <linearGradient
       id="edb2ea05-4c60-42fb-9b9a-0edf2b99dad4"
       x1="-811.93542"
       y1="107.4208"
       x2="-816.85242"
       y2="92.894897"
       gradientTransform="matrix(1,0,0,-1,820,110)"
       gradientUnits="userSpaceOnUse">
      <stop
         offset="0"
         stop-color="#114a8b"
         id="stop67" />
      <stop
         offset="1"
         stop-color="#0669bc"
         id="stop69" />
    </linearGradient>
    <linearGradient
       id="ac228590-1978-4cad-a0d4-e155e1dae5a8"
       x1="-811.03491"
       y1="107.8446"
       x2="-805.63757"
       y2="93.464897"
       gradientTransform="matrix(1,0,0,-1,820,110)"
       gradientUnits="userSpaceOnUse">
      <stop
         offset="0"
         stop-color="#3ccbf4"
         id="stop72" />
      <stop
         offset="1"
         stop-color="#2892df"
         id="stop74" />
    </linearGradient>
  </defs>
  <sodipodi:namedview
     pagecolor="#ffffff"
     bordercolor="#666666"
     borderopacity="1"
     objecttolerance="10"
     gridtolerance="10"
     guidetolerance="10"
     inkscape:pageopacity="0"
     inkscape:pageshadow="2"
     inkscape:window-width="1437"
     inkscape:window-height="968"
     id="namedview24"
     showgrid="false"
     inkscape:zoom="37.609242"
     inkscape:cx="8"
     inkscape:cy="8"
     inkscape:window-x="2022"
     inkscape:window-y="9"
     inkscape:window-maximized="0"
     inkscape:current-layer="svg22" />
  <g
     id="g97"
     transform="matrix(3.4,0,0,3.4,0.33535397,0.08111315)">
    <path
       d="m 6.33,1.462 h 4.7434 L 6.1559,16.0328 A 0.7427,0.7427 0 0 1 5.4522,16.538 H 1.7432 A 0.7426,0.7426 0 0 1 1.0396,15.558 L 5.6265,1.9671 A 0.7426,0.7426 0 0 1 6.33,1.462 Z"
       fill="url(#edb2ea05-4c60-42fb-9b9a-0edf2b99dad4)"
       id="path79"
       style="fill:url(#edb2ea05-4c60-42fb-9b9a-0edf2b99dad4)" />
    <path
       d="M 12.8793,10.9543 H 5.4035 a 0.3454,0.3454 0 0 0 -0.2357,0.5979 l 5.1264,4.7859 a 0.743,0.743 0 0 0 0.5069,0.2 h 4.2366 z"
       fill="#0078d4"
       id="path81" />
    <g
       opacity="0.5"
       id="g87">
      <path
         d="m 11.5483,16.538 h 3.4851 l -2.1585,-5.5837 h -2.8423 l 1.6444,4.8667 a 0.751,0.751 0 0 1 -0.1287,0.717 z"
         id="path83" />
      <path
         d="M 8.951,7.7477 11.0724,1.462 H 6.7685 a 0.7538,0.7538 0 0 1 0.1437,0.2515 z"
         id="path85" />
    </g>
    <g
       opacity="0.5"
       id="g93">
      <path
         d="m 6.5,1.462 2.3127,6.7 0.32,-0.953 -1.9362,-5.747 z"
         fill-opacity="0.5"
         id="path89" />
      <path
         d="m 10.8816,16.5379 h 4.1521 -3.1525 a 1.0256,1.0256 0 0 0 0.061,-0.8064 L 10.328,10.9542 h -0.59 l 1.6746,4.9563 a 0.4752,0.4752 0 0 1 -0.45,0.6274 z"
         fill-opacity="0.5"
         id="path91" />
    </g>
    <path
       d="M 12.3736,1.9672 A 0.7427,0.7427 0 0 0 11.67,1.462 H 6.3854 A 0.7536,0.7536 0 0 1 7.1,1.9748 l 4.5794,13.5685 a 0.7536,0.7536 0 0 1 -0.714,0.9947 h 5.2919 a 0.7427,0.7427 0 0 0 0.7036,-0.98 z"
       fill="url(#ac228590-1978-4cad-a0d4-e155e1dae5a8)"
       id="path95"
       style="fill:url(#ac228590-1978-4cad-a0d4-e155e1dae5a8)" />
  </g>
</svg>
