<svg xmlns="http://www.w3.org/2000/svg" xmlns:xlink="http://www.w3.org/1999/xlink" viewBox="0 0 492.8 395.8">
  <defs>
    <linearGradient id="Blue_Gradient_2" data-name="Blue Gradient 2" x1="245.955" y1="391.09" x2="245.955" y2="52.85" gradientUnits="userSpaceOnUse">
      <stop offset="0" stop-color="#0078d4"/>
      <stop offset="0.16" stop-color="#1380da"/>
      <stop offset="0.53" stop-color="#3c91e5"/>
      <stop offset="0.82" stop-color="#559cec"/>
      <stop offset="1" stop-color="#5ea0ef"/>
    </linearGradient>
    <radialGradient id="radial-gradient" cx="18100.026" cy="184.379" r="100.233" gradientTransform="matrix(0.11, 0, 0, -0.11, -1677.039, 35.458)" gradientUnits="userSpaceOnUse">
      <stop offset="0.18" stop-color="#699cd3"/>
      <stop offset="1" stop-color="#2e76bc"/>
    </radialGradient>
    <linearGradient id="linear-gradient" x1="308.028" y1="1549.608" x2="307.989" y2="1554.728" gradientTransform="matrix(1, 0, 0, -1, 0, 1568)" gradientUnits="userSpaceOnUse">
      <stop offset="0" stop-color="#cccccb"/>
      <stop offset="0.12" stop-color="#d7d7d7"/>
      <stop offset="0.42" stop-color="#ebebeb"/>
      <stop offset="0.72" stop-color="#f8f8f8"/>
      <stop offset="1" stop-color="#fdfefe"/>
    </linearGradient>
    <linearGradient id="linear-gradient-2" x1="315.453" y1="1544.462" x2="315.453" y2="1549.063" xlink:href="#linear-gradient"/>
    <linearGradient id="linear-gradient-3" x1="320.703" y1="1550.036" x2="320.703" y2="1554.922" xlink:href="#linear-gradient"/>
    <linearGradient id="linear-gradient-6" x1="73.946" y1="1337.276" x2="73.946" y2="1311.276" gradientTransform="matrix(1, 0, 0, -1, 0, 1568)" gradientUnits="userSpaceOnUse">
      <stop offset="0" stop-color="#b3b2b4"/>
      <stop offset="0.38" stop-color="#b0aeaf"/>
      <stop offset="0.76" stop-color="#a2a1a1"/>
      <stop offset="1" stop-color="#979797"/>
    </linearGradient>
    <linearGradient id="linear-gradient-7" x1="122.329" y1="1318.515" x2="122.329" y2="1337.276" gradientTransform="matrix(1, 0, 0, -1, 0, 1568)" gradientUnits="userSpaceOnUse">
      <stop offset="0" stop-color="#2e76bc"/>
      <stop offset="0.82" stop-color="#699cd3"/>
    </linearGradient>
    <linearGradient id="linear-gradient-8" x1="122.329" y1="1311.276" x2="122.329" y2="1318.515" gradientTransform="matrix(1, 0, 0, -1, 0, 1568)" gradientUnits="userSpaceOnUse">
      <stop offset="0.15" stop-color="#cccccb"/>
      <stop offset="1" stop-color="#707071"/>
    </linearGradient>
    <linearGradient id="linear-gradient-9" x1="250.16" y1="1337.276" x2="250.16" y2="1311.276" xlink:href="#linear-gradient-6"/>
    <linearGradient id="linear-gradient-10" x1="302.729" y1="1318.515" x2="302.729" y2="1337.276" xlink:href="#linear-gradient-7"/>
    <linearGradient id="linear-gradient-11" x1="302.729" y1="1311.276" x2="302.729" y2="1318.515" xlink:href="#linear-gradient-8"/>
    <linearGradient id="linear-gradient-12" x1="382.16" y1="1337.276" x2="382.16" y2="1311.276" xlink:href="#linear-gradient-6"/>
    <linearGradient id="linear-gradient-13" x1="434.729" y1="1318.515" x2="434.729" y2="1337.276" xlink:href="#linear-gradient-7"/>
    <linearGradient id="linear-gradient-14" x1="434.729" y1="1311.276" x2="434.729" y2="1318.515" xlink:href="#linear-gradient-8"/>
    <linearGradient id="Green_Gradient_" data-name="Green Gradient " x1="313.964" y1="1428.104" x2="313.964" y2="1469.837" gradientTransform="matrix(1, 0, 0, -1, 0, 1568)" gradientUnits="userSpaceOnUse">
      <stop offset="0" stop-color="#5e9741"/>
      <stop offset="0.02" stop-color="#5f9841"/>
      <stop offset="1" stop-color="#76bc43"/>
    </linearGradient>
  </defs>
  <g id="Shapes">
    <rect width="492.8" height="395.8" fill="#fff"/>
    <g>
      <rect x="3.76" y="52.85" width="484.39" height="338.24" fill="#fff"/>
      <rect x="3.76" y="52.85" width="484.39" height="338.24" opacity="0.3" fill="url(#Blue_Gradient_2)"/>
      <path d="M487.9,53.1V390.84H4.01V53.1H487.9m.5-.5H3.51V391.34H488.4V52.6Z" fill="#fff"/>
    </g>
    <g>
      <rect x="17.6" y="172.091" width="457.6" height="135.709" fill="#fff"/>
      <g opacity="0.65">
        <path d="M475.05,172.241V307.65H17.75V172.241h457.3m.15-.15H17.6V307.8H475.2V172.091Z" fill="#505150"/>
      </g>
    </g>
    <g>
      <rect x="30.8" y="184.619" width="123.2" height="109.981" fill="#fff"/>
      <rect x="30.8" y="184.619" width="123.2" height="109.981" fill="#505150" opacity="0.1"/>
    </g>
    <g>
      <rect x="17.6" y="329.933" width="457.6" height="49.487" fill="#fff"/>
      <rect x="17.6" y="329.933" width="457.6" height="49.487" fill="#505150" opacity="0.1"/>
    </g>
    <g>
      <polygon points="24.431 83.4 46.343 83.4 34.544 62.961 30.96 72.826 37.844 81.04 24.431 83.4"/>
      <polygon points="33.604 61.4 25.176 68.479 17.955 80.987 24.467 80.987 24.467 81.005 33.604 61.4"/>
    </g>
    <g>
      <line x1="313.964" y1="30.6" x2="313.964" y2="47.218" fill="none" stroke="#3c3c41" stroke-miterlimit="10"/>
      <polygon points="310.224 46.124 313.964 52.6 317.703 46.124 310.224 46.124" fill="#3c3c41"/>
    </g>
    <g>
      <line x1="250.16" y1="149.4" x2="250.16" y2="179.218" fill="none" stroke="#3c3c41" stroke-miterlimit="10"/>
      <polygon points="246.42 178.124 250.16 184.6 253.899 178.124 246.42 178.124" fill="#3c3c41"/>
    </g>
    <g>
      <line x1="382.16" y1="149.4" x2="382.16" y2="179.218" fill="none" stroke="#3c3c41" stroke-miterlimit="10"/>
      <polygon points="378.42 178.124 382.16 184.6 385.899 178.124 378.42 178.124" fill="#3c3c41"/>
    </g>
    <g>
      <line x1="268.4" y1="294.6" x2="268.4" y2="324.418" fill="none" stroke="#3c3c41" stroke-miterlimit="10"/>
      <polygon points="264.66 323.324 268.4 329.8 272.14 323.324 264.66 323.324" fill="#3c3c41"/>
    </g>
    <g>
      <line x1="92.2" y1="294.6" x2="92.2" y2="324.418" fill="none" stroke="#3c3c41" stroke-miterlimit="10"/>
      <polygon points="88.46 323.324 92.2 329.8 95.94 323.324 88.46 323.324" fill="#3c3c41"/>
    </g>
    <g>
      <line x1="400.4" y1="294.6" x2="400.4" y2="324.418" fill="none" stroke="#3c3c41" stroke-miterlimit="10"/>
      <polygon points="396.66 323.324 400.4 329.8 404.14 323.324 396.66 323.324" fill="#3c3c41"/>
    </g>
    <g>
      <rect x="237.085" y="65.925" width="153.758" height="83.35" fill="#fff"/>
      <rect x="237.085" y="65.925" width="153.758" height="83.35" fill="#83b9f9" opacity="0.05"/>
      <path d="M390.718,66.05v83.1H237.21V66.05H390.718m.25-.25H236.96v83.6H390.968V65.8Z" fill="#83b9f9"/>
    </g>
    <g>
      <path id="ee75dd06-1aca-4f76-9d11-d05a284020ad" d="M320.742,23.888A11.022,11.022,0,0,1,307.235,6.467l.117-.078a11.018,11.018,0,0,1,13.39,17.5" fill="url(#radial-gradient)"/>
      <path d="M310.994,12.883a16.852,16.852,0,0,1,11.55-4.64,10.981,10.981,0,0,0-1.932-1.867A18.581,18.581,0,0,0,314.533,7.8a16.241,16.241,0,0,0-5.288,3.655A3.583,3.583,0,0,1,310.994,12.883Z" fill="#fff" opacity="0.6" style="isolation: isolate"/>
      <path d="M305.537,17.316a23.215,23.215,0,0,0-1.076,3.4,10.207,10.207,0,0,0,.8,1.193c.233.3.454.57.713.843a23.216,23.216,0,0,1,1.4-4.5A3.578,3.578,0,0,1,305.537,17.316Z" fill="#fff" opacity="0.6" style="isolation: isolate"/>
      <path d="M306.808,11.432a15.558,15.558,0,0,1-.895-3.811A10.559,10.559,0,0,0,304.487,9.5a16.5,16.5,0,0,0,.739,3.085A3.484,3.484,0,0,1,306.808,11.432Z" fill="#f2f2f3" opacity="0.55" style="isolation: isolate"/>
      <circle cx="308" cy="14.763" r="3.539" fill="url(#linear-gradient)"/>
      <path d="M313.159,21.231a2.3,2.3,0,0,1,.7-1.646,15.388,15.388,0,0,1-3.279-2.411,3.553,3.553,0,0,1-1.932,1.076,17.027,17.027,0,0,0,1.88,1.659,15.711,15.711,0,0,0,2.657,1.62A2.29,2.29,0,0,1,313.159,21.231Z" fill="#f2f2f3" opacity="0.55" style="isolation: isolate"/>
      <path d="M321.325,21.5a15.5,15.5,0,0,1-3.577-.415.57.57,0,0,1,0,.143,2.27,2.27,0,0,1-.661,1.607,17.719,17.719,0,0,0,4.433.311,10.611,10.611,0,0,0,1.542-1.737A14.807,14.807,0,0,1,321.325,21.5Z" fill="#f2f2f3" opacity="0.55" style="isolation: isolate"/>
      <circle cx="315.453" cy="21.231" r="2.307" fill="url(#linear-gradient-2)"/>
      <path d="M318.292,15.087a2.37,2.37,0,0,1,.791-1.3A33.055,33.055,0,0,1,313.3,8.424a21.942,21.942,0,0,1-2.593-3.785,9.838,9.838,0,0,0-1.413.545,23.588,23.588,0,0,0,2.787,4.122A34.313,34.313,0,0,0,318.292,15.087Z" fill="#f2f2f3" opacity="0.7" style="isolation: isolate"/>
      <circle cx="320.703" cy="15.528" r="2.45" fill="url(#linear-gradient-3)"/>
      <path d="M324.812,17.174l-.454-.221h0l-.388-.207h-.078l-.337-.272h-.091l-.4-.259a2.278,2.278,0,0,1-.829,1.192c.155.1.324.2.492.285l.1.065.454.246h0l1.114.584h0a11.19,11.19,0,0,0,.376-1.439Z" fill="#f2f2f3" opacity="0.55" style="isolation: isolate"/>
      <circle cx="308" cy="14.763" r="3.539" fill="url(#linear-gradient)"/>
      <circle cx="315.453" cy="21.231" r="2.307" fill="url(#linear-gradient-2)"/>
    </g>
    <g>
      <path d="M82.387,255.84a.937.937,0,0,1-.973.883H66.478a.937.937,0,0,1-.973-.883V231.607a.938.938,0,0,1,.973-.883H81.414a.938.938,0,0,1,.973.883Z" fill="url(#linear-gradient-6)"/>
      <path d="M67.992,241.841a1.946,1.946,0,0,1,1.8-2.036h8.432a1.946,1.946,0,0,1,1.8,2.036h0a1.928,1.928,0,0,1-1.735,2.1l-.067.005h-8.4a1.928,1.928,0,0,1-1.8-2.018Z" fill="#1e3465"/>
      <path d="M67.992,235.823a1.927,1.927,0,0,1,1.8-2.018h8.432a1.928,1.928,0,0,1,1.8,2.018h0a1.946,1.946,0,0,1-1.8,2.036h-8.4a1.946,1.946,0,0,1-1.8-2.036Z" fill="#1e3465"/>
      <circle cx="70.352" cy="235.823" r="1.351" fill="#74cfeb"/>
      <circle cx="70.352" cy="241.841" r="1.351" fill="#74cfeb"/>
    </g>
    <g>
      <rect x="108.258" y="230.724" width="28.142" height="18.761" rx="0.938" fill="url(#linear-gradient-7)"/>
      <polygon points="127.019 237.368 127.019 242.825 122.329 245.576 122.329 240.104 127.019 237.368" fill="#74cfeb"/>
      <polygon points="127.019 237.368 122.329 240.12 117.639 237.368 122.329 234.632 127.019 237.368" fill="#c6eaf8"/>
      <polygon points="122.329 240.12 122.329 245.576 117.639 242.825 117.639 237.368 122.329 240.12" fill="#a5def3"/>
      <polygon points="117.639 242.825 122.329 240.104 122.329 245.576 117.639 242.825" fill="#c6eaf8"/>
      <polygon points="127.019 242.825 122.329 240.104 122.329 245.576 127.019 242.825" fill="#a5def3"/>
      <path d="M127.973,255.16c-2.783-.438-2.892-2.439-2.892-5.675h-5.519c0,3.236-.094,5.237-2.877,5.675a1.563,1.563,0,0,0-1.391,1.564h14.071A1.565,1.565,0,0,0,127.973,255.16Z" fill="url(#linear-gradient-8)"/>
    </g>
    <g>
      <rect x="206.8" y="184.619" width="123.2" height="109.981" fill="#fff"/>
      <rect x="206.8" y="184.619" width="123.2" height="109.981" fill="#505150" opacity="0.1"/>
    </g>
    <g>
      <path d="M258.6,255.84a.937.937,0,0,1-.973.883H242.692a.937.937,0,0,1-.973-.883V231.607a.938.938,0,0,1,.973-.883h14.936a.938.938,0,0,1,.973.883Z" fill="url(#linear-gradient-9)"/>
      <path d="M244.205,241.841a1.946,1.946,0,0,1,1.8-2.036h8.432a1.946,1.946,0,0,1,1.8,2.036h0a1.928,1.928,0,0,1-1.735,2.1l-.066.005h-8.4a1.928,1.928,0,0,1-1.8-2.018Z" fill="#1e3465"/>
      <path d="M244.205,235.823a1.928,1.928,0,0,1,1.8-2.018h8.432a1.927,1.927,0,0,1,1.8,2.018h0a1.946,1.946,0,0,1-1.8,2.036h-8.4a1.946,1.946,0,0,1-1.8-2.036Z" fill="#1e3465"/>
      <circle cx="246.565" cy="235.823" r="1.351" fill="#74cfeb"/>
      <circle cx="246.565" cy="241.841" r="1.351" fill="#74cfeb"/>
    </g>
    <g>
      <rect x="288.658" y="230.724" width="28.142" height="18.761" rx="0.938" fill="url(#linear-gradient-10)"/>
      <polygon points="307.419 237.368 307.419 242.825 302.729 245.576 302.729 240.104 307.419 237.368" fill="#74cfeb"/>
      <polygon points="307.419 237.368 302.729 240.12 298.039 237.368 302.729 234.632 307.419 237.368" fill="#c6eaf8"/>
      <polygon points="302.729 240.12 302.729 245.576 298.039 242.825 298.039 237.368 302.729 240.12" fill="#a5def3"/>
      <polygon points="298.039 242.825 302.729 240.104 302.729 245.576 298.039 242.825" fill="#c6eaf8"/>
      <polygon points="307.419 242.825 302.729 240.104 302.729 245.576 307.419 242.825" fill="#a5def3"/>
      <path d="M308.373,255.16c-2.783-.438-2.892-2.439-2.892-5.675h-5.519c0,3.236-.094,5.237-2.877,5.675a1.563,1.563,0,0,0-1.391,1.564h14.071A1.565,1.565,0,0,0,308.373,255.16Z" fill="url(#linear-gradient-11)"/>
    </g>
    <g>
      <rect x="338.8" y="184.619" width="123.2" height="109.981" fill="#fff"/>
      <rect x="338.8" y="184.619" width="123.2" height="109.981" fill="#505150" opacity="0.1"/>
    </g>
    <g>
      <path d="M390.6,255.84a.937.937,0,0,1-.973.883H374.692a.937.937,0,0,1-.973-.883V231.607a.938.938,0,0,1,.973-.883h14.936a.938.938,0,0,1,.973.883Z" fill="url(#linear-gradient-12)"/>
      <path d="M376.205,241.841a1.946,1.946,0,0,1,1.8-2.036h8.432a1.946,1.946,0,0,1,1.8,2.036h0a1.928,1.928,0,0,1-1.735,2.1l-.066.005h-8.4a1.928,1.928,0,0,1-1.8-2.018Z" fill="#1e3465"/>
      <path d="M376.205,235.823a1.928,1.928,0,0,1,1.8-2.018h8.432a1.927,1.927,0,0,1,1.8,2.018h0a1.946,1.946,0,0,1-1.8,2.036h-8.4a1.946,1.946,0,0,1-1.8-2.036Z" fill="#1e3465"/>
      <circle cx="378.565" cy="235.823" r="1.351" fill="#74cfeb"/>
      <circle cx="378.565" cy="241.841" r="1.351" fill="#74cfeb"/>
    </g>
    <g>
      <rect x="420.658" y="230.724" width="28.142" height="18.761" rx="0.938" fill="url(#linear-gradient-13)"/>
      <polygon points="439.419 237.368 439.419 242.825 434.729 245.576 434.729 240.104 439.419 237.368" fill="#74cfeb"/>
      <polygon points="439.419 237.368 434.729 240.12 430.039 237.368 434.729 234.632 439.419 237.368" fill="#c6eaf8"/>
      <polygon points="434.729 240.12 434.729 245.576 430.039 242.825 430.039 237.368 434.729 240.12" fill="#a5def3"/>
      <polygon points="430.039 242.825 434.729 240.104 434.729 245.576 430.039 242.825" fill="#c6eaf8"/>
      <polygon points="439.419 242.825 434.729 240.104 434.729 245.576 439.419 242.825" fill="#a5def3"/>
      <path d="M440.373,255.16c-2.783-.438-2.892-2.439-2.892-5.675h-5.519c0,3.236-.094,5.237-2.877,5.675a1.563,1.563,0,0,0-1.391,1.564h14.071A1.565,1.565,0,0,0,440.373,255.16Z" fill="url(#linear-gradient-14)"/>
    </g>
    <g>
      <line x1="167.2" y1="241.8" x2="188.218" y2="241.8" fill="none" stroke="#3c3c41" stroke-miterlimit="10"/>
      <polygon points="187.124 245.54 193.6 241.8 187.124 238.06 187.124 245.54" fill="#3c3c41"/>
    </g>
    <g>
      <path d="M296.327,117.34,313.1,100.563a1.2,1.2,0,0,1,1.7-.023l.024.023L331.6,117.34a1.2,1.2,0,0,1,.023,1.7l-.023.023-16.8,16.8a1.2,1.2,0,0,1-1.68,0l-16.8-16.8a1.2,1.2,0,0,1-.023-1.7Z" fill="url(#Green_Gradient_)"/>
      <path d="M318.363,108.2l-4.239-4.22a.241.241,0,0,0-.32,0l-4.24,4.22a.2.2,0,0,0,.16.36h2.48a.22.22,0,0,1,.22.22v4a.22.22,0,0,0,.22.22h2.639a.22.22,0,0,0,.22-.22v-4a.22.22,0,0,1,.22-.22h2.48a.2.2,0,0,0,.242-.146A.2.2,0,0,0,318.363,108.2Z" fill="#b6d43a"/>
      <path d="M303.965,113.421l-4.2,4.259a.219.219,0,0,0,0,.3l4.2,4.219a.22.22,0,0,0,.38-.16V119.58a.22.22,0,0,1,.22-.22h4a.2.2,0,0,0,.2-.2c0-.007,0-.014,0-.021V116.5a.2.2,0,0,0-.07-.274.191.191,0,0,0-.07-.026h-4a.2.2,0,0,1-.219-.179c0-.007,0-.014,0-.021v-2.419a.234.234,0,0,0-.44-.16Z" fill="#b6d43a"/>
      <path d="M324.122,122.2l4.259-4.239a.219.219,0,0,0,0-.3l-4.259-4.239a.22.22,0,0,0-.31.029.224.224,0,0,0-.05.131v2.5a.2.2,0,0,1-.2.2h-4.02a.2.2,0,0,0-.2.2.148.148,0,0,0,0,.021v2.64a.2.2,0,0,0,.179.219h4.02a.219.219,0,0,1,.22.22v2.479a.219.219,0,0,0,.246.19A.211.211,0,0,0,324.122,122.2Z" fill="#b6d43a"/>
      <path d="M319.543,118.2a5.579,5.579,0,1,0-7.079,5.339v1.9a3.421,3.421,0,1,0,3.139,0v-2A5.539,5.539,0,0,0,319.543,118.2Z" fill="#fff"/>
      <circle id="e99c3387-15c3-4f28-bd4b-cb209b430e06" cx="313.984" cy="118.18" r="3.239" fill="#699cd3"/>
    </g>
    <g id="logo-elastic-horizontal-color">
      <path d="M228.887,355.684a8.3,8.3,0,0,0-5.487-7.826,11.907,11.907,0,0,0-21.346-9.239,6.325,6.325,0,0,0-9.8,7.2,8.409,8.409,0,0,0-5.529,7.858,8.3,8.3,0,0,0,5.514,7.842,12.207,12.207,0,0,0-.218,2.265,11.876,11.876,0,0,0,21.532,6.925,6.315,6.315,0,0,0,9.8-7.178,8.4,8.4,0,0,0,5.532-7.857" fill="#fff"/>
      <path d="M203.3,351.767l9.227,4.213,9.313-8.156a10.241,10.241,0,0,0,.2-2.044,10.406,10.406,0,0,0-18.988-5.882l-1.552,8.024Z" fill="#fec514"/>
      <path d="M193.748,361.539a10.557,10.557,0,0,0-.2,2.076,10.433,10.433,0,0,0,19.059,5.867l1.537-8.007-2.051-3.921-9.262-4.22Z" fill="#00bfb3"/>
      <path d="M193.692,345.572l6.323,1.492,1.384-7.19a4.994,4.994,0,0,0-7.707,5.7" fill="#f04e98"/>
      <path d="M193.143,347.077a7.045,7.045,0,0,0-4.792,6.617,6.97,6.97,0,0,0,4.5,6.521l8.871-8.019-1.629-3.48Z" fill="#1ba9f5"/>
      <path d="M214.227,369.482a4.988,4.988,0,0,0,7.693-5.686l-6.318-1.471Z" fill="#93c90e"/>
      <path d="M215.511,360.661l6.955,1.625a7.035,7.035,0,0,0,4.792-6.617,6.963,6.963,0,0,0-4.5-6.5l-9.1,7.965Z" fill="#07c"/>
      <path d="M245.678,363.186l.843-.086.059,1.715a41.844,41.844,0,0,1-5.667.466q-3.137,0-4.445-1.816t-1.307-5.651q0-7.64,6.073-7.642a5.54,5.54,0,0,1,4.387,1.642q1.446,1.642,1.451,5.147l-.115,1.656H237.37a5.944,5.944,0,0,0,.872,3.574,3.564,3.564,0,0,0,3.034,1.161Q243.442,363.36,245.678,363.186Zm-.785-6.3a6.313,6.313,0,0,0-.855-3.776A3.317,3.317,0,0,0,241.249,352a3.579,3.579,0,0,0-2.907,1.162,5.877,5.877,0,0,0-1,3.72Z" fill="#1c1e23"/>
      <path d="M250.111,365.166V346.05h2.179v19.116Z" fill="#1c1e23"/>
      <path d="M266.012,354.848v7.328c0,.735,1.808.7,1.808.7l-.11,1.926c-1.532,0-2.8.128-3.558-.61a12.672,12.672,0,0,1-5.228,1.091,3.951,3.951,0,0,1-3.051-1.135,4.633,4.633,0,0,1-1.047-3.262,4.084,4.084,0,0,1,1.076-3.125,5.661,5.661,0,0,1,3.37-1.225l4.561-.434v-1.25a2.957,2.957,0,0,0-.637-2.122,2.362,2.362,0,0,0-1.745-.637h-5.725V350.17h5.58a4.053,4.053,0,0,1,4.706,4.678Zm-8.953,5.926q0,2.675,2.206,2.674a11.768,11.768,0,0,0,3.894-.669l.667-.233v-4.794l-4.292.407a2.81,2.81,0,0,0-1.889.755A2.689,2.689,0,0,0,257.059,360.774Z" fill="#1c1e23"/>
      <path d="M274.518,352.118q-3.168,0-3.168,2.206a1.517,1.517,0,0,0,.735,1.438,12.6,12.6,0,0,0,3.311.873,8.866,8.866,0,0,1,3.661,1.264,3.629,3.629,0,0,1,1.076,3.049,3.784,3.784,0,0,1-1.438,3.284,7.113,7.113,0,0,1-4.2,1.047c-1.2,0-5.21-.446-5.21-.446l.118-1.888c2.3.221,3.968.385,5.092.385a5.018,5.018,0,0,0,2.571-.536,1.938,1.938,0,0,0,.885-1.8,1.817,1.817,0,0,0-.755-1.715,11.2,11.2,0,0,0-3.311-.858,8.788,8.788,0,0,1-3.632-1.191,3.39,3.39,0,0,1-1.076-2.907,3.516,3.516,0,0,1,1.5-3.137,6.452,6.452,0,0,1,3.732-1.017c1.181,0,5.282.3,5.282.3v1.9C277.526,352.272,275.756,352.118,274.518,352.118Z" fill="#1c1e23"/>
      <path d="M290.635,352.348h-4.62v6.946a9.366,9.366,0,0,0,.363,3.281c.245.525.818.785,1.728.785l2.585-.174.147,1.8a19.944,19.944,0,0,1-2.965.321,3.8,3.8,0,0,1-3.137-1.105q-.873-1.105-.87-4.213v-7.642h-2.054v-1.887h2.064v-4.446h2.149v4.446h4.61Z" fill="#1c1e23"/>
      <path d="M293.664,348.606v-2.529h2.179v2.529Zm0,16.56v-14.7h2.179v14.7Z" fill="#1c1e23"/>
      <path d="M305.281,350.17a25.069,25.069,0,0,1,3.245.35l.7.086-.086,1.772a33.963,33.963,0,0,0-3.431-.26q-2.47,0-3.355,1.176t-.888,4.358a8.5,8.5,0,0,0,.829,4.431q.828,1.245,3.455,1.25l3.431-.26.089,1.8a30.234,30.234,0,0,1-4.039.407q-3.4,0-4.691-1.745t-1.294-5.882q0-4.139,1.394-5.811T305.281,350.17Z" fill="#1c1e23"/>
    </g>
  </g>
  <g id="Text">
    <g>
      <path d="M58.141,75.336H55.735l-.7-2.181H51.551l-.69,2.181H48.468l3.568-9.8h2.618Zm-3.61-3.876-1.052-3.295a4.331,4.331,0,0,1-.164-.882H53.26a3.715,3.715,0,0,1-.171.855L52.023,71.46Z" fill="#2f2f2f"/>
      <path d="M65.046,75.336H58.764v-.9l3.514-4.511H59.113V68.336h5.906V69.4L61.69,73.743h3.356Z" fill="#2f2f2f"/>
      <path d="M72.929,75.336H70.776V74.27h-.035A2.443,2.443,0,0,1,68.6,75.507q-2.433,0-2.434-2.946V68.336h2.153v4.033q0,1.484,1.176,1.484a1.163,1.163,0,0,0,.93-.407,1.642,1.642,0,0,0,.349-1.1V68.336h2.153Z" fill="#2f2f2f"/>
      <path d="M79.263,70.284a1.878,1.878,0,0,0-.909-.212,1.311,1.311,0,0,0-1.1.516,2.251,2.251,0,0,0-.4,1.405v3.343H74.7v-7h2.161v1.3h.027a1.869,1.869,0,0,1,1.846-1.422,1.388,1.388,0,0,1,.533.082Z" fill="#2f2f2f"/>
      <path d="M86.635,72.451H82.069q.109,1.524,1.92,1.525a3.755,3.755,0,0,0,2.031-.547v1.558a5.344,5.344,0,0,1-2.523.52,3.258,3.258,0,0,1-3.568-3.562,3.743,3.743,0,0,1,1.012-2.761,3.366,3.366,0,0,1,2.488-1.019,3.063,3.063,0,0,1,2.369.909,3.5,3.5,0,0,1,.837,2.468Zm-2-1.326q0-1.5-1.217-1.5a1.16,1.16,0,0,0-.9.431,1.95,1.95,0,0,0-.462,1.073Z" fill="#2f2f2f"/>
    </g>
    <g>
      <path d="M220.939,18.8H219.79V9h1.149Z" fill="#2f2f2f"/>
      <path d="M229.014,18.8h-1.121V14.808q0-2.229-1.627-2.229a1.764,1.764,0,0,0-1.391.632,2.346,2.346,0,0,0-.551,1.6V18.8H223.2v-7h1.121v1.162h.028a2.526,2.526,0,0,1,2.3-1.326,2.141,2.141,0,0,1,1.756.741,3.3,3.3,0,0,1,.609,2.144Z" fill="#2f2f2f"/>
      <path d="M232.185,17.788h-.028V18.8h-1.121V8.437h1.121V13.03h.028a2.652,2.652,0,0,1,2.42-1.394,2.567,2.567,0,0,1,2.109.94,3.88,3.88,0,0,1,.762,2.519,4.337,4.337,0,0,1-.855,2.813,2.843,2.843,0,0,1-2.338,1.056A2.3,2.3,0,0,1,232.185,17.788Zm-.028-2.823v.977a2.081,2.081,0,0,0,.565,1.474,2.01,2.01,0,0,0,3.027-.175,3.566,3.566,0,0,0,.578-2.167,2.817,2.817,0,0,0-.54-1.832,1.786,1.786,0,0,0-1.463-.663,1.989,1.989,0,0,0-1.572.68A2.5,2.5,0,0,0,232.157,14.965Z" fill="#2f2f2f"/>
      <path d="M242.181,18.964a3.252,3.252,0,0,1-2.479-.981,3.635,3.635,0,0,1-.925-2.6,3.787,3.787,0,0,1,.963-2.755,3.466,3.466,0,0,1,2.6-.991,3.135,3.135,0,0,1,2.443.964,3.817,3.817,0,0,1,.879,2.672,3.76,3.76,0,0,1-.947,2.684A3.318,3.318,0,0,1,242.181,18.964Zm.082-6.385a2.132,2.132,0,0,0-1.709.735,3.019,3.019,0,0,0-.629,2.027,2.855,2.855,0,0,0,.636,1.962,2.162,2.162,0,0,0,1.7.718,2.051,2.051,0,0,0,1.672-.705,3.064,3.064,0,0,0,.584-2,3.116,3.116,0,0,0-.584-2.023A2.043,2.043,0,0,0,242.263,12.579Z" fill="#2f2f2f"/>
      <path d="M253.076,18.8h-1.121V17.692h-.027a2.3,2.3,0,0,1-2.16,1.272q-2.5,0-2.5-2.981V11.8h1.114v4.006q0,2.214,1.695,2.215a1.719,1.719,0,0,0,1.351-.605,2.317,2.317,0,0,0,.529-1.583V11.8h1.121Z" fill="#2f2f2f"/>
      <path d="M260.994,18.8h-1.121V14.808q0-2.229-1.627-2.229a1.764,1.764,0,0,0-1.39.632,2.341,2.341,0,0,0-.551,1.6V18.8h-1.121v-7h1.121v1.162h.027a2.527,2.527,0,0,1,2.3-1.326,2.142,2.142,0,0,1,1.757.741,3.31,3.31,0,0,1,.608,2.144Z" fill="#2f2f2f"/>
      <path d="M269.069,18.8h-1.122V17.61h-.027a2.586,2.586,0,0,1-2.406,1.354,2.62,2.62,0,0,1-2.11-.94,3.864,3.864,0,0,1-.789-2.56,4.2,4.2,0,0,1,.875-2.782,2.884,2.884,0,0,1,2.331-1.046,2.243,2.243,0,0,1,2.1,1.135h.027V8.437h1.122Zm-1.122-3.165V14.6a2,2,0,0,0-.56-1.436,1.881,1.881,0,0,0-1.422-.588,1.934,1.934,0,0,0-1.613.752,3.3,3.3,0,0,0-.588,2.078,2.958,2.958,0,0,0,.564,1.911,1.842,1.842,0,0,0,1.514.7,1.916,1.916,0,0,0,1.521-.677A2.524,2.524,0,0,0,267.947,15.635Z" fill="#2f2f2f"/>
      <path d="M279.945,18.479a3.653,3.653,0,0,1-1.915.485,3.169,3.169,0,0,1-2.416-.974,3.53,3.53,0,0,1-.919-2.526,3.881,3.881,0,0,1,.991-2.779,3.466,3.466,0,0,1,2.645-1.049,3.683,3.683,0,0,1,1.627.342v1.148a2.845,2.845,0,0,0-1.668-.547,2.252,2.252,0,0,0-1.76.769,2.914,2.914,0,0,0-.687,2.02,2.781,2.781,0,0,0,.646,1.942,2.225,2.225,0,0,0,1.733.711,2.813,2.813,0,0,0,1.723-.609Z" fill="#2f2f2f"/>
      <path d="M286.689,18.8h-1.121V17.706h-.028a2.347,2.347,0,0,1-2.153,1.258,2.3,2.3,0,0,1-1.637-.554,1.92,1.92,0,0,1-.592-1.47q0-1.962,2.311-2.283l2.1-.294q0-1.783-1.443-1.784a3.446,3.446,0,0,0-2.283.861V12.292a4.333,4.333,0,0,1,2.379-.656q2.467,0,2.468,2.611Zm-1.121-3.541-1.689.232a2.757,2.757,0,0,0-1.176.386,1.116,1.116,0,0,0-.4.981,1.072,1.072,0,0,0,.365.838,1.418,1.418,0,0,0,.975.325,1.8,1.8,0,0,0,1.377-.585,2.086,2.086,0,0,0,.544-1.48Z" fill="#2f2f2f"/>
      <path d="M289.83,18.8h-1.121V8.437h1.121Z" fill="#2f2f2f"/>
      <path d="M293.061,18.8H291.94V8.437h1.121Z" fill="#2f2f2f"/>
    </g>
    <g>
      <path d="M277.574,87.8h-5.086V78h1.149v8.764h3.937Z" fill="#2f2f2f"/>
      <path d="M281.76,87.964a3.252,3.252,0,0,1-2.479-.981,3.635,3.635,0,0,1-.925-2.6,3.784,3.784,0,0,1,.964-2.755,3.462,3.462,0,0,1,2.6-.991,3.135,3.135,0,0,1,2.443.964,3.817,3.817,0,0,1,.879,2.672,3.76,3.76,0,0,1-.947,2.684A3.318,3.318,0,0,1,281.76,87.964Zm.082-6.385a2.132,2.132,0,0,0-1.709.735,3.019,3.019,0,0,0-.629,2.027,2.855,2.855,0,0,0,.636,1.962,2.162,2.162,0,0,0,1.7.718,2.051,2.051,0,0,0,1.672-.7,3.058,3.058,0,0,0,.584-2,3.11,3.11,0,0,0-.584-2.023A2.043,2.043,0,0,0,281.842,81.579Z" fill="#2f2f2f"/>
      <path d="M291.994,87.8h-1.121V86.706h-.027a2.347,2.347,0,0,1-2.153,1.258,2.3,2.3,0,0,1-1.637-.554,1.916,1.916,0,0,1-.592-1.47q0-1.962,2.311-2.283l2.1-.294q0-1.783-1.442-1.784a3.445,3.445,0,0,0-2.283.861V81.292a4.333,4.333,0,0,1,2.379-.656q2.468,0,2.467,2.611Zm-1.121-3.541-1.688.232a2.753,2.753,0,0,0-1.176.386,1.113,1.113,0,0,0-.4.981,1.072,1.072,0,0,0,.365.838,1.417,1.417,0,0,0,.974.325,1.8,1.8,0,0,0,1.377-.585,2.082,2.082,0,0,0,.544-1.48Z" fill="#2f2f2f"/>
      <path d="M300.064,87.8h-1.121V86.61h-.028a2.586,2.586,0,0,1-2.406,1.354,2.617,2.617,0,0,1-2.109-.94,3.858,3.858,0,0,1-.789-2.56,4.2,4.2,0,0,1,.875-2.782,2.883,2.883,0,0,1,2.331-1.046,2.241,2.241,0,0,1,2.1,1.135h.028V77.437h1.121Zm-1.121-3.165V83.6a2,2,0,0,0-.561-1.436,1.881,1.881,0,0,0-1.422-.588,1.936,1.936,0,0,0-1.613.752,3.3,3.3,0,0,0-.588,2.078,2.958,2.958,0,0,0,.564,1.911,1.842,1.842,0,0,0,1.514.7,1.92,1.92,0,0,0,1.522-.677A2.529,2.529,0,0,0,298.943,84.635Z" fill="#2f2f2f"/>
      <path d="M306.319,87.8V78h2.789a3.052,3.052,0,0,1,2.016.622,2.01,2.01,0,0,1,.745,1.62,2.381,2.381,0,0,1-.451,1.449,2.43,2.43,0,0,1-1.244.875v.028a2.5,2.5,0,0,1,1.586.748,2.306,2.306,0,0,1,.6,1.644,2.564,2.564,0,0,1-.9,2.038,3.359,3.359,0,0,1-2.276.779Zm1.148-8.764V82.2h1.176a2.232,2.232,0,0,0,1.483-.454,1.582,1.582,0,0,0,.54-1.282q0-1.43-1.88-1.429Zm0,4.2v3.528h1.559a2.333,2.333,0,0,0,1.568-.479,1.637,1.637,0,0,0,.558-1.312q0-1.737-2.366-1.737Z" fill="#2f2f2f"/>
      <path d="M319.162,87.8h-1.121V86.706h-.027a2.347,2.347,0,0,1-2.153,1.258,2.3,2.3,0,0,1-1.637-.554,1.916,1.916,0,0,1-.592-1.47q0-1.962,2.311-2.283l2.1-.294q0-1.783-1.442-1.784a3.445,3.445,0,0,0-2.283.861V81.292a4.333,4.333,0,0,1,2.379-.656q2.467,0,2.467,2.611Zm-1.121-3.541-1.688.232a2.753,2.753,0,0,0-1.176.386,1.113,1.113,0,0,0-.4.981,1.073,1.073,0,0,0,.366.838,1.417,1.417,0,0,0,.974.325,1.8,1.8,0,0,0,1.377-.585,2.082,2.082,0,0,0,.544-1.48Z" fill="#2f2f2f"/>
      <path d="M322.3,87.8h-1.121V77.437H322.3Z" fill="#2f2f2f"/>
      <path d="M329.457,87.8h-1.121V86.706h-.027a2.348,2.348,0,0,1-2.154,1.258,2.3,2.3,0,0,1-1.636-.554,1.916,1.916,0,0,1-.592-1.47q0-1.962,2.311-2.283l2.1-.294q0-1.783-1.442-1.784a3.445,3.445,0,0,0-2.283.861V81.292a4.332,4.332,0,0,1,2.378-.656q2.469,0,2.468,2.611Zm-1.121-3.541-1.688.232a2.753,2.753,0,0,0-1.176.386,1.113,1.113,0,0,0-.4.981,1.07,1.07,0,0,0,.366.838,1.417,1.417,0,0,0,.974.325,1.8,1.8,0,0,0,1.377-.585,2.086,2.086,0,0,0,.544-1.48Z" fill="#2f2f2f"/>
      <path d="M337.289,87.8h-1.121V83.808q0-2.229-1.627-2.229a1.764,1.764,0,0,0-1.39.632,2.341,2.341,0,0,0-.551,1.6V87.8h-1.121v-7H332.6v1.162h.027a2.526,2.526,0,0,1,2.3-1.326,2.142,2.142,0,0,1,1.757.741,3.31,3.31,0,0,1,.608,2.144Z" fill="#2f2f2f"/>
      <path d="M344.138,87.479a3.649,3.649,0,0,1-1.914.485,3.168,3.168,0,0,1-2.416-.974,3.531,3.531,0,0,1-.92-2.526,3.881,3.881,0,0,1,.991-2.779,3.467,3.467,0,0,1,2.646-1.049,3.683,3.683,0,0,1,1.627.342v1.148a2.85,2.85,0,0,0-1.668-.547,2.25,2.25,0,0,0-1.76.769,2.914,2.914,0,0,0-.688,2.02,2.777,2.777,0,0,0,.647,1.942,2.224,2.224,0,0,0,1.732.711,2.809,2.809,0,0,0,1.723-.609Z" fill="#2f2f2f"/>
      <path d="M351.308,84.58h-4.943a2.624,2.624,0,0,0,.629,1.805,2.169,2.169,0,0,0,1.655.636,3.436,3.436,0,0,0,2.173-.78v1.053a4.058,4.058,0,0,1-2.44.67,2.958,2.958,0,0,1-2.331-.954,3.9,3.9,0,0,1-.848-2.683,3.829,3.829,0,0,1,.926-2.662,2.972,2.972,0,0,1,2.3-1.029,2.632,2.632,0,0,1,2.126.888,3.708,3.708,0,0,1,.752,2.468Zm-1.149-.95a2.293,2.293,0,0,0-.467-1.511,1.6,1.6,0,0,0-1.283-.54,1.811,1.811,0,0,0-1.346.567,2.582,2.582,0,0,0-.684,1.484Z" fill="#2f2f2f"/>
      <path d="M356.641,81.935a1.368,1.368,0,0,0-.848-.226,1.429,1.429,0,0,0-1.2.677,3.122,3.122,0,0,0-.482,1.845V87.8H352.99v-7h1.122v1.442h.027a2.444,2.444,0,0,1,.731-1.152,1.668,1.668,0,0,1,1.1-.413,1.828,1.828,0,0,1,.67.095Z" fill="#2f2f2f"/>
    </g>
    <g>
      <path d="M25.557,166.59a5.748,5.748,0,0,1-2.707.574,4.366,4.366,0,0,1-3.35-1.347,4.966,4.966,0,0,1-1.258-3.534,5.211,5.211,0,0,1,1.415-3.8,4.8,4.8,0,0,1,3.589-1.449,5.736,5.736,0,0,1,2.311.4v1.223a4.686,4.686,0,0,0-2.324-.588,3.571,3.571,0,0,0-2.739,1.128,4.252,4.252,0,0,0-1.048,3.015,4.048,4.048,0,0,0,.98,2.854A3.342,3.342,0,0,0,23,166.132a4.832,4.832,0,0,0,2.557-.656Z" fill="#2f2f2f"/>
      <path d="M28.23,167H27.109V156.637H28.23Z" fill="#2f2f2f"/>
      <path d="M36.07,167H34.948v-1.107h-.027a2.3,2.3,0,0,1-2.16,1.271q-2.5,0-2.5-2.98V160h1.114v4.006q0,2.214,1.7,2.215a1.717,1.717,0,0,0,1.35-.6,2.317,2.317,0,0,0,.529-1.583V160H36.07Z" fill="#2f2f2f"/>
      <path d="M37.831,166.747v-1.2a3.32,3.32,0,0,0,2.017.677q1.476,0,1.476-.985a.856.856,0,0,0-.126-.475,1.283,1.283,0,0,0-.341-.345,2.727,2.727,0,0,0-.506-.27c-.2-.08-.4-.163-.626-.25a8.274,8.274,0,0,1-.818-.372,2.518,2.518,0,0,1-.587-.424,1.58,1.58,0,0,1-.356-.537,1.911,1.911,0,0,1-.119-.7,1.665,1.665,0,0,1,.226-.871,1.992,1.992,0,0,1,.6-.636,2.785,2.785,0,0,1,.858-.386,3.788,3.788,0,0,1,.995-.13,4.029,4.029,0,0,1,1.627.314v1.135a3.175,3.175,0,0,0-1.778-.506,2.069,2.069,0,0,0-.567.072,1.387,1.387,0,0,0-.435.2.916.916,0,0,0-.279.311.819.819,0,0,0-.1.4.961.961,0,0,0,.1.458.993.993,0,0,0,.29.328,2.225,2.225,0,0,0,.465.26c.182.077.39.161.622.252a8.961,8.961,0,0,1,.834.366,2.891,2.891,0,0,1,.629.424,1.657,1.657,0,0,1,.4.544,1.756,1.756,0,0,1,.14.731,1.712,1.712,0,0,1-.23.9,1.942,1.942,0,0,1-.611.636,2.812,2.812,0,0,1-.882.376,4.356,4.356,0,0,1-1.046.123A3.975,3.975,0,0,1,37.831,166.747Z" fill="#2f2f2f"/>
      <path d="M47.485,166.932a2.165,2.165,0,0,1-1.046.218q-1.839,0-1.839-2.05v-4.143H43.4V160h1.2v-1.709l1.121-.362V160h1.764v.957H45.721V164.9a1.637,1.637,0,0,0,.239,1,.953.953,0,0,0,.793.3,1.189,1.189,0,0,0,.732-.232Z" fill="#2f2f2f"/>
      <path d="M54.478,163.78H49.535a2.622,2.622,0,0,0,.629,1.805,2.169,2.169,0,0,0,1.655.636,3.436,3.436,0,0,0,2.173-.78v1.053a4.058,4.058,0,0,1-2.44.67,2.958,2.958,0,0,1-2.331-.954,3.9,3.9,0,0,1-.848-2.683,3.829,3.829,0,0,1,.926-2.662,2.972,2.972,0,0,1,2.3-1.029,2.63,2.63,0,0,1,2.126.889,3.705,3.705,0,0,1,.752,2.467Zm-1.149-.95a2.293,2.293,0,0,0-.467-1.511,1.6,1.6,0,0,0-1.283-.54,1.808,1.808,0,0,0-1.346.568,2.57,2.57,0,0,0-.684,1.483Z" fill="#2f2f2f"/>
      <path d="M59.811,161.135a1.37,1.37,0,0,0-.848-.226,1.429,1.429,0,0,0-1.2.677,3.123,3.123,0,0,0-.483,1.846V167H56.16v-7h1.121v1.442h.028a2.435,2.435,0,0,1,.731-1.151,1.669,1.669,0,0,1,1.1-.414,1.828,1.828,0,0,1,.67.1Z" fill="#2f2f2f"/>
    </g>
    <g>
      <path d="M62.784,205.3H61.513l-1.039-2.748H56.318L55.34,205.3H54.062l3.759-9.8h1.19Zm-2.686-3.78-1.538-4.177a3.957,3.957,0,0,1-.151-.656h-.027a3.708,3.708,0,0,1-.157.656L56.7,201.521Z" fill="#2f2f2f"/>
      <path d="M69.892,205.3H68.771v-1.189h-.028a2.587,2.587,0,0,1-2.406,1.353,2.614,2.614,0,0,1-2.109-.94,3.857,3.857,0,0,1-.789-2.56,4.2,4.2,0,0,1,.875-2.782,2.886,2.886,0,0,1,2.331-1.046,2.243,2.243,0,0,1,2.1,1.135h.028v-4.334h1.121Zm-1.121-3.165V201.1a2,2,0,0,0-.561-1.436,1.879,1.879,0,0,0-1.422-.587,1.934,1.934,0,0,0-1.613.752,3.292,3.292,0,0,0-.588,2.078,2.957,2.957,0,0,0,.565,1.91,1.837,1.837,0,0,0,1.513.7,1.92,1.92,0,0,0,1.522-.677A2.529,2.529,0,0,0,68.771,202.136Z" fill="#2f2f2f"/>
      <path d="M81.941,205.3H80.82v-4.019a3.025,3.025,0,0,0-.36-1.682,1.358,1.358,0,0,0-1.206-.519,1.492,1.492,0,0,0-1.22.656,2.5,2.5,0,0,0-.5,1.572V205.3H76.41v-4.156q0-2.064-1.592-2.064a1.475,1.475,0,0,0-1.217.618,2.553,2.553,0,0,0-.479,1.61V205.3H72v-7h1.121v1.108h.028a2.378,2.378,0,0,1,2.173-1.272,2.024,2.024,0,0,1,1.983,1.449,2.5,2.5,0,0,1,2.324-1.449q2.31,0,2.311,2.851Z" fill="#2f2f2f"/>
      <path d="M84.529,196.524a.708.708,0,0,1-.512-.205.69.69,0,0,1-.212-.52.717.717,0,0,1,.724-.731.727.727,0,0,1,.524.208.7.7,0,0,1,.215.523.694.694,0,0,1-.215.513A.722.722,0,0,1,84.529,196.524Zm.547,8.777H83.955v-7h1.121Z" fill="#2f2f2f"/>
      <path d="M93.005,205.3H91.884v-3.992q0-2.229-1.627-2.228a1.766,1.766,0,0,0-1.391.632,2.342,2.342,0,0,0-.55,1.6V205.3H87.2v-7h1.121v1.162h.027a2.526,2.526,0,0,1,2.3-1.326,2.142,2.142,0,0,1,1.757.742,3.309,3.309,0,0,1,.608,2.143Z" fill="#2f2f2f"/>
      <path d="M55.993,221.848v-1.2a3.322,3.322,0,0,0,2.017.677q1.476,0,1.477-.985a.856.856,0,0,0-.126-.475,1.287,1.287,0,0,0-.342-.345,2.727,2.727,0,0,0-.506-.27c-.194-.08-.4-.163-.626-.249a8.136,8.136,0,0,1-.817-.373,2.476,2.476,0,0,1-.588-.424,1.586,1.586,0,0,1-.356-.536,1.921,1.921,0,0,1-.119-.7,1.665,1.665,0,0,1,.226-.871,1.992,1.992,0,0,1,.6-.636,2.78,2.78,0,0,1,.859-.386,3.775,3.775,0,0,1,.994-.13,4.029,4.029,0,0,1,1.627.314v1.135a3.175,3.175,0,0,0-1.778-.506,2.069,2.069,0,0,0-.567.072,1.387,1.387,0,0,0-.435.2.927.927,0,0,0-.279.311.819.819,0,0,0-.1.4.961.961,0,0,0,.1.458,1,1,0,0,0,.29.328,2.225,2.225,0,0,0,.465.26q.274.115.622.253a8.6,8.6,0,0,1,.834.365,2.891,2.891,0,0,1,.629.424,1.653,1.653,0,0,1,.4.544,1.756,1.756,0,0,1,.14.731,1.712,1.712,0,0,1-.23.9,1.942,1.942,0,0,1-.611.636,2.789,2.789,0,0,1-.882.376,4.356,4.356,0,0,1-1.046.123A3.975,3.975,0,0,1,55.993,221.848Z" fill="#2f2f2f"/>
      <path d="M67.948,218.881H63.006a2.622,2.622,0,0,0,.629,1.805,2.167,2.167,0,0,0,1.654.636,3.439,3.439,0,0,0,2.174-.78V221.6a4.06,4.06,0,0,1-2.44.67,2.959,2.959,0,0,1-2.331-.953,3.9,3.9,0,0,1-.848-2.684,3.829,3.829,0,0,1,.926-2.662,2.97,2.97,0,0,1,2.3-1.029,2.626,2.626,0,0,1,2.125.889,3.705,3.705,0,0,1,.752,2.467Zm-1.148-.95a2.288,2.288,0,0,0-.468-1.511,1.6,1.6,0,0,0-1.282-.54,1.81,1.81,0,0,0-1.347.568,2.575,2.575,0,0,0-.683,1.483Z" fill="#2f2f2f"/>
      <path d="M73.281,216.236a1.365,1.365,0,0,0-.847-.226,1.428,1.428,0,0,0-1.2.677,3.116,3.116,0,0,0-.483,1.846V222.1H69.631v-7h1.121v1.442h.027a2.444,2.444,0,0,1,.732-1.151,1.667,1.667,0,0,1,1.1-.414,1.819,1.819,0,0,1,.669.1Z" fill="#2f2f2f"/>
      <path d="M80.555,215.1l-2.789,7h-1.1l-2.652-7h1.23l1.778,5.086a4.587,4.587,0,0,1,.246.978h.027a4.6,4.6,0,0,1,.219-.951l1.859-5.113Z" fill="#2f2f2f"/>
      <path d="M87.2,218.881H82.253a2.622,2.622,0,0,0,.629,1.805,2.167,2.167,0,0,0,1.654.636,3.439,3.439,0,0,0,2.174-.78V221.6a4.06,4.06,0,0,1-2.44.67,2.959,2.959,0,0,1-2.331-.953,3.9,3.9,0,0,1-.848-2.684,3.829,3.829,0,0,1,.926-2.662,2.972,2.972,0,0,1,2.3-1.029,2.63,2.63,0,0,1,2.126.889,3.705,3.705,0,0,1,.752,2.467Zm-1.149-.95a2.288,2.288,0,0,0-.468-1.511,1.6,1.6,0,0,0-1.282-.54,1.812,1.812,0,0,0-1.347.568,2.575,2.575,0,0,0-.683,1.483Z" fill="#2f2f2f"/>
      <path d="M92.529,216.236a1.365,1.365,0,0,0-.847-.226,1.428,1.428,0,0,0-1.2.677A3.116,3.116,0,0,0,90,218.533V222.1H88.879v-7H90v1.442h.028a2.435,2.435,0,0,1,.731-1.151,1.667,1.667,0,0,1,1.1-.414,1.819,1.819,0,0,1,.669.1Z" fill="#2f2f2f"/>
    </g>
    <g>
      <path d="M74.989,272.771l-2.768,9.8H70.874l-2.016-7.164a4.5,4.5,0,0,1-.158-1h-.027a5.022,5.022,0,0,1-.178.984l-2.03,7.178H65.132l-2.871-9.8h1.265l2.085,7.52a4.994,4.994,0,0,1,.164.984h.034a5.8,5.8,0,0,1,.212-.984l2.167-7.52h1.1l2.078,7.575a5.369,5.369,0,0,1,.164.916h.028a5.544,5.544,0,0,1,.184-.944l2-7.547Z" fill="#2f2f2f"/>
      <path d="M81.5,279.354H76.555a2.612,2.612,0,0,0,.629,1.805,2.167,2.167,0,0,0,1.654.636,3.444,3.444,0,0,0,2.174-.779v1.052a4.061,4.061,0,0,1-2.441.67,2.962,2.962,0,0,1-2.331-.953,3.905,3.905,0,0,1-.847-2.683,3.825,3.825,0,0,1,.926-2.663,2.97,2.97,0,0,1,2.3-1.029,2.633,2.633,0,0,1,2.126.889,3.706,3.706,0,0,1,.752,2.468Zm-1.148-.95a2.283,2.283,0,0,0-.468-1.51,1.6,1.6,0,0,0-1.282-.54,1.809,1.809,0,0,0-1.347.567,2.569,2.569,0,0,0-.683,1.483Z" fill="#2f2f2f"/>
      <path d="M84.328,281.562H84.3v1.012H83.18V272.211H84.3v4.594h.027a2.652,2.652,0,0,1,2.42-1.395,2.571,2.571,0,0,1,2.11.94,3.887,3.887,0,0,1,.761,2.519,4.341,4.341,0,0,1-.854,2.813,2.844,2.844,0,0,1-2.338,1.056A2.3,2.3,0,0,1,84.328,281.562Zm-.027-2.823v.978a2.077,2.077,0,0,0,.564,1.473,2.012,2.012,0,0,0,3.028-.174,3.57,3.57,0,0,0,.578-2.167,2.819,2.819,0,0,0-.54-1.832,1.788,1.788,0,0,0-1.463-.663,1.984,1.984,0,0,0-1.572.68A2.494,2.494,0,0,0,84.3,278.739Z" fill="#2f2f2f"/>
      <path d="M96.58,282.574H91.494v-9.8h1.149v8.764H96.58Z" fill="#2f2f2f"/>
      <path d="M100.766,282.738a3.251,3.251,0,0,1-2.479-.981,3.633,3.633,0,0,1-.925-2.6,3.787,3.787,0,0,1,.963-2.755,3.47,3.47,0,0,1,2.605-.991,3.135,3.135,0,0,1,2.443.964,3.822,3.822,0,0,1,.879,2.673,3.756,3.756,0,0,1-.947,2.683A3.318,3.318,0,0,1,100.766,282.738Zm.082-6.384a2.134,2.134,0,0,0-1.709.734,3.021,3.021,0,0,0-.629,2.027,2.852,2.852,0,0,0,.636,1.962,2.159,2.159,0,0,0,1.7.718,2.055,2.055,0,0,0,1.672-.7,3.064,3.064,0,0,0,.584-2,3.121,3.121,0,0,0-.584-2.024A2.044,2.044,0,0,0,100.848,276.354Z" fill="#2f2f2f"/>
      <path d="M112.007,282.014q0,3.855-3.691,3.855a4.959,4.959,0,0,1-2.27-.492v-1.121a4.664,4.664,0,0,0,2.256.656q2.585,0,2.584-2.748V281.4h-.027a2.832,2.832,0,0,1-4.508.407,3.729,3.729,0,0,1-.8-2.5,4.363,4.363,0,0,1,.857-2.837,2.869,2.869,0,0,1,2.349-1.053,2.284,2.284,0,0,1,2.1,1.135h.027v-.971h1.121Zm-1.121-2.605v-1.032a2,2,0,0,0-.565-1.429,1.854,1.854,0,0,0-1.4-.594,1.946,1.946,0,0,0-1.627.755,3.377,3.377,0,0,0-.588,2.116,2.887,2.887,0,0,0,.565,1.869,1.817,1.817,0,0,0,1.493.7,1.947,1.947,0,0,0,1.534-.67A2.5,2.5,0,0,0,110.886,279.409Z" fill="#2f2f2f"/>
      <path d="M114.7,273.8a.708.708,0,0,1-.512-.205.69.69,0,0,1-.212-.52.717.717,0,0,1,.724-.731.727.727,0,0,1,.524.208.731.731,0,0,1,0,1.036A.722.722,0,0,1,114.7,273.8Zm.547,8.777h-1.121v-7h1.121Z" fill="#2f2f2f"/>
      <path d="M122.155,282.253a3.637,3.637,0,0,1-1.914.485,3.166,3.166,0,0,1-2.416-.974,3.529,3.529,0,0,1-.92-2.526,3.882,3.882,0,0,1,.992-2.779,3.47,3.47,0,0,1,2.645-1.049,3.683,3.683,0,0,1,1.627.342V276.9a2.851,2.851,0,0,0-1.668-.546,2.25,2.25,0,0,0-1.76.769,2.912,2.912,0,0,0-.687,2.02,2.777,2.777,0,0,0,.646,1.941,2.225,2.225,0,0,0,1.733.711,2.813,2.813,0,0,0,1.722-.608Z" fill="#2f2f2f"/>
    </g>
    <g>
      <path d="M120.306,214.4l-3.63,9.8h-1.265l-3.554-9.8h1.278l2.714,7.772a4.617,4.617,0,0,1,.2.869h.027a4.276,4.276,0,0,1,.226-.882l2.769-7.759Z" fill="#2f2f2f"/>
      <path d="M131.633,224.2h-1.142v-6.576q0-.78.1-1.908h-.027a6.16,6.16,0,0,1-.294.951l-3.35,7.533h-.56l-3.343-7.479a5.913,5.913,0,0,1-.294-1h-.027q.054.588.054,1.921V224.2h-1.107v-9.8h1.517l3.008,6.836a8.6,8.6,0,0,1,.451,1.176h.041q.3-.807.472-1.2L130.2,214.4h1.436Z" fill="#2f2f2f"/>
    </g>
    <g>
      <path d="M232.332,205.3h-1.141v-6.576q0-.779.095-1.907h-.027a5.994,5.994,0,0,1-.294.95l-3.35,7.533h-.56l-3.343-7.478a5.913,5.913,0,0,1-.294-1h-.027q.054.588.055,1.921V205.3h-1.108v-9.8h1.518l3.007,6.835a8.777,8.777,0,0,1,.452,1.176h.041c.2-.537.353-.939.471-1.2l3.07-6.808h1.435Z" fill="#2f2f2f"/>
      <path d="M239.647,205.3h-1.121v-1.093H238.5a2.346,2.346,0,0,1-2.153,1.257,2.3,2.3,0,0,1-1.637-.553,1.921,1.921,0,0,1-.592-1.47q0-1.962,2.311-2.283l2.1-.294q0-1.785-1.443-1.784a3.446,3.446,0,0,0-2.283.861v-1.149a4.342,4.342,0,0,1,2.379-.656q2.468,0,2.468,2.612Zm-1.121-3.541-1.689.233a2.73,2.73,0,0,0-1.176.386,1.114,1.114,0,0,0-.4.981,1.069,1.069,0,0,0,.365.837,1.413,1.413,0,0,0,.975.325,1.8,1.8,0,0,0,1.377-.584,2.086,2.086,0,0,0,.544-1.48Z" fill="#2f2f2f"/>
      <path d="M247.479,205.3h-1.121v-3.992q0-2.229-1.627-2.228a1.764,1.764,0,0,0-1.391.632,2.343,2.343,0,0,0-.551,1.6V205.3h-1.121v-7h1.121v1.162h.028a2.525,2.525,0,0,1,2.3-1.326,2.139,2.139,0,0,1,1.757.742,3.3,3.3,0,0,1,.609,2.143Z" fill="#2f2f2f"/>
      <path d="M254.51,205.3h-1.121v-1.093h-.027a2.349,2.349,0,0,1-2.154,1.257,2.3,2.3,0,0,1-1.637-.553,1.92,1.92,0,0,1-.591-1.47q0-1.962,2.31-2.283l2.1-.294q0-1.785-1.443-1.784a3.448,3.448,0,0,0-2.283.861v-1.149a4.346,4.346,0,0,1,2.379-.656q2.469,0,2.468,2.612Zm-1.121-3.541-1.689.233a2.721,2.721,0,0,0-1.175.386,1.112,1.112,0,0,0-.4.981,1.069,1.069,0,0,0,.365.837,1.416,1.416,0,0,0,.975.325,1.8,1.8,0,0,0,1.377-.584,2.086,2.086,0,0,0,.544-1.48Z" fill="#2f2f2f"/>
      <path d="M262.579,204.741q0,3.855-3.691,3.855a4.962,4.962,0,0,1-2.27-.492v-1.121a4.664,4.664,0,0,0,2.256.656q2.584,0,2.584-2.748v-.766h-.027a2.832,2.832,0,0,1-4.508.407,3.729,3.729,0,0,1-.8-2.505,4.357,4.357,0,0,1,.858-2.837,2.866,2.866,0,0,1,2.348-1.053,2.283,2.283,0,0,1,2.1,1.135h.027V198.3h1.121Zm-1.121-2.605V201.1a2,2,0,0,0-.564-1.429,1.856,1.856,0,0,0-1.405-.594,1.946,1.946,0,0,0-1.626.755,3.371,3.371,0,0,0-.588,2.116,2.887,2.887,0,0,0,.564,1.869,1.817,1.817,0,0,0,1.493.7,1.947,1.947,0,0,0,1.534-.67A2.5,2.5,0,0,0,261.458,202.136Z" fill="#2f2f2f"/>
      <path d="M270.4,202.082h-4.943a2.621,2.621,0,0,0,.629,1.8,2.167,2.167,0,0,0,1.654.636,3.444,3.444,0,0,0,2.174-.779V204.8a4.058,4.058,0,0,1-2.44.67,2.96,2.96,0,0,1-2.331-.953,3.9,3.9,0,0,1-.848-2.683,3.83,3.83,0,0,1,.926-2.663,2.972,2.972,0,0,1,2.3-1.029,2.633,2.633,0,0,1,2.126.889,3.706,3.706,0,0,1,.752,2.468Zm-1.149-.951a2.283,2.283,0,0,0-.468-1.51,1.6,1.6,0,0,0-1.282-.54,1.815,1.815,0,0,0-1.347.567,2.578,2.578,0,0,0-.683,1.483Z" fill="#2f2f2f"/>
      <path d="M278.132,205.3h-1.121v-1.189h-.027a2.826,2.826,0,0,1-4.516.413,3.862,3.862,0,0,1-.789-2.56,4.2,4.2,0,0,1,.875-2.782,2.886,2.886,0,0,1,2.331-1.046,2.246,2.246,0,0,1,2.1,1.135h.027v-4.334h1.121Zm-1.121-3.165V201.1a2,2,0,0,0-.561-1.436,1.878,1.878,0,0,0-1.421-.587,1.935,1.935,0,0,0-1.614.752,3.3,3.3,0,0,0-.588,2.078,2.957,2.957,0,0,0,.565,1.91,1.838,1.838,0,0,0,1.513.7,1.92,1.92,0,0,0,1.522-.677A2.524,2.524,0,0,0,277.011,202.136Z" fill="#2f2f2f"/>
      <path d="M232.206,221.848v-1.2a3.32,3.32,0,0,0,2.017.677q1.476,0,1.476-.985a.856.856,0,0,0-.126-.475,1.283,1.283,0,0,0-.341-.345,2.727,2.727,0,0,0-.506-.27c-.195-.08-.4-.163-.626-.249a8.265,8.265,0,0,1-.818-.373,2.49,2.49,0,0,1-.587-.424,1.586,1.586,0,0,1-.356-.536,1.921,1.921,0,0,1-.119-.7,1.665,1.665,0,0,1,.226-.871,1.992,1.992,0,0,1,.6-.636,2.785,2.785,0,0,1,.858-.386,3.788,3.788,0,0,1,1-.13,4.029,4.029,0,0,1,1.627.314v1.135a3.175,3.175,0,0,0-1.778-.506,2.069,2.069,0,0,0-.567.072,1.387,1.387,0,0,0-.435.2.916.916,0,0,0-.279.311.819.819,0,0,0-.1.4.961.961,0,0,0,.1.458.993.993,0,0,0,.29.328,2.225,2.225,0,0,0,.465.26c.182.077.39.161.622.253a8.711,8.711,0,0,1,.834.365,2.891,2.891,0,0,1,.629.424,1.668,1.668,0,0,1,.4.544,1.756,1.756,0,0,1,.14.731,1.712,1.712,0,0,1-.23.9,1.942,1.942,0,0,1-.611.636,2.789,2.789,0,0,1-.882.376,4.356,4.356,0,0,1-1.046.123A3.975,3.975,0,0,1,232.206,221.848Z" fill="#2f2f2f"/>
      <path d="M244.161,218.881h-4.942a2.617,2.617,0,0,0,.629,1.805,2.167,2.167,0,0,0,1.654.636,3.439,3.439,0,0,0,2.174-.78V221.6a4.06,4.06,0,0,1-2.44.67,2.962,2.962,0,0,1-2.332-.953,3.906,3.906,0,0,1-.847-2.684,3.824,3.824,0,0,1,.926-2.662,2.97,2.97,0,0,1,2.3-1.029,2.63,2.63,0,0,1,2.126.889,3.705,3.705,0,0,1,.752,2.467Zm-1.148-.95a2.288,2.288,0,0,0-.468-1.511,1.6,1.6,0,0,0-1.282-.54,1.81,1.81,0,0,0-1.347.568,2.575,2.575,0,0,0-.683,1.483Z" fill="#2f2f2f"/>
      <path d="M249.494,216.236a1.365,1.365,0,0,0-.847-.226,1.431,1.431,0,0,0-1.2.677,3.123,3.123,0,0,0-.482,1.846V222.1h-1.121v-7h1.121v1.442h.027a2.444,2.444,0,0,1,.732-1.151,1.666,1.666,0,0,1,1.1-.414,1.824,1.824,0,0,1,.67.1Z" fill="#2f2f2f"/>
      <path d="M256.768,215.1l-2.789,7h-1.1l-2.652-7h1.23l1.778,5.086a4.711,4.711,0,0,1,.246.978h.027a4.6,4.6,0,0,1,.219-.951l1.859-5.113Z" fill="#2f2f2f"/>
      <path d="M263.408,218.881h-4.942a2.622,2.622,0,0,0,.629,1.805,2.167,2.167,0,0,0,1.654.636,3.439,3.439,0,0,0,2.174-.78V221.6a4.06,4.06,0,0,1-2.44.67,2.959,2.959,0,0,1-2.331-.953,3.9,3.9,0,0,1-.848-2.684,3.829,3.829,0,0,1,.926-2.662,2.97,2.97,0,0,1,2.3-1.029,2.63,2.63,0,0,1,2.126.889,3.705,3.705,0,0,1,.752,2.467Zm-1.148-.95a2.288,2.288,0,0,0-.468-1.511,1.6,1.6,0,0,0-1.282-.54,1.81,1.81,0,0,0-1.347.568,2.575,2.575,0,0,0-.683,1.483Z" fill="#2f2f2f"/>
      <path d="M268.742,216.236a1.365,1.365,0,0,0-.847-.226,1.428,1.428,0,0,0-1.2.677,3.116,3.116,0,0,0-.483,1.846V222.1h-1.121v-7h1.121v1.442h.027a2.444,2.444,0,0,1,.732-1.151,1.666,1.666,0,0,1,1.1-.414,1.824,1.824,0,0,1,.67.1Z" fill="#2f2f2f"/>
    </g>
    <g>
      <path d="M250.989,272.771l-2.768,9.8h-1.347l-2.016-7.164a4.5,4.5,0,0,1-.158-1h-.027a5.022,5.022,0,0,1-.178.984l-2.03,7.178h-1.333l-2.871-9.8h1.265l2.085,7.52a4.994,4.994,0,0,1,.164.984h.034a5.8,5.8,0,0,1,.212-.984l2.167-7.52h1.1l2.078,7.575a5.369,5.369,0,0,1,.164.916h.028a5.544,5.544,0,0,1,.184-.944l2-7.547Z" fill="#2f2f2f"/>
      <path d="M257.5,279.354h-4.942a2.612,2.612,0,0,0,.629,1.805,2.167,2.167,0,0,0,1.654.636,3.444,3.444,0,0,0,2.174-.779v1.052a4.061,4.061,0,0,1-2.441.67,2.962,2.962,0,0,1-2.331-.953,3.905,3.905,0,0,1-.847-2.683,3.825,3.825,0,0,1,.926-2.663,2.97,2.97,0,0,1,2.3-1.029,2.633,2.633,0,0,1,2.126.889,3.706,3.706,0,0,1,.752,2.468Zm-1.148-.95a2.283,2.283,0,0,0-.468-1.51,1.6,1.6,0,0,0-1.282-.54,1.809,1.809,0,0,0-1.347.567,2.569,2.569,0,0,0-.683,1.483Z" fill="#2f2f2f"/>
      <path d="M260.328,281.562H260.3v1.012H259.18V272.211H260.3v4.594h.027a2.652,2.652,0,0,1,2.42-1.395,2.571,2.571,0,0,1,2.11.94,3.887,3.887,0,0,1,.761,2.519,4.341,4.341,0,0,1-.854,2.813,2.844,2.844,0,0,1-2.338,1.056A2.3,2.3,0,0,1,260.328,281.562Zm-.027-2.823v.978a2.077,2.077,0,0,0,.564,1.473,2.012,2.012,0,0,0,3.028-.174,3.57,3.57,0,0,0,.578-2.167,2.819,2.819,0,0,0-.54-1.832,1.788,1.788,0,0,0-1.463-.663,1.984,1.984,0,0,0-1.572.68A2.494,2.494,0,0,0,260.3,278.739Z" fill="#2f2f2f"/>
      <path d="M272.58,282.574h-5.086v-9.8h1.149v8.764h3.937Z" fill="#2f2f2f"/>
      <path d="M276.766,282.738a3.251,3.251,0,0,1-2.479-.981,3.633,3.633,0,0,1-.925-2.6,3.787,3.787,0,0,1,.963-2.755,3.47,3.47,0,0,1,2.605-.991,3.135,3.135,0,0,1,2.443.964,3.822,3.822,0,0,1,.879,2.673,3.756,3.756,0,0,1-.947,2.683A3.318,3.318,0,0,1,276.766,282.738Zm.082-6.384a2.134,2.134,0,0,0-1.709.734,3.021,3.021,0,0,0-.629,2.027,2.852,2.852,0,0,0,.636,1.962,2.159,2.159,0,0,0,1.7.718,2.055,2.055,0,0,0,1.672-.7,3.064,3.064,0,0,0,.584-2,3.121,3.121,0,0,0-.584-2.024A2.044,2.044,0,0,0,276.848,276.354Z" fill="#2f2f2f"/>
      <path d="M288.007,282.014q0,3.855-3.691,3.855a4.959,4.959,0,0,1-2.27-.492v-1.121a4.664,4.664,0,0,0,2.256.656q2.584,0,2.584-2.748V281.4h-.027a2.832,2.832,0,0,1-4.508.407,3.729,3.729,0,0,1-.8-2.5,4.363,4.363,0,0,1,.857-2.837,2.869,2.869,0,0,1,2.349-1.053,2.284,2.284,0,0,1,2.1,1.135h.027v-.971h1.121Zm-1.121-2.605v-1.032a2,2,0,0,0-.565-1.429,1.854,1.854,0,0,0-1.4-.594,1.946,1.946,0,0,0-1.627.755,3.377,3.377,0,0,0-.588,2.116,2.887,2.887,0,0,0,.565,1.869,1.817,1.817,0,0,0,1.493.7,1.947,1.947,0,0,0,1.534-.67A2.5,2.5,0,0,0,286.886,279.409Z" fill="#2f2f2f"/>
      <path d="M290.7,273.8a.708.708,0,0,1-.512-.205.69.69,0,0,1-.212-.52.717.717,0,0,1,.724-.731.727.727,0,0,1,.524.208.731.731,0,0,1,0,1.036A.722.722,0,0,1,290.7,273.8Zm.547,8.777h-1.121v-7h1.121Z" fill="#2f2f2f"/>
      <path d="M298.155,282.253a3.637,3.637,0,0,1-1.914.485,3.166,3.166,0,0,1-2.416-.974,3.529,3.529,0,0,1-.92-2.526,3.882,3.882,0,0,1,.992-2.779,3.47,3.47,0,0,1,2.645-1.049,3.683,3.683,0,0,1,1.627.342V276.9a2.851,2.851,0,0,0-1.668-.546,2.25,2.25,0,0,0-1.76.769,2.912,2.912,0,0,0-.687,2.02,2.777,2.777,0,0,0,.646,1.941,2.225,2.225,0,0,0,1.733.711,2.813,2.813,0,0,0,1.722-.608Z" fill="#2f2f2f"/>
    </g>
    <g>
      <path d="M300.706,214.4l-3.631,9.8h-1.263l-3.555-9.8h1.277l2.715,7.772a4.544,4.544,0,0,1,.2.869h.028a4.213,4.213,0,0,1,.226-.882l2.768-7.759Z" fill="#2f2f2f"/>
      <path d="M312.032,224.2h-1.14v-6.576q0-.78.1-1.908h-.028a5.921,5.921,0,0,1-.295.951l-3.349,7.533h-.561l-3.342-7.479a6.088,6.088,0,0,1-.3-1h-.027q.055.588.055,1.921V224.2h-1.108v-9.8h1.518l3.008,6.836a8.88,8.88,0,0,1,.451,1.176h.041c.2-.538.353-.939.473-1.2L310.6,214.4h1.435Z" fill="#2f2f2f"/>
    </g>
    <g>
      <path d="M364.332,205.3h-1.141v-6.576q0-.779.1-1.907h-.027a5.994,5.994,0,0,1-.294.95l-3.35,7.533h-.56l-3.343-7.478a5.913,5.913,0,0,1-.294-1h-.027q.054.588.055,1.921V205.3h-1.108v-9.8h1.518l3.007,6.835a8.777,8.777,0,0,1,.452,1.176h.041c.2-.537.353-.939.471-1.2l3.07-6.808h1.435Z" fill="#2f2f2f"/>
      <path d="M371.647,205.3h-1.121v-1.093H370.5a2.346,2.346,0,0,1-2.153,1.257,2.3,2.3,0,0,1-1.637-.553,1.921,1.921,0,0,1-.592-1.47q0-1.962,2.311-2.283l2.1-.294q0-1.785-1.443-1.784a3.446,3.446,0,0,0-2.283.861v-1.149a4.342,4.342,0,0,1,2.379-.656q2.468,0,2.468,2.612Zm-1.121-3.541-1.689.233a2.73,2.73,0,0,0-1.176.386,1.114,1.114,0,0,0-.4.981,1.069,1.069,0,0,0,.365.837,1.413,1.413,0,0,0,.975.325,1.8,1.8,0,0,0,1.377-.584,2.086,2.086,0,0,0,.544-1.48Z" fill="#2f2f2f"/>
      <path d="M379.479,205.3h-1.121v-3.992q0-2.229-1.627-2.228a1.764,1.764,0,0,0-1.391.632,2.343,2.343,0,0,0-.551,1.6V205.3h-1.121v-7h1.121v1.162h.028a2.525,2.525,0,0,1,2.3-1.326,2.139,2.139,0,0,1,1.757.742,3.3,3.3,0,0,1,.609,2.143Z" fill="#2f2f2f"/>
      <path d="M386.51,205.3h-1.121v-1.093h-.027a2.349,2.349,0,0,1-2.154,1.257,2.3,2.3,0,0,1-1.637-.553,1.92,1.92,0,0,1-.591-1.47q0-1.962,2.31-2.283l2.1-.294q0-1.785-1.443-1.784a3.448,3.448,0,0,0-2.283.861v-1.149a4.346,4.346,0,0,1,2.379-.656q2.469,0,2.468,2.612Zm-1.121-3.541-1.689.233a2.721,2.721,0,0,0-1.175.386,1.112,1.112,0,0,0-.4.981,1.069,1.069,0,0,0,.365.837,1.416,1.416,0,0,0,.975.325,1.8,1.8,0,0,0,1.377-.584,2.086,2.086,0,0,0,.544-1.48Z" fill="#2f2f2f"/>
      <path d="M394.579,204.741q0,3.855-3.691,3.855a4.962,4.962,0,0,1-2.27-.492v-1.121a4.664,4.664,0,0,0,2.256.656q2.584,0,2.584-2.748v-.766h-.027a2.832,2.832,0,0,1-4.508.407,3.729,3.729,0,0,1-.8-2.505,4.357,4.357,0,0,1,.858-2.837,2.866,2.866,0,0,1,2.348-1.053,2.283,2.283,0,0,1,2.1,1.135h.027V198.3h1.121Zm-1.121-2.605V201.1a2,2,0,0,0-.564-1.429,1.856,1.856,0,0,0-1.405-.594,1.946,1.946,0,0,0-1.626.755,3.371,3.371,0,0,0-.588,2.116,2.887,2.887,0,0,0,.564,1.869,1.817,1.817,0,0,0,1.493.7,1.947,1.947,0,0,0,1.534-.67A2.5,2.5,0,0,0,393.458,202.136Z" fill="#2f2f2f"/>
      <path d="M402.4,202.082h-4.943a2.621,2.621,0,0,0,.629,1.8,2.167,2.167,0,0,0,1.654.636,3.444,3.444,0,0,0,2.174-.779V204.8a4.058,4.058,0,0,1-2.44.67,2.96,2.96,0,0,1-2.331-.953,3.9,3.9,0,0,1-.848-2.683,3.83,3.83,0,0,1,.926-2.663,2.972,2.972,0,0,1,2.3-1.029,2.633,2.633,0,0,1,2.126.889,3.706,3.706,0,0,1,.752,2.468Zm-1.149-.951a2.283,2.283,0,0,0-.468-1.51,1.6,1.6,0,0,0-1.282-.54,1.815,1.815,0,0,0-1.347.567,2.578,2.578,0,0,0-.683,1.483Z" fill="#2f2f2f"/>
      <path d="M410.132,205.3h-1.121v-1.189h-.027a2.826,2.826,0,0,1-4.516.413,3.862,3.862,0,0,1-.789-2.56,4.2,4.2,0,0,1,.875-2.782,2.886,2.886,0,0,1,2.331-1.046,2.246,2.246,0,0,1,2.1,1.135h.027v-4.334h1.121Zm-1.121-3.165V201.1a2,2,0,0,0-.561-1.436,1.878,1.878,0,0,0-1.421-.587,1.935,1.935,0,0,0-1.614.752,3.3,3.3,0,0,0-.588,2.078,2.957,2.957,0,0,0,.565,1.91,1.838,1.838,0,0,0,1.513.7,1.92,1.92,0,0,0,1.522-.677A2.524,2.524,0,0,0,409.011,202.136Z" fill="#2f2f2f"/>
      <path d="M364.206,221.848v-1.2a3.32,3.32,0,0,0,2.017.677q1.476,0,1.476-.985a.856.856,0,0,0-.126-.475,1.283,1.283,0,0,0-.341-.345,2.727,2.727,0,0,0-.506-.27c-.195-.08-.4-.163-.626-.249a8.265,8.265,0,0,1-.818-.373,2.49,2.49,0,0,1-.587-.424,1.586,1.586,0,0,1-.356-.536,1.921,1.921,0,0,1-.119-.7,1.665,1.665,0,0,1,.226-.871,1.992,1.992,0,0,1,.6-.636,2.785,2.785,0,0,1,.858-.386,3.788,3.788,0,0,1,1-.13,4.029,4.029,0,0,1,1.627.314v1.135a3.175,3.175,0,0,0-1.778-.506,2.069,2.069,0,0,0-.567.072,1.387,1.387,0,0,0-.435.2.916.916,0,0,0-.279.311.819.819,0,0,0-.1.4.961.961,0,0,0,.1.458.993.993,0,0,0,.29.328,2.225,2.225,0,0,0,.465.26c.182.077.39.161.622.253a8.711,8.711,0,0,1,.834.365,2.891,2.891,0,0,1,.629.424,1.668,1.668,0,0,1,.4.544,1.756,1.756,0,0,1,.14.731,1.712,1.712,0,0,1-.23.9,1.942,1.942,0,0,1-.611.636,2.789,2.789,0,0,1-.882.376,4.356,4.356,0,0,1-1.046.123A3.975,3.975,0,0,1,364.206,221.848Z" fill="#2f2f2f"/>
      <path d="M376.161,218.881h-4.942a2.617,2.617,0,0,0,.629,1.805,2.167,2.167,0,0,0,1.654.636,3.439,3.439,0,0,0,2.174-.78V221.6a4.06,4.06,0,0,1-2.44.67,2.962,2.962,0,0,1-2.332-.953,3.906,3.906,0,0,1-.847-2.684,3.824,3.824,0,0,1,.926-2.662,2.97,2.97,0,0,1,2.3-1.029,2.63,2.63,0,0,1,2.126.889,3.705,3.705,0,0,1,.752,2.467Zm-1.148-.95a2.288,2.288,0,0,0-.468-1.511,1.6,1.6,0,0,0-1.282-.54,1.81,1.81,0,0,0-1.347.568,2.575,2.575,0,0,0-.683,1.483Z" fill="#2f2f2f"/>
      <path d="M381.494,216.236a1.365,1.365,0,0,0-.847-.226,1.431,1.431,0,0,0-1.2.677,3.123,3.123,0,0,0-.482,1.846V222.1h-1.121v-7h1.121v1.442h.027a2.444,2.444,0,0,1,.732-1.151,1.666,1.666,0,0,1,1.1-.414,1.824,1.824,0,0,1,.67.1Z" fill="#2f2f2f"/>
      <path d="M388.768,215.1l-2.789,7h-1.1l-2.652-7h1.23l1.778,5.086a4.711,4.711,0,0,1,.246.978h.027a4.6,4.6,0,0,1,.219-.951l1.859-5.113Z" fill="#2f2f2f"/>
      <path d="M395.408,218.881h-4.942a2.622,2.622,0,0,0,.629,1.805,2.167,2.167,0,0,0,1.654.636,3.439,3.439,0,0,0,2.174-.78V221.6a4.06,4.06,0,0,1-2.44.67,2.959,2.959,0,0,1-2.331-.953,3.9,3.9,0,0,1-.848-2.684,3.829,3.829,0,0,1,.926-2.662,2.97,2.97,0,0,1,2.3-1.029,2.63,2.63,0,0,1,2.126.889,3.705,3.705,0,0,1,.752,2.467Zm-1.148-.95a2.288,2.288,0,0,0-.468-1.511,1.6,1.6,0,0,0-1.282-.54,1.81,1.81,0,0,0-1.347.568,2.575,2.575,0,0,0-.683,1.483Z" fill="#2f2f2f"/>
      <path d="M400.742,216.236a1.365,1.365,0,0,0-.847-.226,1.428,1.428,0,0,0-1.2.677,3.116,3.116,0,0,0-.483,1.846V222.1h-1.121v-7h1.121v1.442h.027a2.444,2.444,0,0,1,.732-1.151,1.666,1.666,0,0,1,1.1-.414,1.824,1.824,0,0,1,.67.1Z" fill="#2f2f2f"/>
    </g>
    <g>
      <path d="M382.989,272.771l-2.768,9.8h-1.347l-2.016-7.164a4.5,4.5,0,0,1-.158-1h-.027a5.022,5.022,0,0,1-.178.984l-2.03,7.178h-1.333l-2.871-9.8h1.265l2.085,7.52a4.994,4.994,0,0,1,.164.984h.034a5.8,5.8,0,0,1,.212-.984l2.167-7.52h1.1l2.078,7.575a5.369,5.369,0,0,1,.164.916h.028a5.544,5.544,0,0,1,.184-.944l2-7.547Z" fill="#2f2f2f"/>
      <path d="M389.5,279.354h-4.942a2.612,2.612,0,0,0,.629,1.805,2.167,2.167,0,0,0,1.654.636,3.444,3.444,0,0,0,2.174-.779v1.052a4.061,4.061,0,0,1-2.441.67,2.962,2.962,0,0,1-2.331-.953,3.905,3.905,0,0,1-.847-2.683,3.825,3.825,0,0,1,.926-2.663,2.97,2.97,0,0,1,2.3-1.029,2.633,2.633,0,0,1,2.126.889,3.706,3.706,0,0,1,.752,2.468Zm-1.148-.95a2.283,2.283,0,0,0-.468-1.51,1.6,1.6,0,0,0-1.282-.54,1.809,1.809,0,0,0-1.347.567,2.569,2.569,0,0,0-.683,1.483Z" fill="#2f2f2f"/>
      <path d="M392.328,281.562H392.3v1.012H391.18V272.211H392.3v4.594h.027a2.652,2.652,0,0,1,2.42-1.395,2.571,2.571,0,0,1,2.11.94,3.887,3.887,0,0,1,.761,2.519,4.341,4.341,0,0,1-.854,2.813,2.844,2.844,0,0,1-2.338,1.056A2.3,2.3,0,0,1,392.328,281.562Zm-.027-2.823v.978a2.077,2.077,0,0,0,.564,1.473,2.012,2.012,0,0,0,3.028-.174,3.57,3.57,0,0,0,.578-2.167,2.819,2.819,0,0,0-.54-1.832,1.788,1.788,0,0,0-1.463-.663,1.984,1.984,0,0,0-1.572.68A2.494,2.494,0,0,0,392.3,278.739Z" fill="#2f2f2f"/>
      <path d="M404.58,282.574h-5.086v-9.8h1.149v8.764h3.937Z" fill="#2f2f2f"/>
      <path d="M408.766,282.738a3.251,3.251,0,0,1-2.479-.981,3.633,3.633,0,0,1-.925-2.6,3.787,3.787,0,0,1,.963-2.755,3.47,3.47,0,0,1,2.605-.991,3.135,3.135,0,0,1,2.443.964,3.822,3.822,0,0,1,.879,2.673,3.756,3.756,0,0,1-.947,2.683A3.318,3.318,0,0,1,408.766,282.738Zm.082-6.384a2.134,2.134,0,0,0-1.709.734,3.021,3.021,0,0,0-.629,2.027,2.852,2.852,0,0,0,.636,1.962,2.159,2.159,0,0,0,1.7.718,2.055,2.055,0,0,0,1.672-.7,3.064,3.064,0,0,0,.584-2,3.121,3.121,0,0,0-.584-2.024A2.044,2.044,0,0,0,408.848,276.354Z" fill="#2f2f2f"/>
      <path d="M420.007,282.014q0,3.855-3.691,3.855a4.959,4.959,0,0,1-2.27-.492v-1.121a4.664,4.664,0,0,0,2.256.656q2.584,0,2.584-2.748V281.4h-.027a2.832,2.832,0,0,1-4.508.407,3.729,3.729,0,0,1-.8-2.5,4.363,4.363,0,0,1,.857-2.837,2.869,2.869,0,0,1,2.349-1.053,2.284,2.284,0,0,1,2.1,1.135h.027v-.971h1.121Zm-1.121-2.605v-1.032a2,2,0,0,0-.565-1.429,1.854,1.854,0,0,0-1.4-.594,1.946,1.946,0,0,0-1.627.755,3.377,3.377,0,0,0-.588,2.116,2.887,2.887,0,0,0,.565,1.869,1.817,1.817,0,0,0,1.493.7,1.947,1.947,0,0,0,1.534-.67A2.5,2.5,0,0,0,418.886,279.409Z" fill="#2f2f2f"/>
      <path d="M422.7,273.8a.708.708,0,0,1-.512-.205.69.69,0,0,1-.212-.52.717.717,0,0,1,.724-.731.727.727,0,0,1,.524.208.731.731,0,0,1,0,1.036A.722.722,0,0,1,422.7,273.8Zm.547,8.777h-1.121v-7h1.121Z" fill="#2f2f2f"/>
      <path d="M430.155,282.253a3.637,3.637,0,0,1-1.914.485,3.166,3.166,0,0,1-2.416-.974,3.529,3.529,0,0,1-.92-2.526,3.882,3.882,0,0,1,.992-2.779,3.47,3.47,0,0,1,2.645-1.049,3.683,3.683,0,0,1,1.627.342V276.9a2.851,2.851,0,0,0-1.668-.546,2.25,2.25,0,0,0-1.76.769,2.912,2.912,0,0,0-.687,2.02,2.777,2.777,0,0,0,.646,1.941,2.225,2.225,0,0,0,1.733.711,2.813,2.813,0,0,0,1.722-.608Z" fill="#2f2f2f"/>
    </g>
    <g>
      <path d="M432.706,214.4l-3.63,9.8h-1.264l-3.555-9.8h1.278l2.714,7.772a4.54,4.54,0,0,1,.2.869h.028a4.207,4.207,0,0,1,.225-.882l2.769-7.759Z" fill="#2f2f2f"/>
      <path d="M444.033,224.2h-1.141v-6.576q0-.78.1-1.908h-.028a6.05,6.05,0,0,1-.294.951l-3.349,7.533h-.561l-3.343-7.479a6.008,6.008,0,0,1-.294-1h-.027q.054.588.055,1.921V224.2h-1.108v-9.8h1.518l3.008,6.836a8.88,8.88,0,0,1,.451,1.176h.041q.294-.807.472-1.2L442.6,214.4h1.435Z" fill="#2f2f2f"/>
    </g>
  </g>
</svg>
