<svg xmlns="http://www.w3.org/2000/svg" xmlns:xlink="http://www.w3.org/1999/xlink" viewBox="0 0 717.2 532.4"><defs><linearGradient id="linear-gradient" x1="359.67" x2="359.67" y1="1333.54" y2="1355.2" gradientTransform="matrix(1, 0, 0, -1, 0, 1533.2)" gradientUnits="userSpaceOnUse"><stop offset="0" stop-color="#f78d20"/><stop offset=".44" stop-color="#f79220"/><stop offset=".85" stop-color="#f99d1f"/><stop offset="1" stop-color="#faa21f"/></linearGradient><linearGradient id="linear-gradient-2" x1="273.63" x2="273.63" y1="1507.14" y2="1528.8" xlink:href="#linear-gradient"/><radialGradient id="radial-gradient" cx="625.9" cy="1320.6" r="25" gradientTransform="matrix(1, 0, 0, -1, 0, 1533.2)" gradientUnits="userSpaceOnUse"><stop offset=".18" stop-color="#699cd3"/><stop offset=".56" stop-color="#669cd3"/><stop offset=".69" stop-color="#6198d1"/><stop offset=".78" stop-color="#5793ce"/><stop offset=".86" stop-color="#4a8cca"/><stop offset=".93" stop-color="#3b83c5"/><stop offset=".99" stop-color="#3078be"/><stop offset="1" stop-color="#2e76bc"/></radialGradient><radialGradient id="radial-gradient-2" cx="705" cy="1160.45" r="29.06" gradientTransform="matrix(0.94, 0, 0, -0.94, -40.03, 1300.2)" gradientUnits="userSpaceOnUse"><stop offset=".27" stop-color="#fed70a"/><stop offset=".49" stop-color="#ffcc12"/><stop offset=".88" stop-color="#fbac1d"/><stop offset="1" stop-color="#f9a120"/></radialGradient><linearGradient id="linear-gradient-3" x1="328.85" x2="328.85" y1="76.43" y2="50.03" gradientUnits="userSpaceOnUse"><stop offset="0" stop-color="#f9a120"/><stop offset=".17" stop-color="#fcb119"/><stop offset=".46" stop-color="#ffc716"/><stop offset=".73" stop-color="#fed30f"/><stop offset="1" stop-color="#fed70a"/></linearGradient><linearGradient id="linear-gradient-4" x1="111.82" x2="111.82" y1="1227.56" y2="1249.22" xlink:href="#linear-gradient"/><linearGradient id="linear-gradient-5" x1="84.7" x2="84.7" y1="344.31" y2="317.91" xlink:href="#linear-gradient-3"/><linearGradient id="linear-gradient-6" x1="394.98" x2="394.98" y1="167.98" y2="141.58" xlink:href="#linear-gradient-3"/><linearGradient id="Grey_Gradient_2" x1="207.26" x2="207.26" y1="412.6" y2="526.6" data-name="Grey Gradient 2" gradientUnits="userSpaceOnUse"><stop offset="0" stop-color="#b3b2b3"/><stop offset=".38" stop-color="#afaeaf"/><stop offset=".76" stop-color="#a2a2a2"/><stop offset="1" stop-color="#979797"/></linearGradient><linearGradient id="linear-gradient-7" x1="506.15" x2="506.15" y1="1296.74" y2="1318.4" xlink:href="#linear-gradient"/><linearGradient id="linear-gradient-8" x1="207.26" x2="207.26" y1="1073.6" y2="1023.6" gradientTransform="matrix(1, 0, 0, -1, 0, 1533.2)" gradientUnits="userSpaceOnUse"><stop offset="0" stop-color="#b3b2b4"/><stop offset=".38" stop-color="#b0aeaf"/><stop offset=".76" stop-color="#a2a1a1"/><stop offset="1" stop-color="#979797"/></linearGradient></defs><g id="Shapes"><rect width="717.2" height="532.4" fill="#fff"/><g><rect width="210.75" height="131.75" x="101.89" y="136.73" fill="#fff"/><rect width="210.75" height="131.75" x="101.89" y="136.73" fill="#83b9f9" opacity=".15"/><path fill="#83b9f9" d="M312.51,136.85v131.5H102V136.85h210.5m.25-.25h-211v132h211v-132Z"/></g><g><rect width="171.75" height="131.75" x="539.92" y="136.73" fill="#fff"/><rect width="171.75" height="131.75" x="539.92" y="136.73" fill="#83b9f9" opacity=".15"/><path fill="#83b9f9" d="M711.55,136.85v131.5H540.05V136.85h171.5m.25-.25h-172v132h172v-132Z"/></g><g><path fill="#6db33f" d="M170.08,160a15.3,15.3,0,0,1-1.93,3.37,18,18,0,0,0-25.85,25,6.13,6.13,0,0,0,.74.7l.67.6a18,18,0,0,0,29.49-12.46C173.72,172.7,172.34,166.91,170.08,160Zm-24.44,29.22a1.53,1.53,0,1,1-.22-2.15A1.56,1.56,0,0,1,145.64,189.24ZM170,183.86c-4.41,5.9-13.91,3.9-19.95,4.19,0,0-1.08.08-2.15.23,0,0,.4-.19.92-.37,4.27-1.49,6.27-1.79,8.87-3.12,4.85-2.49,9.71-7.94,10.68-13.57-1.86,5.41-7.49,10.08-12.61,12a87.56,87.56,0,0,1-9.87,2.55l-.26-.14c-4.3-2.12-4.45-11.46,3.41-14.47,3.45-1.33,6.72-.59,10.46-1.48,4-.93,8.57-3.9,10.43-7.79C172,168.14,174.49,177.85,170,183.86Z"/><path fill="#6db33f" d="M183.4,183a1.5,1.5,0,0,1-.75-1.37,1.62,1.62,0,0,1,1.6-1.63h0a1.71,1.71,0,0,1,.85.22,9.35,9.35,0,0,0,5,1.67c1.7,0,2.7-.74,2.7-1.89v-.08c0-1.37-1.85-1.81-3.89-2.44-2.56-.75-5.45-1.78-5.45-5.12v-.08c0-3.3,2.74-5.3,6.19-5.3a12.36,12.36,0,0,1,5.49,1.41,1.68,1.68,0,0,1,1,1.52,1.64,1.64,0,0,1-1.63,1.63h0a2,2,0,0,1-.77-.18,9.22,9.22,0,0,0-4.08-1.19c-1.56,0-2.45.74-2.45,1.71v.07c0,1.3,1.89,1.82,3.93,2.49,2.56.77,5.41,2,5.41,5.08v.07c0,3.67-2.85,5.49-6.45,5.49A12.19,12.19,0,0,1,183.4,183Z"/><path fill="#6db33f" d="M198,169a2,2,0,0,1,1.93-2h0a2,2,0,0,1,2,2h0v1.19a7,7,0,0,1,5.93-3.27c4.08,0,8.09,3.23,8.09,9.05V176c0,5.78-4,9.05-8.09,9.05A7.09,7.09,0,0,1,202,182v6.15a2,2,0,0,1-2,2h0a2,2,0,0,1-2-2V169Zm14,7V176c0-3.37-2.26-5.56-5-5.56a5.25,5.25,0,0,0-5.08,5.56V176A5.24,5.24,0,0,0,207,181.6C209.73,181.6,212,179.49,212,176Z"/><path fill="#6db33f" d="M217.55,169a2,2,0,0,1,1.93-2h0a2,2,0,0,1,2,2h0v1c.19-1.48,2.63-3,4.38-3a1.82,1.82,0,0,1,2,1.67V169a1.91,1.91,0,0,1-1.59,1.93c-2.86.48-4.79,3-4.79,6.42v5.75a2,2,0,0,1-4,0v0l0-14.06Z"/><path fill="#6db33f" d="M229.46,169a2,2,0,0,1,1.93-2h0a2,2,0,0,1,2,2h0v14.05a2,2,0,0,1-4,0Z"/><path fill="#6db33f" d="M235.47,169a2,2,0,0,1,1.93-2h0a2,2,0,0,1,2,2h0v.81a6.22,6.22,0,0,1,5.46-2.85c3.93,0,6.19,2.63,6.19,6.67v9.39a1.91,1.91,0,0,1-1.89,2h-.08a2,2,0,0,1-2-1.93v-8.19c0-2.71-1.33-4.27-3.74-4.27s-3.94,1.63-3.94,4.34v8.12a2,2,0,1,1-4,0l0-14.05Z"/><path fill="#6db33f" d="M268.66,167a2,2,0,0,0-2,2h0v1.19a7,7,0,0,0-5.94-3.26c-4.08,0-8.08,3.22-8.08,9.05V176c0,5.79,4,9.05,8.08,9.05a7.18,7.18,0,0,0,5.94-3c-.19,3.15-2.12,4.78-5.49,4.78a10.75,10.75,0,0,1-5.34-1.37,1.54,1.54,0,0,0-.71-.15,1.66,1.66,0,0,0-.59,3.23,15.22,15.22,0,0,0,6.75,1.56c3.15,0,5.6-.75,7.16-2.34s2.22-3.63,2.22-6.56V169a2,2,0,0,0-2-2Zm-7,14.65c-2.74,0-5-2.15-5-5.6v-.07c0-3.38,2.26-5.57,5-5.57a5.26,5.26,0,0,1,5.08,5.57V176A5.22,5.22,0,0,1,261.65,181.6Z"/><path fill="#6db33f" d="M233.46,162.2a2,2,0,1,1-2-2h0a2,2,0,0,1,2,1.93Z"/><path fill="#6db33f" d="M275.22,171.14a2,2,0,1,1,2-2A2.06,2.06,0,0,1,275.22,171.14Zm0-3.78A1.74,1.74,0,1,0,277,169.1a1.71,1.71,0,0,0-1.71-1.74Zm.56,2.89-.59-.93h-.41v.93h-.33v-2.34h1a.75.75,0,0,1,.78.71h0a.74.74,0,0,1-.59.7l.63.93Zm-.41-2h-.59V169h.63a.42.42,0,0,0,.41-.41.43.43,0,0,0-.45-.41Z"/><path fill="#6db33f" d="M169,187.5a18,18,0,0,0,4.19-10.31"/><path fill="#fff" d="M170,183.86c-4.41,5.9-13.91,3.9-19.95,4.19,0,0-1.08.08-2.15.23,0,0,.4-.19.92-.37,4.27-1.49,6.27-1.79,8.87-3.12,4.85-2.49,9.71-7.94,10.68-13.57-1.86,5.41-7.49,10.08-12.61,12a87.56,87.56,0,0,1-9.87,2.55l-.26-.14c-4.3-2.12-4.45-11.46,3.41-14.47,3.45-1.33,6.72-.59,10.46-1.48,4-.93,8.57-3.9,10.43-7.79C172,168.14,174.49,177.85,170,183.86Z"/><path fill="#fff" d="M145.64,189.24a1.53,1.53,0,1,1-.22-2.15A1.56,1.56,0,0,1,145.64,189.24Z"/></g><path fill="#68bd45" d="M229,228.58l-8.77-15.2A5.35,5.35,0,0,0,216,211H198.49a5.32,5.32,0,0,0-4.16,2.4l-8.77,15.2a5.28,5.28,0,0,0,0,4.8l8.77,15.2a5.32,5.32,0,0,0,4.16,2.4H216a5.35,5.35,0,0,0,4.16-2.4l8.77-15.2A5.28,5.28,0,0,0,229,228.58Zm-23.6-9.19a1.81,1.81,0,0,1,3.62,0V230.2a1.81,1.81,0,0,1-3.62,0Zm1.81,23.08a12.27,12.27,0,0,1-7.32-22.12,1.61,1.61,0,1,1,1.92,2.58,9.05,9.05,0,1,0,14.45,7.27,9.09,9.09,0,0,0-3.69-7.29,1.61,1.61,0,0,1,1.91-2.59,12.27,12.27,0,0,1-7.27,22.15Z"/><g><rect width="30.58" height="21.66" x="344.38" y="178" fill="url(#linear-gradient)" rx="1.02"/><rect width="27.01" height="17.84" x="346.16" y="179.9" fill="#fff" rx=".51"/><path id="bcc3d4fb-2f67-48ef-b6e7-f3c11ba0061b" fill="#d05b27" d="M369.76,192.57a.5.5,0,0,1-.48.5h-11a.5.5,0,0,1,0-1h11a.48.48,0,0,1,.48.48h0"/><path id="e696babd-447d-4e2b-bc61-f978fd3ed1bc" fill="#d05b27" d="M369.76,189.52a.5.5,0,0,1-.48.49h-11a.5.5,0,0,1,0-1h11a.49.49,0,0,1,.48.48v0"/><path id="b5d2bd6a-dd0a-43be-bfa5-16266f75812c" fill="#d05b27" d="M369.76,185.08a.49.49,0,0,1-.46.5H350.78a.5.5,0,0,1,0-1h18.5a.48.48,0,0,1,.48.48h0"/><path id="aad840c2-43d5-415e-a865-328ca9d53f36" fill="#b32025" d="M353.09,198.26a4.26,4.26,0,0,1-5.72,0l-.36,7.12a.56.56,0,0,0,.52.6.55.55,0,0,0,.45-.17l2.21-2.25,2.22,2.26a.56.56,0,0,0,.79,0,.55.55,0,0,0,.18-.43Z"/><ellipse id="beae3214-3e24-4a7c-af86-a4353a2d1797" cx="350.29" cy="194.61" fill="#e52526" rx="5.11" ry="5.13"/><circle id="f1e213df-20de-4eb9-9bf3-0c6690c16a0a" cx="350.29" cy="194.61" r="3.89" fill="#fcb24f"/></g><g><rect width="30.58" height="21.66" x="258.34" y="4.4" fill="url(#linear-gradient-2)" rx="1.02"/><rect width="27.01" height="17.84" x="260.13" y="6.3" fill="#fff" rx=".51"/><path id="bcc3d4fb-2f67-48ef-b6e7-f3c11ba0061b-2" fill="#d05b27" d="M283.72,19a.5.5,0,0,1-.47.5H272.2a.5.5,0,0,1,0-1h11.05a.47.47,0,0,1,.47.48h0" data-name="bcc3d4fb-2f67-48ef-b6e7-f3c11ba0061b"/><path id="e696babd-447d-4e2b-bc61-f978fd3ed1bc-2" fill="#d05b27" d="M283.72,15.92a.49.49,0,0,1-.47.49H272.2a.5.5,0,0,1,0-1h11.05a.48.48,0,0,1,.47.48v0" data-name="e696babd-447d-4e2b-bc61-f978fd3ed1bc"/><path id="b5d2bd6a-dd0a-43be-bfa5-16266f75812c-2" fill="#d05b27" d="M283.72,11.48a.47.47,0,0,1-.46.5H264.75a.5.5,0,1,1,0-1h18.5a.47.47,0,0,1,.47.48h0" data-name="b5d2bd6a-dd0a-43be-bfa5-16266f75812c"/><path id="aad840c2-43d5-415e-a865-328ca9d53f36-2" fill="#b32025" d="M267.06,24.66a4.27,4.27,0,0,1-5.73,0L261,31.78a.55.55,0,0,0,.51.6.54.54,0,0,0,.45-.17L264.15,30l2.23,2.26a.56.56,0,0,0,.79,0,.58.58,0,0,0,.18-.43Z" data-name="aad840c2-43d5-415e-a865-328ca9d53f36"/><ellipse id="beae3214-3e24-4a7c-af86-a4353a2d1797-2" cx="264.25" cy="21.01" fill="#e52526" data-name="beae3214-3e24-4a7c-af86-a4353a2d1797" rx="5.11" ry="5.13"/><circle id="f1e213df-20de-4eb9-9bf3-0c6690c16a0a-2" cx="264.25" cy="21.01" r="3.89" fill="#fcb24f" data-name="f1e213df-20de-4eb9-9bf3-0c6690c16a0a"/></g><g><path id="aacf8311-a317-400f-b613-74bd00da5ce3" fill="url(#radial-gradient)" d="M625.9,187.6a25,25,0,1,0,25,25A25,25,0,0,0,625.9,187.6Zm0,46.59a21.59,21.59,0,1,1,21.59-21.59h0A21.59,21.59,0,0,1,625.9,234.19Z"/><circle cx="625.9" cy="212.6" r="21.59" fill="#fff"/><g><path id="bd983c41-db73-40ec-a4f4-da1213fc9924" fill="url(#radial-gradient-2)" d="M639,207.69a5.41,5.41,0,0,0,0-7.62h0l-9.27-9.29a5.38,5.38,0,0,0-7.59,0h0l-9.26,9.29a5.41,5.41,0,0,0,0,7.62l7.7,7.85a1.47,1.47,0,0,1,.45,1.06V231a1.86,1.86,0,0,0,.53,1.3l3.52,3.53a1.21,1.21,0,0,0,1.71,0h0l3.41-3.42h0l2-2a.74.74,0,0,0,0-1l-1.44-1.44a.78.78,0,0,1,0-1.08l1.44-1.45a.74.74,0,0,0,0-1L630.72,223a.79.79,0,0,1,0-1.09l1.44-1.44a.74.74,0,0,0,0-1l-2-2v-.73ZM625.9,193a3,3,0,1,1-3,3.05A3,3,0,0,1,625.9,193Z"/><path id="ad2e7e44-9bfd-4775-8bf4-8ef26a544921" fill="#f7921e" d="M623.49,231.13h0a.67.67,0,0,0,1.11-.5V218.86a.7.7,0,0,0-.32-.58h0a.65.65,0,0,0-.9.18.7.7,0,0,0-.1.4v11.77A.8.8,0,0,0,623.49,231.13Z" opacity=".75" style="isolation:isolate"/><rect id="a996fbff-3936-4b24-b407-369336c143ba" width="15.21" height="1.79" x="618.49" y="203.16" fill="#f7921e" opacity=".75" rx=".82" style="isolation:isolate"/><rect id="bb12d31c-3352-4a18-87dd-a169a4a8721d" width="15.21" height="1.79" x="618.49" y="206.07" fill="#f7921e" opacity=".75" rx=".82" style="isolation:isolate"/></g></g><g><line x1="136.4" x2="136.4" y1="113" y2="131.02" fill="none" stroke="#3c3c41" stroke-miterlimit="10"/><polygon fill="#3c3c41" points="132.66 129.92 136.4 136.4 140.14 129.92 132.66 129.92"/></g><g><line x1="317.78" x2="540.06" y1="228.8" y2="228.8" fill="none" stroke="#3c3c41" stroke-miterlimit="10"/><polygon fill="#3c3c41" points="318.88 232.54 312.4 228.8 318.88 225.06 318.88 232.54"/></g><g><rect width="101.2" height="26.4" x="278.25" y="50.03" fill="#fff"/><rect width="101.2" height="26.4" x="278.25" y="50.03" fill="url(#linear-gradient-3)" opacity=".6"/></g><g><rect width="30.58" height="21.66" x="96.53" y="283.98" fill="url(#linear-gradient-4)" rx="1.02"/><rect width="27.01" height="17.84" x="98.31" y="285.88" fill="#fff" rx=".51"/><path id="bcc3d4fb-2f67-48ef-b6e7-f3c11ba0061b-3" fill="#d05b27" d="M121.91,298.55a.48.48,0,0,1-.48.49h-11a.49.49,0,0,1,0-1h11a.47.47,0,0,1,.48.47v0" data-name="bcc3d4fb-2f67-48ef-b6e7-f3c11ba0061b"/><path id="e696babd-447d-4e2b-bc61-f978fd3ed1bc-3" fill="#d05b27" d="M121.91,295.49a.5.5,0,0,1-.48.5h-11a.5.5,0,0,1,0-1h11a.47.47,0,0,1,.48.48h0" data-name="e696babd-447d-4e2b-bc61-f978fd3ed1bc"/><path id="b5d2bd6a-dd0a-43be-bfa5-16266f75812c-3" fill="#d05b27" d="M121.91,291.06a.48.48,0,0,1-.46.49H102.94a.49.49,0,1,1,0-1h18.5a.47.47,0,0,1,.48.47v0" data-name="b5d2bd6a-dd0a-43be-bfa5-16266f75812c"/><path id="aad840c2-43d5-415e-a865-328ca9d53f36-3" fill="#b32025" d="M105.25,304.24a4.27,4.27,0,0,1-5.73,0l-.36,7.12a.56.56,0,0,0,.52.6.54.54,0,0,0,.45-.18l2.21-2.24,2.23,2.26a.55.55,0,0,0,1-.41Z" data-name="aad840c2-43d5-415e-a865-328ca9d53f36"/><ellipse id="beae3214-3e24-4a7c-af86-a4353a2d1797-3" cx="102.44" cy="300.59" fill="#e52526" data-name="beae3214-3e24-4a7c-af86-a4353a2d1797" rx="5.11" ry="5.13"/><circle id="f1e213df-20de-4eb9-9bf3-0c6690c16a0a-3" cx="102.44" cy="300.59" r="3.89" fill="#fcb24f" data-name="f1e213df-20de-4eb9-9bf3-0c6690c16a0a"/></g><g><g><line x1="277.26" x2="277.26" y1="388.49" y2="406.51" fill="none" stroke="#3c3c41" stroke-miterlimit="10"/><polygon fill="#3c3c41" points="273.52 405.42 277.25 411.89 281 405.42 273.52 405.42"/></g><line x1="277.26" x2="277.26" y1="360.8" y2="268.4" fill="none" stroke="#3c3c41" stroke-miterlimit="10"/></g><g><line x1="136.4" x2="136.4" y1="411.89" y2="388.49" fill="none" stroke="#3c3c41" stroke-miterlimit="10"/><g><line x1="136.4" x2="136.4" y1="360.8" y2="273.78" fill="none" stroke="#3c3c41" stroke-miterlimit="10"/><polygon fill="#3c3c41" points="140.14 274.88 136.4 268.4 132.66 274.88 140.14 274.88"/></g></g><g><rect width="101.2" height="26.4" x="34.1" y="317.91" fill="#fff"/><rect width="101.2" height="26.4" x="34.1" y="317.91" fill="url(#linear-gradient-5)" opacity=".6"/></g><g><rect width="101.2" height="26.4" x="344.38" y="141.58" fill="#fff"/><rect width="101.2" height="26.4" x="344.38" y="141.58" fill="url(#linear-gradient-6)" opacity=".6"/></g><g><rect width="210" height="114" x="102.26" y="412.6" fill="#fff"/><rect width="210" height="114" x="102.26" y="412.6" fill="url(#Grey_Gradient_2)" opacity=".4"/><rect width="210" height="114" x="102.26" y="412.6" fill="none" stroke="#737474" stroke-width=".25"/></g><g><rect width="30.58" height="21.66" x="490.86" y="214.8" fill="url(#linear-gradient-7)" rx="1.02"/><rect width="27.01" height="17.84" x="492.65" y="216.7" fill="#fff" rx=".51"/><path id="bcc3d4fb-2f67-48ef-b6e7-f3c11ba0061b-4" fill="#d05b27" d="M516.24,229.37a.5.5,0,0,1-.47.5h-11a.5.5,0,0,1,0-1h11a.47.47,0,0,1,.47.48h0" data-name="bcc3d4fb-2f67-48ef-b6e7-f3c11ba0061b"/><path id="e696babd-447d-4e2b-bc61-f978fd3ed1bc-4" fill="#d05b27" d="M516.24,226.32a.49.49,0,0,1-.47.49h-11a.5.5,0,0,1,0-1h11a.48.48,0,0,1,.47.48v0" data-name="e696babd-447d-4e2b-bc61-f978fd3ed1bc"/><path id="b5d2bd6a-dd0a-43be-bfa5-16266f75812c-4" fill="#d05b27" d="M516.24,221.88a.47.47,0,0,1-.46.5H497.27a.5.5,0,0,1-.5-.5.49.49,0,0,1,.5-.49h18.5a.47.47,0,0,1,.47.48h0" data-name="b5d2bd6a-dd0a-43be-bfa5-16266f75812c"/><path id="aad840c2-43d5-415e-a865-328ca9d53f36-4" fill="#b32025" d="M499.58,235.06a4.27,4.27,0,0,1-5.73,0l-.35,7.12a.55.55,0,0,0,.51.6.54.54,0,0,0,.45-.17l2.21-2.25,2.23,2.26a.56.56,0,0,0,.79,0,.58.58,0,0,0,.18-.43Z" data-name="aad840c2-43d5-415e-a865-328ca9d53f36"/><ellipse id="beae3214-3e24-4a7c-af86-a4353a2d1797-4" cx="496.77" cy="231.41" fill="#e52526" data-name="beae3214-3e24-4a7c-af86-a4353a2d1797" rx="5.11" ry="5.13"/><circle id="f1e213df-20de-4eb9-9bf3-0c6690c16a0a-4" cx="496.77" cy="231.41" r="3.89" fill="#fcb24f" data-name="f1e213df-20de-4eb9-9bf3-0c6690c16a0a"/></g><g><path fill="url(#linear-gradient-8)" d="M223.5,507.9a1.81,1.81,0,0,1-1.87,1.7H192.9a1.81,1.81,0,0,1-1.87-1.7V461.3a1.81,1.81,0,0,1,1.87-1.7h28.73a1.81,1.81,0,0,1,1.87,1.7Z"/><path fill="#1e3465" d="M195.81,481a3.75,3.75,0,0,1,3.47-3.92h16.21A3.75,3.75,0,0,1,219,481h0a3.7,3.7,0,0,1-3.34,4H199.35a3.71,3.71,0,0,1-3.47-3.88Z"/><path fill="#1e3465" d="M195.81,469.41a3.71,3.71,0,0,1,3.47-3.88h16.21a3.71,3.71,0,0,1,3.47,3.88h0a3.74,3.74,0,0,1-3.47,3.91H199.35a3.74,3.74,0,0,1-3.47-3.91Z"/><circle cx="200.35" cy="469.41" r="2.6" fill="#74cfeb"/><circle cx="200.35" cy="480.98" r="2.6" fill="#74cfeb"/></g><g><line x1="312.4" x2="534.68" y1="168.69" y2="168.69" fill="none" stroke="#3c3c41" stroke-miterlimit="10"/><polygon fill="#3c3c41" points="533.59 172.43 540.06 168.69 533.59 164.95 533.59 172.43"/></g><g><line x1="277.26" x2="277.26" y1="136.4" y2="113" fill="none" stroke="#3c3c41" stroke-miterlimit="10"/><g><line x1="277.26" x2="277.26" y1="88" y2="40.01" fill="none" stroke="#3c3c41" stroke-miterlimit="10"/><polygon fill="#3c3c41" points="281 41.1 277.25 34.63 273.52 41.1 281 41.1"/></g></g></g><g id="Text"><g><path fill="#2f2f2f" d="M99.66,104.3H98.51V99.83H93.44v4.47H92.29V94.5h1.15v4.3h5.07V94.5h1.15Z"/><path fill="#2f2f2f" d="M107.87,95.54H105v8.76h-1.15V95.54h-2.82v-1h6.8Z"/><path fill="#2f2f2f" d="M115.56,95.54h-2.83v8.76h-1.15V95.54h-2.82v-1h6.8Z"/><path fill="#2f2f2f" d="M118.1,100.6v3.7H117V94.5h2.69a3.55,3.55,0,0,1,2.44.76,2.72,2.72,0,0,1,.87,2.16,3,3,0,0,1-1,2.29,3.69,3.69,0,0,1-2.6.89Zm0-5.06v4h1.2a2.66,2.66,0,0,0,1.82-.55,1.93,1.93,0,0,0,.62-1.53c0-1.3-.76-1.94-2.29-1.94Z"/><path fill="#2f2f2f" d="M124.26,103.9v-1.35a2.37,2.37,0,0,0,.56.37,4.61,4.61,0,0,0,.68.28,6.25,6.25,0,0,0,.72.17,4.06,4.06,0,0,0,.67.06,2.63,2.63,0,0,0,1.58-.39,1.33,1.33,0,0,0,.53-1.13,1.27,1.27,0,0,0-.18-.69,1.87,1.87,0,0,0-.48-.54,4.58,4.58,0,0,0-.73-.46l-.9-.47c-.35-.17-.66-.35-1-.53a3.64,3.64,0,0,1-.77-.59,2.45,2.45,0,0,1-.52-.72,2.45,2.45,0,0,1,.11-2.12,2.42,2.42,0,0,1,.77-.82,3.72,3.72,0,0,1,1.09-.48,5.22,5.22,0,0,1,1.25-.16,4.81,4.81,0,0,1,2.11.35V96a3.77,3.77,0,0,0-2.23-.61,3.82,3.82,0,0,0-.75.08,2,2,0,0,0-.67.26,1.41,1.41,0,0,0-.48.46,1.21,1.21,0,0,0-.19.68,1.33,1.33,0,0,0,.15.65,1.59,1.59,0,0,0,.41.5,4.32,4.32,0,0,0,.67.44l.9.46c.35.17.68.36,1,.55a4.89,4.89,0,0,1,.83.63,3,3,0,0,1,.56.78,2.13,2.13,0,0,1,.21,1,2.53,2.53,0,0,1-.28,1.22,2.33,2.33,0,0,1-.77.82,3.46,3.46,0,0,1-1.11.46,6.31,6.31,0,0,1-1.33.14c-.15,0-.34,0-.57,0s-.46-.06-.7-.11a5.92,5.92,0,0,1-.67-.18A2,2,0,0,1,124.26,103.9Z"/><path fill="#2f2f2f" d="M139.49,98.44a1.39,1.39,0,0,0-.85-.23,1.43,1.43,0,0,0-1.2.68,3.12,3.12,0,0,0-.48,1.84v3.57h-1.12v-7H137v1.44h0a2.46,2.46,0,0,1,.73-1.15,1.69,1.69,0,0,1,1.1-.41,2,2,0,0,1,.67.09Z"/><path fill="#2f2f2f" d="M146.33,101.08h-4.94a2.66,2.66,0,0,0,.63,1.81,2.17,2.17,0,0,0,1.65.63,3.45,3.45,0,0,0,2.18-.78v1.06a4.12,4.12,0,0,1-2.44.67,3,3,0,0,1-2.34-1,3.91,3.91,0,0,1-.84-2.68,3.84,3.84,0,0,1,.92-2.66,3,3,0,0,1,2.3-1,2.61,2.61,0,0,1,2.13.89,3.69,3.69,0,0,1,.75,2.46Zm-1.15-1a2.29,2.29,0,0,0-.46-1.51,1.61,1.61,0,0,0-1.29-.54,1.79,1.79,0,0,0-1.34.57,2.59,2.59,0,0,0-.69,1.48Z"/><path fill="#2f2f2f" d="M154,107.52h-1.12V103.1h0a2.5,2.5,0,0,1-2.39,1.37,2.64,2.64,0,0,1-2.11-.94,3.79,3.79,0,0,1-.8-2.56,4.2,4.2,0,0,1,.87-2.79,2.91,2.91,0,0,1,2.36-1,2.2,2.2,0,0,1,2.07,1.13h0v-1H154Zm-1.12-6.37v-1a2,2,0,0,0-.56-1.45,1.89,1.89,0,0,0-1.43-.6,1.91,1.91,0,0,0-1.6.75,3.29,3.29,0,0,0-.59,2.11,2.86,2.86,0,0,0,.57,1.89,1.79,1.79,0,0,0,1.46.69,2,2,0,0,0,1.57-.67A2.51,2.51,0,0,0,152.91,101.15Z"/><path fill="#2f2f2f" d="M161.86,104.3h-1.12v-1.11h0a2.3,2.3,0,0,1-2.16,1.28c-1.67,0-2.5-1-2.5-3V97.3h1.11v4c0,1.47.57,2.21,1.7,2.21a1.71,1.71,0,0,0,1.35-.6,2.35,2.35,0,0,0,.53-1.59v-4h1.12Z"/><path fill="#2f2f2f" d="M169.68,101.08h-4.94a2.66,2.66,0,0,0,.63,1.81,2.17,2.17,0,0,0,1.65.63,3.42,3.42,0,0,0,2.17-.78v1.06a4.08,4.08,0,0,1-2.44.67,3,3,0,0,1-2.33-1,3.91,3.91,0,0,1-.84-2.68,3.79,3.79,0,0,1,.92-2.66,3,3,0,0,1,2.3-1,2.61,2.61,0,0,1,2.13.89,3.69,3.69,0,0,1,.75,2.46Zm-1.15-1a2.24,2.24,0,0,0-.47-1.51,1.58,1.58,0,0,0-1.28-.54,1.81,1.81,0,0,0-1.35.57,2.65,2.65,0,0,0-.68,1.48Z"/><path fill="#2f2f2f" d="M170.92,104.05v-1.2a3.31,3.31,0,0,0,2,.67c1,0,1.48-.33,1.48-1a.9.9,0,0,0-.13-.48,1.37,1.37,0,0,0-.34-.34,3.05,3.05,0,0,0-.51-.27l-.62-.25c-.31-.13-.59-.25-.82-.37a2.5,2.5,0,0,1-.59-.43,1.51,1.51,0,0,1-.36-.54,2.1,2.1,0,0,1-.11-.7,1.66,1.66,0,0,1,.22-.87,2,2,0,0,1,.6-.64,2.68,2.68,0,0,1,.86-.38,3.66,3.66,0,0,1,1-.13,4,4,0,0,1,1.62.31v1.14a3.14,3.14,0,0,0-1.77-.51,2,2,0,0,0-.57.07,1.63,1.63,0,0,0-.44.2,1,1,0,0,0-.28.31,1,1,0,0,0-.1.4.91.91,0,0,0,.39.79,2.31,2.31,0,0,0,.47.26l.62.25a7.3,7.3,0,0,1,.83.37,2.76,2.76,0,0,1,.63.42,1.53,1.53,0,0,1,.4.55,1.92,1.92,0,0,1-.09,1.63,1.87,1.87,0,0,1-.61.64,2.92,2.92,0,0,1-.88.37,4.42,4.42,0,0,1-1,.13A4,4,0,0,1,170.92,104.05Z"/><path fill="#2f2f2f" d="M180.58,104.23a2.15,2.15,0,0,1-1.05.22c-1.23,0-1.84-.68-1.84-2V98.26h-1.2v-1h1.2V95.59l1.12-.36V97.3h1.77v1h-1.77v3.94a1.65,1.65,0,0,0,.24,1,1,1,0,0,0,.79.3,1.23,1.23,0,0,0,.74-.23Z"/></g><g><path fill="#2f2f2f" d="M240.09,377.1h-1.15v-4.47h-5.07v4.47h-1.15v-9.8h1.15v4.3h5.07v-4.3h1.15Z"/><path fill="#2f2f2f" d="M248.3,368.34h-2.83v8.76h-1.15v-8.76H241.5v-1h6.8Z"/><path fill="#2f2f2f" d="M256,368.34h-2.83v8.76H252v-8.76h-2.83v-1H256Z"/><path fill="#2f2f2f" d="M258.53,373.4v3.7h-1.15v-9.8h2.69a3.57,3.57,0,0,1,2.44.76,2.72,2.72,0,0,1,.87,2.16,3,3,0,0,1-1,2.29,3.71,3.71,0,0,1-2.6.89Zm0-5.06v4h1.2a2.68,2.68,0,0,0,1.82-.55,1.93,1.93,0,0,0,.62-1.53c0-1.3-.76-1.94-2.29-1.94Z"/><path fill="#2f2f2f" d="M264.69,376.7v-1.35a2.37,2.37,0,0,0,.56.37,4.61,4.61,0,0,0,.68.28,6.25,6.25,0,0,0,.72.17,4.06,4.06,0,0,0,.67.06,2.63,2.63,0,0,0,1.58-.39,1.32,1.32,0,0,0,.52-1.13,1.26,1.26,0,0,0-.17-.69,2,2,0,0,0-.48-.54A4.58,4.58,0,0,0,268,373c-.28-.15-.58-.31-.91-.47s-.66-.35-.95-.53a3.64,3.64,0,0,1-.77-.59,2.28,2.28,0,0,1-.52-.72,2.45,2.45,0,0,1,.11-2.12,2.42,2.42,0,0,1,.77-.82,3.72,3.72,0,0,1,1.09-.48,5.22,5.22,0,0,1,1.25-.16,4.81,4.81,0,0,1,2.11.35v1.3a3.77,3.77,0,0,0-2.23-.61,3.82,3.82,0,0,0-.75.08,2,2,0,0,0-.67.26,1.41,1.41,0,0,0-.48.46,1.21,1.21,0,0,0-.19.68,1.45,1.45,0,0,0,.14.65,1.78,1.78,0,0,0,.42.5,4,4,0,0,0,.66.44l.91.46c.35.17.68.36,1,.55a4.89,4.89,0,0,1,.83.63,3,3,0,0,1,.56.78,2.13,2.13,0,0,1,.21,1,2.42,2.42,0,0,1-.29,1.22,2.22,2.22,0,0,1-.76.82,3.46,3.46,0,0,1-1.11.46,6.31,6.31,0,0,1-1.33.14c-.15,0-.34,0-.57,0s-.46-.06-.7-.11a5.92,5.92,0,0,1-.67-.18A2,2,0,0,1,264.69,376.7Z"/><path fill="#2f2f2f" d="M279.92,371.24a1.39,1.39,0,0,0-.85-.23,1.43,1.43,0,0,0-1.2.68,3.12,3.12,0,0,0-.48,1.84v3.57h-1.12v-7h1.12v1.44h0a2.46,2.46,0,0,1,.73-1.15,1.69,1.69,0,0,1,1.1-.41,2,2,0,0,1,.67.09Z"/><path fill="#2f2f2f" d="M286.76,373.88h-4.94a2.66,2.66,0,0,0,.63,1.81,2.17,2.17,0,0,0,1.65.63,3.47,3.47,0,0,0,2.18-.78v1.06a4.12,4.12,0,0,1-2.44.67,3,3,0,0,1-2.34-1,3.91,3.91,0,0,1-.84-2.68,3.84,3.84,0,0,1,.92-2.66,3,3,0,0,1,2.3-1,2.61,2.61,0,0,1,2.13.89,3.69,3.69,0,0,1,.75,2.46Zm-1.15-.95a2.24,2.24,0,0,0-.47-1.51,1.58,1.58,0,0,0-1.28-.54,1.78,1.78,0,0,0-1.34.57,2.59,2.59,0,0,0-.69,1.48Z"/><path fill="#2f2f2f" d="M294.46,380.32h-1.12V375.9h0a2.5,2.5,0,0,1-2.39,1.37,2.68,2.68,0,0,1-2.12-.94,3.84,3.84,0,0,1-.79-2.56,4.2,4.2,0,0,1,.87-2.79,2.94,2.94,0,0,1,2.36-1,2.21,2.21,0,0,1,2.07,1.13h0v-1h1.12ZM293.34,374v-1a2,2,0,0,0-.56-1.45,2,2,0,0,0-3,.15,3.29,3.29,0,0,0-.59,2.11,3,3,0,0,0,.56,1.9,1.84,1.84,0,0,0,1.47.68,2,2,0,0,0,1.57-.67A2.51,2.51,0,0,0,293.34,374Z"/><path fill="#2f2f2f" d="M302.29,377.1h-1.12V376h0a2.3,2.3,0,0,1-2.16,1.28c-1.67,0-2.5-1-2.5-3V370.1h1.11v4c0,1.47.57,2.21,1.7,2.21a1.71,1.71,0,0,0,1.35-.6,2.35,2.35,0,0,0,.53-1.59v-4h1.12Z"/><path fill="#2f2f2f" d="M310.11,373.88h-4.94a2.61,2.61,0,0,0,.63,1.81,2.17,2.17,0,0,0,1.65.63,3.42,3.42,0,0,0,2.17-.78v1.06a4.08,4.08,0,0,1-2.44.67,3,3,0,0,1-2.33-1,3.91,3.91,0,0,1-.84-2.68,3.79,3.79,0,0,1,.92-2.66,3,3,0,0,1,2.3-1,2.61,2.61,0,0,1,2.13.89,3.69,3.69,0,0,1,.75,2.46Zm-1.15-.95a2.24,2.24,0,0,0-.47-1.51,1.59,1.59,0,0,0-1.28-.54,1.81,1.81,0,0,0-1.35.57,2.65,2.65,0,0,0-.68,1.48Z"/><path fill="#2f2f2f" d="M311.35,376.85v-1.2a3.31,3.31,0,0,0,2,.67c1,0,1.47-.33,1.47-1a.9.9,0,0,0-.12-.48,1.37,1.37,0,0,0-.34-.34,3.05,3.05,0,0,0-.51-.27l-.62-.25c-.32-.13-.59-.25-.82-.37a2.5,2.5,0,0,1-.59-.43,1.51,1.51,0,0,1-.36-.54,2.09,2.09,0,0,1-.12-.7,1.66,1.66,0,0,1,.23-.87,2,2,0,0,1,.6-.64,2.68,2.68,0,0,1,.86-.38,3.64,3.64,0,0,1,1-.13,4,4,0,0,1,1.63.31v1.14a3.15,3.15,0,0,0-1.78-.51,2,2,0,0,0-.56.07,1.63,1.63,0,0,0-.44.2,1,1,0,0,0-.28.32.88.88,0,0,0-.1.4,1,1,0,0,0,.1.45,1,1,0,0,0,.29.33,2.31,2.31,0,0,0,.47.26l.62.25a7.3,7.3,0,0,1,.83.37,3.13,3.13,0,0,1,.63.42,1.53,1.53,0,0,1,.4.55,1.92,1.92,0,0,1-.09,1.63,1.87,1.87,0,0,1-.61.64,2.92,2.92,0,0,1-.88.37,4.44,4.44,0,0,1-1,.13A3.94,3.94,0,0,1,311.35,376.85Z"/><path fill="#2f2f2f" d="M321,377a2.15,2.15,0,0,1-1.05.22c-1.23,0-1.84-.68-1.84-2.05v-4.14h-1.2v-1h1.2v-1.71l1.12-.36v2.07H321v1h-1.77V375a1.65,1.65,0,0,0,.24,1,1,1,0,0,0,.79.3,1.23,1.23,0,0,0,.74-.23Z"/></g><g><path fill="#2f2f2f" d="M236,104.3H234.8V99.83h-5.07v4.47h-1.15V94.5h1.15v4.3h5.07V94.5H236Z"/><path fill="#2f2f2f" d="M244.16,95.54h-2.83v8.76h-1.15V95.54h-2.82v-1h6.8Z"/><path fill="#2f2f2f" d="M251.85,95.54H249v8.76h-1.15V95.54h-2.82v-1h6.8Z"/><path fill="#2f2f2f" d="M254.39,100.6v3.7h-1.15V94.5h2.7a3.54,3.54,0,0,1,2.43.76,2.72,2.72,0,0,1,.87,2.16,3,3,0,0,1-1,2.29,3.69,3.69,0,0,1-2.6.89Zm0-5.06v4h1.2a2.66,2.66,0,0,0,1.82-.55,1.9,1.9,0,0,0,.62-1.53c0-1.3-.76-1.94-2.29-1.94Z"/><path fill="#2f2f2f" d="M260.55,103.9v-1.35a2.37,2.37,0,0,0,.56.37,4.61,4.61,0,0,0,.68.28,6.25,6.25,0,0,0,.72.17,4.16,4.16,0,0,0,.67.06,2.61,2.61,0,0,0,1.58-.39,1.33,1.33,0,0,0,.53-1.13,1.27,1.27,0,0,0-.18-.69,1.73,1.73,0,0,0-.48-.54,4.17,4.17,0,0,0-.73-.46l-.9-.47c-.34-.17-.66-.35-1-.53a3.91,3.91,0,0,1-.77-.59,2.45,2.45,0,0,1-.52-.72,2.35,2.35,0,0,1-.19-1,2.2,2.2,0,0,1,.3-1.16,2.42,2.42,0,0,1,.77-.82,3.72,3.72,0,0,1,1.09-.48,5.22,5.22,0,0,1,1.25-.16,4.81,4.81,0,0,1,2.11.35V96a3.77,3.77,0,0,0-2.23-.61,3.82,3.82,0,0,0-.75.08,2.08,2.08,0,0,0-.67.26,1.41,1.41,0,0,0-.48.46,1.21,1.21,0,0,0-.18.68,1.33,1.33,0,0,0,.14.65,1.59,1.59,0,0,0,.41.5,4.32,4.32,0,0,0,.67.44l.9.46c.35.17.69.36,1,.55a4.52,4.52,0,0,1,.83.63,3,3,0,0,1,.56.78,2.13,2.13,0,0,1,.21,1,2.42,2.42,0,0,1-.28,1.22,2.33,2.33,0,0,1-.77.82,3.46,3.46,0,0,1-1.11.46,6.31,6.31,0,0,1-1.33.14c-.15,0-.34,0-.57,0s-.46-.06-.7-.11a6.55,6.55,0,0,1-.67-.18A2,2,0,0,1,260.55,103.9Z"/><path fill="#2f2f2f" d="M275.78,98.44a1.39,1.39,0,0,0-.85-.23,1.43,1.43,0,0,0-1.2.68,3.12,3.12,0,0,0-.48,1.84v3.57h-1.12v-7h1.12v1.44h0a2.46,2.46,0,0,1,.73-1.15,1.69,1.69,0,0,1,1.1-.41,1.92,1.92,0,0,1,.67.09Z"/><path fill="#2f2f2f" d="M282.62,101.08h-4.94a2.66,2.66,0,0,0,.63,1.81,2.17,2.17,0,0,0,1.65.63,3.45,3.45,0,0,0,2.18-.78v1.06a4.12,4.12,0,0,1-2.44.67,2.94,2.94,0,0,1-2.33-1,4.47,4.47,0,0,1,.07-5.34,3,3,0,0,1,2.31-1,2.6,2.6,0,0,1,2.12.89,3.69,3.69,0,0,1,.75,2.46Zm-1.15-1a2.29,2.29,0,0,0-.46-1.51,1.61,1.61,0,0,0-1.29-.54,1.81,1.81,0,0,0-1.34.57,2.59,2.59,0,0,0-.69,1.48Z"/><path fill="#2f2f2f" d="M283.87,104.05v-1.2a3.31,3.31,0,0,0,2,.67c1,0,1.48-.33,1.48-1a.82.82,0,0,0-.13-.48,1.22,1.22,0,0,0-.34-.34,2.43,2.43,0,0,0-.51-.27l-.62-.25c-.31-.13-.58-.25-.82-.37a2.72,2.72,0,0,1-.59-.43,1.62,1.62,0,0,1-.35-.54,1.86,1.86,0,0,1-.12-.7,1.66,1.66,0,0,1,.22-.87,2.19,2.19,0,0,1,.61-.64,2.63,2.63,0,0,1,.85-.38,3.71,3.71,0,0,1,1-.13,4.05,4.05,0,0,1,1.63.31v1.14a3.17,3.17,0,0,0-1.78-.51,2,2,0,0,0-.57.07,1.56,1.56,0,0,0-.43.2.91.91,0,0,0-.28.31.82.82,0,0,0-.1.4.9.9,0,0,0,.1.46.83.83,0,0,0,.29.33,2,2,0,0,0,.46.26l.62.25a8.42,8.42,0,0,1,.84.37,3.29,3.29,0,0,1,.63.42,1.63,1.63,0,0,1,.54,1.28,1.74,1.74,0,0,1-.23.9,2,2,0,0,1-.61.64,3,3,0,0,1-.89.37,4.42,4.42,0,0,1-1,.13A3.91,3.91,0,0,1,283.87,104.05Z"/><path fill="#2f2f2f" d="M291.24,103.29h0v4.23h-1.12V97.3h1.12v1.23h0a2.65,2.65,0,0,1,2.42-1.39,2.54,2.54,0,0,1,2.11.94,3.85,3.85,0,0,1,.76,2.52,4.34,4.34,0,0,1-.85,2.81,2.86,2.86,0,0,1-2.34,1.06A2.35,2.35,0,0,1,291.24,103.29Zm0-2.82v1a2.09,2.09,0,0,0,.57,1.48,2,2,0,0,0,3-.18,3.53,3.53,0,0,0,.58-2.16,2.86,2.86,0,0,0-.54-1.84,1.79,1.79,0,0,0-1.46-.66,2,2,0,0,0-1.57.68A2.48,2.48,0,0,0,291.21,100.47Z"/><path fill="#2f2f2f" d="M301.24,104.47a3.23,3.23,0,0,1-2.48-1,3.62,3.62,0,0,1-.93-2.6,3.75,3.75,0,0,1,1-2.75,3.46,3.46,0,0,1,2.6-1,3.13,3.13,0,0,1,2.44,1,4.4,4.4,0,0,1-.06,5.36A3.34,3.34,0,0,1,301.24,104.47Zm.08-6.39a2.14,2.14,0,0,0-1.71.74,3,3,0,0,0-.63,2,2.81,2.81,0,0,0,.64,2,2.15,2.15,0,0,0,1.7.72,2,2,0,0,0,1.67-.7,3.07,3.07,0,0,0,.58-2,3.12,3.12,0,0,0-.58-2A2.06,2.06,0,0,0,301.32,98.08Z"/><path fill="#2f2f2f" d="M312.25,104.3h-1.12v-4c0-1.49-.55-2.23-1.63-2.23a1.77,1.77,0,0,0-1.39.63,2.34,2.34,0,0,0-.55,1.6v4h-1.12v-7h1.12v1.16h0a2.51,2.51,0,0,1,2.29-1.32,2.13,2.13,0,0,1,1.76.74,3.27,3.27,0,0,1,.61,2.14Z"/><path fill="#2f2f2f" d="M313.9,104.05v-1.2a3.31,3.31,0,0,0,2,.67c1,0,1.48-.33,1.48-1a.82.82,0,0,0-.13-.48,1.22,1.22,0,0,0-.34-.34,2.61,2.61,0,0,0-.5-.27l-.63-.25c-.31-.13-.58-.25-.82-.37a2.72,2.72,0,0,1-.59-.43,1.62,1.62,0,0,1-.35-.54,1.86,1.86,0,0,1-.12-.7,1.66,1.66,0,0,1,.22-.87,2.19,2.19,0,0,1,.61-.64,2.63,2.63,0,0,1,.85-.38,3.76,3.76,0,0,1,1-.13,4,4,0,0,1,1.63.31v1.14a3.17,3.17,0,0,0-1.78-.51,2,2,0,0,0-.57.07,1.56,1.56,0,0,0-.43.2.91.91,0,0,0-.28.31.82.82,0,0,0-.1.4.9.9,0,0,0,.1.46.83.83,0,0,0,.29.33,2.22,2.22,0,0,0,.46.26l.62.25a8.42,8.42,0,0,1,.84.37,3.29,3.29,0,0,1,.63.42,1.63,1.63,0,0,1,.54,1.28,1.74,1.74,0,0,1-.23.9,2,2,0,0,1-.61.64,3,3,0,0,1-.89.37,4.42,4.42,0,0,1-1,.13A3.91,3.91,0,0,1,313.9,104.05Z"/><path fill="#2f2f2f" d="M325.85,101.08h-4.94a2.66,2.66,0,0,0,.63,1.81,2.17,2.17,0,0,0,1.65.63,3.45,3.45,0,0,0,2.18-.78v1.06a4.12,4.12,0,0,1-2.44.67,3,3,0,0,1-2.34-1,3.91,3.91,0,0,1-.84-2.68,3.84,3.84,0,0,1,.92-2.66,3,3,0,0,1,2.3-1,2.61,2.61,0,0,1,2.13.89,3.69,3.69,0,0,1,.75,2.46Zm-1.15-1a2.24,2.24,0,0,0-.47-1.51,1.58,1.58,0,0,0-1.28-.54,1.79,1.79,0,0,0-1.34.57,2.59,2.59,0,0,0-.69,1.48Z"/></g><g><path fill="#2f2f2f" d="M385.23,192.28v-1.35a2.72,2.72,0,0,0,.56.37,3.71,3.71,0,0,0,.68.27,4.74,4.74,0,0,0,.72.18,4.16,4.16,0,0,0,.67.06,2.63,2.63,0,0,0,1.58-.39,1.35,1.35,0,0,0,.53-1.14,1.31,1.31,0,0,0-.18-.69,2,2,0,0,0-.48-.53,5.42,5.42,0,0,0-.73-.47l-.9-.47c-.34-.17-.66-.34-1-.52A4.34,4.34,0,0,1,386,187a2.5,2.5,0,0,1-.52-.73,2.33,2.33,0,0,1-.19-.95,2.21,2.21,0,0,1,.3-1.17,2.39,2.39,0,0,1,.77-.81,3.26,3.26,0,0,1,1.09-.48,4.76,4.76,0,0,1,1.25-.16,4.81,4.81,0,0,1,2.11.35v1.29a4.19,4.19,0,0,0-3-.52,2.22,2.22,0,0,0-.67.25,1.51,1.51,0,0,0-.48.46,1.27,1.27,0,0,0-.18.69,1.35,1.35,0,0,0,.14.65,1.56,1.56,0,0,0,.41.49,3.7,3.7,0,0,0,.67.44l.9.47c.35.17.69.35,1,.54a5.51,5.51,0,0,1,.83.64,3,3,0,0,1,.56.77,2.16,2.16,0,0,1,.21,1,2.46,2.46,0,0,1-.28,1.23,2.42,2.42,0,0,1-.77.82,3.24,3.24,0,0,1-1.11.45,6.31,6.31,0,0,1-1.33.14,4.43,4.43,0,0,1-.57,0,6,6,0,0,1-.7-.11,4.37,4.37,0,0,1-.67-.17A2,2,0,0,1,385.23,192.28Z"/><path fill="#2f2f2f" d="M392.52,192.28v-1.35a2.72,2.72,0,0,0,.56.37,3.71,3.71,0,0,0,.68.27,4.74,4.74,0,0,0,.72.18,4.16,4.16,0,0,0,.67.06,2.61,2.61,0,0,0,1.58-.39,1.35,1.35,0,0,0,.53-1.14,1.31,1.31,0,0,0-.18-.69,1.82,1.82,0,0,0-.48-.53,4.85,4.85,0,0,0-.73-.47l-.9-.47c-.34-.17-.66-.34-1-.52a4.34,4.34,0,0,1-.77-.59,2.5,2.5,0,0,1-.52-.73,2.33,2.33,0,0,1-.19-.95,2.21,2.21,0,0,1,.3-1.17,2.39,2.39,0,0,1,.77-.81,3.26,3.26,0,0,1,1.09-.48,4.76,4.76,0,0,1,1.25-.16,4.81,4.81,0,0,1,2.11.35v1.29a4.19,4.19,0,0,0-3-.52,2.22,2.22,0,0,0-.67.25,1.51,1.51,0,0,0-.48.46,1.27,1.27,0,0,0-.18.69,1.35,1.35,0,0,0,.14.65,1.56,1.56,0,0,0,.41.49,3.7,3.7,0,0,0,.67.44l.9.47c.35.17.69.35,1,.54a5.51,5.51,0,0,1,.83.64,3,3,0,0,1,.56.77,2.16,2.16,0,0,1,.21,1,2.46,2.46,0,0,1-.28,1.23,2.42,2.42,0,0,1-.77.82,3.24,3.24,0,0,1-1.11.45,6.31,6.31,0,0,1-1.33.14,4.43,4.43,0,0,1-.57,0,6,6,0,0,1-.7-.11,4.69,4.69,0,0,1-.67-.17A2,2,0,0,1,392.52,192.28Z"/><path fill="#2f2f2f" d="M405.29,192.68h-5.08v-9.81h1.14v8.77h3.94Z"/><path fill="#2f2f2f" d="M415.25,192.36a3.66,3.66,0,0,1-1.91.48,3.16,3.16,0,0,1-2.42-1,3.55,3.55,0,0,1-.92-2.53,3.89,3.89,0,0,1,1-2.78,3.46,3.46,0,0,1,2.65-1.05,3.75,3.75,0,0,1,1.62.34V187a2.84,2.84,0,0,0-1.66-.54,2.21,2.21,0,0,0-1.76.77,2.9,2.9,0,0,0-.69,2,2.74,2.74,0,0,0,.65,1.94,2.22,2.22,0,0,0,1.73.71,2.78,2.78,0,0,0,1.72-.61Z"/><path fill="#2f2f2f" d="M422.42,189.46h-4.94a2.61,2.61,0,0,0,.63,1.8,2.14,2.14,0,0,0,1.65.64,3.47,3.47,0,0,0,2.18-.78v1a4.05,4.05,0,0,1-2.44.67,3,3,0,0,1-2.34-1,3.94,3.94,0,0,1-.84-2.69,3.88,3.88,0,0,1,.92-2.66,3,3,0,0,1,2.3-1,2.64,2.64,0,0,1,2.13.89,3.72,3.72,0,0,1,.75,2.47Zm-1.15-1a2.24,2.24,0,0,0-.47-1.51,1.58,1.58,0,0,0-1.28-.54,1.82,1.82,0,0,0-1.34.56,2.62,2.62,0,0,0-.69,1.49Z"/><path fill="#2f2f2f" d="M427.75,186.81a1.34,1.34,0,0,0-.84-.22,1.42,1.42,0,0,0-1.2.67,3.15,3.15,0,0,0-.49,1.85v3.57H424.1v-7h1.12v1.44h0A2.48,2.48,0,0,1,426,186a1.67,1.67,0,0,1,1.1-.42,1.85,1.85,0,0,1,.67.1Z"/><path fill="#2f2f2f" d="M432.67,192.61a2.2,2.2,0,0,1-1,.22c-1.23,0-1.84-.69-1.84-2.05v-4.15h-1.2v-.95h1.2V184l1.12-.36v2.07h1.76v.95h-1.76v4a1.61,1.61,0,0,0,.24,1,1,1,0,0,0,.79.3,1.14,1.14,0,0,0,.73-.23Z"/><path fill="#2f2f2f" d="M434.63,183.9a.69.69,0,0,1-.51-.21.65.65,0,0,1-.22-.51.73.73,0,0,1,.73-.74.72.72,0,0,1,.52.21.73.73,0,0,1,.22.53.7.7,0,0,1-.22.51A.72.72,0,0,1,434.63,183.9Zm.54,8.78h-1.12v-7h1.12Z"/><path fill="#2f2f2f" d="M440.8,183.3a1.55,1.55,0,0,0-.75-.19c-.78,0-1.17.5-1.17,1.49v1.08h1.64v.95h-1.64v6.05h-1.12v-6.05h-1.19v-.95h1.19v-1.14a2.39,2.39,0,0,1,.64-1.74,2.16,2.16,0,0,1,1.59-.64,2,2,0,0,1,.81.13Z"/><path fill="#2f2f2f" d="M442.55,183.9a.69.69,0,0,1-.51-.21.68.68,0,0,1-.21-.51.72.72,0,0,1,.21-.53.69.69,0,0,1,.51-.21.74.74,0,0,1,.53.21.72.72,0,0,1,.21.53.69.69,0,0,1-.21.51A.74.74,0,0,1,442.55,183.9Zm.55,8.78H442v-7h1.12Z"/><path fill="#2f2f2f" d="M450,192.36a3.66,3.66,0,0,1-1.91.48,3.16,3.16,0,0,1-2.42-1,3.55,3.55,0,0,1-.92-2.53,3.89,3.89,0,0,1,1-2.78,3.48,3.48,0,0,1,2.65-1.05,3.83,3.83,0,0,1,1.63.34V187a2.89,2.89,0,0,0-1.67-.54,2.23,2.23,0,0,0-1.76.77,2.9,2.9,0,0,0-.69,2,2.79,2.79,0,0,0,.65,1.94,2.24,2.24,0,0,0,1.73.71,2.78,2.78,0,0,0,1.72-.61Z"/><path fill="#2f2f2f" d="M456.76,192.68h-1.13v-1.1h0a2.36,2.36,0,0,1-2.16,1.26,2.28,2.28,0,0,1-1.63-.55,1.9,1.9,0,0,1-.59-1.47c0-1.31.77-2.07,2.31-2.29l2.09-.29c0-1.19-.48-1.78-1.44-1.78a3.42,3.42,0,0,0-2.28.86v-1.15a4.32,4.32,0,0,1,2.38-.66c1.64,0,2.47.87,2.47,2.61Zm-1.13-3.54-1.68.23a2.77,2.77,0,0,0-1.18.38,1.15,1.15,0,0,0-.4,1,1.06,1.06,0,0,0,.37.83,1.39,1.39,0,0,0,1,.33,1.8,1.8,0,0,0,1.38-.59,2.09,2.09,0,0,0,.54-1.48Z"/><path fill="#2f2f2f" d="M462,192.61a2.2,2.2,0,0,1-1,.22c-1.23,0-1.84-.69-1.84-2.05v-4.15h-1.2v-.95h1.2V184l1.12-.36v2.07H462v.95h-1.76v4a1.61,1.61,0,0,0,.24,1,1,1,0,0,0,.79.3,1.12,1.12,0,0,0,.73-.23Z"/><path fill="#2f2f2f" d="M469,189.46h-4.94a2.56,2.56,0,0,0,.62,1.8,2.16,2.16,0,0,0,1.66.64,3.42,3.42,0,0,0,2.17-.78v1a4,4,0,0,1-2.44.67,3,3,0,0,1-2.33-1,3.94,3.94,0,0,1-.85-2.69,3.83,3.83,0,0,1,.93-2.66,3,3,0,0,1,2.3-1,2.65,2.65,0,0,1,2.13.89,3.72,3.72,0,0,1,.75,2.47Zm-1.15-1a2.29,2.29,0,0,0-.47-1.51,1.59,1.59,0,0,0-1.28-.54,1.84,1.84,0,0,0-1.35.56,2.61,2.61,0,0,0-.68,1.49Z"/></g><g><path fill="#2f2f2f" d="M297,20.2V18.85a2.86,2.86,0,0,0,.56.37,5.72,5.72,0,0,0,.68.28,6,6,0,0,0,.73.17,4.06,4.06,0,0,0,.67.06,2.65,2.65,0,0,0,1.58-.39,1.32,1.32,0,0,0,.52-1.13,1.36,1.36,0,0,0-.17-.69,2,2,0,0,0-.48-.54,4.58,4.58,0,0,0-.73-.46l-.91-.47c-.34-.18-.66-.35-1-.53a4.23,4.23,0,0,1-.77-.59,2.19,2.19,0,0,1-.51-.73,2.15,2.15,0,0,1-.19-.95,2.27,2.27,0,0,1,.29-1.16,2.63,2.63,0,0,1,.77-.82,3.58,3.58,0,0,1,1.09-.48,5.29,5.29,0,0,1,1.25-.16,4.78,4.78,0,0,1,2.11.35v1.29a3.8,3.8,0,0,0-2.22-.6,3.92,3.92,0,0,0-.76.08,2.08,2.08,0,0,0-.67.26,1.47,1.47,0,0,0-.47.46,1.14,1.14,0,0,0-.19.68,1.45,1.45,0,0,0,.14.65,1.59,1.59,0,0,0,.41.5,4.57,4.57,0,0,0,.67.43c.26.15.57.3.91.47s.68.36,1,.55a4.8,4.8,0,0,1,.82.63,2.8,2.8,0,0,1,.57.77,2.2,2.2,0,0,1,.2,1,2.42,2.42,0,0,1-.28,1.22,2.24,2.24,0,0,1-.77.82,3.24,3.24,0,0,1-1.11.45,5.68,5.68,0,0,1-1.32.14l-.58,0-.69-.11a6.75,6.75,0,0,1-.68-.18A2,2,0,0,1,297,20.2Z"/><path fill="#2f2f2f" d="M304.28,20.2V18.85a2.86,2.86,0,0,0,.56.37,5.24,5.24,0,0,0,.69.28,5.8,5.8,0,0,0,.72.17,4.06,4.06,0,0,0,.67.06,2.65,2.65,0,0,0,1.58-.39,1.32,1.32,0,0,0,.52-1.13,1.36,1.36,0,0,0-.17-.69,2,2,0,0,0-.48-.54,4.58,4.58,0,0,0-.73-.46c-.28-.15-.58-.31-.91-.47s-.66-.35-1-.53a4.23,4.23,0,0,1-.77-.59,2.19,2.19,0,0,1-.51-.73,2.15,2.15,0,0,1-.19-.95,2.27,2.27,0,0,1,.29-1.16,2.63,2.63,0,0,1,.77-.82,3.53,3.53,0,0,1,1.1-.48,5.14,5.14,0,0,1,1.24-.16,4.78,4.78,0,0,1,2.11.35v1.29a3.8,3.8,0,0,0-2.22-.6,4,4,0,0,0-.76.08,2.08,2.08,0,0,0-.67.26,1.47,1.47,0,0,0-.47.46,1.14,1.14,0,0,0-.19.68,1.45,1.45,0,0,0,.14.65,1.59,1.59,0,0,0,.41.5,4.57,4.57,0,0,0,.67.43c.26.15.57.3.91.47s.68.36,1,.55a4.44,4.44,0,0,1,.82.63,2.8,2.8,0,0,1,.57.77,2.2,2.2,0,0,1,.2,1,2.42,2.42,0,0,1-.28,1.22,2.3,2.3,0,0,1-.76.82,3.38,3.38,0,0,1-1.12.45,5.63,5.63,0,0,1-1.32.14l-.58,0-.69-.11a6.75,6.75,0,0,1-.68-.18A2,2,0,0,1,304.28,20.2Z"/><path fill="#2f2f2f" d="M317.06,20.6H312V10.8h1.15v8.76h3.94Z"/><path fill="#2f2f2f" d="M327,20.28a3.7,3.7,0,0,1-1.92.48,3.14,3.14,0,0,1-2.41-1,3.5,3.5,0,0,1-.92-2.53,3.85,3.85,0,0,1,1-2.77,3.46,3.46,0,0,1,2.64-1.05,3.65,3.65,0,0,1,1.63.34v1.15a2.83,2.83,0,0,0-1.67-.55,2.27,2.27,0,0,0-1.76.77,2.9,2.9,0,0,0-.69,2,2.77,2.77,0,0,0,.65,1.94,2.24,2.24,0,0,0,1.73.71,2.81,2.81,0,0,0,1.73-.61Z"/><path fill="#2f2f2f" d="M334.19,17.38h-4.95a2.61,2.61,0,0,0,.63,1.8,2.16,2.16,0,0,0,1.66.64A3.42,3.42,0,0,0,333.7,19v1.05a4,4,0,0,1-2.44.67,2.93,2.93,0,0,1-2.33-1,3.88,3.88,0,0,1-.85-2.68,3.84,3.84,0,0,1,.93-2.67,3,3,0,0,1,2.3-1,2.63,2.63,0,0,1,2.12.88,3.69,3.69,0,0,1,.76,2.47ZM333,16.43a2.29,2.29,0,0,0-.47-1.51,1.6,1.6,0,0,0-1.28-.54,1.81,1.81,0,0,0-1.35.57,2.52,2.52,0,0,0-.68,1.48Z"/><path fill="#2f2f2f" d="M339.52,14.73a1.39,1.39,0,0,0-.85-.22,1.41,1.41,0,0,0-1.2.68A3.12,3.12,0,0,0,337,17V20.6h-1.12v-7H337V15h0a2.46,2.46,0,0,1,.73-1.15,1.64,1.64,0,0,1,1.1-.41,2,2,0,0,1,.67.09Z"/><path fill="#2f2f2f" d="M344.44,20.53a2.13,2.13,0,0,1-1.05.22c-1.22,0-1.84-.68-1.84-2.05V14.56h-1.2v-1h1.2V11.89l1.12-.36V13.6h1.77v1h-1.77V18.5a1.65,1.65,0,0,0,.24,1,1,1,0,0,0,.8.3,1.16,1.16,0,0,0,.73-.24Z"/><path fill="#2f2f2f" d="M346.39,11.82a.73.73,0,0,1-.51-.2.7.7,0,0,1-.21-.52.69.69,0,0,1,.21-.52.69.69,0,0,1,.51-.21.74.74,0,0,1,.53.21.69.69,0,0,1,.21.52.69.69,0,0,1-.21.51A.74.74,0,0,1,346.39,11.82Zm.55,8.78h-1.12v-7h1.12Z"/><path fill="#2f2f2f" d="M352.56,11.22a1.47,1.47,0,0,0-.74-.18c-.78,0-1.18.49-1.18,1.48V13.6h1.64v1h-1.64v6h-1.11v-6h-1.2v-1h1.2V12.47a2.32,2.32,0,0,1,.64-1.74,2.12,2.12,0,0,1,1.58-.64,2.23,2.23,0,0,1,.81.12Z"/><path fill="#2f2f2f" d="M354.32,11.82a.73.73,0,0,1-.51-.2.67.67,0,0,1-.22-.52.66.66,0,0,1,.22-.52.69.69,0,0,1,.51-.21.72.72,0,0,1,.52.21.69.69,0,0,1,.22.52.7.7,0,0,1-.22.51A.72.72,0,0,1,354.32,11.82Zm.55,8.78h-1.13v-7h1.13Z"/><path fill="#2f2f2f" d="M361.78,20.28a3.7,3.7,0,0,1-1.92.48,3.16,3.16,0,0,1-2.41-1,3.5,3.5,0,0,1-.92-2.53,3.85,3.85,0,0,1,1-2.77,3.46,3.46,0,0,1,2.64-1.05,3.65,3.65,0,0,1,1.63.34v1.15a2.81,2.81,0,0,0-1.67-.55,2.27,2.27,0,0,0-1.76.77,2.89,2.89,0,0,0-.68,2,2.77,2.77,0,0,0,.64,1.94,2.24,2.24,0,0,0,1.73.71,2.79,2.79,0,0,0,1.73-.61Z"/><path fill="#2f2f2f" d="M368.52,20.6H367.4V19.51h0a2.35,2.35,0,0,1-2.15,1.25,2.31,2.31,0,0,1-1.64-.55,1.94,1.94,0,0,1-.59-1.47q0-2,2.31-2.28l2.1-.3c0-1.19-.48-1.78-1.44-1.78a3.47,3.47,0,0,0-2.29.86V14.09a4.34,4.34,0,0,1,2.38-.65c1.65,0,2.47.87,2.47,2.61Zm-1.12-3.54-1.69.23a2.58,2.58,0,0,0-1.17.39,1.09,1.09,0,0,0-.4,1,1.07,1.07,0,0,0,.37.84,1.42,1.42,0,0,0,1,.32,1.81,1.81,0,0,0,1.38-.58,2.11,2.11,0,0,0,.54-1.48Z"/><path fill="#2f2f2f" d="M373.78,20.53a2.1,2.1,0,0,1-1,.22c-1.22,0-1.84-.68-1.84-2.05V14.56h-1.2v-1h1.2V11.89l1.13-.36V13.6h1.76v1H372V18.5a1.65,1.65,0,0,0,.24,1,1,1,0,0,0,.79.3,1.16,1.16,0,0,0,.73-.24Z"/><path fill="#2f2f2f" d="M380.77,17.38h-4.94a2.61,2.61,0,0,0,.63,1.8,2.14,2.14,0,0,0,1.65.64,3.45,3.45,0,0,0,2.18-.78v1.05a4.05,4.05,0,0,1-2.44.67,2.93,2.93,0,0,1-2.33-1,3.88,3.88,0,0,1-.85-2.68,3.88,3.88,0,0,1,.92-2.67,3,3,0,0,1,2.3-1,2.63,2.63,0,0,1,2.13.88,3.74,3.74,0,0,1,.75,2.47Zm-1.15-.95a2.29,2.29,0,0,0-.46-1.51,1.61,1.61,0,0,0-1.29-.54,1.79,1.79,0,0,0-1.34.57,2.59,2.59,0,0,0-.69,1.48Z"/></g><g><path fill="#2f2f2f" d="M309.07,64.35v3.37h-2.21v-9.8h3.46q3.71,0,3.7,3.12A3,3,0,0,1,313,63.43a4.2,4.2,0,0,1-2.84.92Zm0-4.73v3.05h.87c1.17,0,1.76-.51,1.76-1.54s-.59-1.51-1.76-1.51Z"/><path fill="#2f2f2f" d="M319.69,62.67a1.88,1.88,0,0,0-.91-.21,1.32,1.32,0,0,0-1.1.52,2.26,2.26,0,0,0-.39,1.4v3.34h-2.16v-7h2.16V62h0a1.87,1.87,0,0,1,1.85-1.42,1.44,1.44,0,0,1,.53.08Z"/><path fill="#2f2f2f" d="M327.07,64.84H322.5c.07,1,.71,1.52,1.92,1.52a3.78,3.78,0,0,0,2-.54v1.55a5.3,5.3,0,0,1-2.52.52,3.26,3.26,0,0,1-3.57-3.56,3.76,3.76,0,0,1,1-2.76,3.39,3.39,0,0,1,2.49-1,3.05,3.05,0,0,1,2.37.91,3.51,3.51,0,0,1,.84,2.47Zm-2-1.33c0-1-.4-1.5-1.21-1.5a1.14,1.14,0,0,0-.9.43,1.87,1.87,0,0,0-.46,1.07Z"/><path fill="#2f2f2f" d="M328.05,67.54V65.79a5,5,0,0,0,1.07.48,3.62,3.62,0,0,0,1,.15,2.22,2.22,0,0,0,.9-.15.51.51,0,0,0,.34-.48.43.43,0,0,0-.15-.34,1.23,1.23,0,0,0-.39-.24,5.19,5.19,0,0,0-.52-.19q-.27-.08-.54-.18a6.28,6.28,0,0,1-.73-.34,2,2,0,0,1-.53-.42,1.55,1.55,0,0,1-.33-.55,2.11,2.11,0,0,1-.12-.75,1.92,1.92,0,0,1,.26-1,2.16,2.16,0,0,1,.68-.7,3.14,3.14,0,0,1,1-.39,4.83,4.83,0,0,1,1.15-.13,6.56,6.56,0,0,1,1.88.28V62.5a3.33,3.33,0,0,0-.87-.36,3.75,3.75,0,0,0-.92-.12,1.64,1.64,0,0,0-.4,0,1.13,1.13,0,0,0-.34.11.67.67,0,0,0-.22.18.4.4,0,0,0-.08.26.48.48,0,0,0,.12.33,1,1,0,0,0,.32.23,2.53,2.53,0,0,0,.44.18l.48.16a5.72,5.72,0,0,1,.78.33,2.28,2.28,0,0,1,.6.42,1.43,1.43,0,0,1,.38.56,1.94,1.94,0,0,1,.14.76,2,2,0,0,1-.27,1.07,2.13,2.13,0,0,1-.72.71,3.27,3.27,0,0,1-1,.41,6.08,6.08,0,0,1-1.22.12A6.45,6.45,0,0,1,328.05,67.54Z"/><path fill="#2f2f2f" d="M341,64.84h-4.56c.07,1,.71,1.52,1.92,1.52a3.78,3.78,0,0,0,2-.54v1.55a5.3,5.3,0,0,1-2.52.52,3.25,3.25,0,0,1-3.57-3.56,3.76,3.76,0,0,1,1-2.76,3.36,3.36,0,0,1,2.49-1,3.05,3.05,0,0,1,2.37.91,3.55,3.55,0,0,1,.83,2.47Zm-2-1.33c0-1-.4-1.5-1.22-1.5a1.14,1.14,0,0,0-.89.43,1.94,1.94,0,0,0-.47,1.07Z"/><path fill="#2f2f2f" d="M349.13,67.72H347V63.83q0-1.62-1.17-1.62a1.14,1.14,0,0,0-.92.43,1.63,1.63,0,0,0-.36,1.09v4h-2.16v-7h2.16v1.11h0a2.47,2.47,0,0,1,2.25-1.28c1.54,0,2.32,1,2.32,2.89Z"/><path fill="#2f2f2f" d="M355,67.64a3.18,3.18,0,0,1-1.44.25c-1.53,0-2.29-.79-2.29-2.37v-3.2h-1.13v-1.6h1.13V59.21l2.16-.61v2.12H355v1.6h-1.57v2.83c0,.72.29,1.09.87,1.09a1.5,1.5,0,0,0,.7-.2Z"/></g><g><path fill="#2f2f2f" d="M95.07,377.1H93.92v-4.47H88.85v4.47H87.7v-9.8h1.15v4.3h5.07v-4.3h1.15Z"/><path fill="#2f2f2f" d="M103.28,368.34h-2.83v8.76H99.3v-8.76H96.47v-1h6.81Z"/><path fill="#2f2f2f" d="M111,368.34h-2.84v8.76H107v-8.76h-2.83v-1H111Z"/><path fill="#2f2f2f" d="M113.51,373.4v3.7h-1.15v-9.8h2.69a3.57,3.57,0,0,1,2.44.76,2.72,2.72,0,0,1,.86,2.16,3,3,0,0,1-1,2.29,3.67,3.67,0,0,1-2.59.89Zm0-5.06v4h1.2a2.68,2.68,0,0,0,1.82-.55,1.93,1.93,0,0,0,.62-1.53c0-1.3-.76-1.94-2.3-1.94Z"/><path fill="#2f2f2f" d="M119.67,376.7v-1.35a2.52,2.52,0,0,0,.55.37,5.24,5.24,0,0,0,.69.28,6.25,6.25,0,0,0,.72.17,4.06,4.06,0,0,0,.67.06,2.63,2.63,0,0,0,1.58-.39,1.32,1.32,0,0,0,.52-1.13,1.26,1.26,0,0,0-.17-.69,2,2,0,0,0-.48-.54A4.58,4.58,0,0,0,123,373c-.28-.15-.58-.31-.91-.47s-.66-.35-1-.53a4,4,0,0,1-.78-.59,2.42,2.42,0,0,1-.51-.72,2.19,2.19,0,0,1-.19-1,2.29,2.29,0,0,1,.29-1.16,2.55,2.55,0,0,1,.78-.82,3.72,3.72,0,0,1,1.09-.48,5.14,5.14,0,0,1,1.24-.16,4.83,4.83,0,0,1,2.12.35v1.3a3.77,3.77,0,0,0-2.23-.61,3.82,3.82,0,0,0-.75.08,2,2,0,0,0-.67.26,1.41,1.41,0,0,0-.48.46,1.14,1.14,0,0,0-.19.68,1.45,1.45,0,0,0,.14.65,1.78,1.78,0,0,0,.42.5,4,4,0,0,0,.66.44l.91.46c.35.17.68.36,1,.55a4.44,4.44,0,0,1,.82.63,2.84,2.84,0,0,1,.57.78,2.13,2.13,0,0,1,.21,1,2.42,2.42,0,0,1-.29,1.22,2.3,2.3,0,0,1-.76.82,3.46,3.46,0,0,1-1.11.46,6.31,6.31,0,0,1-1.33.14c-.15,0-.35,0-.57,0s-.46-.06-.7-.11a5.92,5.92,0,0,1-.67-.18A1.74,1.74,0,0,1,119.67,376.7Z"/><path fill="#2f2f2f" d="M134.9,371.24a1.39,1.39,0,0,0-.85-.23,1.43,1.43,0,0,0-1.2.68,3.12,3.12,0,0,0-.48,1.84v3.57h-1.12v-7h1.12v1.44h0a2.47,2.47,0,0,1,.74-1.15,1.67,1.67,0,0,1,1.1-.41,2,2,0,0,1,.67.09Z"/><path fill="#2f2f2f" d="M141.74,373.88H136.8a2.66,2.66,0,0,0,.63,1.81,2.17,2.17,0,0,0,1.65.63,3.42,3.42,0,0,0,2.17-.78v1.06a4.08,4.08,0,0,1-2.44.67,3,3,0,0,1-2.33-1,3.92,3.92,0,0,1-.85-2.68,3.8,3.8,0,0,1,.93-2.66,3,3,0,0,1,2.3-1,2.61,2.61,0,0,1,2.13.89,3.69,3.69,0,0,1,.75,2.46Zm-1.15-.95a2.24,2.24,0,0,0-.47-1.51,1.58,1.58,0,0,0-1.28-.54,1.81,1.81,0,0,0-1.35.57,2.65,2.65,0,0,0-.68,1.48Z"/><path fill="#2f2f2f" d="M143,376.85v-1.2a3.31,3.31,0,0,0,2,.67c1,0,1.47-.33,1.47-1a.9.9,0,0,0-.12-.48,1.37,1.37,0,0,0-.34-.34,3.05,3.05,0,0,0-.51-.27l-.62-.25c-.31-.13-.59-.25-.82-.37a2.5,2.5,0,0,1-.59-.43,1.36,1.36,0,0,1-.35-.54,1.86,1.86,0,0,1-.12-.7,1.66,1.66,0,0,1,.22-.87,2,2,0,0,1,.6-.64,2.68,2.68,0,0,1,.86-.38,3.64,3.64,0,0,1,1-.13,4,4,0,0,1,1.63.31v1.14a3.15,3.15,0,0,0-1.78-.51,2,2,0,0,0-.56.07,1.63,1.63,0,0,0-.44.2,1,1,0,0,0-.28.32.88.88,0,0,0-.1.4,1,1,0,0,0,.1.45,1,1,0,0,0,.29.33,2.31,2.31,0,0,0,.47.26l.62.25a7.3,7.3,0,0,1,.83.37,3.13,3.13,0,0,1,.63.42,1.53,1.53,0,0,1,.4.55,1.92,1.92,0,0,1-.09,1.63,1.87,1.87,0,0,1-.61.64,2.92,2.92,0,0,1-.88.37,4.44,4.44,0,0,1-1.05.13A3.94,3.94,0,0,1,143,376.85Z"/><path fill="#2f2f2f" d="M150.36,376.09h0v4.23h-1.12V370.1h1.12v1.23h0a2.64,2.64,0,0,1,2.42-1.39,2.56,2.56,0,0,1,2.11.94,3.9,3.9,0,0,1,.76,2.52,4.32,4.32,0,0,1-.86,2.81,2.86,2.86,0,0,1-2.34,1.06A2.35,2.35,0,0,1,150.36,376.09Zm0-2.82v1a2.13,2.13,0,0,0,.56,1.48,1.89,1.89,0,0,0,1.43.6,1.88,1.88,0,0,0,1.6-.78,3.53,3.53,0,0,0,.58-2.16,2.86,2.86,0,0,0-.54-1.84,1.79,1.79,0,0,0-1.46-.66,2,2,0,0,0-1.58.68A2.52,2.52,0,0,0,150.33,373.27Z"/><path fill="#2f2f2f" d="M160.35,377.27a3.25,3.25,0,0,1-2.48-1,3.65,3.65,0,0,1-.92-2.6,3.79,3.79,0,0,1,1-2.75,3.47,3.47,0,0,1,2.61-1,3.13,3.13,0,0,1,2.44,1,4.38,4.38,0,0,1-.07,5.36A3.33,3.33,0,0,1,160.35,377.27Zm.08-6.39a2.1,2.1,0,0,0-1.7.74,3,3,0,0,0-.63,2,2.85,2.85,0,0,0,.63,2,2.16,2.16,0,0,0,1.7.72,2.06,2.06,0,0,0,1.68-.7,3.06,3.06,0,0,0,.58-2,3.13,3.13,0,0,0-.58-2A2.06,2.06,0,0,0,160.43,370.88Z"/><path fill="#2f2f2f" d="M171.36,377.1h-1.12v-4c0-1.49-.54-2.23-1.62-2.23a1.76,1.76,0,0,0-1.39.63,2.35,2.35,0,0,0-.56,1.6v4h-1.12v-7h1.12v1.16h0a2.54,2.54,0,0,1,2.3-1.32,2.14,2.14,0,0,1,1.76.74,3.33,3.33,0,0,1,.6,2.14Z"/><path fill="#2f2f2f" d="M173,376.85v-1.2a3.33,3.33,0,0,0,2,.67c1,0,1.48-.33,1.48-1a.9.9,0,0,0-.13-.48,1.22,1.22,0,0,0-.34-.34,2.7,2.7,0,0,0-.51-.27l-.62-.25c-.31-.13-.59-.25-.82-.37a2.5,2.5,0,0,1-.59-.43,1.48,1.48,0,0,1-.35-.54,1.86,1.86,0,0,1-.12-.7,1.66,1.66,0,0,1,.22-.87,2,2,0,0,1,.6-.64,2.68,2.68,0,0,1,.86-.38,3.66,3.66,0,0,1,1-.13,4,4,0,0,1,1.62.31v1.14a3.12,3.12,0,0,0-1.77-.51,2,2,0,0,0-.57.07,1.63,1.63,0,0,0-.44.2,1,1,0,0,0-.28.32.88.88,0,0,0-.1.4,1,1,0,0,0,.1.45,1,1,0,0,0,.29.33,2.31,2.31,0,0,0,.47.26l.62.25a8.42,8.42,0,0,1,.84.37,3.35,3.35,0,0,1,.62.42,1.53,1.53,0,0,1,.4.55,1.92,1.92,0,0,1-.09,1.63,1.87,1.87,0,0,1-.61.64,2.92,2.92,0,0,1-.88.37,4.42,4.42,0,0,1-1,.13A4,4,0,0,1,173,376.85Z"/><path fill="#2f2f2f" d="M185,373.88H180a2.6,2.6,0,0,0,.62,1.81,2.21,2.21,0,0,0,1.66.63,3.42,3.42,0,0,0,2.17-.78v1.06a4.1,4.1,0,0,1-2.44.67,3,3,0,0,1-2.33-1,3.92,3.92,0,0,1-.85-2.68,3.8,3.8,0,0,1,.93-2.66,3,3,0,0,1,2.3-1,2.61,2.61,0,0,1,2.13.89,3.69,3.69,0,0,1,.75,2.46Zm-1.15-.95a2.24,2.24,0,0,0-.47-1.51,1.59,1.59,0,0,0-1.28-.54,1.81,1.81,0,0,0-1.35.57,2.58,2.58,0,0,0-.68,1.48Z"/></g><g><path fill="#2f2f2f" d="M4.73,299.7v-1.36a2.59,2.59,0,0,0,.56.37A4.61,4.61,0,0,0,6,299a6.25,6.25,0,0,0,.72.17,4.24,4.24,0,0,0,.67.07,2.66,2.66,0,0,0,1.59-.4,1.35,1.35,0,0,0,.52-1.13,1.31,1.31,0,0,0-.18-.69,1.85,1.85,0,0,0-.48-.54,4.85,4.85,0,0,0-.73-.46l-.9-.47c-.34-.17-.66-.35-1-.53a3.88,3.88,0,0,1-.77-.58,2.64,2.64,0,0,1-.52-.73,2.33,2.33,0,0,1-.19-.95,2.21,2.21,0,0,1,.3-1.17,2.51,2.51,0,0,1,.77-.82,3.72,3.72,0,0,1,1.09-.48,5.22,5.22,0,0,1,1.25-.15,4.67,4.67,0,0,1,2.11.35v1.29a3.84,3.84,0,0,0-2.23-.6,3.81,3.81,0,0,0-.75.07,2.34,2.34,0,0,0-.67.26,1.51,1.51,0,0,0-.48.46,1.23,1.23,0,0,0-.18.68,1.33,1.33,0,0,0,.14.65,1.59,1.59,0,0,0,.41.5,4.09,4.09,0,0,0,.67.44l.9.46c.35.18.69.36,1,.55a4.15,4.15,0,0,1,.83.64,2.76,2.76,0,0,1,.56.77,2.13,2.13,0,0,1,.21,1,2.49,2.49,0,0,1-.28,1.23,2.39,2.39,0,0,1-.77.81,3.46,3.46,0,0,1-1.11.46,6.31,6.31,0,0,1-1.33.14,4.43,4.43,0,0,1-.57,0,6,6,0,0,1-.7-.11,6.55,6.55,0,0,1-.67-.18A2.47,2.47,0,0,1,4.73,299.7Z"/><path fill="#2f2f2f" d="M12,299.7v-1.36a2.59,2.59,0,0,0,.56.37,4.61,4.61,0,0,0,.68.28,6.25,6.25,0,0,0,.72.17,4.24,4.24,0,0,0,.67.07,2.66,2.66,0,0,0,1.59-.4,1.35,1.35,0,0,0,.52-1.13,1.31,1.31,0,0,0-.18-.69,1.85,1.85,0,0,0-.48-.54,4.85,4.85,0,0,0-.73-.46l-.9-.47c-.34-.17-.66-.35-1-.53a4.19,4.19,0,0,1-.77-.58,2.64,2.64,0,0,1-.52-.73,2.33,2.33,0,0,1-.19-.95,2.21,2.21,0,0,1,.3-1.17,2.51,2.51,0,0,1,.77-.82,3.72,3.72,0,0,1,1.09-.48,5.28,5.28,0,0,1,1.25-.15,4.64,4.64,0,0,1,2.11.35v1.29a3.84,3.84,0,0,0-2.23-.6,3.81,3.81,0,0,0-.75.07,2.34,2.34,0,0,0-.67.26,1.62,1.62,0,0,0-.48.46,1.23,1.23,0,0,0-.18.68,1.33,1.33,0,0,0,.14.65,1.59,1.59,0,0,0,.41.5,4.09,4.09,0,0,0,.67.44l.9.46c.36.18.69.36,1,.55a4.15,4.15,0,0,1,.83.64,2.76,2.76,0,0,1,.56.77,2.13,2.13,0,0,1,.21,1,2.49,2.49,0,0,1-.28,1.23,2.39,2.39,0,0,1-.77.81,3.46,3.46,0,0,1-1.11.46,6.28,6.28,0,0,1-1.32.14,4.45,4.45,0,0,1-.58,0,6,6,0,0,1-.7-.11,6.55,6.55,0,0,1-.67-.18A2.47,2.47,0,0,1,12,299.7Z"/><path fill="#2f2f2f" d="M24.79,300.09H19.71v-9.8h1.15v8.76h3.93Z"/><path fill="#2f2f2f" d="M34.75,299.77a3.55,3.55,0,0,1-1.91.49,3.17,3.17,0,0,1-2.42-1,3.54,3.54,0,0,1-.92-2.52,3.88,3.88,0,0,1,1-2.78,3.48,3.48,0,0,1,2.65-1.05,3.68,3.68,0,0,1,1.63.34v1.15a2.9,2.9,0,0,0-1.67-.55,2.26,2.26,0,0,0-1.76.77,2.91,2.91,0,0,0-.69,2,2.77,2.77,0,0,0,.65,1.94,2.21,2.21,0,0,0,1.73.71,2.81,2.81,0,0,0,1.72-.6Z"/><path fill="#2f2f2f" d="M41.92,296.87H37a2.66,2.66,0,0,0,.63,1.81,2.17,2.17,0,0,0,1.65.63,3.5,3.5,0,0,0,2.18-.77v1a4.12,4.12,0,0,1-2.44.67,2.94,2.94,0,0,1-2.33-1,4.47,4.47,0,0,1,.07-5.34,3,3,0,0,1,2.3-1,2.64,2.64,0,0,1,2.13.89,3.7,3.7,0,0,1,.75,2.47Zm-1.15-.95a2.31,2.31,0,0,0-.46-1.51,1.61,1.61,0,0,0-1.29-.54,1.81,1.81,0,0,0-1.34.57,2.59,2.59,0,0,0-.69,1.48Z"/><path fill="#2f2f2f" d="M47.26,294.23a1.39,1.39,0,0,0-.85-.23,1.43,1.43,0,0,0-1.2.68,3.15,3.15,0,0,0-.48,1.85v3.56H43.61v-7h1.12v1.45h0a2.45,2.45,0,0,1,.74-1.16,1.67,1.67,0,0,1,1.1-.41,1.72,1.72,0,0,1,.67.1Z"/><path fill="#2f2f2f" d="M52.17,300a2.21,2.21,0,0,1-1,.21c-1.23,0-1.84-.68-1.84-2.05v-4.14h-1.2v-1h1.2v-1.71l1.12-.36v2.07h1.76v1H50.41V298a1.63,1.63,0,0,0,.24,1,1,1,0,0,0,.79.3,1.18,1.18,0,0,0,.73-.23Z"/><path fill="#2f2f2f" d="M54.13,291.32a.69.69,0,0,1-.51-.21.72.72,0,0,1,0-1,.69.69,0,0,1,.51-.21.72.72,0,0,1,.52.21.71.71,0,0,1,0,1A.69.69,0,0,1,54.13,291.32Zm.55,8.77H53.56v-7h1.12Z"/><path fill="#2f2f2f" d="M60.3,290.71a1.53,1.53,0,0,0-.74-.18c-.79,0-1.18.49-1.18,1.48v1.08H60v1H58.38v6H57.27v-6h-1.2v-1h1.2V292a2.38,2.38,0,0,1,.63-1.74,2.14,2.14,0,0,1,1.59-.64,2.23,2.23,0,0,1,.81.12Z"/><path fill="#2f2f2f" d="M62.05,291.32a.73.73,0,0,1,0-1.46.74.74,0,0,1,.53.21.74.74,0,0,1,0,1A.71.71,0,0,1,62.05,291.32Zm.55,8.77H61.48v-7H62.6Z"/><path fill="#2f2f2f" d="M69.51,299.77a3.55,3.55,0,0,1-1.91.49,3.19,3.19,0,0,1-2.42-1,3.54,3.54,0,0,1-.92-2.52,3.84,3.84,0,0,1,1-2.78,3.46,3.46,0,0,1,2.64-1.05,3.65,3.65,0,0,1,1.63.34v1.15a2.9,2.9,0,0,0-1.67-.55,2.26,2.26,0,0,0-1.76.77,2.91,2.91,0,0,0-.69,2,2.77,2.77,0,0,0,.65,1.94,2.21,2.21,0,0,0,1.73.71,2.81,2.81,0,0,0,1.72-.6Z"/><path fill="#2f2f2f" d="M76.26,300.09H75.14V299h0A2.35,2.35,0,0,1,73,300.26a2.3,2.3,0,0,1-1.64-.56,1.89,1.89,0,0,1-.59-1.47q0-2,2.31-2.28l2.1-.29c0-1.19-.48-1.79-1.45-1.79a3.47,3.47,0,0,0-2.28.86v-1.14a4.32,4.32,0,0,1,2.38-.66c1.64,0,2.47.87,2.47,2.61Zm-1.12-3.54-1.69.24a2.82,2.82,0,0,0-1.18.38,1.13,1.13,0,0,0-.39,1,1.09,1.09,0,0,0,.36.84,1.41,1.41,0,0,0,1,.32,1.78,1.78,0,0,0,1.37-.58,2.06,2.06,0,0,0,.55-1.48Z"/><path fill="#2f2f2f" d="M81.52,300a2.28,2.28,0,0,1-1,.21c-1.23,0-1.84-.68-1.84-2.05v-4.14h-1.2v-1h1.2v-1.71l1.12-.36v2.07h1.77v1H79.75V298a1.63,1.63,0,0,0,.24,1,1,1,0,0,0,.79.3,1.23,1.23,0,0,0,.74-.23Z"/><path fill="#2f2f2f" d="M88.51,296.87H83.57a2.56,2.56,0,0,0,.63,1.81,2.17,2.17,0,0,0,1.65.63,3.47,3.47,0,0,0,2.17-.77v1a4.1,4.1,0,0,1-2.44.67,3,3,0,0,1-2.33-1,3.92,3.92,0,0,1-.85-2.68,3.8,3.8,0,0,1,.93-2.66,3,3,0,0,1,2.3-1,2.64,2.64,0,0,1,2.13.89,3.7,3.7,0,0,1,.75,2.47Zm-1.15-.95a2.26,2.26,0,0,0-.47-1.51,1.59,1.59,0,0,0-1.28-.54,1.81,1.81,0,0,0-1.35.57,2.58,2.58,0,0,0-.68,1.48Z"/></g><g><path fill="#2f2f2f" d="M73.67,335.1H71.26l-.69-2.18H67.08l-.69,2.18H64l3.57-9.8h2.61Zm-3.61-3.87-1-3.3a4.58,4.58,0,0,1-.17-.88h0a3.74,3.74,0,0,1-.17.86l-1.07,3.32Z"/><path fill="#2f2f2f" d="M79.81,334.85a4.34,4.34,0,0,1-2.12.42,3.59,3.59,0,0,1-2.61-1,3.43,3.43,0,0,1-1-2.53A3.73,3.73,0,0,1,75.15,329a4,4,0,0,1,2.86-1,3.68,3.68,0,0,1,1.8.33v1.83a2.54,2.54,0,0,0-1.52-.5,2,2,0,0,0-1.47.54,2,2,0,0,0-.54,1.5,2,2,0,0,0,.52,1.46,1.91,1.91,0,0,0,1.43.53,2.87,2.87,0,0,0,1.58-.51Z"/><path fill="#2f2f2f" d="M86.5,334.85a4.28,4.28,0,0,1-2.11.42,3.59,3.59,0,0,1-2.61-1,3.39,3.39,0,0,1-1-2.53A3.73,3.73,0,0,1,81.85,329a4,4,0,0,1,2.86-1,3.64,3.64,0,0,1,1.79.33v1.83a2.49,2.49,0,0,0-1.51-.5,2,2,0,0,0-1.47.54,2,2,0,0,0-.54,1.5,2,2,0,0,0,.52,1.46,1.9,1.9,0,0,0,1.42.53,2.82,2.82,0,0,0,1.58-.51Z"/><path fill="#2f2f2f" d="M94.22,332.22H89.65c.08,1,.72,1.52,1.92,1.52a3.78,3.78,0,0,0,2-.54v1.55a5.24,5.24,0,0,1-2.52.52,3.26,3.26,0,0,1-3.57-3.56,3.73,3.73,0,0,1,1-2.76,3.35,3.35,0,0,1,2.48-1,3.09,3.09,0,0,1,2.37.91,3.51,3.51,0,0,1,.84,2.47Zm-2-1.33c0-1-.41-1.5-1.22-1.5a1.14,1.14,0,0,0-.9.43,1.93,1.93,0,0,0-.46,1.07Z"/><path fill="#2f2f2f" d="M97.77,334.29h0v4H95.58V328.1h2.16v1.06h0a2.54,2.54,0,0,1,2.25-1.23,2.5,2.5,0,0,1,2.1.94,3.92,3.92,0,0,1,.74,2.54,4.26,4.26,0,0,1-.86,2.8,2.81,2.81,0,0,1-2.3,1.06A2.17,2.17,0,0,1,97.77,334.29Zm-.06-2.87V332a1.8,1.8,0,0,0,.38,1.18,1.24,1.24,0,0,0,1,.46,1.32,1.32,0,0,0,1.14-.57,2.77,2.77,0,0,0,.41-1.62c0-1.23-.48-1.84-1.44-1.84a1.33,1.33,0,0,0-1.08.5A2,2,0,0,0,97.71,331.42Z"/><path fill="#2f2f2f" d="M108.49,335a3.18,3.18,0,0,1-1.44.25,2.06,2.06,0,0,1-2.29-2.37v-3.2h-1.13v-1.6h1.13v-1.51l2.16-.61v2.12h1.57v1.6h-1.57v2.83c0,.73.29,1.09.87,1.09a1.5,1.5,0,0,0,.7-.2Z"/></g><g><path fill="#2f2f2f" d="M386,160.2h-5.84v-9.81h2.21v8H386Z"/><path fill="#2f2f2f" d="M390.42,160.37a3.79,3.79,0,0,1-2.75-1,4.06,4.06,0,0,1,0-5.38,3.9,3.9,0,0,1,2.81-1,3.72,3.72,0,0,1,2.74,1,3.48,3.48,0,0,1,1,2.59,3.7,3.7,0,0,1-1,2.76A3.81,3.81,0,0,1,390.42,160.37Zm.06-5.69a1.44,1.44,0,0,0-1.19.53,2.34,2.34,0,0,0-.42,1.49q0,2,1.62,2t1.56-2.07C392.05,155.33,391.52,154.68,390.48,154.68Z"/><path fill="#2f2f2f" d="M401.46,160.2h-2v-1h0a2.27,2.27,0,0,1-2.08,1.18,2.18,2.18,0,0,1-1.61-.58,2.06,2.06,0,0,1-.58-1.54c0-1.36.8-2.14,2.41-2.35l1.9-.26c0-.76-.41-1.14-1.24-1.14a4.28,4.28,0,0,0-2.38.74v-1.63a5.66,5.66,0,0,1,1.23-.41,7,7,0,0,1,1.43-.17c2,0,3,1,3,3Zm-2-2.85v-.47l-1.27.17c-.7.09-1.05.4-1.05.95a.79.79,0,0,0,.25.6,1,1,0,0,0,.7.24,1.29,1.29,0,0,0,1-.42A1.56,1.56,0,0,0,399.43,157.35Z"/><path fill="#2f2f2f" d="M410,160.2h-2.16v-1h0a2.44,2.44,0,0,1-2.17,1.14,2.63,2.63,0,0,1-2.11-.93,3.81,3.81,0,0,1-.8-2.59,4.17,4.17,0,0,1,.88-2.78,2.9,2.9,0,0,1,2.31-1,2,2,0,0,1,1.89,1h0v-4.17H410Zm-2.12-3.41v-.52a1.68,1.68,0,0,0-.39-1.14,1.4,1.4,0,0,0-2.16.12,2.66,2.66,0,0,0-.4,1.54,2.3,2.3,0,0,0,.39,1.43,1.4,1.4,0,0,0,2.15,0A2.18,2.18,0,0,0,407.92,156.79Z"/></g><g><path fill="#2f2f2f" d="M583.54,171.6h-2.41l-.7-2.18H577l-.69,2.18h-2.4l3.57-9.8h2.62Zm-3.61-3.88-1-3.29a4,4,0,0,1-.17-.88h-.05a4.27,4.27,0,0,1-.17.85l-1.07,3.32Z"/><path fill="#2f2f2f" d="M590.44,171.6h-6.28v-.9l3.51-4.51h-3.16V164.6h5.91v1.07L587.09,170h3.35Z"/><path fill="#2f2f2f" d="M598.33,171.6h-2.16v-1.07h0a2.45,2.45,0,0,1-2.14,1.24c-1.62,0-2.44-1-2.44-3V164.6h2.16v4c0,1,.39,1.49,1.17,1.49a1.16,1.16,0,0,0,.93-.41,1.6,1.6,0,0,0,.35-1.1v-4h2.16Z"/><path fill="#2f2f2f" d="M604.66,166.55a1.88,1.88,0,0,0-.91-.21,1.31,1.31,0,0,0-1.1.51,2.23,2.23,0,0,0-.4,1.41v3.34h-2.16v-7h2.16v1.3h0a1.87,1.87,0,0,1,1.85-1.42,1.31,1.31,0,0,1,.53.08Z"/><path fill="#2f2f2f" d="M612,168.72h-4.56c.07,1,.71,1.52,1.92,1.52a3.72,3.72,0,0,0,2-.55v1.56a5.31,5.31,0,0,1-2.53.52,3.25,3.25,0,0,1-3.56-3.56,3.72,3.72,0,0,1,1-2.76,3.36,3.36,0,0,1,2.49-1,3,3,0,0,1,2.36.91,3.49,3.49,0,0,1,.84,2.47Zm-2-1.33c0-1-.41-1.5-1.22-1.5a1.17,1.17,0,0,0-.9.43,2,2,0,0,0-.46,1.07Z"/><path fill="#2f2f2f" d="M625.54,171.6h-2.79l-2.86-4.26a4.71,4.71,0,0,1-.26-.54h0v4.8h-2.21v-9.8h2.21v4.63h0c.06-.13.15-.31.28-.54l2.7-4.09h2.64l-3.42,4.67Z"/><path fill="#2f2f2f" d="M632.27,168.72H627.7c.07,1,.71,1.52,1.92,1.52a3.7,3.7,0,0,0,2-.55v1.56a5.3,5.3,0,0,1-2.52.52,3.26,3.26,0,0,1-3.57-3.56,3.76,3.76,0,0,1,1-2.76,3.39,3.39,0,0,1,2.49-1,3.05,3.05,0,0,1,2.37.91,3.49,3.49,0,0,1,.84,2.47Zm-2-1.33c0-1-.4-1.5-1.21-1.5a1.14,1.14,0,0,0-.9.43,1.84,1.84,0,0,0-.46,1.07Z"/><path fill="#2f2f2f" d="M640.11,164.6l-2.84,7.56q-1,2.73-3.09,2.73a3.85,3.85,0,0,1-1.29-.18V173a1.78,1.78,0,0,0,.93.25,1.15,1.15,0,0,0,1.16-.79l.37-.86-2.84-7h2.39l1.31,4.26a6.21,6.21,0,0,1,.19.94h0a6.1,6.1,0,0,1,.22-.93L638,164.6Z"/><path fill="#2f2f2f" d="M653.22,161.8l-3.38,9.8h-2.5L644,161.8h2.38l2,6.82a4.61,4.61,0,0,1,.2,1h0a6.4,6.4,0,0,1,.22-1l2-6.79Z"/><path fill="#2f2f2f" d="M659.42,171.6h-2v-1h0a2.29,2.29,0,0,1-2.09,1.17,2.17,2.17,0,0,1-1.6-.58,2.06,2.06,0,0,1-.58-1.54c0-1.36.8-2.14,2.41-2.35l1.9-.25c0-.77-.42-1.15-1.24-1.15a4.28,4.28,0,0,0-2.38.74V165a5.17,5.17,0,0,1,1.23-.41,6.42,6.42,0,0,1,1.43-.18,2.64,2.64,0,0,1,3,3Zm-2-2.84v-.48l-1.27.17c-.7.09-1,.41-1,1a.77.77,0,0,0,.25.6,1,1,0,0,0,.7.24,1.29,1.29,0,0,0,1-.42A1.55,1.55,0,0,0,657.39,168.76Z"/><path fill="#2f2f2f" d="M667.77,171.6h-2.15v-1.07h0a2.45,2.45,0,0,1-2.14,1.24c-1.63,0-2.44-1-2.44-3V164.6h2.16v4c0,1,.39,1.49,1.17,1.49a1.16,1.16,0,0,0,.93-.41,1.65,1.65,0,0,0,.35-1.1v-4h2.15Z"/><path fill="#2f2f2f" d="M671.7,171.6h-2.16V161.24h2.16Z"/><path fill="#2f2f2f" d="M677.69,171.52a3.18,3.18,0,0,1-1.44.25q-2.28,0-2.28-2.37v-3.21h-1.14V164.6H674v-1.51l2.15-.62v2.13h1.57v1.59h-1.57V169c0,.73.29,1.1.87,1.1a1.46,1.46,0,0,0,.7-.2Z"/></g><g><path fill="#2f2f2f" d="M175.87,442.6h-2.41l-.69-2.18h-3.49l-.69,2.18H166.2l3.57-9.8h2.61Zm-3.61-3.88-1-3.29a4.74,4.74,0,0,1-.17-.88h0a3.66,3.66,0,0,1-.17.85l-1.07,3.32Z"/><path fill="#2f2f2f" d="M183.63,442.6h-2.16v-3.89c0-1.08-.38-1.63-1.16-1.63a1.17,1.17,0,0,0-.92.43,1.67,1.67,0,0,0-.36,1.1v4h-2.16v-7H179v1.11h0a2.49,2.49,0,0,1,2.25-1.28c1.55,0,2.33,1,2.33,2.88Z"/><path fill="#2f2f2f" d="M191.8,435.6,189,443.16q-1,2.73-3.09,2.73a3.93,3.93,0,0,1-1.29-.18V444a1.81,1.81,0,0,0,.94.25,1.17,1.17,0,0,0,1.16-.79l.37-.86-2.84-7h2.39l1.3,4.26a5.12,5.12,0,0,1,.2.94h0a6.25,6.25,0,0,1,.23-.93l1.32-4.27Z"/><path fill="#2f2f2f" d="M196.29,442.22V440a4.44,4.44,0,0,0,1.29.75A4.35,4.35,0,0,0,199,441a3.17,3.17,0,0,0,.73-.07,1.77,1.77,0,0,0,.52-.21.92.92,0,0,0,.31-.31.79.79,0,0,0,.1-.4.84.84,0,0,0-.16-.51,1.83,1.83,0,0,0-.45-.42,5.76,5.76,0,0,0-.67-.37l-.85-.36a4.37,4.37,0,0,1-1.71-1.17,2.56,2.56,0,0,1-.56-1.66,2.63,2.63,0,0,1,.31-1.32,2.59,2.59,0,0,1,.83-.91,4,4,0,0,1,1.23-.52,6.45,6.45,0,0,1,1.48-.17,7.75,7.75,0,0,1,1.35.1,5,5,0,0,1,1.09.28v2a3.85,3.85,0,0,0-.53-.3,5,5,0,0,0-1.21-.34,4,4,0,0,0-.58,0,2.84,2.84,0,0,0-.68.07,2,2,0,0,0-.52.2,1.1,1.1,0,0,0-.33.31.73.73,0,0,0-.12.41.84.84,0,0,0,.13.44,1.62,1.62,0,0,0,.37.37,3.42,3.42,0,0,0,.58.34l.77.35a8.06,8.06,0,0,1,1.06.52,3.65,3.65,0,0,1,.8.63,2.31,2.31,0,0,1,.52.79,2.82,2.82,0,0,1,.17,1.05,2.75,2.75,0,0,1-.31,1.37,2.5,2.5,0,0,1-.84.9,3.71,3.71,0,0,1-1.24.5,7.17,7.17,0,0,1-1.49.15,7.67,7.67,0,0,1-1.54-.14A4.24,4.24,0,0,1,196.29,442.22Z"/><path fill="#2f2f2f" d="M210.67,439.72H206.1c.07,1,.71,1.52,1.92,1.52a3.7,3.7,0,0,0,2-.55v1.56a5.3,5.3,0,0,1-2.52.52,3.26,3.26,0,0,1-3.57-3.56,3.76,3.76,0,0,1,1-2.76,3.37,3.37,0,0,1,2.49-1,3.05,3.05,0,0,1,2.37.91,3.49,3.49,0,0,1,.84,2.47Zm-2-1.33c0-1-.4-1.5-1.21-1.5a1.14,1.14,0,0,0-.9.43,1.84,1.84,0,0,0-.46,1.07Z"/><path fill="#2f2f2f" d="M216.6,437.55a1.91,1.91,0,0,0-.91-.21,1.31,1.31,0,0,0-1.1.51,2.23,2.23,0,0,0-.4,1.41v3.34H212v-7h2.16v1.3h0a1.86,1.86,0,0,1,1.84-1.42,1.34,1.34,0,0,1,.54.08Z"/><path fill="#2f2f2f" d="M224.7,435.6l-2.61,7h-2.46l-2.48-7h2.31l1.22,4.31a7.66,7.66,0,0,1,.24,1.25h0a6.66,6.66,0,0,1,.26-1.21l1.24-4.35Z"/><path fill="#2f2f2f" d="M231.68,439.72h-4.56c.07,1,.71,1.52,1.92,1.52a3.72,3.72,0,0,0,2-.55v1.56a5.3,5.3,0,0,1-2.52.52,3.25,3.25,0,0,1-3.57-3.56,3.72,3.72,0,0,1,1-2.76,3.36,3.36,0,0,1,2.49-1,3.05,3.05,0,0,1,2.37.91,3.53,3.53,0,0,1,.83,2.47Zm-2-1.33c0-1-.41-1.5-1.22-1.5a1.17,1.17,0,0,0-.9.43,2,2,0,0,0-.46,1.07Z"/><path fill="#2f2f2f" d="M237.61,437.55a1.87,1.87,0,0,0-.9-.21,1.34,1.34,0,0,0-1.11.51,2.29,2.29,0,0,0-.39,1.41v3.34h-2.16v-7h2.16v1.3h0a1.86,1.86,0,0,1,1.84-1.42,1.25,1.25,0,0,1,.53.08Z"/></g></g></svg>