<svg xmlns="http://www.w3.org/2000/svg" xmlns:xlink="http://www.w3.org/1999/xlink" viewBox="0 0 668.8 117.36"><defs><linearGradient id="Dk_Blue_Gradient" x1="341" x2="341" y1="48.4" data-name="Dk Blue Gradient" gradientUnits="userSpaceOnUse"><stop offset="0" stop-color="#005ca1"/><stop offset=".07" stop-color="#0161aa"/><stop offset=".36" stop-color="#2571b8"/><stop offset=".52" stop-color="#2e76bc"/><stop offset=".64" stop-color="#2973ba"/><stop offset=".82" stop-color="#166bb5"/><stop offset="1" stop-color="#005ca1"/></linearGradient><linearGradient id="Dk_Blue_Gradient-2" x1="475.2" x2="475.2" y1="48.4" xlink:href="#Dk_Blue_Gradient"/><linearGradient id="Dk_Blue_Gradient-3" x1="602.8" x2="602.8" y1="48.4" xlink:href="#Dk_Blue_Gradient"/><linearGradient id="Dk_Blue_Gradient-4" x1="12" x2="12" y1="116.8" y2="96.8" xlink:href="#Dk_Blue_Gradient"/></defs><g id="Shapes"><rect width="668.8" height="117.36" fill="#fff"/><polygon fill="#b6d43a" fill-opacity=".7" points="268.4 48.4 140.8 48.4 149.6 26.1 140.8 0 268.4 0 277.2 26.1 268.4 48.4"/><polygon fill="url(#Dk_Blue_Gradient)" fill-opacity=".52" points="400.4 48.4 272.8 48.4 281.6 26.1 272.8 0 400.4 0 409.2 26.1 400.4 48.4"/><polygon fill="url(#Dk_Blue_Gradient-2)" fill-opacity=".52" points="532.4 48.4 404.8 48.4 413.6 26.1 404.8 0 532.4 0 545.6 26.1 532.4 48.4"/><polygon fill="#b6d43a" fill-opacity=".7" points="136.4 48.4 0 48.4 0 0 136.4 0 145.2 26.1 136.4 48.4"/><polygon fill="url(#Dk_Blue_Gradient-3)" fill-opacity=".52" points="668.8 48.4 536.8 48.4 550 26.1 536.8 0 668.8 0 668.8 48.4"/><rect width="20" height="20" x="2" y="70.4" fill="#b6d43a" fill-opacity=".7"/><rect width="20" height="20" x="2" y="96.8" fill="url(#Dk_Blue_Gradient-4)" fill-opacity=".52"/></g><g id="Text"><g><path fill="#2f2f2f" d="M34.63,29.46H28.75v-9.8H34.4v1.8H31v2.18h3.21v1.79H31v2.24h3.67Z"/><path fill="#2f2f2f" d="M42.84,29.46H40.69V25.57c0-1.08-.39-1.62-1.16-1.62a1.13,1.13,0,0,0-.92.43,1.58,1.58,0,0,0-.37,1.09v4H36.08v-7h2.16v1.11h0a2.48,2.48,0,0,1,2.25-1.28c1.55,0,2.32,1,2.32,2.89Z"/><path fill="#2f2f2f" d="M51,22.46l-2.61,7H46l-2.48-7h2.31L47,26.78A7.38,7.38,0,0,1,47.25,28h0a7.79,7.79,0,0,1,.26-1.2l1.24-4.36Z"/><path fill="#2f2f2f" d="M53.07,21.36a1.24,1.24,0,0,1-.89-.33,1,1,0,0,1-.35-.8,1,1,0,0,1,.35-.79,1.45,1.45,0,0,1,1.79,0,1,1,0,0,1,.35.79A1.05,1.05,0,0,1,54,21,1.29,1.29,0,0,1,53.07,21.36Zm1.07,8.1H52v-7h2.16Z"/><path fill="#2f2f2f" d="M60.49,24.41a1.91,1.91,0,0,0-.91-.21,1.29,1.29,0,0,0-1.1.52,2.2,2.2,0,0,0-.4,1.4v3.34H55.92v-7h2.16v1.3h0A1.86,1.86,0,0,1,60,22.34a1.54,1.54,0,0,1,.54.08Z"/><path fill="#2f2f2f" d="M64.91,29.63a3.75,3.75,0,0,1-2.75-1,3.54,3.54,0,0,1-1-2.66,3.58,3.58,0,0,1,1-2.72,3.94,3.94,0,0,1,2.81-1,3.72,3.72,0,0,1,2.73,1,3.51,3.51,0,0,1,1,2.6,3.69,3.69,0,0,1-1,2.75A3.77,3.77,0,0,1,64.91,29.63ZM65,24a1.44,1.44,0,0,0-1.19.52A2.34,2.34,0,0,0,63.36,26c0,1.35.54,2,1.62,2s1.55-.69,1.55-2.07S66,24,65,24Z"/><path fill="#2f2f2f" d="M76.88,29.46H74.72V25.57c0-1.08-.38-1.62-1.16-1.62a1.14,1.14,0,0,0-.92.43,1.63,1.63,0,0,0-.36,1.09v4H70.12v-7h2.16v1.11h0a2.49,2.49,0,0,1,2.25-1.28c1.55,0,2.33,1,2.33,2.89Z"/><path fill="#2f2f2f" d="M89.69,29.46H87.54v-4c0-1-.38-1.52-1.13-1.52a1,1,0,0,0-.86.45,1.87,1.87,0,0,0-.34,1.15v3.91H83.05v-4c0-1-.36-1.48-1.1-1.48a1,1,0,0,0-.88.43,1.89,1.89,0,0,0-.34,1.19v3.89H78.57v-7h2.16v1.1h0a2.59,2.59,0,0,1,.94-.92A2.66,2.66,0,0,1,83,22.29a2,2,0,0,1,2,1.31,2.61,2.61,0,0,1,2.36-1.31q2.28,0,2.28,2.82Z"/><path fill="#2f2f2f" d="M97.71,26.58H93.14c.08,1,.72,1.52,1.92,1.52a3.78,3.78,0,0,0,2-.54v1.55a5.24,5.24,0,0,1-2.52.52A3.26,3.26,0,0,1,91,26.07a3.73,3.73,0,0,1,1-2.76,3.35,3.35,0,0,1,2.48-1,3.07,3.07,0,0,1,2.37.91,3.51,3.51,0,0,1,.84,2.47Zm-2-1.33c0-1-.41-1.5-1.22-1.5a1.14,1.14,0,0,0-.9.43,1.93,1.93,0,0,0-.46,1.07Z"/><path fill="#2f2f2f" d="M105.84,29.46h-2.16V25.57c0-1.08-.39-1.62-1.16-1.62a1.14,1.14,0,0,0-.92.43,1.63,1.63,0,0,0-.37,1.09v4H99.07v-7h2.16v1.11h0a2.49,2.49,0,0,1,2.25-1.28c1.55,0,2.33,1,2.33,2.89Z"/><path fill="#2f2f2f" d="M111.69,29.38a3.2,3.2,0,0,1-1.45.25q-2.28,0-2.28-2.37v-3.2h-1.14v-1.6H108V21l2.15-.61v2.12h1.58v1.6h-1.58v2.83c0,.73.29,1.09.87,1.09a1.53,1.53,0,0,0,.71-.2Z"/></g><g><path fill="#2f2f2f" d="M324.62,31h-2.2V21.2h2.2Z"/><path fill="#2f2f2f" d="M333.33,31h-2.16V27.11c0-1.08-.39-1.63-1.16-1.63a1.15,1.15,0,0,0-.92.44,1.63,1.63,0,0,0-.37,1.09v4h-2.16V24h2.16v1.11h0A2.49,2.49,0,0,1,331,23.83c1.55,0,2.33,1,2.33,2.89Z"/><path fill="#2f2f2f" d="M339.18,30.92a3.23,3.23,0,0,1-1.45.25q-2.28,0-2.28-2.37V25.59h-1.14V24h1.14V22.49l2.15-.61V24h1.58v1.59H337.6v2.83c0,.73.29,1.1.87,1.1a1.53,1.53,0,0,0,.71-.2Z"/><path fill="#2f2f2f" d="M346.66,28.12H342.1c.07,1,.71,1.52,1.92,1.52a3.72,3.72,0,0,0,2-.55v1.56a5.31,5.31,0,0,1-2.53.52A3.26,3.26,0,0,1,340,27.61a3.73,3.73,0,0,1,1-2.76,3.35,3.35,0,0,1,2.48-1,3,3,0,0,1,2.37.91,3.51,3.51,0,0,1,.84,2.47Zm-2-1.33c0-1-.41-1.5-1.22-1.5a1.17,1.17,0,0,0-.9.43,2,2,0,0,0-.46,1.07Z"/><path fill="#2f2f2f" d="M350.18,31H348V20.64h2.16Z"/><path fill="#2f2f2f" d="M354.1,31h-2.16V20.64h2.16Z"/><path fill="#2f2f2f" d="M357,22.89a1.23,1.23,0,0,1-.89-.32,1,1,0,0,1-.35-.8,1,1,0,0,1,.35-.79,1.45,1.45,0,0,1,1.79,0,1,1,0,0,1,.35.79,1.05,1.05,0,0,1-.35.81A1.28,1.28,0,0,1,357,22.89ZM358,31h-2.16V24H358Z"/><path fill="#2f2f2f" d="M364.08,27.11a4.52,4.52,0,0,1-.91,3,3.35,3.35,0,0,1-2.65,1,3.86,3.86,0,0,1-1.42-.26V28.83a2,2,0,0,0,1.27.44c1,0,1.51-.75,1.51-2.25V21.2h2.2Z"/></g><g><path fill="#2f2f2f" d="M188.43,21.66h-2.19V15.8q0-1,.09-2.1h-.06A8.63,8.63,0,0,1,186,15l-2.29,6.66h-1.81l-2.33-6.59a11.32,11.32,0,0,1-.31-1.37h-.06c.06,1,.08,1.81.08,2.54v5.42h-2v-9.8h3.23l2,5.81a8,8,0,0,1,.35,1.4h0a12.56,12.56,0,0,1,.39-1.41l2-5.8h3.16Z"/><path fill="#2f2f2f" d="M196.25,21.66H194.2v-1h0a2.28,2.28,0,0,1-2.08,1.17,2.19,2.19,0,0,1-1.6-.57,2.09,2.09,0,0,1-.59-1.55c0-1.35.81-2.14,2.42-2.35l1.9-.25c0-.77-.42-1.15-1.25-1.15a4.24,4.24,0,0,0-2.38.75V15.08a5.58,5.58,0,0,1,1.24-.41,6.34,6.34,0,0,1,1.42-.18c2,0,3,1,3,3Zm-2-2.84v-.47l-1.28.16c-.7.09-1.05.41-1.05.95a.8.8,0,0,0,.26.61,1,1,0,0,0,.69.23,1.26,1.26,0,0,0,1-.42A1.49,1.49,0,0,0,194.22,18.82Z"/><path fill="#2f2f2f" d="M204.7,21.66h-2.15V17.77c0-1.08-.39-1.62-1.16-1.62a1.16,1.16,0,0,0-.93.43,1.63,1.63,0,0,0-.36,1.09v4h-2.16v-7h2.16v1.11h0a2.47,2.47,0,0,1,2.25-1.28c1.55,0,2.32,1,2.32,2.89Z"/><path fill="#2f2f2f" d="M212.27,21.66h-2.05v-1h0a2.29,2.29,0,0,1-2.09,1.17,2.19,2.19,0,0,1-1.6-.57,2.09,2.09,0,0,1-.59-1.55c0-1.35.81-2.14,2.42-2.35l1.9-.25c0-.77-.42-1.15-1.25-1.15a4.26,4.26,0,0,0-2.38.75V15.08a6,6,0,0,1,1.24-.41,6.41,6.41,0,0,1,1.42-.18c2,0,3,1,3,3Zm-2-2.84v-.47l-1.27.16c-.71.09-1.06.41-1.06.95a.8.8,0,0,0,.26.61,1,1,0,0,0,.69.23,1.3,1.3,0,0,0,1-.42A1.53,1.53,0,0,0,210.24,18.82Z"/><path fill="#2f2f2f" d="M220.86,20.86a3.93,3.93,0,0,1-1.13,3A4.57,4.57,0,0,1,216.47,25a5.13,5.13,0,0,1-2.24-.4V22.73a4.24,4.24,0,0,0,2.18.63,2.33,2.33,0,0,0,1.69-.58,2.07,2.07,0,0,0,.6-1.57v-.55h0a2.43,2.43,0,0,1-2.19,1.17,2.6,2.6,0,0,1-2.12-.94,3.79,3.79,0,0,1-.79-2.53,4.23,4.23,0,0,1,.88-2.82,2.84,2.84,0,0,1,2.3-1,2.14,2.14,0,0,1,1.92,1h0v-.82h2.16Zm-2.13-2.56v-.55a1.73,1.73,0,0,0-.39-1.14,1.39,1.39,0,0,0-2.15.1,2.58,2.58,0,0,0-.41,1.58,2.22,2.22,0,0,0,.39,1.38,1.26,1.26,0,0,0,1.06.51,1.32,1.32,0,0,0,1.09-.52A2.14,2.14,0,0,0,218.73,18.3Z"/><path fill="#2f2f2f" d="M229,18.78h-4.57c.07,1,.71,1.52,1.92,1.52a3.78,3.78,0,0,0,2-.54v1.55a5.3,5.3,0,0,1-2.52.52,3.26,3.26,0,0,1-3.57-3.56,3.76,3.76,0,0,1,1-2.76,3.39,3.39,0,0,1,2.49-1,3.09,3.09,0,0,1,2.37.91,3.51,3.51,0,0,1,.84,2.47Zm-2-1.33c0-1-.4-1.5-1.21-1.5a1.14,1.14,0,0,0-.9.43,1.87,1.87,0,0,0-.46,1.07Z"/><path fill="#2f2f2f" d="M237.2,21.66H235v-1h0a2.4,2.4,0,0,1-2.16,1.13,2.66,2.66,0,0,1-2.12-.92,3.86,3.86,0,0,1-.79-2.59,4.16,4.16,0,0,1,.88-2.78,2.86,2.86,0,0,1,2.31-1,2,2,0,0,1,1.88,1h0V11.3h2.16Zm-2.12-3.4v-.53a1.67,1.67,0,0,0-.39-1.13,1.33,1.33,0,0,0-1-.45,1.3,1.3,0,0,0-1.12.56,2.62,2.62,0,0,0-.4,1.55,2.26,2.26,0,0,0,.39,1.42,1.38,1.38,0,0,0,2.15,0A2.21,2.21,0,0,0,235.08,18.26Z"/><path fill="#2f2f2f" d="M184.53,38.46h-2.21v-9.8h2.21Z"/><path fill="#2f2f2f" d="M193.4,38.46h-2.16v-1h0A2.41,2.41,0,0,1,189,38.63a2.64,2.64,0,0,1-2.11-.92,3.86,3.86,0,0,1-.8-2.59,4.16,4.16,0,0,1,.88-2.78,2.88,2.88,0,0,1,2.31-1.05,2,2,0,0,1,1.89,1h0V28.1h2.16Zm-2.12-3.4v-.53a1.63,1.63,0,0,0-.4-1.13,1.31,1.31,0,0,0-1-.45,1.29,1.29,0,0,0-1.12.56,2.62,2.62,0,0,0-.41,1.55,2.26,2.26,0,0,0,.39,1.42,1.38,1.38,0,0,0,2.15,0A2.15,2.15,0,0,0,191.28,35.06Z"/><path fill="#2f2f2f" d="M201.5,35.58h-4.56c.07,1,.71,1.52,1.92,1.52a3.78,3.78,0,0,0,2-.54v1.55a5.3,5.3,0,0,1-2.52.52,3.25,3.25,0,0,1-3.57-3.56,3.76,3.76,0,0,1,1-2.76,3.36,3.36,0,0,1,2.49-1,3.09,3.09,0,0,1,2.37.91,3.5,3.5,0,0,1,.83,2.47Zm-2-1.33c0-1-.4-1.5-1.22-1.5a1.14,1.14,0,0,0-.89.43,1.94,1.94,0,0,0-.47,1.07Z"/><path fill="#2f2f2f" d="M209.63,38.46h-2.15V34.57c0-1.08-.39-1.62-1.16-1.62a1.15,1.15,0,0,0-.93.43,1.63,1.63,0,0,0-.36,1.09v4h-2.16v-7H205v1.11h0a2.47,2.47,0,0,1,2.25-1.28c1.55,0,2.32,1,2.32,2.89Z"/><path fill="#2f2f2f" d="M215.48,38.38a3.18,3.18,0,0,1-1.44.25,2.06,2.06,0,0,1-2.29-2.37v-3.2h-1.13v-1.6h1.13V30l2.16-.61v2.12h1.57v1.6h-1.57v2.83c0,.72.29,1.09.87,1.09a1.5,1.5,0,0,0,.7-.2Z"/><path fill="#2f2f2f" d="M217.86,30.36A1.25,1.25,0,0,1,217,30a1.06,1.06,0,0,1-.35-.8,1,1,0,0,1,.35-.79,1.46,1.46,0,0,1,1.8,0,1,1,0,0,1,.34.79,1,1,0,0,1-.34.81A1.29,1.29,0,0,1,217.86,30.36Zm1.06,8.1h-2.16v-7h2.16Z"/><path fill="#2f2f2f" d="M224.86,38.38a3.18,3.18,0,0,1-1.44.25,2.06,2.06,0,0,1-2.29-2.37v-3.2H220v-1.6h1.13V30l2.16-.61v2.12h1.57v1.6h-1.57v2.83c0,.72.29,1.09.87,1.09a1.5,1.5,0,0,0,.7-.2Z"/><path fill="#2f2f2f" d="M233.09,31.46,230.24,39q-1,2.73-3.09,2.73a3.93,3.93,0,0,1-1.29-.18V39.85a1.81,1.81,0,0,0,.94.25,1.17,1.17,0,0,0,1.16-.78l.37-.87-2.85-7h2.4l1.3,4.26a5.36,5.36,0,0,1,.19.94h0a6.15,6.15,0,0,1,.23-.92L231,31.46Z"/></g><g><path fill="#2f2f2f" d="M441.66,11.86l-3.38,9.8h-2.5l-3.34-9.8h2.38l2.05,6.82a5.5,5.5,0,0,1,.2,1h0a5.27,5.27,0,0,1,.21-1l2-6.8Z"/><path fill="#2f2f2f" d="M443.79,13.56a1.25,1.25,0,0,1-.9-.33,1.06,1.06,0,0,1-.35-.8,1,1,0,0,1,.35-.79,1.46,1.46,0,0,1,1.8,0,1,1,0,0,1,.34.79,1,1,0,0,1-.34.81A1.29,1.29,0,0,1,443.79,13.56Zm1.06,8.1h-2.16v-7h2.16Z"/><path fill="#2f2f2f" d="M446.29,21.48V19.73a5,5,0,0,0,1.07.48,3.62,3.62,0,0,0,1,.15,2.22,2.22,0,0,0,.9-.15.52.52,0,0,0,.33-.48.43.43,0,0,0-.15-.34,1.38,1.38,0,0,0-.38-.24,5.19,5.19,0,0,0-.52-.19q-.27-.08-.54-.18a5.59,5.59,0,0,1-.73-.34,2.29,2.29,0,0,1-.54-.42,1.59,1.59,0,0,1-.32-.55,2.11,2.11,0,0,1-.12-.75,1.92,1.92,0,0,1,.26-1,2.13,2.13,0,0,1,.68-.69,3.06,3.06,0,0,1,1-.4,4.83,4.83,0,0,1,1.15-.13,6.56,6.56,0,0,1,1.88.28v1.67a3.26,3.26,0,0,0-.88-.36,3.69,3.69,0,0,0-.92-.12,1.75,1.75,0,0,0-.4,0,1.17,1.17,0,0,0-.33.11.67.67,0,0,0-.22.18.41.41,0,0,0-.09.26.49.49,0,0,0,.13.33,1,1,0,0,0,.32.23,2.53,2.53,0,0,0,.44.18l.48.16a5.72,5.72,0,0,1,.78.33,2.67,2.67,0,0,1,.6.42,1.55,1.55,0,0,1,.38.56,1.94,1.94,0,0,1,.14.76,2,2,0,0,1-.27,1.07,2.13,2.13,0,0,1-.72.71,3.27,3.27,0,0,1-1,.41,6.08,6.08,0,0,1-1.22.12A6.2,6.2,0,0,1,446.29,21.48Z"/><path fill="#2f2f2f" d="M459.62,21.66h-2.15V20.6h0a2.43,2.43,0,0,1-2.14,1.23q-2.43,0-2.43-2.94V14.66H455v4c0,1,.4,1.48,1.18,1.48a1.16,1.16,0,0,0,.93-.41,1.65,1.65,0,0,0,.35-1.1v-4h2.15Z"/><path fill="#2f2f2f" d="M467.27,21.66h-2v-1h0a2.29,2.29,0,0,1-2.09,1.17,2.21,2.21,0,0,1-1.6-.57,2.08,2.08,0,0,1-.58-1.55c0-1.35.8-2.14,2.41-2.35l1.9-.25c0-.77-.41-1.15-1.24-1.15a4.21,4.21,0,0,0-2.38.75V15.08a5.66,5.66,0,0,1,1.23-.41,6.42,6.42,0,0,1,1.43-.18,2.65,2.65,0,0,1,3,3Zm-2-2.84v-.47l-1.27.16c-.7.09-1.05.41-1.05.95a.79.79,0,0,0,.25.61,1,1,0,0,0,.7.23,1.29,1.29,0,0,0,1-.42A1.53,1.53,0,0,0,465.24,18.82Z"/><path fill="#2f2f2f" d="M471.13,21.66H469V11.3h2.16Z"/><path fill="#2f2f2f" d="M476.57,21.29V19.1a4.44,4.44,0,0,0,1.29.75,4.37,4.37,0,0,0,1.41.25A3.13,3.13,0,0,0,480,20a1.66,1.66,0,0,0,.52-.21.84.84,0,0,0,.31-.31.76.76,0,0,0,.1-.39.87.87,0,0,0-.16-.52,1.63,1.63,0,0,0-.45-.41,4.58,4.58,0,0,0-.67-.37l-.84-.36a4.33,4.33,0,0,1-1.72-1.17,2.59,2.59,0,0,1-.56-1.67,2.63,2.63,0,0,1,.31-1.32,2.56,2.56,0,0,1,.83-.9,4,4,0,0,1,1.23-.53,6.46,6.46,0,0,1,1.48-.16,9,9,0,0,1,1.35.09,5,5,0,0,1,1.09.28v2a2.5,2.5,0,0,0-.53-.3,4.31,4.31,0,0,0-.6-.22,4.76,4.76,0,0,0-.61-.13c-.2,0-.4,0-.58,0a3.47,3.47,0,0,0-.68.07,1.66,1.66,0,0,0-.52.21A1,1,0,0,0,479,14a.7.7,0,0,0-.12.4.81.81,0,0,0,.13.44,1.44,1.44,0,0,0,.37.37,4.92,4.92,0,0,0,.58.35l.78.34a10.28,10.28,0,0,1,1.05.52,4.36,4.36,0,0,1,.81.63,2.48,2.48,0,0,1,.51.8,2.73,2.73,0,0,1,.18,1,2.79,2.79,0,0,1-.32,1.38,2.42,2.42,0,0,1-.84.9,3.7,3.7,0,0,1-1.24.49,7.17,7.17,0,0,1-1.49.15,8.49,8.49,0,0,1-1.54-.13A4.78,4.78,0,0,1,476.57,21.29Z"/><path fill="#2f2f2f" d="M488.67,21.58a3.18,3.18,0,0,1-1.44.25c-1.53,0-2.29-.79-2.29-2.37v-3.2h-1.13v-1.6h1.13V13.15l2.16-.61v2.12h1.57v1.6H487.1v2.83c0,.73.28,1.09.86,1.09a1.5,1.5,0,0,0,.71-.2Z"/><path fill="#2f2f2f" d="M496.63,21.66h-2.15V20.6h0a2.43,2.43,0,0,1-2.13,1.23c-1.63,0-2.44-1-2.44-2.94V14.66H492v4c0,1,.39,1.48,1.17,1.48a1.16,1.16,0,0,0,.93-.41,1.65,1.65,0,0,0,.35-1.1v-4h2.15Z"/><path fill="#2f2f2f" d="M505.32,21.66h-2.16v-1h0A2.41,2.41,0,0,1,501,21.83a2.64,2.64,0,0,1-2.11-.92,3.86,3.86,0,0,1-.8-2.59,4.16,4.16,0,0,1,.88-2.78,2.88,2.88,0,0,1,2.31-1,2,2,0,0,1,1.89,1h0V11.3h2.16Zm-2.12-3.4v-.53a1.63,1.63,0,0,0-.4-1.13,1.31,1.31,0,0,0-1-.45,1.29,1.29,0,0,0-1.12.56,2.62,2.62,0,0,0-.41,1.55,2.26,2.26,0,0,0,.39,1.42,1.38,1.38,0,0,0,2.15,0A2.15,2.15,0,0,0,503.2,18.26Z"/><path fill="#2f2f2f" d="M508.18,13.56a1.26,1.26,0,0,1-.9-.33,1.06,1.06,0,0,1-.35-.8,1,1,0,0,1,.35-.79,1.35,1.35,0,0,1,.9-.31,1.33,1.33,0,0,1,.9.31,1,1,0,0,1,.34.79,1,1,0,0,1-.34.81A1.29,1.29,0,0,1,508.18,13.56Zm1.06,8.1h-2.16v-7h2.16Z"/><path fill="#2f2f2f" d="M514.36,21.83a3.72,3.72,0,0,1-2.75-1,3.54,3.54,0,0,1-1-2.66,3.58,3.58,0,0,1,1-2.72,4,4,0,0,1,2.81-1,3.75,3.75,0,0,1,2.74,1,3.51,3.51,0,0,1,1,2.6,3.69,3.69,0,0,1-1,2.75A3.8,3.8,0,0,1,514.36,21.83Zm0-5.68a1.44,1.44,0,0,0-1.19.52,2.34,2.34,0,0,0-.42,1.49c0,1.35.54,2,1.62,2s1.56-.69,1.56-2.07S515.45,16.15,514.41,16.15Z"/><path fill="#2f2f2f" d="M466.94,38.11a6.44,6.44,0,0,1-2.81.52,4.72,4.72,0,0,1-3.54-1.32,4.83,4.83,0,0,1-1.3-3.54A5.17,5.17,0,0,1,460.75,30a5,5,0,0,1,3.77-1.46,7.14,7.14,0,0,1,2.42.36V31a4.34,4.34,0,0,0-2.25-.58,3,3,0,0,0-2.22.86,3.22,3.22,0,0,0-.85,2.36,3.12,3.12,0,0,0,.8,2.26,2.79,2.79,0,0,0,2.15.85,4.62,4.62,0,0,0,2.37-.63Z"/><path fill="#2f2f2f" d="M471.68,38.63a3.72,3.72,0,0,1-2.75-1,3.54,3.54,0,0,1-1-2.66,3.57,3.57,0,0,1,1-2.72,4,4,0,0,1,2.81-1,3.73,3.73,0,0,1,2.74,1,3.51,3.51,0,0,1,1,2.6,3.69,3.69,0,0,1-1,2.75A3.79,3.79,0,0,1,471.68,38.63Zm.05-5.68a1.45,1.45,0,0,0-1.19.52,2.34,2.34,0,0,0-.42,1.49c0,1.35.54,2,1.63,2s1.55-.69,1.55-2.07S472.78,33,471.73,33Z"/><path fill="#2f2f2f" d="M483.77,38.46h-2.16v-1h0a2.43,2.43,0,0,1-2.17,1.13,2.63,2.63,0,0,1-2.11-.92,3.81,3.81,0,0,1-.8-2.59,4.16,4.16,0,0,1,.88-2.78,2.88,2.88,0,0,1,2.31-1.05,2,2,0,0,1,1.89,1h0V28.1h2.16Zm-2.12-3.4v-.53a1.67,1.67,0,0,0-.39-1.13,1.32,1.32,0,0,0-1-.45,1.3,1.3,0,0,0-1.13.56,2.69,2.69,0,0,0-.4,1.55,2.26,2.26,0,0,0,.39,1.42,1.38,1.38,0,0,0,2.15,0A2.15,2.15,0,0,0,481.65,35.06Z"/><path fill="#2f2f2f" d="M491.88,35.58h-4.57c.08,1,.72,1.52,1.92,1.52a3.81,3.81,0,0,0,2-.54v1.55a5.31,5.31,0,0,1-2.53.52,3.26,3.26,0,0,1-3.57-3.56,3.73,3.73,0,0,1,1-2.76,3.35,3.35,0,0,1,2.48-1,3.07,3.07,0,0,1,2.37.91,3.51,3.51,0,0,1,.84,2.47Zm-2-1.33c0-1-.41-1.5-1.22-1.5a1.17,1.17,0,0,0-.9.43,2,2,0,0,0-.46,1.07Z"/></g><g><path fill="#2f2f2f" d="M585.61,28.79h-2.4l-.7-2.18H579l-.69,2.18h-2.39l3.57-9.8h2.62ZM582,24.92l-1-3.3a4,4,0,0,1-.16-.88h-.06a3.74,3.74,0,0,1-.17.86l-1.07,3.32Z"/><path fill="#2f2f2f" d="M592.52,28.79h-6.28V27.9l3.51-4.51h-3.16v-1.6h5.9v1.07l-3.33,4.34h3.36Z"/><path fill="#2f2f2f" d="M600.4,28.79h-2.15V27.73h0A2.43,2.43,0,0,1,596.07,29q-2.43,0-2.43-2.94V21.79h2.15v4c0,1,.4,1.48,1.18,1.48a1.16,1.16,0,0,0,.93-.41,1.65,1.65,0,0,0,.35-1.1v-4h2.15Z"/><path fill="#2f2f2f" d="M606.73,23.74a1.84,1.84,0,0,0-.9-.21,1.29,1.29,0,0,0-1.1.52,2.2,2.2,0,0,0-.4,1.4v3.34h-2.16v-7h2.16v1.3h0a1.87,1.87,0,0,1,1.84-1.42,1.44,1.44,0,0,1,.53.08Z"/><path fill="#2f2f2f" d="M614.11,25.91h-4.57c.07,1,.71,1.52,1.92,1.52a3.78,3.78,0,0,0,2-.54v1.56A5.4,5.4,0,0,1,611,29a3.26,3.26,0,0,1-3.57-3.56,3.76,3.76,0,0,1,1-2.76,3.39,3.39,0,0,1,2.49-1,3.09,3.09,0,0,1,2.37.91,3.51,3.51,0,0,1,.84,2.47Zm-2-1.33c0-1-.41-1.5-1.22-1.5a1.14,1.14,0,0,0-.9.43,1.93,1.93,0,0,0-.46,1.07Z"/><path fill="#2f2f2f" d="M626.49,28.45a6.55,6.55,0,0,1-2.8.51,4.76,4.76,0,0,1-3.55-1.32,4.86,4.86,0,0,1-1.29-3.54,5.22,5.22,0,0,1,1.45-3.81,5.11,5.11,0,0,1,3.77-1.46,7.06,7.06,0,0,1,2.42.36v2.13a4.19,4.19,0,0,0-2.24-.59,3,3,0,0,0-2.23.87,3.22,3.22,0,0,0-.84,2.35,3.11,3.11,0,0,0,.8,2.26,2.79,2.79,0,0,0,2.15.85,4.56,4.56,0,0,0,2.36-.63Z"/><path fill="#2f2f2f" d="M634.06,28.79h-5.84V19h2.21v8h3.63Z"/><path fill="#2f2f2f" d="M637.42,28.79h-2.21V19h2.21Z"/></g><g><path fill="#2f2f2f" d="M32.09,85.6V75.8h2.7c3.46,0,5.18,1.59,5.18,4.78a4.8,4.8,0,0,1-1.44,3.64,5.31,5.31,0,0,1-3.85,1.38Zm1.14-8.76v7.72H34.7a4.16,4.16,0,0,0,3-1,3.89,3.89,0,0,0,1.07-2.93c0-2.51-1.33-3.76-4-3.76Z"/><path fill="#2f2f2f" d="M47.35,82.38H42.41A2.66,2.66,0,0,0,43,84.19a2.17,2.17,0,0,0,1.65.63A3.47,3.47,0,0,0,46.87,84v1a4.06,4.06,0,0,1-2.45.67,3,3,0,0,1-2.33-1,3.93,3.93,0,0,1-.84-2.68,3.84,3.84,0,0,1,.92-2.67,3,3,0,0,1,2.3-1,2.63,2.63,0,0,1,2.13.88,3.74,3.74,0,0,1,.75,2.47Zm-1.15-.95a2.24,2.24,0,0,0-.47-1.51,1.58,1.58,0,0,0-1.28-.54,1.78,1.78,0,0,0-1.34.57,2.59,2.59,0,0,0-.69,1.48Z"/><path fill="#2f2f2f" d="M50.18,84.59h0v4.23H49V78.6h1.12v1.23h0a2.65,2.65,0,0,1,2.42-1.39,2.54,2.54,0,0,1,2.11.94,3.85,3.85,0,0,1,.76,2.52,4.34,4.34,0,0,1-.85,2.81,2.86,2.86,0,0,1-2.34,1.05A2.34,2.34,0,0,1,50.18,84.59Zm0-2.82v1a2.09,2.09,0,0,0,.57,1.48,1.86,1.86,0,0,0,1.43.6,1.89,1.89,0,0,0,1.6-.78,3.61,3.61,0,0,0,.57-2.17A2.77,2.77,0,0,0,53.78,80a1.78,1.78,0,0,0-1.46-.66,2,2,0,0,0-1.57.68A2.48,2.48,0,0,0,50.15,81.77Z"/><path fill="#2f2f2f" d="M58.32,85.6H57.2V75.24h1.12Z"/><path fill="#2f2f2f" d="M63.44,85.76a3.24,3.24,0,0,1-2.48-1,3.65,3.65,0,0,1-.92-2.6,3.79,3.79,0,0,1,1-2.75,3.47,3.47,0,0,1,2.61-1,3.15,3.15,0,0,1,2.44,1A4.38,4.38,0,0,1,66,84.76,3.32,3.32,0,0,1,63.44,85.76Zm.08-6.38a2.1,2.1,0,0,0-1.7.73,3,3,0,0,0-.63,2,2.87,2.87,0,0,0,.63,2,2.16,2.16,0,0,0,1.7.72,2.06,2.06,0,0,0,1.68-.7,3.79,3.79,0,0,0,0-4A2.06,2.06,0,0,0,63.52,79.38Z"/><path fill="#2f2f2f" d="M74.13,78.6l-3.22,8.12c-.58,1.45-1.38,2.18-2.42,2.18a2.58,2.58,0,0,1-.74-.09v-1a2.21,2.21,0,0,0,.67.12,1.37,1.37,0,0,0,1.27-1l.56-1.32-2.73-7h1.24L70.65,84c0,.07.07.24.15.53h0c0-.11.07-.28.13-.52l2-5.4Z"/><path fill="#2f2f2f" d="M80.77,82.38H75.83a2.6,2.6,0,0,0,.62,1.81,2.21,2.21,0,0,0,1.66.63A3.42,3.42,0,0,0,80.28,84v1a4,4,0,0,1-2.44.67,3,3,0,0,1-2.33-1,3.93,3.93,0,0,1-.85-2.68,3.84,3.84,0,0,1,.93-2.67,3,3,0,0,1,2.3-1,2.63,2.63,0,0,1,2.13.88,3.74,3.74,0,0,1,.75,2.47Zm-1.15-.95a2.29,2.29,0,0,0-.47-1.51,1.59,1.59,0,0,0-1.28-.54,1.81,1.81,0,0,0-1.35.57,2.58,2.58,0,0,0-.68,1.48Z"/><path fill="#2f2f2f" d="M88.5,85.6H87.38V84.41h0a2.82,2.82,0,0,1-4.51.41,3.82,3.82,0,0,1-.79-2.56,4.22,4.22,0,0,1,.87-2.78,2.87,2.87,0,0,1,2.33-1,2.24,2.24,0,0,1,2.1,1.13h0V75.24H88.5Zm-1.12-3.16v-1A2,2,0,0,0,86.82,80a1.9,1.9,0,0,0-1.42-.59,1.94,1.94,0,0,0-1.62.75,3.32,3.32,0,0,0-.59,2.08,2.94,2.94,0,0,0,.57,1.91,1.82,1.82,0,0,0,1.51.7,1.88,1.88,0,0,0,1.52-.68A2.51,2.51,0,0,0,87.38,82.44Z"/><path fill="#2f2f2f" d="M94.18,85.35V84.14a3.26,3.26,0,0,0,2,.68c1,0,1.47-.33,1.47-1a.9.9,0,0,0-.12-.48,1.37,1.37,0,0,0-.34-.34,3.05,3.05,0,0,0-.51-.27c-.19-.08-.4-.17-.63-.25a7.83,7.83,0,0,1-.81-.38,2.22,2.22,0,0,1-.59-.42,1.6,1.6,0,0,1-.36-.54,1.86,1.86,0,0,1-.12-.7,1.66,1.66,0,0,1,.23-.87A2,2,0,0,1,95,79a2.68,2.68,0,0,1,.86-.38,3.64,3.64,0,0,1,1-.13,4,4,0,0,1,1.63.31v1.14a3.15,3.15,0,0,0-1.78-.51,1.91,1.91,0,0,0-.56.07,1.63,1.63,0,0,0-.44.2,1,1,0,0,0-.28.31.91.91,0,0,0-.1.4,1,1,0,0,0,.1.46,1.11,1.11,0,0,0,.29.33,2.07,2.07,0,0,0,.47.26l.62.25a7.3,7.3,0,0,1,.83.37,2.76,2.76,0,0,1,.63.42,1.66,1.66,0,0,1,.4.55,1.61,1.61,0,0,1,.14.73,1.68,1.68,0,0,1-.23.9,2,2,0,0,1-.61.64,2.92,2.92,0,0,1-.88.37,4.44,4.44,0,0,1-1,.12A3.94,3.94,0,0,1,94.18,85.35Z"/><path fill="#2f2f2f" d="M106.14,82.38h-5a2.66,2.66,0,0,0,.63,1.81,2.18,2.18,0,0,0,1.66.63,3.44,3.44,0,0,0,2.17-.78v1a4.05,4.05,0,0,1-2.44.67,2.93,2.93,0,0,1-2.33-1,3.88,3.88,0,0,1-.85-2.68,3.84,3.84,0,0,1,.93-2.67,3,3,0,0,1,2.3-1,2.63,2.63,0,0,1,2.12.88,3.74,3.74,0,0,1,.76,2.47ZM105,81.43a2.29,2.29,0,0,0-.47-1.51,1.6,1.6,0,0,0-1.28-.54,1.81,1.81,0,0,0-1.35.57,2.52,2.52,0,0,0-.68,1.48Z"/><path fill="#2f2f2f" d="M111.47,79.73a1.39,1.39,0,0,0-.85-.22,1.41,1.41,0,0,0-1.2.68,3.12,3.12,0,0,0-.48,1.84V85.6h-1.12v-7h1.12V80h0a2.46,2.46,0,0,1,.73-1.15,1.64,1.64,0,0,1,1.1-.41,2,2,0,0,1,.67.09Z"/><path fill="#2f2f2f" d="M118.74,78.6l-2.79,7h-1.1l-2.65-7h1.23l1.78,5.09a4.53,4.53,0,0,1,.24,1h0a5.1,5.1,0,0,1,.22-1l1.86-5.11Z"/><path fill="#2f2f2f" d="M120.56,76.82a.77.77,0,0,1-.52-.2.7.7,0,0,1-.21-.52.69.69,0,0,1,.21-.52.73.73,0,0,1,.52-.21.72.72,0,0,1,.52.21.69.69,0,0,1,.21.52.69.69,0,0,1-.21.51A.72.72,0,0,1,120.56,76.82Zm.54,8.78H120v-7h1.12Z"/><path fill="#2f2f2f" d="M128,85.28a3.7,3.7,0,0,1-1.92.48,3.14,3.14,0,0,1-2.41-1,3.5,3.5,0,0,1-.92-2.53,3.87,3.87,0,0,1,1-2.77,3.46,3.46,0,0,1,2.64-1,3.65,3.65,0,0,1,1.63.34v1.15a2.83,2.83,0,0,0-1.67-.55,2.27,2.27,0,0,0-1.76.77,2.9,2.9,0,0,0-.69,2,2.77,2.77,0,0,0,.65,1.94,2.24,2.24,0,0,0,1.73.71,2.81,2.81,0,0,0,1.73-.61Z"/><path fill="#2f2f2f" d="M135.19,82.38h-4.95a2.66,2.66,0,0,0,.63,1.81,2.18,2.18,0,0,0,1.66.63A3.42,3.42,0,0,0,134.7,84v1a4,4,0,0,1-2.44.67,2.93,2.93,0,0,1-2.33-1,3.88,3.88,0,0,1-.85-2.68,3.84,3.84,0,0,1,.93-2.67,3,3,0,0,1,2.3-1,2.63,2.63,0,0,1,2.12.88,3.69,3.69,0,0,1,.76,2.47ZM134,81.43a2.29,2.29,0,0,0-.47-1.51,1.6,1.6,0,0,0-1.28-.54,1.81,1.81,0,0,0-1.35.57,2.52,2.52,0,0,0-.68,1.48Z"/><path fill="#2f2f2f" d="M145.73,85.6h-1.12V84.51h0a2.36,2.36,0,0,1-2.15,1.25,2.29,2.29,0,0,1-1.64-.55,1.9,1.9,0,0,1-.59-1.47q0-2,2.31-2.28l2.1-.3c0-1.19-.48-1.78-1.45-1.78a3.47,3.47,0,0,0-2.28.86V79.09a4.32,4.32,0,0,1,2.38-.65c1.64,0,2.47.87,2.47,2.61Zm-1.12-3.54-1.69.23a2.67,2.67,0,0,0-1.18.39,1.11,1.11,0,0,0-.39,1,1.09,1.09,0,0,0,.36.84,1.44,1.44,0,0,0,1,.32,1.78,1.78,0,0,0,1.37-.58,2.07,2.07,0,0,0,.55-1.48Z"/><path fill="#2f2f2f" d="M153.45,85.6h-1.12V84.49h0a2.31,2.31,0,0,1-2.16,1.27c-1.67,0-2.5-1-2.5-3V78.6h1.11v4c0,1.47.57,2.21,1.7,2.21a1.74,1.74,0,0,0,1.35-.6,2.35,2.35,0,0,0,.53-1.59v-4h1.12Z"/><path fill="#2f2f2f" d="M158.89,85.53a2.1,2.1,0,0,1-1,.22c-1.22,0-1.83-.68-1.83-2V79.56H154.8v-1H156V76.89l1.12-.36V78.6h1.76v1h-1.76V83.5a1.65,1.65,0,0,0,.24,1,1,1,0,0,0,.79.3,1.14,1.14,0,0,0,.73-.24Z"/><path fill="#2f2f2f" d="M166.08,85.6H165v-4c0-1.46-.54-2.19-1.63-2.19A1.79,1.79,0,0,0,162,80a2.37,2.37,0,0,0-.56,1.63v4h-1.12V75.24h1.12v4.52h0a2.55,2.55,0,0,1,2.3-1.32c1.57,0,2.36,1,2.36,2.85Z"/><path fill="#2f2f2f" d="M173.78,82.38h-4.94a2.66,2.66,0,0,0,.63,1.81,2.18,2.18,0,0,0,1.66.63A3.44,3.44,0,0,0,173.3,84v1a4.05,4.05,0,0,1-2.44.67,2.93,2.93,0,0,1-2.33-1,3.88,3.88,0,0,1-.85-2.68,3.84,3.84,0,0,1,.93-2.67,3,3,0,0,1,2.3-1,2.63,2.63,0,0,1,2.12.88,3.74,3.74,0,0,1,.75,2.47Zm-1.14-.95a2.29,2.29,0,0,0-.47-1.51,1.6,1.6,0,0,0-1.28-.54,1.81,1.81,0,0,0-1.35.57,2.52,2.52,0,0,0-.68,1.48Z"/><path fill="#2f2f2f" d="M181.28,85.6h-1.12v-4c0-1.49-.55-2.23-1.63-2.23a1.77,1.77,0,0,0-1.39.63,2.34,2.34,0,0,0-.55,1.6v4h-1.12v-7h1.12v1.16h0a2.51,2.51,0,0,1,2.29-1.32,2.13,2.13,0,0,1,1.76.74,3.33,3.33,0,0,1,.61,2.14Z"/><path fill="#2f2f2f" d="M186.51,85.53a2.15,2.15,0,0,1-1,.22c-1.22,0-1.84-.68-1.84-2V79.56h-1.2v-1h1.2V76.89l1.12-.36V78.6h1.77v1h-1.77V83.5a1.65,1.65,0,0,0,.24,1,1,1,0,0,0,.8.3,1.16,1.16,0,0,0,.73-.24Z"/><path fill="#2f2f2f" d="M188.46,76.82a.73.73,0,0,1-.51-.2.7.7,0,0,1-.21-.52.69.69,0,0,1,.21-.52.69.69,0,0,1,.51-.21.74.74,0,0,1,.53.21.69.69,0,0,1,.21.52.69.69,0,0,1-.21.51A.74.74,0,0,1,188.46,76.82ZM189,85.6h-1.12v-7H189Z"/><path fill="#2f2f2f" d="M195.92,85.28a3.66,3.66,0,0,1-1.91.48,3.16,3.16,0,0,1-2.42-1,3.55,3.55,0,0,1-.92-2.53,3.87,3.87,0,0,1,1-2.77,3.48,3.48,0,0,1,2.65-1,3.68,3.68,0,0,1,1.63.34v1.15a2.83,2.83,0,0,0-1.67-.55,2.25,2.25,0,0,0-1.76.77,2.9,2.9,0,0,0-.69,2,2.73,2.73,0,0,0,.65,1.94,2.22,2.22,0,0,0,1.73.71,2.78,2.78,0,0,0,1.72-.61Z"/><path fill="#2f2f2f" d="M202.67,85.6h-1.13V84.51h0a2.37,2.37,0,0,1-2.16,1.25,2.28,2.28,0,0,1-1.63-.55,1.9,1.9,0,0,1-.59-1.47q0-2,2.31-2.28l2.09-.3c0-1.19-.48-1.78-1.44-1.78a3.47,3.47,0,0,0-2.28.86V79.09a4.32,4.32,0,0,1,2.38-.65c1.64,0,2.47.87,2.47,2.61Zm-1.13-3.54-1.68.23a2.63,2.63,0,0,0-1.18.39,1.12,1.12,0,0,0-.4,1,1.1,1.1,0,0,0,.37.84,1.44,1.44,0,0,0,1,.32,1.79,1.79,0,0,0,1.38-.58,2.11,2.11,0,0,0,.54-1.48Z"/><path fill="#2f2f2f" d="M207.92,85.53a2.09,2.09,0,0,1-1,.22c-1.23,0-1.84-.68-1.84-2V79.56h-1.2v-1H205V76.89l1.12-.36V78.6h1.76v1h-1.76V83.5a1.65,1.65,0,0,0,.24,1,1,1,0,0,0,.79.3,1.14,1.14,0,0,0,.73-.24Z"/><path fill="#2f2f2f" d="M209.88,76.82a.73.73,0,0,1-.51-.2.67.67,0,0,1-.22-.52.66.66,0,0,1,.22-.52.69.69,0,0,1,.51-.21.72.72,0,0,1,.52.21.69.69,0,0,1,.22.52.7.7,0,0,1-.22.51A.72.72,0,0,1,209.88,76.82Zm.55,8.78H209.3v-7h1.13Z"/><path fill="#2f2f2f" d="M215.52,85.76a3.24,3.24,0,0,1-2.48-1,3.61,3.61,0,0,1-.92-2.6,3.79,3.79,0,0,1,1-2.75,3.46,3.46,0,0,1,2.6-1,3.16,3.16,0,0,1,2.45,1,3.84,3.84,0,0,1,.88,2.67,3.79,3.79,0,0,1-.95,2.69A3.32,3.32,0,0,1,215.52,85.76Zm.08-6.38a2.13,2.13,0,0,0-1.71.73,3,3,0,0,0-.63,2,2.87,2.87,0,0,0,.64,2,2.15,2.15,0,0,0,1.7.72,2,2,0,0,0,1.67-.7,3.74,3.74,0,0,0,0-4A2,2,0,0,0,215.6,79.38Z"/><path fill="#2f2f2f" d="M226.53,85.6h-1.12v-4c0-1.49-.54-2.23-1.63-2.23a1.77,1.77,0,0,0-1.39.63,2.39,2.39,0,0,0-.55,1.6v4h-1.12v-7h1.12v1.16h0a2.53,2.53,0,0,1,2.3-1.32,2.11,2.11,0,0,1,1.75.74,3.27,3.27,0,0,1,.61,2.14Z"/><path fill="#2f2f2f" d="M32.09,111.6v-9.8h2.7c3.46,0,5.18,1.59,5.18,4.78a4.8,4.8,0,0,1-1.44,3.64,5.31,5.31,0,0,1-3.85,1.38Zm1.14-8.76v7.72H34.7a4.16,4.16,0,0,0,3-1,3.89,3.89,0,0,0,1.07-2.93c0-2.51-1.33-3.76-4-3.76Z"/><path fill="#2f2f2f" d="M47.35,108.38H42.41a2.66,2.66,0,0,0,.63,1.81,2.17,2.17,0,0,0,1.65.63,3.47,3.47,0,0,0,2.18-.78v1a4.06,4.06,0,0,1-2.45.67,3,3,0,0,1-2.33-1,3.93,3.93,0,0,1-.84-2.68,3.84,3.84,0,0,1,.92-2.67,3,3,0,0,1,2.3-1,2.63,2.63,0,0,1,2.13.88,3.74,3.74,0,0,1,.75,2.47Zm-1.15-.95a2.24,2.24,0,0,0-.47-1.51,1.58,1.58,0,0,0-1.28-.54,1.78,1.78,0,0,0-1.34.57,2.59,2.59,0,0,0-.69,1.48Z"/><path fill="#2f2f2f" d="M54.49,104.6l-2.79,7H50.6l-2.65-7h1.23L51,109.69a4.08,4.08,0,0,1,.25,1h0a4.41,4.41,0,0,1,.22-1l1.86-5.11Z"/><path fill="#2f2f2f" d="M61.13,108.38H56.19a2.66,2.66,0,0,0,.63,1.81,2.17,2.17,0,0,0,1.65.63,3.47,3.47,0,0,0,2.18-.78v1a4.06,4.06,0,0,1-2.45.67,3,3,0,0,1-2.33-1,3.93,3.93,0,0,1-.84-2.68,3.84,3.84,0,0,1,.92-2.67,3,3,0,0,1,2.3-1,2.63,2.63,0,0,1,2.13.88,3.74,3.74,0,0,1,.75,2.47ZM60,107.43a2.24,2.24,0,0,0-.47-1.51,1.58,1.58,0,0,0-1.28-.54,1.78,1.78,0,0,0-1.34.57,2.59,2.59,0,0,0-.69,1.48Z"/><path fill="#2f2f2f" d="M63.93,111.6H62.81V101.24h1.12Z"/><path fill="#2f2f2f" d="M69,111.76a3.2,3.2,0,0,1-2.47-1,3.62,3.62,0,0,1-.93-2.6,3.79,3.79,0,0,1,1-2.75,3.48,3.48,0,0,1,2.61-1,3.13,3.13,0,0,1,2.44,1,3.79,3.79,0,0,1,.88,2.67,3.75,3.75,0,0,1-1,2.69A3.31,3.31,0,0,1,69,111.76Zm.09-6.38a2.13,2.13,0,0,0-1.71.73,3,3,0,0,0-.63,2,2.87,2.87,0,0,0,.63,2,2.18,2.18,0,0,0,1.71.72,2,2,0,0,0,1.67-.7,3.79,3.79,0,0,0,0-4A2.06,2.06,0,0,0,69.13,105.38Z"/><path fill="#2f2f2f" d="M75.39,110.59h0v4.23H74.24V104.6h1.13v1.23h0a2.65,2.65,0,0,1,2.42-1.39,2.56,2.56,0,0,1,2.12.94,3.9,3.9,0,0,1,.75,2.52,4.34,4.34,0,0,1-.85,2.81,2.86,2.86,0,0,1-2.34,1.05A2.35,2.35,0,0,1,75.39,110.59Zm0-2.82v1a2.09,2.09,0,0,0,.56,1.48,2,2,0,0,0,3-.18,3.61,3.61,0,0,0,.58-2.17A2.83,2.83,0,0,0,79,106a1.8,1.8,0,0,0-1.47-.66,2,2,0,0,0-1.57.68A2.47,2.47,0,0,0,75.37,107.77Z"/><path fill="#2f2f2f" d="M88.09,108.38H83.15a2.61,2.61,0,0,0,.63,1.81,2.17,2.17,0,0,0,1.65.63A3.42,3.42,0,0,0,87.6,110v1a4,4,0,0,1-2.44.67,3,3,0,0,1-2.33-1,3.93,3.93,0,0,1-.85-2.68,3.84,3.84,0,0,1,.93-2.67,3,3,0,0,1,2.3-1,2.63,2.63,0,0,1,2.13.88,3.74,3.74,0,0,1,.75,2.47Zm-1.15-.95a2.24,2.24,0,0,0-.47-1.51,1.59,1.59,0,0,0-1.28-.54,1.81,1.81,0,0,0-1.35.57,2.65,2.65,0,0,0-.68,1.48Z"/><path fill="#2f2f2f" d="M93.42,105.73a1.34,1.34,0,0,0-.84-.22,1.41,1.41,0,0,0-1.2.68A3.12,3.12,0,0,0,90.9,108v3.57H89.77v-7H90.9V106h0a2.54,2.54,0,0,1,.73-1.15,1.65,1.65,0,0,1,1.1-.41,1.89,1.89,0,0,1,.67.09Z"/><path fill="#2f2f2f" d="M103.49,111.6h-1.12v-1.09h0a2.36,2.36,0,0,1-2.15,1.25,2.29,2.29,0,0,1-1.64-.55,1.9,1.9,0,0,1-.59-1.47q0-2,2.31-2.28l2.1-.3c0-1.19-.48-1.78-1.45-1.78a3.47,3.47,0,0,0-2.28.86v-1.15a4.32,4.32,0,0,1,2.38-.65c1.64,0,2.47.87,2.47,2.61Zm-1.12-3.54-1.69.23a2.67,2.67,0,0,0-1.18.39,1.11,1.11,0,0,0-.39,1,1.09,1.09,0,0,0,.36.84,1.44,1.44,0,0,0,1,.32,1.79,1.79,0,0,0,1.38-.58,2.07,2.07,0,0,0,.55-1.48Z"/><path fill="#2f2f2f" d="M111.21,111.6h-1.12v-1.11h0a2.31,2.31,0,0,1-2.16,1.27c-1.67,0-2.5-1-2.5-3V104.6h1.11v4c0,1.47.57,2.21,1.7,2.21a1.74,1.74,0,0,0,1.35-.6,2.35,2.35,0,0,0,.53-1.59v-4h1.12Z"/><path fill="#2f2f2f" d="M116.65,111.53a2.1,2.1,0,0,1-1.05.22c-1.22,0-1.83-.68-1.83-2v-4.14h-1.21v-1h1.21v-1.71l1.12-.36v2.07h1.76v1h-1.76v3.94a1.65,1.65,0,0,0,.24,1,.94.94,0,0,0,.79.3,1.16,1.16,0,0,0,.73-.24Z"/><path fill="#2f2f2f" d="M123.84,111.6h-1.12v-4c0-1.46-.54-2.19-1.63-2.19a1.79,1.79,0,0,0-1.38.63,2.37,2.37,0,0,0-.56,1.63v4H118V101.24h1.12v4.52h0a2.55,2.55,0,0,1,2.3-1.32c1.57,0,2.36,1,2.36,2.85Z"/><path fill="#2f2f2f" d="M131.54,108.38H126.6a2.66,2.66,0,0,0,.63,1.81,2.18,2.18,0,0,0,1.66.63,3.44,3.44,0,0,0,2.17-.78v1a4.05,4.05,0,0,1-2.44.67,2.93,2.93,0,0,1-2.33-1,3.88,3.88,0,0,1-.85-2.68,3.84,3.84,0,0,1,.93-2.67,3,3,0,0,1,2.3-1,2.63,2.63,0,0,1,2.12.88,3.74,3.74,0,0,1,.75,2.47Zm-1.14-.95a2.35,2.35,0,0,0-.47-1.51,1.6,1.6,0,0,0-1.28-.54,1.81,1.81,0,0,0-1.35.57,2.52,2.52,0,0,0-.68,1.48Z"/><path fill="#2f2f2f" d="M139,111.6h-1.12v-4c0-1.49-.55-2.23-1.63-2.23a1.77,1.77,0,0,0-1.39.63,2.34,2.34,0,0,0-.55,1.6v4h-1.12v-7h1.12v1.16h0a2.51,2.51,0,0,1,2.29-1.32,2.13,2.13,0,0,1,1.76.74,3.33,3.33,0,0,1,.61,2.14Z"/><path fill="#2f2f2f" d="M144.27,111.53a2.15,2.15,0,0,1-1.05.22c-1.22,0-1.84-.68-1.84-2v-4.14h-1.2v-1h1.2v-1.71l1.12-.36v2.07h1.77v1H142.5v3.94a1.65,1.65,0,0,0,.24,1,1,1,0,0,0,.8.3,1.16,1.16,0,0,0,.73-.24Z"/><path fill="#2f2f2f" d="M146.22,102.82a.73.73,0,0,1-.51-.2.7.7,0,0,1-.21-.52.69.69,0,0,1,.21-.52.69.69,0,0,1,.51-.21.74.74,0,0,1,.53.21.69.69,0,0,1,.21.52.69.69,0,0,1-.21.51A.74.74,0,0,1,146.22,102.82Zm.55,8.78h-1.12v-7h1.12Z"/><path fill="#2f2f2f" d="M153.68,111.28a3.66,3.66,0,0,1-1.91.48,3.16,3.16,0,0,1-2.42-1,3.55,3.55,0,0,1-.92-2.53,3.87,3.87,0,0,1,1-2.77,3.48,3.48,0,0,1,2.65-1,3.61,3.61,0,0,1,1.62.34v1.15a2.78,2.78,0,0,0-1.66-.55,2.25,2.25,0,0,0-1.76.77,2.9,2.9,0,0,0-.69,2,2.73,2.73,0,0,0,.65,1.94,2.22,2.22,0,0,0,1.73.71,2.78,2.78,0,0,0,1.72-.61Z"/><path fill="#2f2f2f" d="M160.43,111.6H159.3v-1.09h0a2.37,2.37,0,0,1-2.16,1.25,2.28,2.28,0,0,1-1.63-.55,1.9,1.9,0,0,1-.59-1.47q0-2,2.31-2.28l2.09-.3c0-1.19-.48-1.78-1.44-1.78a3.47,3.47,0,0,0-2.28.86v-1.15a4.32,4.32,0,0,1,2.38-.65c1.64,0,2.47.87,2.47,2.61Zm-1.13-3.54-1.68.23a2.63,2.63,0,0,0-1.18.39,1.12,1.12,0,0,0-.4,1,1.1,1.1,0,0,0,.37.84,1.44,1.44,0,0,0,1,.32,1.79,1.79,0,0,0,1.38-.58,2.11,2.11,0,0,0,.54-1.48Z"/><path fill="#2f2f2f" d="M165.68,111.53a2.09,2.09,0,0,1-1,.22c-1.23,0-1.84-.68-1.84-2v-4.14h-1.2v-1h1.2v-1.71l1.12-.36v2.07h1.76v1h-1.76v3.94a1.65,1.65,0,0,0,.24,1,1,1,0,0,0,.79.3,1.14,1.14,0,0,0,.73-.24Z"/><path fill="#2f2f2f" d="M167.64,102.82a.73.73,0,0,1-.51-.2.67.67,0,0,1-.22-.52.66.66,0,0,1,.22-.52.69.69,0,0,1,.51-.21.72.72,0,0,1,.52.21.66.66,0,0,1,.22.52.67.67,0,0,1-.22.51A.72.72,0,0,1,167.64,102.82Zm.55,8.78h-1.12v-7h1.12Z"/><path fill="#2f2f2f" d="M173.28,111.76a3.24,3.24,0,0,1-2.48-1,3.61,3.61,0,0,1-.92-2.6,3.79,3.79,0,0,1,1-2.75,3.46,3.46,0,0,1,2.6-1,3.16,3.16,0,0,1,2.45,1,3.84,3.84,0,0,1,.88,2.67,3.79,3.79,0,0,1-1,2.69A3.32,3.32,0,0,1,173.28,111.76Zm.08-6.38a2.13,2.13,0,0,0-1.71.73,3,3,0,0,0-.63,2,2.87,2.87,0,0,0,.64,2,2.15,2.15,0,0,0,1.7.72,2,2,0,0,0,1.67-.7,3.74,3.74,0,0,0,0-4A2,2,0,0,0,173.36,105.38Z"/><path fill="#2f2f2f" d="M184.29,111.6h-1.12v-4c0-1.49-.54-2.23-1.63-2.23a1.77,1.77,0,0,0-1.39.63,2.39,2.39,0,0,0-.55,1.6v4h-1.12v-7h1.12v1.16h0a2.53,2.53,0,0,1,2.3-1.32,2.11,2.11,0,0,1,1.75.74,3.27,3.27,0,0,1,.61,2.14Z"/></g></g></svg>