<?xml version="1.0" encoding="UTF-8"?>
<svg version="1.1" xmlns="http://www.w3.org/2000/svg" width="64" height="64">
<path d="M0 0 C1.65 0.66 3.3 1.32 5 2 C5 1.34 5 0.68 5 0 C6.32 0 7.64 0 9 0 C9 0.66 9 1.32 9 2 C10.65 1.34 12.3 0.68 14 0 C14.66 0.99 15.32 1.98 16 3 C17.32 2.67 18.64 2.34 20 2 C20.66 2.99 21.32 3.98 22 5 C23.32 5 24.64 5 26 5 C26 6.32 26 7.64 26 9 C27.32 9 28.64 9 30 9 C30 10.32 30 11.64 30 13 C31.32 13 32.64 13 34 13 C34.12375 13.804375 34.2475 14.60875 34.375 15.4375 C34.58125 16.283125 34.7875 17.12875 35 18 C35.66 18.33 36.32 18.66 37 19 C36.67 20.32 36.34 21.64 36 23 C36.99 23.66 37.98 24.32 39 25 C38.34 26.65 37.68 28.3 37 30 C37.66 30 38.32 30 39 30 C39 31.32 39 32.64 39 34 C38.34 34 37.68 34 37 34 C37.66 35.65 38.32 37.3 39 39 C38.01 39.66 37.02 40.32 36 41 C36.495 42.98 36.495 42.98 37 45 C36.01 45.66 35.02 46.32 34 47 C34 48.32 34 49.64 34 51 C32.68 51 31.36 51 30 51 C30 52.32 30 53.64 30 55 C28.68 55 27.36 55 26 55 C26 56.32 26 57.64 26 59 C25.195625 59.12375 24.39125 59.2475 23.5625 59.375 C22.716875 59.58125 21.87125 59.7875 21 60 C20.505 60.99 20.505 60.99 20 62 C18.68 61.67 17.36 61.34 16 61 C15.34 61.99 14.68 62.98 14 64 C12.35 63.34 10.7 62.68 9 62 C9 62.66 9 63.32 9 64 C7.68 64 6.36 64 5 64 C5 63.34 5 62.68 5 62 C3.35 62.66 1.7 63.32 0 64 C-0.66 63.01 -1.32 62.02 -2 61 C-3.98 61.495 -3.98 61.495 -6 62 C-6.66 61.01 -7.32 60.02 -8 59 C-9.32 59 -10.64 59 -12 59 C-12 57.68 -12 56.36 -12 55 C-13.32 55 -14.64 55 -16 55 C-16 53.68 -16 52.36 -16 51 C-17.32 51 -18.64 51 -20 51 C-20.12375 50.195625 -20.2475 49.39125 -20.375 48.5625 C-20.58125 47.716875 -20.7875 46.87125 -21 46 C-21.66 45.67 -22.32 45.34 -23 45 C-22.67 43.68 -22.34 42.36 -22 41 C-22.99 40.34 -23.98 39.68 -25 39 C-24.34 37.35 -23.68 35.7 -23 34 C-23.66 34 -24.32 34 -25 34 C-25 32.68 -25 31.36 -25 30 C-24.34 30 -23.68 30 -23 30 C-23.66 28.35 -24.32 26.7 -25 25 C-24.01 24.34 -23.02 23.68 -22 23 C-22.33 21.68 -22.66 20.36 -23 19 C-22.01 18.34 -21.02 17.68 -20 17 C-20 15.68 -20 14.36 -20 13 C-18.68 13 -17.36 13 -16 13 C-16 11.68 -16 10.36 -16 9 C-14.68 9 -13.36 9 -12 9 C-12 7.68 -12 6.36 -12 5 C-11.195625 4.87625 -10.39125 4.7525 -9.5625 4.625 C-8.716875 4.41875 -7.87125 4.2125 -7 4 C-6.67 3.34 -6.34 2.68 -6 2 C-4.68 2.33 -3.36 2.66 -2 3 C-1.34 2.01 -0.68 1.02 0 0 Z M6 6 C6 6.99 6 7.98 6 9 C6.66 9 7.32 9 8 9 C8 8.01 8 7.02 8 6 C7.34 6 6.68 6 6 6 Z M-9 15 C-9 15.33 -9 15.66 -9 16 C-7.80455566 16.02187378 -7.80455566 16.02187378 -6.58496094 16.04418945 C-2.97281876 16.11867475 0.63839974 16.21533512 4.25 16.3125 C5.50425781 16.33505859 6.75851563 16.35761719 8.05078125 16.38085938 C9.25605469 16.41630859 10.46132813 16.45175781 11.703125 16.48828125 C12.81333008 16.51446533 13.92353516 16.54064941 15.06738281 16.56762695 C18.29929732 17.04412717 19.67698384 17.74398097 22 20 C23.25 22.6875 23.25 22.6875 24 25 C24.99 23.68 25.98 22.36 27 21 C24.01481796 15.65154885 20.58813104 12.58853784 15 10 C12.24224658 9.41036322 12.24224658 9.41036322 10 10 C9.34 10.66 8.68 11.32 8 12 C5.78834541 11.61868024 3.84137624 10.93831298 1.75 10.125 C-2.58415974 9.92799274 -5.65422707 12.39311985 -9 15 Z M-17 24 C-17 24.66 -17 25.32 -17 26 C-16.01 25.67 -15.02 25.34 -14 25 C-14.99 24.67 -15.98 24.34 -17 24 Z M-11 24 C-11 25.32 -11 26.64 -11 28 C-12.65 28.66 -14.3 29.32 -16 30 C-15.67 32.64 -15.34 35.28 -15 38 C-13.02 38 -11.04 38 -9 38 C-9 33.38 -9 28.76 -9 24 C-9.66 24 -10.32 24 -11 24 Z M2 24 C2 24.99 2 25.98 2 27 C4.97 27 7.94 27 11 27 C11 26.01 11 25.02 11 24 C8.03 24 5.06 24 2 24 Z M28 24 C28.33 24.66 28.66 25.32 29 26 C29.66 26 30.32 26 31 26 C31 25.34 31 24.68 31 24 C30.01 24 29.02 24 28 24 Z M23 25 C21.24471981 27.1447024 21.24471981 27.1447024 20 30 C20.69116301 32.93744278 21.65709965 35.31419929 23 38 C24.32 37.67 25.64 37.34 27 37 C27 35.68 27 34.36 27 33 C27.99 33 28.98 33 30 33 C29.80528889 31.05000871 29.80528889 31.05000871 29 29 C27.08333333 27.83333333 27.08333333 27.83333333 25 27 C24.34 26.34 23.68 25.68 23 25 Z M2 35 C2 35.99 2 36.98 2 38 C3.98 38 5.96 38 8 38 C8 40.64 8 43.28 8 46 C2.06 46 -3.88 46 -10 46 C-10 46.33 -10 46.66 -10 47 C-9.05125 47.061875 -8.1025 47.12375 -7.125 47.1875 C-6.09375 47.455625 -5.0625 47.72375 -4 48 C-3.31867549 49.66072849 -2.65257873 51.327767 -2 53 C2.94014038 55.71707721 8.64039799 55.37449346 14 54 C15.86828548 52.79874322 15.86828548 52.79874322 17 51 C17 49.68 17 48.36 17 47 C19.31 47 21.62 47 24 47 C24 46.67 24 46.34 24 46 C20.7 45.67 17.4 45.34 14 45 C12.68 41.7 11.36 38.4 10 35 C7.36 35 4.72 35 2 35 Z M-8 50 C-8 50.99 -8 51.98 -8 53 C-7.34 53 -6.68 53 -6 53 C-6.33 52.01 -6.66 51.02 -7 50 C-7.33 50 -7.66 50 -8 50 Z M20 50 C20 50.99 20 51.98 20 53 C20.66 53 21.32 53 22 53 C22 52.01 22 51.02 22 50 C21.34 50 20.68 50 20 50 Z " fill="#FFFFFF" transform="translate(25,0)"/>
</svg>
