<svg xmlns="http://www.w3.org/2000/svg" xmlns:xlink="http://www.w3.org/1999/xlink" viewBox="0 0 497.667 345.957">
  <defs>
    <linearGradient id="Blue_Gradient_2" data-name="Blue Gradient 2" x1="248.834" y1="339.179" x2="248.834" y2="56.679" gradientUnits="userSpaceOnUse">
      <stop offset="0" stop-color="#0078d4"/>
      <stop offset="0.16" stop-color="#1380da"/>
      <stop offset="0.53" stop-color="#3c91e5"/>
      <stop offset="0.82" stop-color="#559cec"/>
      <stop offset="1" stop-color="#5ea0ef"/>
    </linearGradient>
    <linearGradient id="linear-gradient" x1="317.581" y1="1397.917" x2="317.581" y2="1439.672" gradientTransform="matrix(0.707, 0.707, 0.707, -0.707, -910.815, 902.494)" gradientUnits="userSpaceOnUse">
      <stop offset="0" stop-color="#5e9741"/>
      <stop offset="0.55" stop-color="#6bad44"/>
      <stop offset="1" stop-color="#76bc43"/>
    </linearGradient>
    <linearGradient id="linear-gradient-2" x1="314.498" y1="1425.053" x2="314.476" y2="1427.722" gradientTransform="matrix(1, 0, 0, -1, 0, 1542.859)" gradientUnits="userSpaceOnUse">
      <stop offset="0" stop-color="#cccccb"/>
      <stop offset="0.12" stop-color="#d7d7d7"/>
      <stop offset="0.42" stop-color="#ebebeb"/>
      <stop offset="0.72" stop-color="#f8f8f8"/>
      <stop offset="1" stop-color="#fdfefe"/>
    </linearGradient>
    <linearGradient id="linear-gradient-3" x1="318.359" y1="1422.405" x2="318.359" y2="1424.777" xlink:href="#linear-gradient-2"/>
    <radialGradient id="radial-gradient" cx="180.444" cy="1438.24" r="18" gradientTransform="matrix(1, 0, 0, -1, 0, 1542.859)" gradientUnits="userSpaceOnUse">
      <stop offset="0.18" stop-color="#699cd3"/>
      <stop offset="0.56" stop-color="#669cd3"/>
      <stop offset="0.69" stop-color="#6198d1"/>
      <stop offset="0.78" stop-color="#5793ce"/>
      <stop offset="0.86" stop-color="#4a8cca"/>
      <stop offset="0.93" stop-color="#3b83c5"/>
      <stop offset="0.99" stop-color="#3078be"/>
      <stop offset="1" stop-color="#2e76bc"/>
    </radialGradient>
    <radialGradient id="radial-gradient-2" cx="227.703" cy="1284.332" r="20.922" gradientTransform="matrix(0.94, 0, 0, -0.94, -35.92, 1309.573)" gradientUnits="userSpaceOnUse">
      <stop offset="0.27" stop-color="#fed70a"/>
      <stop offset="0.49" stop-color="#ffcc12"/>
      <stop offset="0.88" stop-color="#fbac1d"/>
      <stop offset="1" stop-color="#f9a120"/>
    </radialGradient>
    <linearGradient id="linear-gradient-4" x1="-437.146" y1="1705.824" x2="-436.088" y2="1650.138" gradientTransform="matrix(1, 0, 0, -1, 564, 1776.859)" gradientUnits="userSpaceOnUse">
      <stop offset="0.225" stop-color="#32d4f5"/>
      <stop offset="0.473" stop-color="#31d1f3"/>
      <stop offset="0.633" stop-color="#2ec9eb"/>
      <stop offset="0.768" stop-color="#29bade"/>
      <stop offset="0.888" stop-color="#22a5cb"/>
      <stop offset="0.999" stop-color="#198ab3"/>
      <stop offset="1" stop-color="#198ab3"/>
    </linearGradient>
    <radialGradient id="radial-gradient-3" cx="16510.377" cy="24.535" r="100.233" gradientTransform="matrix(0.11, 0, 0, -0.11, -1498.564, 21.505)" gradientUnits="userSpaceOnUse">
      <stop offset="0.18" stop-color="#699cd3"/>
      <stop offset="1" stop-color="#2e76bc"/>
    </radialGradient>
    <linearGradient id="linear-gradient-5" x1="311.641" y1="1520.837" x2="311.602" y2="1525.957" xlink:href="#linear-gradient-2"/>
    <linearGradient id="linear-gradient-6" x1="319.067" y1="1515.691" x2="319.067" y2="1520.293" xlink:href="#linear-gradient-2"/>
    <linearGradient id="linear-gradient-7" x1="324.317" y1="1521.265" x2="324.317" y2="1526.152" xlink:href="#linear-gradient-2"/>
    <linearGradient id="linear-gradient-10" x1="76.48" y1="1293.906" x2="76.48" y2="1267.906" gradientTransform="matrix(1, 0, 0, -1, 0, 1542.859)" gradientUnits="userSpaceOnUse">
      <stop offset="0" stop-color="#b3b2b4"/>
      <stop offset="0.38" stop-color="#b0aeaf"/>
      <stop offset="0.76" stop-color="#a2a1a1"/>
      <stop offset="1" stop-color="#979797"/>
    </linearGradient>
    <linearGradient id="linear-gradient-11" x1="124.863" y1="1275.144" x2="124.863" y2="1293.906" gradientTransform="matrix(1, 0, 0, -1, 0, 1542.859)" gradientUnits="userSpaceOnUse">
      <stop offset="0" stop-color="#2e76bc"/>
      <stop offset="0.82" stop-color="#699cd3"/>
    </linearGradient>
    <linearGradient id="linear-gradient-12" x1="124.863" y1="1267.906" x2="124.863" y2="1275.144" gradientTransform="matrix(1, 0, 0, -1, 0, 1542.859)" gradientUnits="userSpaceOnUse">
      <stop offset="0.15" stop-color="#cccccb"/>
      <stop offset="1" stop-color="#707071"/>
    </linearGradient>
    <linearGradient id="linear-gradient-13" x1="252.693" y1="1293.906" x2="252.693" y2="1267.906" xlink:href="#linear-gradient-10"/>
    <linearGradient id="linear-gradient-14" x1="305.263" y1="1275.144" x2="305.263" y2="1293.906" xlink:href="#linear-gradient-11"/>
    <linearGradient id="linear-gradient-15" x1="305.263" y1="1267.906" x2="305.263" y2="1275.144" xlink:href="#linear-gradient-12"/>
    <linearGradient id="linear-gradient-16" x1="384.693" y1="1293.906" x2="384.693" y2="1267.906" xlink:href="#linear-gradient-10"/>
    <linearGradient id="linear-gradient-17" x1="437.263" y1="1275.144" x2="437.263" y2="1293.906" xlink:href="#linear-gradient-11"/>
    <linearGradient id="linear-gradient-18" x1="437.263" y1="1267.906" x2="437.263" y2="1275.144" xlink:href="#linear-gradient-12"/>
  </defs>
  <g id="Shapes">
    <rect width="497.667" height="345.957" fill="#fff"/>
    <g>
      <rect x="6.584" y="56.679" width="484.5" height="282.5" fill="#fff"/>
      <rect x="6.584" y="56.679" width="484.5" height="282.5" opacity="0.3" fill="url(#Blue_Gradient_2)"/>
      <path d="M490.834,56.929v282h-484v-282h484m.5-.5h-485v283h485v-283Z" fill="#fff"/>
    </g>
    <g>
      <line x1="317.577" y1="34.229" x2="317.577" y2="50.847" fill="none" stroke="#3c3c41" stroke-miterlimit="10"/>
      <polygon points="313.838 49.753 317.577 56.229 321.317 49.753 313.838 49.753" fill="#3c3c41"/>
    </g>
    <g>
      <rect x="241.102" y="70.554" width="152.95" height="83.75" fill="#fff"/>
      <rect x="241.102" y="70.554" width="152.95" height="83.75" fill="#83b9f9" opacity="0.05"/>
      <path d="M393.927,70.679v83.5h-152.7v-83.5h152.7m.25-.25h-153.2v84h153.2v-84Z" fill="#83b9f9"/>
    </g>
    <g>
      <rect x="304.496" y="110.148" width="26.163" height="26.163" rx="1.208" transform="translate(5.88 260.654) rotate(-45)" fill="url(#linear-gradient)"/>
      <g>
        <path d="M321.6,126.428h6.016a.234.234,0,0,0,.212-.233V120.2a.211.211,0,0,0-.381-.148L325.8,121.7v.106a.211.211,0,0,1-.3,0l-7.351-7.245a.212.212,0,0,0-.3,0l-1.864,1.864a.232.232,0,0,0,0,.318l7.224,7.224a.234.234,0,0,1,0,.318l-.106.106-1.653,1.652a.233.233,0,0,0,.028.328A.229.229,0,0,0,321.6,126.428Z" fill="#fff"/>
        <path d="M313.19,126.428h-6.016a.232.232,0,0,1-.17-.233V120.2a.211.211,0,0,1,.36-.148l1.674,1.652v.106a.212.212,0,0,0,.3,0l7.308-7.245a.212.212,0,0,1,.3,0l1.864,1.864a.232.232,0,0,1,0,.318l-7.224,7.224a.234.234,0,0,0,0,.318v.106l1.653,1.652a.234.234,0,0,1,.023.329A.224.224,0,0,1,313.19,126.428Z" fill="#fff"/>
        <path d="M312.978,131.852l4.237,4.237a.214.214,0,0,0,.3,0l4.237-4.237a.212.212,0,0,0,0-.3.214.214,0,0,0-.145-.061h-2.479a.232.232,0,0,1-.212-.211V121.111a.211.211,0,0,0-.189-.232h-2.65a.233.233,0,0,0-.233.233V131.28a.21.21,0,0,1-.211.211h-2.5a.213.213,0,0,0-.149.361Z" fill="#fff"/>
      </g>
      <path id="ac0a9c0c-2e8c-4843-b02b-2fadf76b27d0" d="M321.092,120.645a5.741,5.741,0,0,1-7.033-9.067h0a5.741,5.741,0,0,1,6.97,9.109" fill="#2e76bc"/>
      <circle cx="314.483" cy="115.921" r="1.843" fill="url(#linear-gradient-2)"/>
      <g>
        <path d="M312.661,118.992l.4.636.3.424a12.575,12.575,0,0,1,.72-2.331,1.8,1.8,0,0,1-.953-.487A14.09,14.09,0,0,0,312.661,118.992Z" fill="#f2f2f3" opacity="0.55" style="isolation: isolate"/>
        <path d="M313.868,114.183a8.47,8.47,0,0,1-.508-1.97,5.254,5.254,0,0,0-.721.975,7.458,7.458,0,0,0,.424,1.567A2.136,2.136,0,0,1,313.868,114.183Z" fill="#f2f2f3" opacity="0.55" style="isolation: isolate"/>
        <path d="M315.838,117.171a1.841,1.841,0,0,1-1.016.55,9.8,9.8,0,0,0,.974.869,8.81,8.81,0,0,0,1.377.826v-.148a1.123,1.123,0,0,1,.424-.848A7.634,7.634,0,0,1,315.838,117.171Z" fill="#f2f2f3" opacity="0.55" style="isolation: isolate"/>
        <path d="M321.389,119.416a8.725,8.725,0,0,1-1.843-.212h0a1.165,1.165,0,0,1-.339.826,8.1,8.1,0,0,0,2.288.17,6.26,6.26,0,0,0,.784-.89Z" fill="#f2f2f3" opacity="0.55" style="isolation: isolate"/>
      </g>
      <circle cx="318.359" cy="119.268" r="1.186" fill="url(#linear-gradient-3)"/>
      <circle cx="321.071" cy="116.323" r="1.271" fill="#f2f2f3"/>
      <g>
        <path d="M318.042,113.527a9.083,9.083,0,0,1,3.982-.89,4.709,4.709,0,0,0-1-.953,9.546,9.546,0,0,0-3.157.741c-.212,0-.4.233-.614.339h0a12.4,12.4,0,0,1-1.335-1.97l-.72.275a11.272,11.272,0,0,0,1.377,2.119,8.264,8.264,0,0,0-1.42,1.165,1.84,1.84,0,0,1,.911.741,6.978,6.978,0,0,1,1.293-1.016,19.392,19.392,0,0,0,2.478,2.118,1.205,1.205,0,0,1,.424-.678A17.886,17.886,0,0,1,318.042,113.527Z" fill="#f2f2f3" opacity="0.55" style="isolation: isolate"/>
        <path d="M323,117.065h-.381l-.212-.128a1.292,1.292,0,0,1-.424.636l.254.148h0l.233.127h0l.593.3h0a7.6,7.6,0,0,0,.191-.741Z" fill="#f2f2f3" opacity="0.55" style="isolation: isolate"/>
      </g>
      <circle cx="314.483" cy="115.921" r="1.843" fill="#f2f2f3"/>
      <circle cx="318.359" cy="119.268" r="1.186" fill="#f2f2f3"/>
    </g>
    <g>
      <path id="aacf8311-a317-400f-b613-74bd00da5ce3" d="M180.444,86.618a18,18,0,1,0,18,18A18,18,0,0,0,180.444,86.618Zm0,33.544a15.544,15.544,0,1,1,15.544-15.544h0A15.544,15.544,0,0,1,180.444,120.162Z" fill="url(#radial-gradient)"/>
      <circle cx="180.444" cy="104.618" r="15.544" fill="#fff"/>
      <g>
        <path id="bd983c41-db73-40ec-a4f4-da1213fc9924" d="M189.847,101.082a3.9,3.9,0,0,0,0-5.485h0l-6.671-6.692a3.875,3.875,0,0,0-5.463,0h0L171.042,95.6a3.9,3.9,0,0,0,0,5.485l5.548,5.654a1.08,1.08,0,0,1,.318.762v10.334a1.331,1.331,0,0,0,.381.932l2.541,2.541a.869.869,0,0,0,1.228,0h0l2.457-2.456h0l1.44-1.44a.53.53,0,0,0,0-.72l-1.038-1.038a.571.571,0,0,1,0-.783l1.038-1.038a.53.53,0,0,0,0-.72l-1.038-1.038a.571.571,0,0,1,0-.783l1.038-1.038a.53.53,0,0,0,0-.72l-1.44-1.461v-.529Zm-9.4-10.546a2.192,2.192,0,1,1-2.191,2.192A2.191,2.191,0,0,1,180.444,90.536Z" fill="url(#radial-gradient-2)"/>
        <path id="ad2e7e44-9bfd-4775-8bf4-8ef26a544921" d="M178.708,117.959h0a.487.487,0,0,0,.687-.051.492.492,0,0,0,.118-.309v-8.47a.511.511,0,0,0-.233-.424h0a.466.466,0,0,0-.72.424v8.47A.583.583,0,0,0,178.708,117.959Z" fill="#f7921e" opacity="0.75" style="isolation: isolate"/>
        <rect id="a996fbff-3936-4b24-b407-369336c143ba" x="175.108" y="97.821" width="10.948" height="1.292" rx="0.593" fill="#f7921e" opacity="0.75" style="isolation: isolate"/>
        <rect id="bb12d31c-3352-4a18-87dd-a169a4a8721d" x="175.108" y="99.917" width="10.948" height="1.292" rx="0.593" fill="#f7921e" opacity="0.75" style="isolation: isolate"/>
      </g>
    </g>
    <g>
      <path d="M139.815,103.962h-1.922V97.807a11.66,11.66,0,0,0-2.979-7.853,9.9,9.9,0,0,0-14.822,0,11.475,11.475,0,0,0-2.982,7.851v6.157H115.5a1.41,1.41,0,0,0-1.391,1.382v15.892a1.412,1.412,0,0,0,1.391,1.382h24.314a1.407,1.407,0,0,0,1.388-1.382V105.344A1.4,1.4,0,0,0,139.815,103.962Zm-6.738,0H121.936V97.706a6.326,6.326,0,0,1,1.732-4.3,4.977,4.977,0,0,1,7.55,0,6.344,6.344,0,0,1,.648.864h0a5.973,5.973,0,0,1,1.2,3.438Z" fill="url(#linear-gradient-4)"/>
      <path d="M139.854,103.962H115.525a1.377,1.377,0,0,0-.892.343l26.113,18.079a1.388,1.388,0,0,0,.5-1.045V105.352A1.411,1.411,0,0,0,139.854,103.962Z" fill="#50e6ff"/>
      <path d="M115.55,103.962h24.328a1.377,1.377,0,0,1,.893.343l-26.114,18.079a1.38,1.38,0,0,1-.495-1.045V105.352A1.408,1.408,0,0,1,115.55,103.962Z" fill="#fff" opacity="0.2" style="isolation: isolate"/>
    </g>
    <g>
      <line x1="207.348" y1="104.618" x2="234.752" y2="104.618" fill="none" stroke="#505150" stroke-miterlimit="10"/>
      <polygon points="233.657 108.358 240.134 104.618 233.657 100.879 233.657 108.358" fill="#505150"/>
    </g>
    <g>
      <path id="ee75dd06-1aca-4f76-9d11-d05a284020ad" d="M324.356,27.518A11.022,11.022,0,0,1,310.849,10.1l.117-.077a11.018,11.018,0,0,1,13.39,17.5" fill="url(#radial-gradient-3)"/>
      <path d="M314.608,16.513a16.85,16.85,0,0,1,11.549-4.641,10.934,10.934,0,0,0-1.931-1.866,18.6,18.6,0,0,0-6.079,1.425,16.258,16.258,0,0,0-5.289,3.656A3.575,3.575,0,0,1,314.608,16.513Z" fill="#fff" opacity="0.6" style="isolation: isolate"/>
      <path d="M309.151,20.946a23.177,23.177,0,0,0-1.076,3.4,10.072,10.072,0,0,0,.8,1.192,10.87,10.87,0,0,0,.713.843,23.216,23.216,0,0,1,1.4-4.5A3.584,3.584,0,0,1,309.151,20.946Z" fill="#fff" opacity="0.6" style="isolation: isolate"/>
      <path d="M310.421,15.061a15.556,15.556,0,0,1-.894-3.811,10.566,10.566,0,0,0-1.426,1.88,16.462,16.462,0,0,0,.739,3.085A3.488,3.488,0,0,1,310.421,15.061Z" fill="#f2f2f3" opacity="0.55" style="isolation: isolate"/>
      <circle cx="311.614" cy="18.392" r="3.539" fill="url(#linear-gradient-5)"/>
      <path d="M316.773,24.86a2.292,2.292,0,0,1,.7-1.646,15.419,15.419,0,0,1-3.28-2.411,3.55,3.55,0,0,1-1.931,1.076,17.005,17.005,0,0,0,1.879,1.659,15.616,15.616,0,0,0,2.658,1.62A2.275,2.275,0,0,1,316.773,24.86Z" fill="#f2f2f3" opacity="0.55" style="isolation: isolate"/>
      <path d="M324.939,25.133a15.617,15.617,0,0,1-3.578-.415.483.483,0,0,1,0,.142,2.268,2.268,0,0,1-.661,1.608,17.77,17.77,0,0,0,4.433.311,10.658,10.658,0,0,0,1.543-1.737A15.05,15.05,0,0,1,324.939,25.133Z" fill="#f2f2f3" opacity="0.55" style="isolation: isolate"/>
      <circle cx="319.067" cy="24.86" r="2.307" fill="url(#linear-gradient-6)"/>
      <path d="M321.906,18.716a2.372,2.372,0,0,1,.79-1.3,33.085,33.085,0,0,1-5.781-5.366,21.919,21.919,0,0,1-2.592-3.785,9.906,9.906,0,0,0-1.413.544,23.513,23.513,0,0,0,2.787,4.122A34.242,34.242,0,0,0,321.906,18.716Z" fill="#f2f2f3" opacity="0.7" style="isolation: isolate"/>
      <circle cx="324.317" cy="19.157" r="2.45" fill="url(#linear-gradient-7)"/>
      <path d="M328.426,20.8l-.454-.22h0l-.389-.208h-.078l-.337-.272h-.09l-.4-.259a2.279,2.279,0,0,1-.83,1.192c.156.1.324.2.493.286l.1.064.453.247h0l1.115.583h0a11.148,11.148,0,0,0,.376-1.439Z" fill="#f2f2f3" opacity="0.55" style="isolation: isolate"/>
      <circle cx="311.614" cy="18.392" r="3.539" fill="url(#linear-gradient-5)"/>
      <circle cx="319.067" cy="24.86" r="2.307" fill="url(#linear-gradient-6)"/>
    </g>
    <g>
      <polygon points="23.369 85.668 45.28 85.668 33.481 65.229 29.898 75.094 36.781 83.308 23.369 85.668"/>
      <polygon points="32.541 63.668 24.114 70.747 16.893 83.255 23.404 83.255 23.404 83.273 32.541 63.668"/>
    </g>
    <g>
      <rect x="20.134" y="190.32" width="457.6" height="135.709" fill="#fff"/>
      <g opacity="0.65">
        <path d="M477.584,190.47V325.879H20.284V190.47h457.3m.15-.15H20.134V326.029h457.6V190.32Z" fill="#505150"/>
      </g>
    </g>
    <g>
      <rect x="33.334" y="202.848" width="123.2" height="109.981" fill="#fff"/>
      <rect x="33.334" y="202.848" width="123.2" height="109.981" fill="#505150" opacity="0.1"/>
    </g>
    <g>
      <path d="M84.921,274.069a.936.936,0,0,1-.973.883H69.012a.936.936,0,0,1-.973-.883V249.837a.936.936,0,0,1,.973-.883H83.948a.936.936,0,0,1,.973.883Z" fill="url(#linear-gradient-10)"/>
      <path d="M70.525,260.07a1.947,1.947,0,0,1,1.8-2.036h8.432a1.947,1.947,0,0,1,1.8,2.036h0a1.928,1.928,0,0,1-1.736,2.1l-.066,0h-8.4a1.928,1.928,0,0,1-1.8-2.018Z" fill="#1e3465"/>
      <path d="M70.525,254.053a1.928,1.928,0,0,1,1.8-2.018h8.432a1.928,1.928,0,0,1,1.8,2.018h0a1.947,1.947,0,0,1-1.8,2.036h-8.4a1.947,1.947,0,0,1-1.8-2.036Z" fill="#1e3465"/>
      <circle cx="72.886" cy="254.053" r="1.351" fill="#74cfeb"/>
      <circle cx="72.886" cy="260.07" r="1.351" fill="#74cfeb"/>
    </g>
    <g>
      <rect x="110.792" y="248.953" width="28.142" height="18.761" rx="0.938" fill="url(#linear-gradient-11)"/>
      <polygon points="129.553 255.598 129.553 261.054 124.863 263.806 124.863 258.334 129.553 255.598" fill="#74cfeb"/>
      <polygon points="129.553 255.598 124.863 258.349 120.172 255.598 124.863 252.862 129.553 255.598" fill="#c6eaf8"/>
      <polygon points="124.863 258.349 124.863 263.806 120.172 261.054 120.172 255.598 124.863 258.349" fill="#a5def3"/>
      <polygon points="120.172 261.054 124.863 258.334 124.863 263.806 120.172 261.054" fill="#c6eaf8"/>
      <polygon points="129.553 261.054 124.863 258.334 124.863 263.806 129.553 261.054" fill="#a5def3"/>
      <path d="M130.507,273.39c-2.783-.438-2.893-2.439-2.893-5.676H122.1c0,3.237-.093,5.238-2.876,5.676a1.563,1.563,0,0,0-1.392,1.563H131.9A1.563,1.563,0,0,0,130.507,273.39Z" fill="url(#linear-gradient-12)"/>
    </g>
    <g>
      <rect x="209.334" y="202.848" width="123.2" height="109.981" fill="#fff"/>
      <rect x="209.334" y="202.848" width="123.2" height="109.981" fill="#505150" opacity="0.1"/>
    </g>
    <g>
      <path d="M261.134,274.069a.936.936,0,0,1-.973.883H245.225a.936.936,0,0,1-.972-.883V249.837a.936.936,0,0,1,.972-.883h14.936a.936.936,0,0,1,.973.883Z" fill="url(#linear-gradient-13)"/>
      <path d="M246.739,260.07a1.946,1.946,0,0,1,1.8-2.036h8.431a1.946,1.946,0,0,1,1.8,2.036h0a1.927,1.927,0,0,1-1.735,2.1l-.067,0h-8.395a1.927,1.927,0,0,1-1.8-2.018Z" fill="#1e3465"/>
      <path d="M246.739,254.053a1.927,1.927,0,0,1,1.8-2.018h8.431a1.927,1.927,0,0,1,1.8,2.018h0a1.946,1.946,0,0,1-1.8,2.036h-8.395a1.946,1.946,0,0,1-1.8-2.036Z" fill="#1e3465"/>
      <circle cx="249.099" cy="254.053" r="1.351" fill="#74cfeb"/>
      <circle cx="249.099" cy="260.07" r="1.351" fill="#74cfeb"/>
    </g>
    <g>
      <rect x="291.192" y="248.953" width="28.142" height="18.761" rx="0.938" fill="url(#linear-gradient-14)"/>
      <polygon points="309.953 255.598 309.953 261.054 305.263 263.806 305.263 258.334 309.953 255.598" fill="#74cfeb"/>
      <polygon points="309.953 255.598 305.263 258.349 300.572 255.598 305.263 252.862 309.953 255.598" fill="#c6eaf8"/>
      <polygon points="305.263 258.349 305.263 263.806 300.572 261.054 300.572 255.598 305.263 258.349" fill="#a5def3"/>
      <polygon points="300.572 261.054 305.263 258.334 305.263 263.806 300.572 261.054" fill="#c6eaf8"/>
      <polygon points="309.953 261.054 305.263 258.334 305.263 263.806 309.953 261.054" fill="#a5def3"/>
      <path d="M310.907,273.39c-2.783-.438-2.893-2.439-2.893-5.676H302.5c0,3.237-.093,5.238-2.876,5.676a1.563,1.563,0,0,0-1.392,1.563H312.3A1.563,1.563,0,0,0,310.907,273.39Z" fill="url(#linear-gradient-15)"/>
    </g>
    <g>
      <rect x="341.334" y="202.848" width="123.2" height="109.981" fill="#fff"/>
      <rect x="341.334" y="202.848" width="123.2" height="109.981" fill="#505150" opacity="0.1"/>
    </g>
    <g>
      <path d="M393.134,274.069a.936.936,0,0,1-.973.883H377.225a.936.936,0,0,1-.972-.883V249.837a.936.936,0,0,1,.972-.883h14.936a.936.936,0,0,1,.973.883Z" fill="url(#linear-gradient-16)"/>
      <path d="M378.739,260.07a1.946,1.946,0,0,1,1.8-2.036h8.431a1.946,1.946,0,0,1,1.8,2.036h0a1.927,1.927,0,0,1-1.735,2.1l-.067,0h-8.395a1.927,1.927,0,0,1-1.8-2.018Z" fill="#1e3465"/>
      <path d="M378.739,254.053a1.927,1.927,0,0,1,1.8-2.018h8.431a1.927,1.927,0,0,1,1.8,2.018h0a1.946,1.946,0,0,1-1.8,2.036h-8.395a1.946,1.946,0,0,1-1.8-2.036Z" fill="#1e3465"/>
      <circle cx="381.099" cy="254.053" r="1.351" fill="#74cfeb"/>
      <circle cx="381.099" cy="260.07" r="1.351" fill="#74cfeb"/>
    </g>
    <g>
      <rect x="423.192" y="248.953" width="28.142" height="18.761" rx="0.938" fill="url(#linear-gradient-17)"/>
      <polygon points="441.953 255.598 441.953 261.054 437.263 263.806 437.263 258.334 441.953 255.598" fill="#74cfeb"/>
      <polygon points="441.953 255.598 437.263 258.349 432.572 255.598 437.263 252.862 441.953 255.598" fill="#c6eaf8"/>
      <polygon points="437.263 258.349 437.263 263.806 432.572 261.054 432.572 255.598 437.263 258.349" fill="#a5def3"/>
      <polygon points="432.572 261.054 437.263 258.334 437.263 263.806 432.572 261.054" fill="#c6eaf8"/>
      <polygon points="441.953 261.054 437.263 258.334 437.263 263.806 441.953 261.054" fill="#a5def3"/>
      <path d="M442.907,273.39c-2.783-.438-2.893-2.439-2.893-5.676H434.5c0,3.237-.093,5.238-2.876,5.676a1.563,1.563,0,0,0-1.392,1.563H444.3A1.563,1.563,0,0,0,442.907,273.39Z" fill="url(#linear-gradient-18)"/>
    </g>
    <g>
      <line x1="169.734" y1="260.029" x2="190.752" y2="260.029" fill="none" stroke="#3c3c41" stroke-miterlimit="10"/>
      <polygon points="189.657 263.769 196.134 260.029 189.657 256.29 189.657 263.769" fill="#3c3c41"/>
    </g>
    <g>
      <line x1="252.693" y1="154.429" x2="252.693" y2="197.447" fill="none" stroke="#3c3c41" stroke-miterlimit="10"/>
      <polygon points="248.954 196.353 252.693 202.829 256.433 196.353 248.954 196.353" fill="#3c3c41"/>
    </g>
    <g>
      <line x1="384.693" y1="154.429" x2="384.693" y2="197.447" fill="none" stroke="#3c3c41" stroke-miterlimit="10"/>
      <polygon points="380.954 196.353 384.693 202.829 388.433 196.353 380.954 196.353" fill="#3c3c41"/>
    </g>
  </g>
  <g id="Text">
    <g>
      <path d="M224.967,22.429h-1.149v-9.8h1.149Z" fill="#2f2f2f"/>
      <path d="M233.043,22.429h-1.121V18.437q0-2.229-1.627-2.228a1.763,1.763,0,0,0-1.391.632,2.343,2.343,0,0,0-.551,1.6v3.992h-1.121v-7h1.121v1.162h.028a2.523,2.523,0,0,1,2.3-1.326,2.136,2.136,0,0,1,1.756.742,3.3,3.3,0,0,1,.61,2.143Z" fill="#2f2f2f"/>
      <path d="M236.213,21.418h-.028v1.011h-1.121V12.066h1.121V16.66h.028a2.652,2.652,0,0,1,2.42-1.395,2.567,2.567,0,0,1,2.109.94,3.884,3.884,0,0,1,.762,2.519,4.346,4.346,0,0,1-.854,2.813,2.846,2.846,0,0,1-2.338,1.056A2.3,2.3,0,0,1,236.213,21.418Zm-.028-2.824v.978a2.076,2.076,0,0,0,.565,1.473,2.011,2.011,0,0,0,3.027-.174,3.563,3.563,0,0,0,.578-2.167,2.821,2.821,0,0,0-.539-1.832,1.789,1.789,0,0,0-1.463-.663,1.983,1.983,0,0,0-1.572.68A2.5,2.5,0,0,0,236.185,18.594Z" fill="#2f2f2f"/>
      <path d="M246.209,22.593a3.254,3.254,0,0,1-2.479-.981,3.634,3.634,0,0,1-.926-2.6,3.786,3.786,0,0,1,.965-2.754,3.464,3.464,0,0,1,2.6-.992,3.135,3.135,0,0,1,2.443.964A3.822,3.822,0,0,1,249.7,18.9a3.751,3.751,0,0,1-.947,2.683A3.316,3.316,0,0,1,246.209,22.593Zm.082-6.384a2.135,2.135,0,0,0-1.709.735,3.021,3.021,0,0,0-.629,2.026,2.852,2.852,0,0,0,.637,1.962,2.156,2.156,0,0,0,1.7.718,2.055,2.055,0,0,0,1.672-.7,3.064,3.064,0,0,0,.584-2,3.116,3.116,0,0,0-.584-2.023A2.041,2.041,0,0,0,246.291,16.209Z" fill="#2f2f2f"/>
      <path d="M257.105,22.429h-1.121V21.322h-.027a2.3,2.3,0,0,1-2.16,1.271q-2.5,0-2.5-2.98V15.429h1.113v4.006q0,2.216,1.7,2.215a1.721,1.721,0,0,0,1.352-.6,2.324,2.324,0,0,0,.529-1.582V15.429h1.121Z" fill="#2f2f2f"/>
      <path d="M265.023,22.429H263.9V18.437q0-2.229-1.627-2.228a1.766,1.766,0,0,0-1.391.632,2.342,2.342,0,0,0-.55,1.6v3.992h-1.121v-7h1.121v1.162h.027a2.523,2.523,0,0,1,2.3-1.326,2.137,2.137,0,0,1,1.756.742,3.3,3.3,0,0,1,.609,2.143Z" fill="#2f2f2f"/>
      <path d="M273.1,22.429h-1.121V21.24h-.027a2.589,2.589,0,0,1-2.406,1.353,2.616,2.616,0,0,1-2.11-.94,3.862,3.862,0,0,1-.789-2.56,4.191,4.191,0,0,1,.875-2.782,2.884,2.884,0,0,1,2.33-1.046,2.246,2.246,0,0,1,2.1,1.135h.027V12.066H273.1Zm-1.121-3.165V18.232a2,2,0,0,0-.56-1.435,1.879,1.879,0,0,0-1.422-.588,1.931,1.931,0,0,0-1.613.752,3.286,3.286,0,0,0-.588,2.078,2.957,2.957,0,0,0,.564,1.91,1.837,1.837,0,0,0,1.514.7,1.918,1.918,0,0,0,1.521-.677A2.524,2.524,0,0,0,271.976,19.264Z" fill="#2f2f2f"/>
      <path d="M283.972,22.108a3.635,3.635,0,0,1-1.914.485,3.167,3.167,0,0,1-2.416-.974,3.529,3.529,0,0,1-.92-2.526,3.871,3.871,0,0,1,.993-2.778,3.465,3.465,0,0,1,2.644-1.05,3.68,3.68,0,0,1,1.627.342v1.149a2.843,2.843,0,0,0-1.668-.547,2.252,2.252,0,0,0-1.76.769,2.912,2.912,0,0,0-.687,2.02,2.777,2.777,0,0,0,.646,1.941,2.225,2.225,0,0,0,1.733.711,2.809,2.809,0,0,0,1.722-.608Z" fill="#2f2f2f"/>
      <path d="M290.717,22.429H289.6V21.336h-.027a2.345,2.345,0,0,1-2.152,1.257,2.3,2.3,0,0,1-1.637-.553,1.916,1.916,0,0,1-.592-1.47q0-1.962,2.311-2.283l2.1-.294q0-1.785-1.441-1.784a3.443,3.443,0,0,0-2.283.861V15.922a4.329,4.329,0,0,1,2.379-.657q2.466,0,2.467,2.612ZM289.6,18.888l-1.687.233a2.734,2.734,0,0,0-1.176.386,1.113,1.113,0,0,0-.4.981,1.065,1.065,0,0,0,.365.837,1.411,1.411,0,0,0,.975.325,1.8,1.8,0,0,0,1.376-.584,2.081,2.081,0,0,0,.543-1.48Z" fill="#2f2f2f"/>
      <path d="M293.859,22.429h-1.121V12.066h1.121Z" fill="#2f2f2f"/>
      <path d="M297.09,22.429h-1.122V12.066h1.122Z" fill="#2f2f2f"/>
    </g>
    <g>
      <path d="M285.745,92.829h-1.272l-1.039-2.748h-4.156l-.977,2.748h-1.279l3.76-9.8h1.189Zm-2.687-3.78-1.538-4.177a3.98,3.98,0,0,1-.15-.656h-.027a3.61,3.61,0,0,1-.158.656l-1.524,4.177Z" fill="#2f2f2f"/>
      <path d="M288.166,91.818h-.028v4.231h-1.121V85.829h1.121V87.06h.028a2.651,2.651,0,0,1,2.42-1.395,2.565,2.565,0,0,1,2.112.94,3.892,3.892,0,0,1,.759,2.519,4.335,4.335,0,0,1-.855,2.813,2.843,2.843,0,0,1-2.338,1.056A2.342,2.342,0,0,1,288.166,91.818Zm-.028-2.824v.978a2.078,2.078,0,0,0,.565,1.473,2.011,2.011,0,0,0,3.027-.174,3.57,3.57,0,0,0,.578-2.167,2.815,2.815,0,0,0-.54-1.832,1.786,1.786,0,0,0-1.463-.663,1.986,1.986,0,0,0-1.572.68A2.5,2.5,0,0,0,288.138,88.994Z" fill="#2f2f2f"/>
      <path d="M296.322,91.818H296.3v4.231h-1.121V85.829H296.3V87.06h.027a2.651,2.651,0,0,1,2.42-1.395,2.565,2.565,0,0,1,2.112.94,3.892,3.892,0,0,1,.759,2.519,4.341,4.341,0,0,1-.854,2.813,2.846,2.846,0,0,1-2.338,1.056A2.342,2.342,0,0,1,296.322,91.818Zm-.027-2.824v.978a2.077,2.077,0,0,0,.564,1.473,2.011,2.011,0,0,0,3.027-.174,3.57,3.57,0,0,0,.579-2.167,2.821,2.821,0,0,0-.54-1.832,1.789,1.789,0,0,0-1.463-.663,1.986,1.986,0,0,0-1.573.68A2.5,2.5,0,0,0,296.3,88.994Z" fill="#2f2f2f"/>
      <path d="M314.718,92.159a6.56,6.56,0,0,1-3.282.834,4.485,4.485,0,0,1-3.394-1.353,4.963,4.963,0,0,1-1.295-3.582,5.094,5.094,0,0,1,1.439-3.736,4.905,4.905,0,0,1,3.647-1.46,6.208,6.208,0,0,1,2.686.52v1.271A5.159,5.159,0,0,0,311.7,83.9a3.519,3.519,0,0,0-2.7,1.134,4.741,4.741,0,0,0-.076,5.862,3.428,3.428,0,0,0,2.653,1.063,4.1,4.1,0,0,0,1.989-.458V88.755h-2.146V87.716h3.3Z" fill="#2f2f2f"/>
      <path d="M321.8,92.829h-1.121V91.736h-.027a2.346,2.346,0,0,1-2.153,1.257,2.3,2.3,0,0,1-1.637-.553,1.917,1.917,0,0,1-.592-1.47q0-1.962,2.311-2.283l2.1-.294q0-1.785-1.442-1.784a3.445,3.445,0,0,0-2.283.861V86.321a4.342,4.342,0,0,1,2.379-.656q2.467,0,2.467,2.612Zm-1.121-3.541-1.688.233a2.726,2.726,0,0,0-1.176.386,1.112,1.112,0,0,0-.4.981,1.069,1.069,0,0,0,.365.837,1.412,1.412,0,0,0,.974.325,1.8,1.8,0,0,0,1.377-.585,2.078,2.078,0,0,0,.544-1.479Z" fill="#2f2f2f"/>
      <path d="M327.062,92.761a2.159,2.159,0,0,1-1.046.219q-1.838,0-1.839-2.051V86.786h-1.2v-.957h1.2V84.12l1.122-.362v2.071h1.763v.957H325.3v3.945a1.641,1.641,0,0,0,.239,1.005.956.956,0,0,0,.793.3,1.178,1.178,0,0,0,.731-.232Z" fill="#2f2f2f"/>
      <path d="M334.055,89.61h-4.942a2.621,2.621,0,0,0,.629,1.8,2.167,2.167,0,0,0,1.654.636,3.444,3.444,0,0,0,2.174-.779v1.052a4.06,4.06,0,0,1-2.44.67,2.959,2.959,0,0,1-2.331-.953,3.9,3.9,0,0,1-.848-2.683,3.825,3.825,0,0,1,.926-2.663,2.97,2.97,0,0,1,2.3-1.029,2.633,2.633,0,0,1,2.126.889,3.706,3.706,0,0,1,.752,2.468Zm-1.148-.951a2.283,2.283,0,0,0-.468-1.51,1.6,1.6,0,0,0-1.282-.54,1.813,1.813,0,0,0-1.347.567,2.575,2.575,0,0,0-.683,1.483Z" fill="#2f2f2f"/>
      <path d="M344.53,85.829l-2.1,7h-1.162l-1.442-5.01a3.236,3.236,0,0,1-.109-.65h-.028a3.088,3.088,0,0,1-.143.636l-1.566,5.024H336.86l-2.119-7h1.176l1.449,5.264a3.2,3.2,0,0,1,.1.629h.054a2.982,2.982,0,0,1,.123-.643l1.614-5.25h1.025l1.449,5.278a3.725,3.725,0,0,1,.1.629h.054a2.863,2.863,0,0,1,.117-.629l1.422-5.278Z" fill="#2f2f2f"/>
      <path d="M350.7,92.829h-1.121V91.736h-.028a2.346,2.346,0,0,1-2.153,1.257,2.3,2.3,0,0,1-1.637-.553,1.92,1.92,0,0,1-.591-1.47q0-1.962,2.31-2.283l2.1-.294q0-1.785-1.443-1.784a3.448,3.448,0,0,0-2.283.861V86.321a4.346,4.346,0,0,1,2.379-.656q2.469,0,2.468,2.612Zm-1.121-3.541-1.689.233a2.73,2.73,0,0,0-1.176.386,1.114,1.114,0,0,0-.4.981,1.069,1.069,0,0,0,.365.837,1.414,1.414,0,0,0,.975.325,1.8,1.8,0,0,0,1.377-.585,2.082,2.082,0,0,0,.544-1.479Z" fill="#2f2f2f"/>
      <path d="M358.215,85.829,355,93.95q-.861,2.175-2.42,2.174a2.581,2.581,0,0,1-.732-.089v-1a2.084,2.084,0,0,0,.664.123,1.373,1.373,0,0,0,1.271-1.011l.561-1.326L351.6,85.829h1.244l1.894,5.387q.033.1.143.533h.041c.023-.109.069-.283.137-.519l1.989-5.4Z" fill="#2f2f2f"/>
    </g>
    <g>
      <path d="M28.091,184.819a5.748,5.748,0,0,1-2.707.574,4.369,4.369,0,0,1-3.35-1.346,4.969,4.969,0,0,1-1.258-3.535,5.207,5.207,0,0,1,1.415-3.8,4.8,4.8,0,0,1,3.589-1.45,5.754,5.754,0,0,1,2.311.4v1.223a4.69,4.69,0,0,0-2.325-.588,3.567,3.567,0,0,0-2.738,1.128,4.252,4.252,0,0,0-1.049,3.015,4.042,4.042,0,0,0,.981,2.854,3.337,3.337,0,0,0,2.574,1.063,4.835,4.835,0,0,0,2.557-.656Z" fill="#2f2f2f"/>
      <path d="M30.763,185.229H29.642V174.866h1.121Z" fill="#2f2f2f"/>
      <path d="M38.6,185.229H37.482v-1.107h-.027a2.3,2.3,0,0,1-2.16,1.271q-2.5,0-2.5-2.98v-4.184h1.114v4.006q0,2.215,1.7,2.215a1.719,1.719,0,0,0,1.351-.6,2.32,2.32,0,0,0,.529-1.583v-4.033H38.6Z" fill="#2f2f2f"/>
      <path d="M40.365,184.976v-1.2a3.318,3.318,0,0,0,2.017.677q1.476,0,1.476-.985a.856.856,0,0,0-.126-.475,1.287,1.287,0,0,0-.342-.345,2.665,2.665,0,0,0-.506-.27c-.194-.079-.4-.163-.625-.249a7.942,7.942,0,0,1-.818-.373,2.5,2.5,0,0,1-.588-.424,1.6,1.6,0,0,1-.355-.536,1.915,1.915,0,0,1-.119-.7,1.675,1.675,0,0,1,.225-.872,2.006,2.006,0,0,1,.6-.636,2.785,2.785,0,0,1,.858-.386,3.823,3.823,0,0,1,.994-.13,4.006,4.006,0,0,1,1.627.315v1.134a3.169,3.169,0,0,0-1.777-.506,2.064,2.064,0,0,0-.567.072,1.387,1.387,0,0,0-.435.2.916.916,0,0,0-.279.311.811.811,0,0,0-.1.4.949.949,0,0,0,.1.458.993.993,0,0,0,.29.328,2.225,2.225,0,0,0,.465.26q.273.116.622.253a8.711,8.711,0,0,1,.834.365,2.891,2.891,0,0,1,.629.424,1.682,1.682,0,0,1,.4.544,1.756,1.756,0,0,1,.14.731,1.721,1.721,0,0,1-.23.9,1.942,1.942,0,0,1-.611.636,2.789,2.789,0,0,1-.882.376,4.362,4.362,0,0,1-1.046.123A3.97,3.97,0,0,1,40.365,184.976Z" fill="#2f2f2f"/>
      <path d="M50.018,185.161a2.159,2.159,0,0,1-1.046.219q-1.837,0-1.838-2.051v-4.143h-1.2v-.957h1.2V176.52l1.121-.362v2.071h1.763v.957H48.255v3.945a1.636,1.636,0,0,0,.239,1,.953.953,0,0,0,.793.3,1.178,1.178,0,0,0,.731-.232Z" fill="#2f2f2f"/>
      <path d="M57.011,182.009H52.069a2.622,2.622,0,0,0,.629,1.805,2.167,2.167,0,0,0,1.654.636,3.444,3.444,0,0,0,2.174-.779v1.052a4.06,4.06,0,0,1-2.44.67,2.959,2.959,0,0,1-2.331-.953,3.9,3.9,0,0,1-.848-2.683,3.83,3.83,0,0,1,.926-2.663,2.972,2.972,0,0,1,2.3-1.029,2.626,2.626,0,0,1,2.125.889,3.706,3.706,0,0,1,.752,2.468Zm-1.148-.95a2.288,2.288,0,0,0-.468-1.511,1.6,1.6,0,0,0-1.282-.54,1.81,1.81,0,0,0-1.347.568,2.575,2.575,0,0,0-.683,1.483Z" fill="#2f2f2f"/>
      <path d="M62.344,179.364a1.372,1.372,0,0,0-.847-.226,1.428,1.428,0,0,0-1.2.677,3.118,3.118,0,0,0-.483,1.846v3.568H58.694v-7h1.121v1.443h.028a2.439,2.439,0,0,1,.731-1.152,1.667,1.667,0,0,1,1.1-.414,1.819,1.819,0,0,1,.669.1Z" fill="#2f2f2f"/>
    </g>
    <g>
      <path d="M171.523,142.63h-1.272l-1.039-2.748h-4.156l-.978,2.748H162.8l3.76-9.8h1.189Zm-2.687-3.781-1.538-4.176a3.919,3.919,0,0,1-.15-.657h-.028a3.657,3.657,0,0,1-.157.657l-1.524,4.176Z" fill="#2f2f2f"/>
      <path d="M178.134,135.951l-4.143,5.722h4.1v.957h-5.749v-.349l4.143-5.694h-3.753v-.957h5.4Z" fill="#2f2f2f"/>
      <path d="M185.231,142.63H184.11v-1.108h-.028a2.3,2.3,0,0,1-2.16,1.272q-2.5,0-2.5-2.981V135.63h1.114v4q0,2.216,1.7,2.215a1.712,1.712,0,0,0,1.35-.6,2.313,2.313,0,0,0,.53-1.582V135.63h1.121Z" fill="#2f2f2f"/>
      <path d="M190.988,136.764a1.375,1.375,0,0,0-.848-.225,1.428,1.428,0,0,0-1.2.676,3.127,3.127,0,0,0-.482,1.846v3.569h-1.121v-7h1.121v1.442h.027a2.437,2.437,0,0,1,.732-1.152,1.665,1.665,0,0,1,1.1-.413,1.828,1.828,0,0,1,.67.095Z" fill="#2f2f2f"/>
      <path d="M197.831,139.41h-4.943a2.624,2.624,0,0,0,.629,1.805,2.172,2.172,0,0,0,1.655.635,3.441,3.441,0,0,0,2.173-.779v1.053a4.065,4.065,0,0,1-2.44.67,2.958,2.958,0,0,1-2.331-.954,3.9,3.9,0,0,1-.848-2.683,3.832,3.832,0,0,1,.926-2.663,2.972,2.972,0,0,1,2.3-1.029,2.633,2.633,0,0,1,2.126.889,3.706,3.706,0,0,1,.752,2.468Zm-1.149-.95a2.293,2.293,0,0,0-.467-1.511,1.6,1.6,0,0,0-1.283-.54,1.811,1.811,0,0,0-1.346.567,2.582,2.582,0,0,0-.684,1.484Z" fill="#2f2f2f"/>
      <path d="M160.34,159.429h-1.6l-3.787-4.484a2.706,2.706,0,0,1-.259-.342h-.028v4.826h-1.148v-9.8h1.148v4.607h.028a2.664,2.664,0,0,1,.259-.335l3.664-4.272h1.429l-4.2,4.7Z" fill="#2f2f2f"/>
      <path d="M166.757,156.21h-4.942a2.612,2.612,0,0,0,.629,1.8,2.167,2.167,0,0,0,1.654.636,3.444,3.444,0,0,0,2.174-.779v1.052a4.063,4.063,0,0,1-2.441.67,2.958,2.958,0,0,1-2.331-.953,3.9,3.9,0,0,1-.847-2.683,3.829,3.829,0,0,1,.925-2.663,2.973,2.973,0,0,1,2.3-1.029,2.633,2.633,0,0,1,2.126.889,3.706,3.706,0,0,1,.752,2.468Zm-1.148-.951a2.29,2.29,0,0,0-.468-1.51,1.6,1.6,0,0,0-1.282-.54,1.811,1.811,0,0,0-1.347.567,2.579,2.579,0,0,0-.684,1.483Z" fill="#2f2f2f"/>
      <path d="M173.957,152.429l-3.219,8.121q-.862,2.175-2.42,2.174a2.576,2.576,0,0,1-.732-.089v-1a2.078,2.078,0,0,0,.663.123,1.374,1.374,0,0,0,1.272-1.012l.56-1.326-2.734-6.987h1.244l1.894,5.387q.033.1.143.533h.041q.035-.163.137-.519l1.989-5.4Z" fill="#2f2f2f"/>
      <path d="M186.432,149.627l-3.629,9.8h-1.265l-3.554-9.8h1.278l2.714,7.772a4.624,4.624,0,0,1,.2.868h.027a4.308,4.308,0,0,1,.226-.882l2.769-7.758Z" fill="#2f2f2f"/>
      <path d="M192.05,159.429h-1.122v-1.093H190.9a2.346,2.346,0,0,1-2.153,1.257,2.3,2.3,0,0,1-1.637-.553,1.92,1.92,0,0,1-.592-1.47q0-1.962,2.311-2.283l2.1-.294q0-1.785-1.442-1.784a3.446,3.446,0,0,0-2.283.861v-1.148a4.334,4.334,0,0,1,2.379-.657q2.468,0,2.468,2.612Zm-1.122-3.541-1.688.233a2.739,2.739,0,0,0-1.176.386,1.116,1.116,0,0,0-.4.981,1.069,1.069,0,0,0,.365.837,1.413,1.413,0,0,0,.975.325,1.8,1.8,0,0,0,1.376-.584,2.082,2.082,0,0,0,.544-1.48Z" fill="#2f2f2f"/>
      <path d="M199.77,159.429h-1.121v-1.107h-.027a2.3,2.3,0,0,1-2.16,1.271q-2.5,0-2.5-2.98v-4.184h1.114v4.006q0,2.216,1.695,2.215a1.719,1.719,0,0,0,1.351-.605,2.32,2.32,0,0,0,.529-1.582v-4.034h1.121Z" fill="#2f2f2f"/>
      <path d="M203,159.429h-1.121V149.066H203Z" fill="#2f2f2f"/>
      <path d="M208.445,159.361a2.162,2.162,0,0,1-1.046.219q-1.837,0-1.839-2.051v-4.143h-1.2v-.957h1.2V150.72l1.121-.362v2.071h1.764v.957h-1.764v3.945a1.633,1.633,0,0,0,.24,1.005.954.954,0,0,0,.793.3,1.178,1.178,0,0,0,.731-.232Z" fill="#2f2f2f"/>
    </g>
    <g>
      <path d="M117.951,142.233V140.88a2.675,2.675,0,0,0,.558.369,4.536,4.536,0,0,0,.683.277,5.439,5.439,0,0,0,.721.174,4.015,4.015,0,0,0,.67.061,2.615,2.615,0,0,0,1.582-.393,1.474,1.474,0,0,0,.349-1.821,1.982,1.982,0,0,0-.482-.537,4.682,4.682,0,0,0-.729-.465c-.279-.148-.582-.3-.905-.468q-.513-.261-.957-.527a4.1,4.1,0,0,1-.772-.587,2.454,2.454,0,0,1-.516-.728,2.483,2.483,0,0,1,.106-2.12,2.533,2.533,0,0,1,.772-.817,3.512,3.512,0,0,1,1.091-.478,4.973,4.973,0,0,1,1.247-.157,4.787,4.787,0,0,1,2.112.348V134.3a3.828,3.828,0,0,0-2.228-.6,3.693,3.693,0,0,0-.752.078,2.124,2.124,0,0,0-.67.257,1.468,1.468,0,0,0-.479.458,1.214,1.214,0,0,0-.184.683,1.426,1.426,0,0,0,.139.65,1.615,1.615,0,0,0,.414.5,4.2,4.2,0,0,0,.666.437c.263.141.565.3.907.465s.683.356,1,.547a4.534,4.534,0,0,1,.827.636,2.8,2.8,0,0,1,.563.772,2.16,2.16,0,0,1,.209.971,2.463,2.463,0,0,1-.283,1.227,2.34,2.34,0,0,1-.765.817,3.371,3.371,0,0,1-1.112.454,6.043,6.043,0,0,1-1.326.141,5.417,5.417,0,0,1-.574-.038c-.228-.025-.46-.062-.7-.109a5.663,5.663,0,0,1-.674-.178A2.153,2.153,0,0,1,117.951,142.233Z" fill="#2f2f2f"/>
      <path d="M125.241,142.233V140.88a2.675,2.675,0,0,0,.558.369,4.536,4.536,0,0,0,.683.277,5.439,5.439,0,0,0,.721.174,4.015,4.015,0,0,0,.67.061,2.615,2.615,0,0,0,1.582-.393,1.474,1.474,0,0,0,.349-1.821,1.982,1.982,0,0,0-.482-.537,4.682,4.682,0,0,0-.729-.465c-.279-.148-.582-.3-.9-.468q-.513-.261-.957-.527a4.1,4.1,0,0,1-.772-.587,2.454,2.454,0,0,1-.516-.728,2.483,2.483,0,0,1,.106-2.12,2.533,2.533,0,0,1,.772-.817,3.512,3.512,0,0,1,1.091-.478,4.973,4.973,0,0,1,1.247-.157,4.787,4.787,0,0,1,2.112.348V134.3a3.828,3.828,0,0,0-2.228-.6,3.693,3.693,0,0,0-.752.078,2.124,2.124,0,0,0-.67.257,1.478,1.478,0,0,0-.479.458,1.214,1.214,0,0,0-.184.683,1.426,1.426,0,0,0,.139.65,1.615,1.615,0,0,0,.414.5,4.2,4.2,0,0,0,.666.437c.263.141.565.3.907.465s.683.356,1,.547a4.534,4.534,0,0,1,.827.636,2.8,2.8,0,0,1,.563.772,2.16,2.16,0,0,1,.209.971,2.463,2.463,0,0,1-.283,1.227,2.34,2.34,0,0,1-.765.817,3.371,3.371,0,0,1-1.112.454,6.043,6.043,0,0,1-1.326.141,5.417,5.417,0,0,1-.574-.038c-.228-.025-.46-.062-.7-.109a5.663,5.663,0,0,1-.674-.178A2.153,2.153,0,0,1,125.241,142.233Z" fill="#2f2f2f"/>
      <path d="M138.012,142.63h-5.086v-9.8h1.149v8.763h3.937Z" fill="#2f2f2f"/>
    </g>
    <g>
      <path d="M57.078,77.6H54.672l-.7-2.181H50.489L49.8,77.6H47.405l3.569-9.8h2.618Zm-3.609-3.876-1.053-3.295a4.331,4.331,0,0,1-.164-.882H52.2a3.756,3.756,0,0,1-.17.855L50.96,73.728Z" fill="#2f2f2f"/>
      <path d="M63.984,77.6H57.7v-.895L61.215,72.2H58.05V70.6h5.906v1.067l-3.329,4.34h3.357Z" fill="#2f2f2f"/>
      <path d="M71.866,77.6H69.713V76.538h-.034a2.444,2.444,0,0,1-2.14,1.237q-2.433,0-2.433-2.946V70.6h2.153v4.033q0,1.484,1.176,1.484a1.162,1.162,0,0,0,.929-.407,1.637,1.637,0,0,0,.349-1.1V70.6h2.153Z" fill="#2f2f2f"/>
      <path d="M78.2,72.552a1.872,1.872,0,0,0-.909-.212,1.307,1.307,0,0,0-1.1.517,2.246,2.246,0,0,0-.4,1.4V77.6h-2.16v-7h2.16v1.3h.028a1.868,1.868,0,0,1,1.845-1.422,1.385,1.385,0,0,1,.533.082Z" fill="#2f2f2f"/>
      <path d="M85.572,74.719H81.006q.109,1.526,1.921,1.525a3.745,3.745,0,0,0,2.03-.547v1.559a5.337,5.337,0,0,1-2.522.519,3.259,3.259,0,0,1-3.569-3.561,3.743,3.743,0,0,1,1.012-2.762,3.372,3.372,0,0,1,2.488-1.019,3.063,3.063,0,0,1,2.37.909,3.507,3.507,0,0,1,.836,2.468Zm-2-1.326q0-1.5-1.217-1.5a1.16,1.16,0,0,0-.9.431,1.95,1.95,0,0,0-.462,1.073Z" fill="#2f2f2f"/>
    </g>
    <g>
      <path d="M65.318,223.531H64.047l-1.039-2.748H58.851l-.977,2.748H56.6l3.76-9.8h1.19Zm-2.686-3.78-1.539-4.177a4.142,4.142,0,0,1-.15-.656h-.027a3.753,3.753,0,0,1-.157.656l-1.525,4.177Z" fill="#2f2f2f"/>
      <path d="M72.426,223.531H71.3v-1.19h-.027a2.586,2.586,0,0,1-2.406,1.354,2.617,2.617,0,0,1-2.11-.94,3.862,3.862,0,0,1-.789-2.56,4.2,4.2,0,0,1,.875-2.782,2.884,2.884,0,0,1,2.331-1.046,2.243,2.243,0,0,1,2.1,1.135H71.3v-4.334h1.122ZM71.3,220.366v-1.032a2,2,0,0,0-.56-1.436,1.881,1.881,0,0,0-1.422-.588,1.934,1.934,0,0,0-1.613.752,3.3,3.3,0,0,0-.588,2.078,2.958,2.958,0,0,0,.564,1.911,1.842,1.842,0,0,0,1.514.7,1.916,1.916,0,0,0,1.521-.677A2.524,2.524,0,0,0,71.3,220.366Z" fill="#2f2f2f"/>
      <path d="M84.474,223.531H83.353v-4.02a3.022,3.022,0,0,0-.359-1.681,1.36,1.36,0,0,0-1.206-.52,1.493,1.493,0,0,0-1.22.656,2.507,2.507,0,0,0-.5,1.573v3.992H78.944v-4.156q0-2.066-1.593-2.065a1.476,1.476,0,0,0-1.217.619,2.556,2.556,0,0,0-.478,1.61v3.992H74.535v-7h1.121v1.107h.027a2.38,2.38,0,0,1,2.174-1.271,2.024,2.024,0,0,1,1.983,1.449,2.5,2.5,0,0,1,2.324-1.449q2.31,0,2.31,2.85Z" fill="#2f2f2f"/>
      <path d="M87.063,214.754a.709.709,0,0,1-.512-.206.688.688,0,0,1-.212-.519.717.717,0,0,1,.724-.731.728.728,0,0,1,.524.208.734.734,0,0,1,0,1.036A.724.724,0,0,1,87.063,214.754Zm.547,8.777H86.489v-7H87.61Z" fill="#2f2f2f"/>
      <path d="M95.539,223.531H94.418v-3.992q0-2.229-1.627-2.229a1.762,1.762,0,0,0-1.391.633,2.341,2.341,0,0,0-.551,1.6v3.992H89.728v-7h1.121v1.162h.028a2.526,2.526,0,0,1,2.3-1.326,2.139,2.139,0,0,1,1.756.742,3.3,3.3,0,0,1,.609,2.143Z" fill="#2f2f2f"/>
      <path d="M58.527,240.078v-1.2a3.317,3.317,0,0,0,2.017.676q1.476,0,1.476-.984a.856.856,0,0,0-.126-.475,1.273,1.273,0,0,0-.342-.345,2.629,2.629,0,0,0-.505-.27c-.2-.08-.4-.163-.626-.25a8.274,8.274,0,0,1-.818-.372,2.546,2.546,0,0,1-.588-.424,1.592,1.592,0,0,1-.355-.537,1.911,1.911,0,0,1-.119-.7,1.672,1.672,0,0,1,.225-.871,2.006,2.006,0,0,1,.6-.636,2.785,2.785,0,0,1,.858-.386,3.786,3.786,0,0,1,.994-.13,4.022,4.022,0,0,1,1.627.314v1.135a3.161,3.161,0,0,0-1.777-.506,2.069,2.069,0,0,0-.567.072,1.409,1.409,0,0,0-.435.2.935.935,0,0,0-.279.311.811.811,0,0,0-.1.4.946.946,0,0,0,.1.458,1,1,0,0,0,.29.329,2.224,2.224,0,0,0,.465.259q.273.117.622.253a8.7,8.7,0,0,1,.834.366,2.856,2.856,0,0,1,.629.424,1.678,1.678,0,0,1,.4.543,1.76,1.76,0,0,1,.14.732,1.712,1.712,0,0,1-.23.9,1.962,1.962,0,0,1-.611.636,2.812,2.812,0,0,1-.882.376,4.362,4.362,0,0,1-1.046.123A3.97,3.97,0,0,1,58.527,240.078Z" fill="#2f2f2f"/>
      <path d="M70.482,237.111H65.54a2.614,2.614,0,0,0,.629,1.805,2.166,2.166,0,0,0,1.654.635A3.438,3.438,0,0,0,70,238.772v1.053a4.061,4.061,0,0,1-2.441.67,2.959,2.959,0,0,1-2.331-.954,3.9,3.9,0,0,1-.847-2.683A3.833,3.833,0,0,1,65.3,234.2a2.972,2.972,0,0,1,2.3-1.028,2.632,2.632,0,0,1,2.126.888,3.708,3.708,0,0,1,.752,2.468Zm-1.148-.95a2.288,2.288,0,0,0-.468-1.511,1.6,1.6,0,0,0-1.282-.54,1.811,1.811,0,0,0-1.347.567,2.582,2.582,0,0,0-.684,1.484Z" fill="#2f2f2f"/>
      <path d="M75.815,234.465a1.372,1.372,0,0,0-.847-.225,1.428,1.428,0,0,0-1.2.677,3.122,3.122,0,0,0-.482,1.845v3.569H72.165v-7h1.121v1.442h.027a2.445,2.445,0,0,1,.732-1.152,1.665,1.665,0,0,1,1.1-.413,1.828,1.828,0,0,1,.67.095Z" fill="#2f2f2f"/>
      <path d="M83.089,233.331l-2.789,7H79.2l-2.652-7h1.23l1.777,5.086a4.635,4.635,0,0,1,.247.977h.027a4.605,4.605,0,0,1,.219-.95l1.859-5.113Z" fill="#2f2f2f"/>
      <path d="M89.729,237.111H84.787a2.614,2.614,0,0,0,.629,1.805,2.166,2.166,0,0,0,1.654.635,3.438,3.438,0,0,0,2.174-.779v1.053a4.061,4.061,0,0,1-2.441.67,2.959,2.959,0,0,1-2.331-.954,3.9,3.9,0,0,1-.847-2.683,3.829,3.829,0,0,1,.926-2.663,2.969,2.969,0,0,1,2.3-1.028,2.632,2.632,0,0,1,2.126.888,3.708,3.708,0,0,1,.752,2.468Zm-1.148-.95a2.288,2.288,0,0,0-.468-1.511,1.6,1.6,0,0,0-1.282-.54,1.811,1.811,0,0,0-1.347.567,2.575,2.575,0,0,0-.683,1.484Z" fill="#2f2f2f"/>
      <path d="M95.063,234.465a1.372,1.372,0,0,0-.847-.225,1.428,1.428,0,0,0-1.2.677,3.122,3.122,0,0,0-.482,1.845v3.569H91.413v-7h1.121v1.442h.027a2.445,2.445,0,0,1,.732-1.152,1.665,1.665,0,0,1,1.1-.413,1.828,1.828,0,0,1,.67.095Z" fill="#2f2f2f"/>
    </g>
    <g>
      <path d="M77.523,291l-2.768,9.8H73.408l-2.017-7.164a4.5,4.5,0,0,1-.157-1h-.027a5.124,5.124,0,0,1-.178.984L69,300.8H67.666L64.8,291h1.264l2.085,7.52a4.839,4.839,0,0,1,.164.984h.035a5.737,5.737,0,0,1,.211-.984L70.721,291h1.1l2.078,7.574a5.488,5.488,0,0,1,.164.916h.028a5.554,5.554,0,0,1,.184-.943l2-7.547Z" fill="#2f2f2f"/>
      <path d="M84.031,297.584H79.089a2.614,2.614,0,0,0,.629,1.805,2.167,2.167,0,0,0,1.654.636,3.441,3.441,0,0,0,2.174-.78V300.3a4.063,4.063,0,0,1-2.441.67,2.959,2.959,0,0,1-2.331-.954,3.9,3.9,0,0,1-.848-2.683,3.829,3.829,0,0,1,.926-2.662,2.972,2.972,0,0,1,2.3-1.029,2.632,2.632,0,0,1,2.126.888A3.71,3.71,0,0,1,84.031,297Zm-1.148-.95a2.293,2.293,0,0,0-.468-1.511,1.6,1.6,0,0,0-1.282-.54,1.809,1.809,0,0,0-1.347.568,2.576,2.576,0,0,0-.684,1.483Z" fill="#2f2f2f"/>
      <path d="M86.862,299.792h-.027V300.8H85.714V290.441h1.121v4.593h.027a2.652,2.652,0,0,1,2.42-1.394,2.566,2.566,0,0,1,2.109.94,3.88,3.88,0,0,1,.762,2.519,4.343,4.343,0,0,1-.854,2.813,2.846,2.846,0,0,1-2.338,1.056A2.3,2.3,0,0,1,86.862,299.792Zm-.027-2.823v.977a2.08,2.08,0,0,0,.564,1.474,2.01,2.01,0,0,0,3.027-.175,3.566,3.566,0,0,0,.579-2.167,2.823,2.823,0,0,0-.54-1.832A1.789,1.789,0,0,0,89,294.583a1.989,1.989,0,0,0-1.573.68A2.5,2.5,0,0,0,86.835,296.969Z" fill="#2f2f2f"/>
      <path d="M99.114,300.8H94.028V291h1.148v8.764h3.938Z" fill="#2f2f2f"/>
      <path d="M103.3,300.968a3.249,3.249,0,0,1-2.479-.981,3.636,3.636,0,0,1-.926-2.6,3.788,3.788,0,0,1,.964-2.755,3.466,3.466,0,0,1,2.605-.991,3.135,3.135,0,0,1,2.443.964,3.818,3.818,0,0,1,.879,2.673,3.764,3.764,0,0,1-.947,2.683A3.318,3.318,0,0,1,103.3,300.968Zm.082-6.385a2.132,2.132,0,0,0-1.709.735,3.021,3.021,0,0,0-.629,2.027,2.86,2.86,0,0,0,.635,1.962,2.164,2.164,0,0,0,1.7.718,2.049,2.049,0,0,0,1.671-.7,3.057,3.057,0,0,0,.584-2,3.113,3.113,0,0,0-.584-2.024A2.041,2.041,0,0,0,103.382,294.583Z" fill="#2f2f2f"/>
      <path d="M114.541,300.243q0,3.857-3.692,3.856a4.955,4.955,0,0,1-2.269-.492v-1.121a4.664,4.664,0,0,0,2.256.656q2.583,0,2.584-2.748v-.766h-.028a2.832,2.832,0,0,1-4.508.407,3.73,3.73,0,0,1-.8-2.506,4.36,4.36,0,0,1,.857-2.836,2.868,2.868,0,0,1,2.349-1.053,2.281,2.281,0,0,1,2.1,1.135h.028V293.8h1.121Zm-1.121-2.6v-1.032a2,2,0,0,0-.565-1.429,1.853,1.853,0,0,0-1.4-.595,1.947,1.947,0,0,0-1.627.756,3.37,3.37,0,0,0-.588,2.115,2.888,2.888,0,0,0,.565,1.87,1.82,1.82,0,0,0,1.493.7,1.952,1.952,0,0,0,1.534-.67A2.5,2.5,0,0,0,113.42,297.639Z" fill="#2f2f2f"/>
      <path d="M117.23,292.027a.709.709,0,0,1-.512-.206.688.688,0,0,1-.212-.519.719.719,0,0,1,.724-.732.729.729,0,0,1,.524.209.734.734,0,0,1,0,1.036A.724.724,0,0,1,117.23,292.027Zm.547,8.777h-1.121v-7h1.121Z" fill="#2f2f2f"/>
      <path d="M124.689,300.483a3.649,3.649,0,0,1-1.914.485,3.168,3.168,0,0,1-2.416-.974,3.531,3.531,0,0,1-.92-2.526,3.881,3.881,0,0,1,.991-2.779,3.468,3.468,0,0,1,2.646-1.049,3.683,3.683,0,0,1,1.627.342v1.148a2.848,2.848,0,0,0-1.668-.547,2.254,2.254,0,0,0-1.76.769,2.914,2.914,0,0,0-.687,2.02,2.773,2.773,0,0,0,.646,1.942,2.225,2.225,0,0,0,1.733.711,2.808,2.808,0,0,0,1.722-.609Z" fill="#2f2f2f"/>
    </g>
    <g>
      <path d="M122.84,232.627l-3.63,9.8h-1.265l-3.555-9.8h1.279l2.714,7.772a4.685,4.685,0,0,1,.2.868h.027a4.183,4.183,0,0,1,.226-.882l2.768-7.758Z" fill="#2f2f2f"/>
      <path d="M134.167,242.429h-1.142v-6.576q0-.779.1-1.907h-.028a6.164,6.164,0,0,1-.293.95l-3.35,7.533h-.561l-3.342-7.478a5.821,5.821,0,0,1-.294-1h-.028q.054.588.055,1.921v6.562h-1.107v-9.8h1.517l3.008,6.836a8.738,8.738,0,0,1,.451,1.175h.041q.294-.807.472-1.2l3.069-6.808h1.436Z" fill="#2f2f2f"/>
    </g>
    <g>
      <path d="M234.866,223.531h-1.142v-6.576q0-.78.1-1.907h-.027a6.176,6.176,0,0,1-.294.95l-3.35,7.533h-.56l-3.343-7.479a5.777,5.777,0,0,1-.294-1h-.027q.054.588.054,1.92v6.563h-1.107v-9.8h1.517l3.008,6.836a8.6,8.6,0,0,1,.451,1.176h.041q.3-.807.472-1.2l3.069-6.809h1.436Z" fill="#2f2f2f"/>
      <path d="M242.18,223.531h-1.121v-1.094h-.027a2.345,2.345,0,0,1-2.153,1.258,2.3,2.3,0,0,1-1.637-.554,1.915,1.915,0,0,1-.592-1.469q0-1.963,2.311-2.284l2.1-.294q0-1.784-1.442-1.784a3.44,3.44,0,0,0-2.283.862v-1.149a4.342,4.342,0,0,1,2.379-.656q2.468,0,2.467,2.611Zm-1.121-3.541-1.688.232a2.738,2.738,0,0,0-1.176.387,1.111,1.111,0,0,0-.4.981,1.07,1.07,0,0,0,.365.837,1.417,1.417,0,0,0,.974.325,1.8,1.8,0,0,0,1.377-.585,2.082,2.082,0,0,0,.544-1.48Z" fill="#2f2f2f"/>
      <path d="M250.012,223.531h-1.121v-3.992q0-2.229-1.627-2.229a1.761,1.761,0,0,0-1.39.633,2.341,2.341,0,0,0-.551,1.6v3.992H244.2v-7h1.121v1.162h.027a2.527,2.527,0,0,1,2.3-1.326,2.139,2.139,0,0,1,1.757.742,3.307,3.307,0,0,1,.608,2.143Z" fill="#2f2f2f"/>
      <path d="M257.044,223.531h-1.121v-1.094H255.9a2.345,2.345,0,0,1-2.153,1.258,2.3,2.3,0,0,1-1.637-.554,1.919,1.919,0,0,1-.592-1.469q0-1.963,2.311-2.284l2.1-.294q0-1.784-1.443-1.784a3.442,3.442,0,0,0-2.283.862v-1.149a4.342,4.342,0,0,1,2.379-.656q2.468,0,2.468,2.611Zm-1.121-3.541-1.689.232a2.743,2.743,0,0,0-1.176.387,1.113,1.113,0,0,0-.4.981,1.07,1.07,0,0,0,.365.837,1.418,1.418,0,0,0,.975.325,1.8,1.8,0,0,0,1.377-.585,2.086,2.086,0,0,0,.544-1.48Z" fill="#2f2f2f"/>
      <path d="M265.113,222.97q0,3.857-3.691,3.856a4.959,4.959,0,0,1-2.27-.492v-1.121a4.664,4.664,0,0,0,2.256.656q2.584,0,2.584-2.748v-.766h-.027a2.832,2.832,0,0,1-4.508.407,3.729,3.729,0,0,1-.8-2.5,4.361,4.361,0,0,1,.857-2.837,2.869,2.869,0,0,1,2.349-1.053,2.282,2.282,0,0,1,2.1,1.135h.027v-.971h1.121Zm-1.121-2.6v-1.032a2,2,0,0,0-.565-1.429,1.851,1.851,0,0,0-1.4-.595,1.947,1.947,0,0,0-1.627.756,3.376,3.376,0,0,0-.588,2.115,2.888,2.888,0,0,0,.565,1.87,1.82,1.82,0,0,0,1.493.7,1.95,1.95,0,0,0,1.534-.67A2.5,2.5,0,0,0,263.992,220.366Z" fill="#2f2f2f"/>
      <path d="M272.934,220.311h-4.942a2.614,2.614,0,0,0,.629,1.805,2.167,2.167,0,0,0,1.654.636,3.439,3.439,0,0,0,2.174-.78v1.053a4.06,4.06,0,0,1-2.44.67,2.96,2.96,0,0,1-2.332-.954,3.9,3.9,0,0,1-.847-2.683,3.824,3.824,0,0,1,.926-2.662,2.97,2.97,0,0,1,2.3-1.029,2.63,2.63,0,0,1,2.126.889,3.705,3.705,0,0,1,.752,2.467Zm-1.148-.95a2.288,2.288,0,0,0-.468-1.511,1.6,1.6,0,0,0-1.282-.54,1.81,1.81,0,0,0-1.347.568,2.575,2.575,0,0,0-.683,1.483Z" fill="#2f2f2f"/>
      <path d="M280.666,223.531h-1.121v-1.19h-.028a2.586,2.586,0,0,1-2.406,1.354,2.614,2.614,0,0,1-2.109-.94,3.857,3.857,0,0,1-.789-2.56,4.2,4.2,0,0,1,.875-2.782,2.883,2.883,0,0,1,2.331-1.046,2.241,2.241,0,0,1,2.1,1.135h.028v-4.334h1.121Zm-1.121-3.165v-1.032a2,2,0,0,0-.561-1.436,1.881,1.881,0,0,0-1.422-.588,1.937,1.937,0,0,0-1.613.752,3.3,3.3,0,0,0-.588,2.078,2.958,2.958,0,0,0,.565,1.911,1.84,1.84,0,0,0,1.513.7,1.92,1.92,0,0,0,1.522-.677A2.529,2.529,0,0,0,279.545,220.366Z" fill="#2f2f2f"/>
      <path d="M234.74,240.078v-1.2a3.317,3.317,0,0,0,2.017.676q1.476,0,1.476-.984a.856.856,0,0,0-.126-.475,1.273,1.273,0,0,0-.342-.345,2.609,2.609,0,0,0-.506-.27q-.291-.12-.625-.25a8.17,8.17,0,0,1-.818-.372,2.525,2.525,0,0,1-.588-.424,1.592,1.592,0,0,1-.355-.537,1.911,1.911,0,0,1-.119-.7,1.672,1.672,0,0,1,.225-.871,2.006,2.006,0,0,1,.6-.636,2.785,2.785,0,0,1,.858-.386,3.781,3.781,0,0,1,.994-.13,4.022,4.022,0,0,1,1.627.314v1.135a3.161,3.161,0,0,0-1.777-.506,2.064,2.064,0,0,0-.567.072,1.409,1.409,0,0,0-.435.2.935.935,0,0,0-.279.311.811.811,0,0,0-.1.4.946.946,0,0,0,.1.458,1,1,0,0,0,.29.329,2.224,2.224,0,0,0,.465.259q.273.117.622.253a8.7,8.7,0,0,1,.834.366,2.856,2.856,0,0,1,.629.424,1.678,1.678,0,0,1,.4.543,1.76,1.76,0,0,1,.14.732,1.721,1.721,0,0,1-.23.9,1.962,1.962,0,0,1-.611.636,2.812,2.812,0,0,1-.882.376,4.362,4.362,0,0,1-1.046.123A3.97,3.97,0,0,1,234.74,240.078Z" fill="#2f2f2f"/>
      <path d="M246.7,237.111h-4.942a2.614,2.614,0,0,0,.629,1.805,2.166,2.166,0,0,0,1.654.635,3.438,3.438,0,0,0,2.174-.779v1.053a4.063,4.063,0,0,1-2.441.67,2.959,2.959,0,0,1-2.331-.954,3.9,3.9,0,0,1-.847-2.683,3.833,3.833,0,0,1,.925-2.663,2.971,2.971,0,0,1,2.3-1.028,2.632,2.632,0,0,1,2.126.888,3.708,3.708,0,0,1,.752,2.468Zm-1.148-.95a2.293,2.293,0,0,0-.468-1.511,1.6,1.6,0,0,0-1.282-.54,1.811,1.811,0,0,0-1.347.567,2.582,2.582,0,0,0-.684,1.484Z" fill="#2f2f2f"/>
      <path d="M252.028,234.465a1.373,1.373,0,0,0-.848-.225,1.427,1.427,0,0,0-1.2.677,3.122,3.122,0,0,0-.482,1.845v3.569h-1.121v-7H249.5v1.442h.027a2.437,2.437,0,0,1,.732-1.152,1.665,1.665,0,0,1,1.1-.413,1.828,1.828,0,0,1,.67.095Z" fill="#2f2f2f"/>
      <path d="M259.3,233.331l-2.789,7h-1.1l-2.653-7h1.231l1.777,5.086a4.566,4.566,0,0,1,.246.977h.028a4.673,4.673,0,0,1,.218-.95l1.86-5.113Z" fill="#2f2f2f"/>
      <path d="M265.942,237.111H261a2.614,2.614,0,0,0,.629,1.805,2.166,2.166,0,0,0,1.654.635,3.438,3.438,0,0,0,2.174-.779v1.053a4.061,4.061,0,0,1-2.441.67,2.959,2.959,0,0,1-2.331-.954,3.9,3.9,0,0,1-.847-2.683,3.833,3.833,0,0,1,.925-2.663,2.972,2.972,0,0,1,2.3-1.028,2.632,2.632,0,0,1,2.126.888,3.708,3.708,0,0,1,.752,2.468Zm-1.148-.95a2.288,2.288,0,0,0-.468-1.511,1.6,1.6,0,0,0-1.282-.54,1.811,1.811,0,0,0-1.347.567,2.582,2.582,0,0,0-.684,1.484Z" fill="#2f2f2f"/>
      <path d="M271.276,234.465a1.373,1.373,0,0,0-.848-.225,1.428,1.428,0,0,0-1.2.677,3.122,3.122,0,0,0-.482,1.845v3.569h-1.121v-7h1.121v1.442h.027a2.437,2.437,0,0,1,.732-1.152,1.665,1.665,0,0,1,1.1-.413,1.828,1.828,0,0,1,.67.095Z" fill="#2f2f2f"/>
    </g>
    <g>
      <path d="M253.523,291l-2.768,9.8h-1.347l-2.017-7.164a4.5,4.5,0,0,1-.157-1h-.027a5.124,5.124,0,0,1-.178.984L245,300.8h-1.333L240.8,291h1.264l2.085,7.52a4.839,4.839,0,0,1,.164.984h.035a5.737,5.737,0,0,1,.211-.984l2.167-7.52h1.1l2.078,7.574a5.488,5.488,0,0,1,.164.916h.028a5.554,5.554,0,0,1,.184-.943l2-7.547Z" fill="#2f2f2f"/>
      <path d="M260.031,297.584h-4.942a2.614,2.614,0,0,0,.629,1.805,2.167,2.167,0,0,0,1.654.636,3.441,3.441,0,0,0,2.174-.78V300.3a4.063,4.063,0,0,1-2.441.67,2.959,2.959,0,0,1-2.331-.954,3.9,3.9,0,0,1-.848-2.683,3.829,3.829,0,0,1,.926-2.662,2.972,2.972,0,0,1,2.3-1.029,2.632,2.632,0,0,1,2.126.888,3.71,3.71,0,0,1,.752,2.468Zm-1.148-.95a2.293,2.293,0,0,0-.468-1.511,1.6,1.6,0,0,0-1.282-.54,1.809,1.809,0,0,0-1.347.568,2.576,2.576,0,0,0-.684,1.483Z" fill="#2f2f2f"/>
      <path d="M262.862,299.792h-.027V300.8h-1.121V290.441h1.121v4.593h.027a2.652,2.652,0,0,1,2.42-1.394,2.566,2.566,0,0,1,2.109.94,3.88,3.88,0,0,1,.762,2.519,4.343,4.343,0,0,1-.854,2.813,2.846,2.846,0,0,1-2.338,1.056A2.3,2.3,0,0,1,262.862,299.792Zm-.027-2.823v.977a2.08,2.08,0,0,0,.564,1.474,2.01,2.01,0,0,0,3.027-.175,3.566,3.566,0,0,0,.579-2.167,2.823,2.823,0,0,0-.54-1.832,1.789,1.789,0,0,0-1.463-.663,1.989,1.989,0,0,0-1.573.68A2.5,2.5,0,0,0,262.835,296.969Z" fill="#2f2f2f"/>
      <path d="M275.114,300.8h-5.086V291h1.148v8.764h3.938Z" fill="#2f2f2f"/>
      <path d="M279.3,300.968a3.249,3.249,0,0,1-2.479-.981,3.636,3.636,0,0,1-.926-2.6,3.788,3.788,0,0,1,.964-2.755,3.466,3.466,0,0,1,2.605-.991,3.135,3.135,0,0,1,2.443.964,3.818,3.818,0,0,1,.879,2.673,3.764,3.764,0,0,1-.947,2.683A3.318,3.318,0,0,1,279.3,300.968Zm.082-6.385a2.132,2.132,0,0,0-1.709.735,3.021,3.021,0,0,0-.629,2.027,2.86,2.86,0,0,0,.635,1.962,2.164,2.164,0,0,0,1.7.718,2.049,2.049,0,0,0,1.671-.7,3.057,3.057,0,0,0,.584-2,3.113,3.113,0,0,0-.584-2.024A2.041,2.041,0,0,0,279.382,294.583Z" fill="#2f2f2f"/>
      <path d="M290.541,300.243q0,3.857-3.692,3.856a4.955,4.955,0,0,1-2.269-.492v-1.121a4.664,4.664,0,0,0,2.256.656q2.583,0,2.584-2.748v-.766h-.028a2.832,2.832,0,0,1-4.508.407,3.73,3.73,0,0,1-.8-2.506,4.36,4.36,0,0,1,.857-2.836,2.868,2.868,0,0,1,2.349-1.053,2.281,2.281,0,0,1,2.1,1.135h.028V293.8h1.121Zm-1.121-2.6v-1.032a2,2,0,0,0-.565-1.429,1.853,1.853,0,0,0-1.4-.595,1.947,1.947,0,0,0-1.627.756,3.37,3.37,0,0,0-.588,2.115,2.888,2.888,0,0,0,.565,1.87,1.82,1.82,0,0,0,1.493.7,1.952,1.952,0,0,0,1.534-.67A2.5,2.5,0,0,0,289.42,297.639Z" fill="#2f2f2f"/>
      <path d="M293.23,292.027a.709.709,0,0,1-.512-.206.688.688,0,0,1-.212-.519.719.719,0,0,1,.724-.732.729.729,0,0,1,.524.209.734.734,0,0,1,0,1.036A.724.724,0,0,1,293.23,292.027Zm.547,8.777h-1.121v-7h1.121Z" fill="#2f2f2f"/>
      <path d="M300.689,300.483a3.649,3.649,0,0,1-1.914.485,3.168,3.168,0,0,1-2.416-.974,3.531,3.531,0,0,1-.92-2.526,3.881,3.881,0,0,1,.991-2.779,3.468,3.468,0,0,1,2.646-1.049,3.683,3.683,0,0,1,1.627.342v1.148a2.848,2.848,0,0,0-1.668-.547,2.254,2.254,0,0,0-1.76.769,2.914,2.914,0,0,0-.687,2.02,2.773,2.773,0,0,0,.646,1.942,2.225,2.225,0,0,0,1.733.711,2.808,2.808,0,0,0,1.722-.609Z" fill="#2f2f2f"/>
    </g>
    <g>
      <path d="M303.24,232.627l-3.631,9.8h-1.264l-3.554-9.8h1.277l2.715,7.772a4.609,4.609,0,0,1,.2.868h.028a4.244,4.244,0,0,1,.226-.882L302,232.627Z" fill="#2f2f2f"/>
      <path d="M314.566,242.429h-1.14v-6.576q0-.779.1-1.907h-.027a6.007,6.007,0,0,1-.3.95l-3.35,7.533h-.56l-3.342-7.478a5.991,5.991,0,0,1-.3-1h-.027q.055.588.054,1.921v6.562h-1.107v-9.8h1.518l3.007,6.836a8.777,8.777,0,0,1,.452,1.175h.041c.2-.538.353-.939.472-1.2l3.069-6.808h1.435Z" fill="#2f2f2f"/>
    </g>
    <g>
      <path d="M366.866,223.531h-1.142v-6.576q0-.78.1-1.907h-.027a6.176,6.176,0,0,1-.294.95l-3.35,7.533h-.56l-3.343-7.479a5.777,5.777,0,0,1-.294-1h-.027q.054.588.054,1.92v6.563h-1.107v-9.8h1.517l3.008,6.836a8.6,8.6,0,0,1,.451,1.176h.041q.3-.807.472-1.2l3.069-6.809h1.436Z" fill="#2f2f2f"/>
      <path d="M374.18,223.531h-1.121v-1.094h-.027a2.345,2.345,0,0,1-2.153,1.258,2.3,2.3,0,0,1-1.637-.554,1.915,1.915,0,0,1-.592-1.469q0-1.963,2.311-2.284l2.1-.294q0-1.784-1.442-1.784a3.44,3.44,0,0,0-2.283.862v-1.149a4.342,4.342,0,0,1,2.379-.656q2.467,0,2.467,2.611Zm-1.121-3.541-1.688.232a2.738,2.738,0,0,0-1.176.387,1.111,1.111,0,0,0-.4.981,1.07,1.07,0,0,0,.365.837,1.417,1.417,0,0,0,.974.325,1.8,1.8,0,0,0,1.377-.585,2.082,2.082,0,0,0,.544-1.48Z" fill="#2f2f2f"/>
      <path d="M382.012,223.531h-1.121v-3.992q0-2.229-1.627-2.229a1.761,1.761,0,0,0-1.39.633,2.341,2.341,0,0,0-.551,1.6v3.992H376.2v-7h1.121v1.162h.027a2.527,2.527,0,0,1,2.3-1.326,2.139,2.139,0,0,1,1.757.742,3.307,3.307,0,0,1,.608,2.143Z" fill="#2f2f2f"/>
      <path d="M389.044,223.531h-1.121v-1.094H387.9a2.345,2.345,0,0,1-2.153,1.258,2.3,2.3,0,0,1-1.637-.554,1.919,1.919,0,0,1-.592-1.469q0-1.963,2.311-2.284l2.1-.294q0-1.784-1.443-1.784a3.442,3.442,0,0,0-2.283.862v-1.149a4.342,4.342,0,0,1,2.379-.656q2.467,0,2.468,2.611Zm-1.121-3.541-1.689.232a2.743,2.743,0,0,0-1.176.387,1.113,1.113,0,0,0-.4.981,1.07,1.07,0,0,0,.365.837,1.418,1.418,0,0,0,.975.325,1.8,1.8,0,0,0,1.377-.585,2.086,2.086,0,0,0,.544-1.48Z" fill="#2f2f2f"/>
      <path d="M397.113,222.97q0,3.857-3.691,3.856a4.959,4.959,0,0,1-2.27-.492v-1.121a4.664,4.664,0,0,0,2.256.656q2.584,0,2.584-2.748v-.766h-.027a2.832,2.832,0,0,1-4.508.407,3.729,3.729,0,0,1-.8-2.5,4.361,4.361,0,0,1,.857-2.837,2.869,2.869,0,0,1,2.349-1.053,2.282,2.282,0,0,1,2.1,1.135h.027v-.971h1.121Zm-1.121-2.6v-1.032a2,2,0,0,0-.565-1.429,1.851,1.851,0,0,0-1.4-.595,1.947,1.947,0,0,0-1.627.756,3.376,3.376,0,0,0-.588,2.115,2.888,2.888,0,0,0,.565,1.87,1.82,1.82,0,0,0,1.493.7,1.95,1.95,0,0,0,1.534-.67A2.5,2.5,0,0,0,395.992,220.366Z" fill="#2f2f2f"/>
      <path d="M404.934,220.311h-4.942a2.614,2.614,0,0,0,.629,1.805,2.167,2.167,0,0,0,1.654.636,3.439,3.439,0,0,0,2.174-.78v1.053a4.06,4.06,0,0,1-2.44.67,2.96,2.96,0,0,1-2.332-.954,3.9,3.9,0,0,1-.847-2.683,3.824,3.824,0,0,1,.926-2.662,2.97,2.97,0,0,1,2.3-1.029,2.63,2.63,0,0,1,2.126.889,3.705,3.705,0,0,1,.752,2.467Zm-1.148-.95a2.288,2.288,0,0,0-.468-1.511,1.6,1.6,0,0,0-1.282-.54,1.81,1.81,0,0,0-1.347.568,2.575,2.575,0,0,0-.683,1.483Z" fill="#2f2f2f"/>
      <path d="M412.666,223.531h-1.121v-1.19h-.028a2.586,2.586,0,0,1-2.406,1.354,2.614,2.614,0,0,1-2.109-.94,3.857,3.857,0,0,1-.789-2.56,4.2,4.2,0,0,1,.875-2.782,2.883,2.883,0,0,1,2.331-1.046,2.241,2.241,0,0,1,2.1,1.135h.028v-4.334h1.121Zm-1.121-3.165v-1.032a2,2,0,0,0-.561-1.436,1.881,1.881,0,0,0-1.422-.588,1.937,1.937,0,0,0-1.613.752,3.3,3.3,0,0,0-.588,2.078,2.958,2.958,0,0,0,.565,1.911,1.84,1.84,0,0,0,1.513.7,1.92,1.92,0,0,0,1.522-.677A2.529,2.529,0,0,0,411.545,220.366Z" fill="#2f2f2f"/>
      <path d="M366.74,240.078v-1.2a3.317,3.317,0,0,0,2.017.676q1.476,0,1.476-.984a.856.856,0,0,0-.126-.475,1.273,1.273,0,0,0-.342-.345,2.609,2.609,0,0,0-.506-.27q-.291-.12-.625-.25a8.17,8.17,0,0,1-.818-.372,2.525,2.525,0,0,1-.588-.424,1.592,1.592,0,0,1-.355-.537,1.911,1.911,0,0,1-.119-.7,1.672,1.672,0,0,1,.225-.871,2.006,2.006,0,0,1,.6-.636,2.785,2.785,0,0,1,.858-.386,3.781,3.781,0,0,1,.994-.13,4.022,4.022,0,0,1,1.627.314v1.135a3.161,3.161,0,0,0-1.777-.506,2.064,2.064,0,0,0-.567.072,1.409,1.409,0,0,0-.435.2.935.935,0,0,0-.279.311.811.811,0,0,0-.1.4.946.946,0,0,0,.1.458,1,1,0,0,0,.29.329,2.224,2.224,0,0,0,.465.259q.273.117.622.253a8.7,8.7,0,0,1,.834.366,2.856,2.856,0,0,1,.629.424,1.678,1.678,0,0,1,.4.543,1.76,1.76,0,0,1,.14.732,1.721,1.721,0,0,1-.23.9,1.962,1.962,0,0,1-.611.636,2.812,2.812,0,0,1-.882.376,4.362,4.362,0,0,1-1.046.123A3.97,3.97,0,0,1,366.74,240.078Z" fill="#2f2f2f"/>
      <path d="M378.7,237.111h-4.942a2.614,2.614,0,0,0,.629,1.805,2.166,2.166,0,0,0,1.654.635,3.438,3.438,0,0,0,2.174-.779v1.053a4.063,4.063,0,0,1-2.441.67,2.959,2.959,0,0,1-2.331-.954,3.9,3.9,0,0,1-.847-2.683,3.833,3.833,0,0,1,.925-2.663,2.971,2.971,0,0,1,2.3-1.028,2.632,2.632,0,0,1,2.126.888,3.708,3.708,0,0,1,.752,2.468Zm-1.148-.95a2.293,2.293,0,0,0-.468-1.511,1.6,1.6,0,0,0-1.282-.54,1.811,1.811,0,0,0-1.347.567,2.582,2.582,0,0,0-.684,1.484Z" fill="#2f2f2f"/>
      <path d="M384.028,234.465a1.373,1.373,0,0,0-.848-.225,1.427,1.427,0,0,0-1.2.677,3.122,3.122,0,0,0-.482,1.845v3.569h-1.121v-7H381.5v1.442h.027a2.437,2.437,0,0,1,.732-1.152,1.665,1.665,0,0,1,1.1-.413,1.828,1.828,0,0,1,.67.095Z" fill="#2f2f2f"/>
      <path d="M391.3,233.331l-2.789,7h-1.1l-2.653-7h1.231l1.777,5.086a4.566,4.566,0,0,1,.246.977h.028a4.673,4.673,0,0,1,.218-.95l1.86-5.113Z" fill="#2f2f2f"/>
      <path d="M397.942,237.111H393a2.614,2.614,0,0,0,.629,1.805,2.166,2.166,0,0,0,1.654.635,3.438,3.438,0,0,0,2.174-.779v1.053a4.061,4.061,0,0,1-2.441.67,2.959,2.959,0,0,1-2.331-.954,3.9,3.9,0,0,1-.847-2.683,3.833,3.833,0,0,1,.925-2.663,2.972,2.972,0,0,1,2.3-1.028,2.632,2.632,0,0,1,2.126.888,3.708,3.708,0,0,1,.752,2.468Zm-1.148-.95a2.288,2.288,0,0,0-.468-1.511,1.6,1.6,0,0,0-1.282-.54,1.811,1.811,0,0,0-1.347.567,2.582,2.582,0,0,0-.684,1.484Z" fill="#2f2f2f"/>
      <path d="M403.276,234.465a1.373,1.373,0,0,0-.848-.225,1.428,1.428,0,0,0-1.2.677,3.122,3.122,0,0,0-.482,1.845v3.569h-1.121v-7h1.121v1.442h.027a2.437,2.437,0,0,1,.732-1.152,1.665,1.665,0,0,1,1.1-.413,1.828,1.828,0,0,1,.67.095Z" fill="#2f2f2f"/>
    </g>
    <g>
      <path d="M385.523,291l-2.768,9.8h-1.347l-2.017-7.164a4.5,4.5,0,0,1-.157-1h-.027a5.124,5.124,0,0,1-.178.984L377,300.8h-1.333L372.8,291h1.264l2.085,7.52a4.839,4.839,0,0,1,.164.984h.035a5.737,5.737,0,0,1,.211-.984l2.167-7.52h1.1l2.078,7.574a5.488,5.488,0,0,1,.164.916h.028a5.554,5.554,0,0,1,.184-.943l2-7.547Z" fill="#2f2f2f"/>
      <path d="M392.031,297.584h-4.942a2.614,2.614,0,0,0,.629,1.805,2.167,2.167,0,0,0,1.654.636,3.441,3.441,0,0,0,2.174-.78V300.3a4.063,4.063,0,0,1-2.441.67,2.959,2.959,0,0,1-2.331-.954,3.9,3.9,0,0,1-.848-2.683,3.829,3.829,0,0,1,.926-2.662,2.972,2.972,0,0,1,2.3-1.029,2.632,2.632,0,0,1,2.126.888,3.71,3.71,0,0,1,.752,2.468Zm-1.148-.95a2.293,2.293,0,0,0-.468-1.511,1.6,1.6,0,0,0-1.282-.54,1.809,1.809,0,0,0-1.347.568,2.576,2.576,0,0,0-.684,1.483Z" fill="#2f2f2f"/>
      <path d="M394.862,299.792h-.027V300.8h-1.121V290.441h1.121v4.593h.027a2.652,2.652,0,0,1,2.42-1.394,2.566,2.566,0,0,1,2.109.94,3.88,3.88,0,0,1,.762,2.519,4.343,4.343,0,0,1-.854,2.813,2.846,2.846,0,0,1-2.338,1.056A2.3,2.3,0,0,1,394.862,299.792Zm-.027-2.823v.977a2.08,2.08,0,0,0,.564,1.474,2.01,2.01,0,0,0,3.027-.175,3.566,3.566,0,0,0,.579-2.167,2.823,2.823,0,0,0-.54-1.832,1.789,1.789,0,0,0-1.463-.663,1.989,1.989,0,0,0-1.573.68A2.5,2.5,0,0,0,394.835,296.969Z" fill="#2f2f2f"/>
      <path d="M407.114,300.8h-5.086V291h1.148v8.764h3.938Z" fill="#2f2f2f"/>
      <path d="M411.3,300.968a3.249,3.249,0,0,1-2.479-.981,3.636,3.636,0,0,1-.926-2.6,3.788,3.788,0,0,1,.964-2.755,3.466,3.466,0,0,1,2.605-.991,3.135,3.135,0,0,1,2.443.964,3.818,3.818,0,0,1,.879,2.673,3.764,3.764,0,0,1-.947,2.683A3.318,3.318,0,0,1,411.3,300.968Zm.082-6.385a2.132,2.132,0,0,0-1.709.735,3.021,3.021,0,0,0-.629,2.027,2.86,2.86,0,0,0,.635,1.962,2.164,2.164,0,0,0,1.7.718,2.049,2.049,0,0,0,1.671-.7,3.057,3.057,0,0,0,.584-2,3.113,3.113,0,0,0-.584-2.024A2.041,2.041,0,0,0,411.382,294.583Z" fill="#2f2f2f"/>
      <path d="M422.541,300.243q0,3.857-3.692,3.856a4.955,4.955,0,0,1-2.269-.492v-1.121a4.664,4.664,0,0,0,2.256.656q2.583,0,2.584-2.748v-.766h-.028a2.832,2.832,0,0,1-4.508.407,3.73,3.73,0,0,1-.8-2.506,4.36,4.36,0,0,1,.857-2.836,2.868,2.868,0,0,1,2.349-1.053,2.281,2.281,0,0,1,2.1,1.135h.028V293.8h1.121Zm-1.121-2.6v-1.032a2,2,0,0,0-.565-1.429,1.853,1.853,0,0,0-1.4-.595,1.947,1.947,0,0,0-1.627.756,3.37,3.37,0,0,0-.588,2.115,2.888,2.888,0,0,0,.565,1.87,1.82,1.82,0,0,0,1.493.7,1.952,1.952,0,0,0,1.534-.67A2.5,2.5,0,0,0,421.42,297.639Z" fill="#2f2f2f"/>
      <path d="M425.23,292.027a.709.709,0,0,1-.512-.206.688.688,0,0,1-.212-.519.719.719,0,0,1,.724-.732.729.729,0,0,1,.524.209.734.734,0,0,1,0,1.036A.724.724,0,0,1,425.23,292.027Zm.547,8.777h-1.121v-7h1.121Z" fill="#2f2f2f"/>
      <path d="M432.689,300.483a3.649,3.649,0,0,1-1.914.485,3.168,3.168,0,0,1-2.416-.974,3.531,3.531,0,0,1-.92-2.526,3.881,3.881,0,0,1,.991-2.779,3.468,3.468,0,0,1,2.646-1.049,3.683,3.683,0,0,1,1.627.342v1.148a2.848,2.848,0,0,0-1.668-.547,2.254,2.254,0,0,0-1.76.769,2.914,2.914,0,0,0-.687,2.02,2.773,2.773,0,0,0,.646,1.942,2.225,2.225,0,0,0,1.733.711,2.808,2.808,0,0,0,1.722-.609Z" fill="#2f2f2f"/>
    </g>
    <g>
      <path d="M435.24,232.627l-3.63,9.8h-1.265l-3.554-9.8h1.278l2.714,7.772a4.606,4.606,0,0,1,.2.868h.028a4.238,4.238,0,0,1,.225-.882L434,232.627Z" fill="#2f2f2f"/>
      <path d="M446.567,242.429h-1.141v-6.576q0-.779.1-1.907h-.027a6.14,6.14,0,0,1-.294.95l-3.35,7.533h-.56l-3.343-7.478a5.913,5.913,0,0,1-.294-1h-.027q.054.588.054,1.921v6.562h-1.107v-9.8h1.518l3.007,6.836a8.777,8.777,0,0,1,.452,1.175h.041q.294-.807.471-1.2l3.07-6.808h1.435Z" fill="#2f2f2f"/>
    </g>
  </g>
</svg>
