<?xml version="1.0" encoding="UTF-8" standalone="no"?>
<svg
   viewBox="0 0 497.667 345.957"
   version="1.1"
   id="svg213"
   sodipodi:docname="weblogic-app-gateway-key-vault.svg"
   inkscape:version="1.4.2 (ebf0e940, 2025-05-08)"
   xmlns:inkscape="http://www.inkscape.org/namespaces/inkscape"
   xmlns:sodipodi="http://sodipodi.sourceforge.net/DTD/sodipodi-0.dtd"
   xmlns:xlink="http://www.w3.org/1999/xlink"
   xmlns="http://www.w3.org/2000/svg"
   xmlns:svg="http://www.w3.org/2000/svg">
  <sodipodi:namedview
     id="namedview213"
     pagecolor="#ffffff"
     bordercolor="#000000"
     borderopacity="0.25"
     inkscape:showpageshadow="2"
     inkscape:pageopacity="0.0"
     inkscape:pagecheckerboard="0"
     inkscape:deskcolor="#d1d1d1"
     inkscape:zoom="1"
     inkscape:cx="246.5"
     inkscape:cy="173"
     inkscape:window-width="1504"
     inkscape:window-height="803"
     inkscape:window-x="0"
     inkscape:window-y="25"
     inkscape:window-maximized="0"
     inkscape:current-layer="svg213" />
  <defs
     id="defs42">
    <linearGradient
       id="Blue_Gradient_2"
       data-name="Blue Gradient 2"
       x1="248.834"
       y1="339.179"
       x2="248.834"
       y2="56.679"
       gradientUnits="userSpaceOnUse">
      <stop
         offset="0"
         stop-color="#0078d4"
         id="stop1" />
      <stop
         offset="0.16"
         stop-color="#1380da"
         id="stop2" />
      <stop
         offset="0.53"
         stop-color="#3c91e5"
         id="stop3" />
      <stop
         offset="0.82"
         stop-color="#559cec"
         id="stop4" />
      <stop
         offset="1"
         stop-color="#5ea0ef"
         id="stop5" />
    </linearGradient>
    <linearGradient
       id="linear-gradient"
       x1="317.581"
       y1="1397.917"
       x2="317.581"
       y2="1439.672"
       gradientTransform="matrix(0.707,0.707,0.707,-0.707,-910.815,902.494)"
       gradientUnits="userSpaceOnUse">
      <stop
         offset="0"
         stop-color="#5e9741"
         id="stop6" />
      <stop
         offset="0.55"
         stop-color="#6bad44"
         id="stop7" />
      <stop
         offset="1"
         stop-color="#76bc43"
         id="stop8" />
    </linearGradient>
    <linearGradient
       id="linear-gradient-2"
       x1="314.498"
       y1="1425.053"
       x2="314.476"
       y2="1427.722"
       gradientTransform="matrix(1, 0, 0, -1, 0, 1542.859)"
       gradientUnits="userSpaceOnUse">
      <stop
         offset="0"
         stop-color="#cccccb"
         id="stop9" />
      <stop
         offset="0.12"
         stop-color="#d7d7d7"
         id="stop10" />
      <stop
         offset="0.42"
         stop-color="#ebebeb"
         id="stop11" />
      <stop
         offset="0.72"
         stop-color="#f8f8f8"
         id="stop12" />
      <stop
         offset="1"
         stop-color="#fdfefe"
         id="stop13" />
    </linearGradient>
    <linearGradient
       id="linear-gradient-3"
       x1="318.359"
       y1="1422.405"
       x2="318.359"
       y2="1424.777"
       xlink:href="#linear-gradient-2" />
    <radialGradient
       id="radial-gradient"
       cx="180.444"
       cy="1438.24"
       r="18"
       gradientTransform="matrix(1,0,0,-1,0,1542.859)"
       gradientUnits="userSpaceOnUse">
      <stop
         offset="0.18"
         stop-color="#699cd3"
         id="stop14" />
      <stop
         offset="0.56"
         stop-color="#669cd3"
         id="stop15" />
      <stop
         offset="0.69"
         stop-color="#6198d1"
         id="stop16" />
      <stop
         offset="0.78"
         stop-color="#5793ce"
         id="stop17" />
      <stop
         offset="0.86"
         stop-color="#4a8cca"
         id="stop18" />
      <stop
         offset="0.93"
         stop-color="#3b83c5"
         id="stop19" />
      <stop
         offset="0.99"
         stop-color="#3078be"
         id="stop20" />
      <stop
         offset="1"
         stop-color="#2e76bc"
         id="stop21" />
    </radialGradient>
    <radialGradient
       id="radial-gradient-2"
       cx="227.703"
       cy="1284.332"
       r="20.922"
       gradientTransform="matrix(0.94,0,0,-0.94,-35.92,1309.573)"
       gradientUnits="userSpaceOnUse">
      <stop
         offset="0.27"
         stop-color="#fed70a"
         id="stop22" />
      <stop
         offset="0.49"
         stop-color="#ffcc12"
         id="stop23" />
      <stop
         offset="0.88"
         stop-color="#fbac1d"
         id="stop24" />
      <stop
         offset="1"
         stop-color="#f9a120"
         id="stop25" />
    </radialGradient>
    <linearGradient
       id="linear-gradient-4"
       x1="-437.146"
       y1="1705.824"
       x2="-436.088"
       y2="1650.138"
       gradientTransform="matrix(1,0,0,-1,564,1776.859)"
       gradientUnits="userSpaceOnUse">
      <stop
         offset="0.225"
         stop-color="#32d4f5"
         id="stop26" />
      <stop
         offset="0.473"
         stop-color="#31d1f3"
         id="stop27" />
      <stop
         offset="0.633"
         stop-color="#2ec9eb"
         id="stop28" />
      <stop
         offset="0.768"
         stop-color="#29bade"
         id="stop29" />
      <stop
         offset="0.888"
         stop-color="#22a5cb"
         id="stop30" />
      <stop
         offset="0.999"
         stop-color="#198ab3"
         id="stop31" />
      <stop
         offset="1"
         stop-color="#198ab3"
         id="stop32" />
    </linearGradient>
    <radialGradient
       id="radial-gradient-3"
       cx="16510.377"
       cy="24.535"
       r="100.233"
       gradientTransform="matrix(0.11,0,0,-0.11,-1498.564,21.505)"
       gradientUnits="userSpaceOnUse">
      <stop
         offset="0.18"
         stop-color="#699cd3"
         id="stop33" />
      <stop
         offset="1"
         stop-color="#2e76bc"
         id="stop34" />
    </radialGradient>
    <linearGradient
       id="linear-gradient-5"
       x1="311.641"
       y1="1520.837"
       x2="311.602"
       y2="1525.957"
       xlink:href="#linear-gradient-2" />
    <linearGradient
       id="linear-gradient-6"
       x1="319.067"
       y1="1515.691"
       x2="319.067"
       y2="1520.293"
       xlink:href="#linear-gradient-2" />
    <linearGradient
       id="linear-gradient-7"
       x1="324.317"
       y1="1521.265"
       x2="324.317"
       y2="1526.152"
       xlink:href="#linear-gradient-2" />
    <linearGradient
       id="linear-gradient-10"
       x1="76.48"
       y1="1293.906"
       x2="76.48"
       y2="1267.906"
       gradientTransform="matrix(1, 0, 0, -1, 0, 1542.859)"
       gradientUnits="userSpaceOnUse">
      <stop
         offset="0"
         stop-color="#b3b2b4"
         id="stop35" />
      <stop
         offset="0.38"
         stop-color="#b0aeaf"
         id="stop36" />
      <stop
         offset="0.76"
         stop-color="#a2a1a1"
         id="stop37" />
      <stop
         offset="1"
         stop-color="#979797"
         id="stop38" />
    </linearGradient>
    <linearGradient
       id="linear-gradient-11"
       x1="124.863"
       y1="1275.144"
       x2="124.863"
       y2="1293.906"
       gradientTransform="matrix(1, 0, 0, -1, 0, 1542.859)"
       gradientUnits="userSpaceOnUse">
      <stop
         offset="0"
         stop-color="#2e76bc"
         id="stop39" />
      <stop
         offset="0.82"
         stop-color="#699cd3"
         id="stop40" />
    </linearGradient>
    <linearGradient
       id="linear-gradient-12"
       x1="124.863"
       y1="1267.906"
       x2="124.863"
       y2="1275.144"
       gradientTransform="matrix(1, 0, 0, -1, 0, 1542.859)"
       gradientUnits="userSpaceOnUse">
      <stop
         offset="0.15"
         stop-color="#cccccb"
         id="stop41" />
      <stop
         offset="1"
         stop-color="#707071"
         id="stop42" />
    </linearGradient>
    <linearGradient
       id="linear-gradient-13"
       x1="252.693"
       y1="1293.906"
       x2="252.693"
       y2="1267.906"
       xlink:href="#linear-gradient-10" />
    <linearGradient
       id="linear-gradient-14"
       x1="305.263"
       y1="1275.144"
       x2="305.263"
       y2="1293.906"
       xlink:href="#linear-gradient-11" />
    <linearGradient
       id="linear-gradient-15"
       x1="305.263"
       y1="1267.906"
       x2="305.263"
       y2="1275.144"
       xlink:href="#linear-gradient-12" />
    <linearGradient
       id="linear-gradient-16"
       x1="384.693"
       y1="1293.906"
       x2="384.693"
       y2="1267.906"
       xlink:href="#linear-gradient-10" />
    <linearGradient
       id="linear-gradient-17"
       x1="437.263"
       y1="1275.144"
       x2="437.263"
       y2="1293.906"
       xlink:href="#linear-gradient-11" />
    <linearGradient
       id="linear-gradient-18"
       x1="437.263"
       y1="1267.906"
       x2="437.263"
       y2="1275.144"
       xlink:href="#linear-gradient-12" />
    <linearGradient
       inkscape:collect="always"
       xlink:href="#linear-gradient-2"
       id="linearGradient213"
       gradientUnits="userSpaceOnUse"
       gradientTransform="matrix(1,0,0,-1,0,1542.859)"
       x1="314.498"
       y1="1425.053"
       x2="314.476"
       y2="1427.722" />
    <linearGradient
       inkscape:collect="always"
       xlink:href="#linear-gradient-2"
       id="linearGradient214"
       x1="311.641"
       y1="1520.837"
       x2="311.602"
       y2="1525.957" />
    <linearGradient
       inkscape:collect="always"
       xlink:href="#linear-gradient-2"
       id="linearGradient215"
       x1="319.067"
       y1="1515.691"
       x2="319.067"
       y2="1520.293" />
    <linearGradient
       inkscape:collect="always"
       xlink:href="#linear-gradient-10"
       id="linearGradient216"
       gradientUnits="userSpaceOnUse"
       gradientTransform="matrix(1,0,0,-1,0,1542.859)"
       x1="76.48"
       y1="1293.906"
       x2="76.48"
       y2="1267.906" />
    <linearGradient
       inkscape:collect="always"
       xlink:href="#linear-gradient-11"
       id="linearGradient217"
       gradientUnits="userSpaceOnUse"
       gradientTransform="matrix(1,0,0,-1,0,1542.859)"
       x1="124.863"
       y1="1275.144"
       x2="124.863"
       y2="1293.906" />
    <linearGradient
       inkscape:collect="always"
       xlink:href="#linear-gradient-12"
       id="linearGradient218"
       gradientUnits="userSpaceOnUse"
       gradientTransform="matrix(1,0,0,-1,0,1542.859)"
       x1="124.863"
       y1="1267.906"
       x2="124.863"
       y2="1275.144" />
  </defs>
  <g
     id="g218">
    <rect
       width="497.66699"
       height="345.957"
       fill="#ffffff"
       id="rect42"
       x="0"
       y="0" />
    <g
       id="g44">
      <rect
         x="6.5840001"
         y="56.679001"
         width="484.5"
         height="282.5"
         fill="#ffffff"
         id="rect43" />
      <rect
         x="6.5840001"
         y="56.679001"
         width="484.5"
         height="282.5"
         opacity="0.3"
         fill="url(#Blue_Gradient_2)"
         id="rect44"
         style="fill:url(#Blue_Gradient_2)" />
      <path
         d="m 490.834,56.929 v 282 h -484 v -282 h 484 m 0.5,-0.5 h -485 v 283 h 485 z"
         fill="#ffffff"
         id="path44" />
    </g>
    <g
       id="g45">
      <line
         x1="317.577"
         y1="34.229"
         x2="317.577"
         y2="50.847"
         fill="none"
         stroke="#3c3c41"
         stroke-miterlimit="10"
         id="line44" />
      <polygon
         points="321.317,49.753 313.838,49.753 317.577,56.229 "
         fill="#3c3c41"
         id="polygon44" />
    </g>
    <g
       id="g46">
      <rect
         x="241.10201"
         y="70.554001"
         width="152.95"
         height="83.75"
         fill="#ffffff"
         id="rect45" />
      <rect
         x="241.10201"
         y="70.554001"
         width="152.95"
         height="83.75"
         fill="#83b9f9"
         opacity="0.05"
         id="rect46" />
      <path
         d="m 393.927,70.679 v 83.5 h -152.7 v -83.5 h 152.7 m 0.25,-0.25 h -153.2 v 84 h 153.2 z"
         fill="#83b9f9"
         id="path46" />
    </g>
    <g
       id="g56">
      <rect
         x="304.496"
         y="110.148"
         width="26.163"
         height="26.163"
         rx="1.2079999"
         transform="rotate(-45,317.57721,123.22921)"
         fill="url(#linear-gradient)"
         id="rect47"
         style="fill:url(#linear-gradient)" />
      <g
         id="g49">
        <path
           d="m 321.6,126.428 h 6.016 a 0.234,0.234 0 0 0 0.212,-0.233 V 120.2 a 0.211,0.211 0 0 0 -0.381,-0.148 L 325.8,121.7 v 0.106 a 0.211,0.211 0 0 1 -0.3,0 l -7.351,-7.245 a 0.212,0.212 0 0 0 -0.3,0 l -1.864,1.864 a 0.232,0.232 0 0 0 0,0.318 l 7.224,7.224 a 0.234,0.234 0 0 1 0,0.318 l -0.106,0.106 -1.653,1.652 a 0.233,0.233 0 0 0 0.028,0.328 0.229,0.229 0 0 0 0.122,0.057 z"
           fill="#ffffff"
           id="path47" />
        <path
           d="m 313.19,126.428 h -6.016 a 0.232,0.232 0 0 1 -0.17,-0.233 V 120.2 a 0.211,0.211 0 0 1 0.36,-0.148 l 1.674,1.652 v 0.106 a 0.212,0.212 0 0 0 0.3,0 l 7.308,-7.245 a 0.212,0.212 0 0 1 0.3,0 l 1.864,1.864 a 0.232,0.232 0 0 1 0,0.318 l -7.224,7.224 a 0.234,0.234 0 0 0 0,0.318 v 0.106 l 1.653,1.652 a 0.234,0.234 0 0 1 0.023,0.329 0.224,0.224 0 0 1 -0.072,0.052 z"
           fill="#ffffff"
           id="path48" />
        <path
           d="m 312.978,131.852 4.237,4.237 a 0.214,0.214 0 0 0 0.3,0 l 4.237,-4.237 a 0.212,0.212 0 0 0 0,-0.3 0.214,0.214 0 0 0 -0.145,-0.061 h -2.479 a 0.232,0.232 0 0 1 -0.212,-0.211 v -10.169 a 0.211,0.211 0 0 0 -0.189,-0.232 h -2.65 a 0.233,0.233 0 0 0 -0.233,0.233 v 10.168 a 0.21,0.21 0 0 1 -0.211,0.211 h -2.5 a 0.213,0.213 0 0 0 -0.149,0.361 z"
           fill="#ffffff"
           id="path49" />
      </g>
      <path
         id="ac0a9c0c-2e8c-4843-b02b-2fadf76b27d0"
         d="m 321.092,120.645 a 5.741,5.741 0 0 1 -7.033,-9.067 v 0 a 5.741,5.741 0 0 1 6.97,9.109"
         fill="#2e76bc" />
      <circle
         cx="314.483"
         cy="115.921"
         r="1.8430001"
         fill="url(#linear-gradient-2)"
         id="circle49"
         style="fill:url(#linearGradient213)" />
      <g
         id="g53">
        <path
           d="m 312.661,118.992 0.4,0.636 0.3,0.424 a 12.575,12.575 0 0 1 0.72,-2.331 1.8,1.8 0 0 1 -0.953,-0.487 14.09,14.09 0 0 0 -0.467,1.758 z"
           fill="#f2f2f3"
           opacity="0.55"
           style="isolation:isolate"
           id="path50" />
        <path
           d="m 313.868,114.183 a 8.47,8.47 0 0 1 -0.508,-1.97 5.254,5.254 0 0 0 -0.721,0.975 7.458,7.458 0 0 0 0.424,1.567 2.136,2.136 0 0 1 0.805,-0.572 z"
           fill="#f2f2f3"
           opacity="0.55"
           style="isolation:isolate"
           id="path51" />
        <path
           d="m 315.838,117.171 a 1.841,1.841 0 0 1 -1.016,0.55 9.8,9.8 0 0 0 0.974,0.869 8.81,8.81 0 0 0 1.377,0.826 v -0.148 a 1.123,1.123 0 0 1 0.424,-0.848 7.634,7.634 0 0 1 -1.759,-1.249 z"
           fill="#f2f2f3"
           opacity="0.55"
           style="isolation:isolate"
           id="path52" />
        <path
           d="m 321.389,119.416 a 8.725,8.725 0 0 1 -1.843,-0.212 v 0 a 1.165,1.165 0 0 1 -0.339,0.826 8.1,8.1 0 0 0 2.288,0.17 6.26,6.26 0 0 0 0.784,-0.89 z"
           fill="#f2f2f3"
           opacity="0.55"
           style="isolation:isolate"
           id="path53" />
      </g>
      <circle
         cx="318.35901"
         cy="119.268"
         r="1.186"
         fill="url(#linear-gradient-3)"
         id="circle53"
         style="fill:url(#linear-gradient-3)" />
      <circle
         cx="321.07101"
         cy="116.323"
         r="1.271"
         fill="#f2f2f3"
         id="circle54" />
      <g
         id="g55">
        <path
           d="m 318.042,113.527 a 9.083,9.083 0 0 1 3.982,-0.89 4.709,4.709 0 0 0 -1,-0.953 9.546,9.546 0 0 0 -3.157,0.741 c -0.212,0 -0.4,0.233 -0.614,0.339 v 0 a 12.4,12.4 0 0 1 -1.335,-1.97 l -0.72,0.275 a 11.272,11.272 0 0 0 1.377,2.119 8.264,8.264 0 0 0 -1.42,1.165 1.84,1.84 0 0 1 0.911,0.741 6.978,6.978 0 0 1 1.293,-1.016 19.392,19.392 0 0 0 2.478,2.118 1.205,1.205 0 0 1 0.424,-0.678 17.886,17.886 0 0 1 -2.219,-1.991 z"
           fill="#f2f2f3"
           opacity="0.55"
           style="isolation:isolate"
           id="path54" />
        <path
           d="m 323,117.065 h -0.381 l -0.212,-0.128 a 1.292,1.292 0 0 1 -0.424,0.636 l 0.254,0.148 v 0 l 0.233,0.127 v 0 l 0.593,0.3 v 0 a 7.6,7.6 0 0 0 0.191,-0.741 z"
           fill="#f2f2f3"
           opacity="0.55"
           style="isolation:isolate"
           id="path55" />
      </g>
      <circle
         cx="314.483"
         cy="115.921"
         r="1.8430001"
         fill="#f2f2f3"
         id="circle55" />
      <circle
         cx="318.35901"
         cy="119.268"
         r="1.186"
         fill="#f2f2f3"
         id="circle56" />
    </g>
    <g
       id="g60"
       transform="translate(60)">
      <path
         d="m 139.815,103.962 h -1.922 v -6.155 a 11.66,11.66 0 0 0 -2.979,-7.853 9.9,9.9 0 0 0 -14.822,0 11.475,11.475 0 0 0 -2.982,7.851 v 6.157 h -1.61 a 1.41,1.41 0 0 0 -1.391,1.382 v 15.892 a 1.412,1.412 0 0 0 1.391,1.382 h 24.314 a 1.407,1.407 0 0 0 1.388,-1.382 v -15.892 a 1.4,1.4 0 0 0 -1.387,-1.382 z m -6.738,0 h -11.141 v -6.256 a 6.326,6.326 0 0 1 1.732,-4.3 4.977,4.977 0 0 1 7.55,0 6.344,6.344 0 0 1 0.648,0.864 v 0 a 5.973,5.973 0 0 1 1.2,3.438 z"
         fill="url(#linear-gradient-4)"
         id="path58"
         style="fill:url(#linear-gradient-4)" />
      <path
         d="m 139.854,103.962 h -24.329 a 1.377,1.377 0 0 0 -0.892,0.343 l 26.113,18.079 a 1.388,1.388 0 0 0 0.5,-1.045 v -15.987 a 1.411,1.411 0 0 0 -1.392,-1.39 z"
         fill="#50e6ff"
         id="path59" />
      <path
         d="m 115.55,103.962 h 24.328 a 1.377,1.377 0 0 1 0.893,0.343 l -26.114,18.079 a 1.38,1.38 0 0 1 -0.495,-1.045 v -15.987 a 1.408,1.408 0 0 1 1.388,-1.39 z"
         fill="#ffffff"
         opacity="0.2"
         style="isolation:isolate"
         id="path60" />
    </g>
    <g
       id="g61">
      <line
         x1="207.34801"
         y1="104.618"
         x2="234.752"
         y2="104.618"
         fill="none"
         stroke="#505150"
         stroke-miterlimit="10"
         id="line60" />
      <polygon
         points="233.657,100.879 233.657,108.358 240.134,104.618 "
         fill="#505150"
         id="polygon60" />
    </g>
    <g
       id="g68">
      <path
         id="ee75dd06-1aca-4f76-9d11-d05a284020ad"
         d="M 324.356,27.518 A 11.022,11.022 0 0 1 310.849,10.1 l 0.117,-0.077 a 11.018,11.018 0 0 1 13.39,17.5"
         fill="url(#radial-gradient-3)"
         style="fill:url(#radial-gradient-3)" />
      <path
         d="m 314.608,16.513 a 16.85,16.85 0 0 1 11.549,-4.641 10.934,10.934 0 0 0 -1.931,-1.866 18.6,18.6 0 0 0 -6.079,1.425 16.258,16.258 0 0 0 -5.289,3.656 3.575,3.575 0 0 1 1.75,1.426 z"
         fill="#ffffff"
         opacity="0.6"
         style="isolation:isolate"
         id="path61" />
      <path
         d="m 309.151,20.946 a 23.177,23.177 0 0 0 -1.076,3.4 10.072,10.072 0 0 0 0.8,1.192 10.87,10.87 0 0 0 0.713,0.843 23.216,23.216 0 0 1 1.4,-4.5 3.584,3.584 0 0 1 -1.837,-0.935 z"
         fill="#ffffff"
         opacity="0.6"
         style="isolation:isolate"
         id="path62" />
      <path
         d="m 310.421,15.061 a 15.556,15.556 0 0 1 -0.894,-3.811 10.566,10.566 0 0 0 -1.426,1.88 16.462,16.462 0 0 0 0.739,3.085 3.488,3.488 0 0 1 1.581,-1.154 z"
         fill="#f2f2f3"
         opacity="0.55"
         style="isolation:isolate"
         id="path63" />
      <circle
         cx="311.61401"
         cy="18.392"
         r="3.539"
         fill="url(#linear-gradient-5)"
         id="circle63"
         style="fill:url(#linearGradient214)" />
      <path
         d="m 316.773,24.86 a 2.292,2.292 0 0 1 0.7,-1.646 15.419,15.419 0 0 1 -3.28,-2.411 3.55,3.55 0 0 1 -1.931,1.076 17.005,17.005 0 0 0 1.879,1.659 15.616,15.616 0 0 0 2.658,1.62 2.275,2.275 0 0 1 -0.026,-0.298 z"
         fill="#f2f2f3"
         opacity="0.55"
         style="isolation:isolate"
         id="path64" />
      <path
         d="m 324.939,25.133 a 15.617,15.617 0 0 1 -3.578,-0.415 0.483,0.483 0 0 1 0,0.142 2.268,2.268 0 0 1 -0.661,1.608 17.77,17.77 0 0 0 4.433,0.311 10.658,10.658 0 0 0 1.543,-1.737 15.05,15.05 0 0 1 -1.737,0.091 z"
         fill="#f2f2f3"
         opacity="0.55"
         style="isolation:isolate"
         id="path65" />
      <circle
         cx="319.06699"
         cy="24.860001"
         r="2.3069999"
         fill="url(#linear-gradient-6)"
         id="circle65"
         style="fill:url(#linearGradient215)" />
      <path
         d="m 321.906,18.716 a 2.372,2.372 0 0 1 0.79,-1.3 33.085,33.085 0 0 1 -5.781,-5.366 21.919,21.919 0 0 1 -2.592,-3.785 9.906,9.906 0 0 0 -1.413,0.544 23.513,23.513 0 0 0 2.787,4.122 34.242,34.242 0 0 0 6.209,5.785 z"
         fill="#f2f2f3"
         opacity="0.7"
         style="isolation:isolate"
         id="path66" />
      <circle
         cx="324.31699"
         cy="19.157"
         r="2.45"
         fill="url(#linear-gradient-7)"
         id="circle66"
         style="fill:url(#linear-gradient-7)" />
      <path
         d="m 328.426,20.8 -0.454,-0.22 v 0 l -0.389,-0.208 h -0.078 L 327.168,20.1 h -0.09 l -0.4,-0.259 a 2.279,2.279 0 0 1 -0.83,1.192 c 0.156,0.1 0.324,0.2 0.493,0.286 l 0.1,0.064 0.453,0.247 v 0 l 1.115,0.583 v 0 a 11.148,11.148 0 0 0 0.376,-1.439 z"
         fill="#f2f2f3"
         opacity="0.55"
         style="isolation:isolate"
         id="path67" />
      <circle
         cx="311.61401"
         cy="18.392"
         r="3.539"
         fill="url(#linear-gradient-5)"
         id="circle67"
         style="fill:url(#linear-gradient-5)" />
      <circle
         cx="319.06699"
         cy="24.860001"
         r="2.3069999"
         fill="url(#linear-gradient-6)"
         id="circle68"
         style="fill:url(#linear-gradient-6)" />
    </g>
    <g
       id="g69">
      <polygon
         points="33.481,65.229 29.898,75.094 36.781,83.308 23.369,85.668 45.28,85.668 "
         id="polygon68" />
      <polygon
         points="16.893,83.255 23.404,83.255 23.404,83.273 32.541,63.668 24.114,70.747 "
         id="polygon69" />
    </g>
    <g
       id="g71">
      <rect
         x="20.134001"
         y="190.32001"
         width="457.60001"
         height="135.709"
         fill="#ffffff"
         id="rect69" />
      <g
         opacity="0.65"
         id="g70">
        <path
           d="M 477.584,190.47 V 325.879 H 20.284 V 190.47 h 457.3 m 0.15,-0.15 h -457.6 v 135.709 h 457.6 z"
           fill="#505150"
           id="path69" />
      </g>
    </g>
    <g
       id="g72">
      <rect
         x="33.334"
         y="202.84801"
         width="123.2"
         height="109.981"
         fill="#ffffff"
         id="rect71" />
      <rect
         x="33.334"
         y="202.84801"
         width="123.2"
         height="109.981"
         fill="#505150"
         opacity="0.1"
         id="rect72" />
    </g>
    <g
       id="g75">
      <path
         d="m 84.921,274.069 a 0.936,0.936 0 0 1 -0.973,0.883 H 69.012 a 0.936,0.936 0 0 1 -0.973,-0.883 v -24.232 a 0.936,0.936 0 0 1 0.973,-0.883 h 14.936 a 0.936,0.936 0 0 1 0.973,0.883 z"
         fill="url(#linear-gradient-10)"
         id="path72"
         style="fill:url(#linearGradient216)" />
      <path
         d="m 70.525,260.07 a 1.947,1.947 0 0 1 1.8,-2.036 h 8.432 a 1.947,1.947 0 0 1 1.8,2.036 v 0 a 1.928,1.928 0 0 1 -1.736,2.1 h -0.066 -8.4 a 1.928,1.928 0 0 1 -1.8,-2.018 z"
         fill="#1e3465"
         id="path73" />
      <path
         d="m 70.525,254.053 a 1.928,1.928 0 0 1 1.8,-2.018 h 8.432 a 1.928,1.928 0 0 1 1.8,2.018 v 0 a 1.947,1.947 0 0 1 -1.8,2.036 h -8.4 a 1.947,1.947 0 0 1 -1.8,-2.036 z"
         fill="#1e3465"
         id="path74" />
      <circle
         cx="72.886002"
         cy="254.05299"
         r="1.351"
         fill="#74cfeb"
         id="circle74" />
      <circle
         cx="72.886002"
         cy="260.07001"
         r="1.351"
         fill="#74cfeb"
         id="circle75" />
    </g>
    <g
       id="g79">
      <rect
         x="110.792"
         y="248.953"
         width="28.142"
         height="18.761"
         rx="0.93800002"
         fill="url(#linear-gradient-11)"
         id="rect75"
         style="fill:url(#linearGradient217)" />
      <polygon
         points="124.863,263.806 124.863,258.334 129.553,255.598 129.553,261.054 "
         fill="#74cfeb"
         id="polygon75" />
      <polygon
         points="120.172,255.598 124.863,252.862 129.553,255.598 124.863,258.349 "
         fill="#c6eaf8"
         id="polygon76" />
      <polygon
         points="120.172,261.054 120.172,255.598 124.863,258.349 124.863,263.806 "
         fill="#a5def3"
         id="polygon77" />
      <polygon
         points="124.863,263.806 120.172,261.054 124.863,258.334 "
         fill="#c6eaf8"
         id="polygon78" />
      <polygon
         points="124.863,263.806 129.553,261.054 124.863,258.334 "
         fill="#a5def3"
         id="polygon79" />
      <path
         d="m 130.507,273.39 c -2.783,-0.438 -2.893,-2.439 -2.893,-5.676 H 122.1 c 0,3.237 -0.093,5.238 -2.876,5.676 a 1.563,1.563 0 0 0 -1.392,1.563 H 131.9 a 1.563,1.563 0 0 0 -1.393,-1.563 z"
         fill="url(#linear-gradient-12)"
         id="path79"
         style="fill:url(#linearGradient218)" />
    </g>
    <g
       id="g80">
      <rect
         x="209.334"
         y="202.84801"
         width="123.2"
         height="109.981"
         fill="#ffffff"
         id="rect79" />
      <rect
         x="209.334"
         y="202.84801"
         width="123.2"
         height="109.981"
         fill="#505150"
         opacity="0.1"
         id="rect80" />
    </g>
    <g
       id="g83">
      <path
         d="m 261.134,274.069 a 0.936,0.936 0 0 1 -0.973,0.883 h -14.936 a 0.936,0.936 0 0 1 -0.972,-0.883 v -24.232 a 0.936,0.936 0 0 1 0.972,-0.883 h 14.936 a 0.936,0.936 0 0 1 0.973,0.883 z"
         fill="url(#linear-gradient-13)"
         id="path80"
         style="fill:url(#linear-gradient-13)" />
      <path
         d="m 246.739,260.07 a 1.946,1.946 0 0 1 1.8,-2.036 h 8.431 a 1.946,1.946 0 0 1 1.8,2.036 v 0 a 1.927,1.927 0 0 1 -1.735,2.1 h -0.067 -8.395 a 1.927,1.927 0 0 1 -1.8,-2.018 z"
         fill="#1e3465"
         id="path81" />
      <path
         d="m 246.739,254.053 a 1.927,1.927 0 0 1 1.8,-2.018 h 8.431 a 1.927,1.927 0 0 1 1.8,2.018 v 0 a 1.946,1.946 0 0 1 -1.8,2.036 h -8.395 a 1.946,1.946 0 0 1 -1.8,-2.036 z"
         fill="#1e3465"
         id="path82" />
      <circle
         cx="249.099"
         cy="254.05299"
         r="1.351"
         fill="#74cfeb"
         id="circle82" />
      <circle
         cx="249.099"
         cy="260.07001"
         r="1.351"
         fill="#74cfeb"
         id="circle83" />
    </g>
    <g
       id="g87">
      <rect
         x="291.19199"
         y="248.953"
         width="28.142"
         height="18.761"
         rx="0.93800002"
         fill="url(#linear-gradient-14)"
         id="rect83"
         style="fill:url(#linear-gradient-14)" />
      <polygon
         points="305.263,263.806 305.263,258.334 309.953,255.598 309.953,261.054 "
         fill="#74cfeb"
         id="polygon83" />
      <polygon
         points="300.572,255.598 305.263,252.862 309.953,255.598 305.263,258.349 "
         fill="#c6eaf8"
         id="polygon84" />
      <polygon
         points="300.572,261.054 300.572,255.598 305.263,258.349 305.263,263.806 "
         fill="#a5def3"
         id="polygon85" />
      <polygon
         points="305.263,263.806 300.572,261.054 305.263,258.334 "
         fill="#c6eaf8"
         id="polygon86" />
      <polygon
         points="305.263,263.806 309.953,261.054 305.263,258.334 "
         fill="#a5def3"
         id="polygon87" />
      <path
         d="m 310.907,273.39 c -2.783,-0.438 -2.893,-2.439 -2.893,-5.676 H 302.5 c 0,3.237 -0.093,5.238 -2.876,5.676 a 1.563,1.563 0 0 0 -1.392,1.563 H 312.3 a 1.563,1.563 0 0 0 -1.393,-1.563 z"
         fill="url(#linear-gradient-15)"
         id="path87"
         style="fill:url(#linear-gradient-15)" />
    </g>
    <g
       id="g88">
      <rect
         x="341.33401"
         y="202.84801"
         width="123.2"
         height="109.981"
         fill="#ffffff"
         id="rect87" />
      <rect
         x="341.33401"
         y="202.84801"
         width="123.2"
         height="109.981"
         fill="#505150"
         opacity="0.1"
         id="rect88" />
    </g>
    <g
       id="g91">
      <path
         d="m 393.134,274.069 a 0.936,0.936 0 0 1 -0.973,0.883 h -14.936 a 0.936,0.936 0 0 1 -0.972,-0.883 v -24.232 a 0.936,0.936 0 0 1 0.972,-0.883 h 14.936 a 0.936,0.936 0 0 1 0.973,0.883 z"
         fill="url(#linear-gradient-16)"
         id="path88"
         style="fill:url(#linear-gradient-16)" />
      <path
         d="m 378.739,260.07 a 1.946,1.946 0 0 1 1.8,-2.036 h 8.431 a 1.946,1.946 0 0 1 1.8,2.036 v 0 a 1.927,1.927 0 0 1 -1.735,2.1 h -0.067 -8.395 a 1.927,1.927 0 0 1 -1.8,-2.018 z"
         fill="#1e3465"
         id="path89" />
      <path
         d="m 378.739,254.053 a 1.927,1.927 0 0 1 1.8,-2.018 h 8.431 a 1.927,1.927 0 0 1 1.8,2.018 v 0 a 1.946,1.946 0 0 1 -1.8,2.036 h -8.395 a 1.946,1.946 0 0 1 -1.8,-2.036 z"
         fill="#1e3465"
         id="path90" />
      <circle
         cx="381.099"
         cy="254.05299"
         r="1.351"
         fill="#74cfeb"
         id="circle90" />
      <circle
         cx="381.099"
         cy="260.07001"
         r="1.351"
         fill="#74cfeb"
         id="circle91" />
    </g>
    <g
       id="g95">
      <rect
         x="423.19199"
         y="248.953"
         width="28.142"
         height="18.761"
         rx="0.93800002"
         fill="url(#linear-gradient-17)"
         id="rect91"
         style="fill:url(#linear-gradient-17)" />
      <polygon
         points="437.263,263.806 437.263,258.334 441.953,255.598 441.953,261.054 "
         fill="#74cfeb"
         id="polygon91" />
      <polygon
         points="432.572,255.598 437.263,252.862 441.953,255.598 437.263,258.349 "
         fill="#c6eaf8"
         id="polygon92" />
      <polygon
         points="432.572,261.054 432.572,255.598 437.263,258.349 437.263,263.806 "
         fill="#a5def3"
         id="polygon93" />
      <polygon
         points="437.263,263.806 432.572,261.054 437.263,258.334 "
         fill="#c6eaf8"
         id="polygon94" />
      <polygon
         points="437.263,263.806 441.953,261.054 437.263,258.334 "
         fill="#a5def3"
         id="polygon95" />
      <path
         d="m 442.907,273.39 c -2.783,-0.438 -2.893,-2.439 -2.893,-5.676 H 434.5 c 0,3.237 -0.093,5.238 -2.876,5.676 a 1.563,1.563 0 0 0 -1.392,1.563 H 444.3 a 1.563,1.563 0 0 0 -1.393,-1.563 z"
         fill="url(#linear-gradient-18)"
         id="path95"
         style="fill:url(#linear-gradient-18)" />
    </g>
    <g
       id="g96">
      <line
         x1="169.73399"
         y1="260.02899"
         x2="190.752"
         y2="260.02899"
         fill="none"
         stroke="#3c3c41"
         stroke-miterlimit="10"
         id="line95" />
      <polygon
         points="189.657,256.29 189.657,263.769 196.134,260.029 "
         fill="#3c3c41"
         id="polygon96" />
    </g>
    <g
       id="g97">
      <line
         x1="252.69299"
         y1="154.429"
         x2="252.69299"
         y2="197.44701"
         fill="none"
         stroke="#3c3c41"
         stroke-miterlimit="10"
         id="line96" />
      <polygon
         points="256.433,196.353 248.954,196.353 252.693,202.829 "
         fill="#3c3c41"
         id="polygon97" />
    </g>
    <g
       id="g98">
      <line
         x1="384.69299"
         y1="154.429"
         x2="384.69299"
         y2="197.44701"
         fill="none"
         stroke="#3c3c41"
         stroke-miterlimit="10"
         id="line97" />
      <polygon
         points="388.433,196.353 380.954,196.353 384.693,202.829 "
         fill="#3c3c41"
         id="polygon98" />
    </g>
    <g
       id="g108">
      <path
         d="m 224.967,22.429 h -1.149 v -9.8 h 1.149 z"
         fill="#2f2f2f"
         id="path98" />
      <path
         d="m 233.043,22.429 h -1.121 v -3.992 q 0,-2.229 -1.627,-2.228 a 1.763,1.763 0 0 0 -1.391,0.632 2.343,2.343 0 0 0 -0.551,1.6 v 3.992 h -1.121 v -7 h 1.121 v 1.162 h 0.028 a 2.523,2.523 0 0 1 2.3,-1.326 2.136,2.136 0 0 1 1.756,0.742 3.3,3.3 0 0 1 0.61,2.143 z"
         fill="#2f2f2f"
         id="path99" />
      <path
         d="m 236.213,21.418 h -0.028 v 1.011 h -1.121 V 12.066 h 1.121 v 4.594 h 0.028 a 2.652,2.652 0 0 1 2.42,-1.395 2.567,2.567 0 0 1 2.109,0.94 3.884,3.884 0 0 1 0.762,2.519 4.346,4.346 0 0 1 -0.854,2.813 2.846,2.846 0 0 1 -2.338,1.056 2.3,2.3 0 0 1 -2.099,-1.175 z m -0.028,-2.824 v 0.978 a 2.076,2.076 0 0 0 0.565,1.473 2.011,2.011 0 0 0 3.027,-0.174 3.563,3.563 0 0 0 0.578,-2.167 2.821,2.821 0 0 0 -0.539,-1.832 1.789,1.789 0 0 0 -1.463,-0.663 1.983,1.983 0 0 0 -1.572,0.68 2.5,2.5 0 0 0 -0.596,1.705 z"
         fill="#2f2f2f"
         id="path100" />
      <path
         d="m 246.209,22.593 a 3.254,3.254 0 0 1 -2.479,-0.981 3.634,3.634 0 0 1 -0.926,-2.6 3.786,3.786 0 0 1 0.965,-2.754 3.464,3.464 0 0 1 2.6,-0.992 3.135,3.135 0 0 1 2.443,0.964 3.822,3.822 0 0 1 0.888,2.67 3.751,3.751 0 0 1 -0.947,2.683 3.316,3.316 0 0 1 -2.544,1.01 z m 0.082,-6.384 a 2.135,2.135 0 0 0 -1.709,0.735 3.021,3.021 0 0 0 -0.629,2.026 2.852,2.852 0 0 0 0.637,1.962 2.156,2.156 0 0 0 1.7,0.718 2.055,2.055 0 0 0 1.672,-0.7 3.064,3.064 0 0 0 0.584,-2 3.116,3.116 0 0 0 -0.584,-2.023 2.041,2.041 0 0 0 -1.671,-0.718 z"
         fill="#2f2f2f"
         id="path101" />
      <path
         d="m 257.105,22.429 h -1.121 v -1.107 h -0.027 a 2.3,2.3 0 0 1 -2.16,1.271 q -2.5,0 -2.5,-2.98 v -4.184 h 1.113 v 4.006 q 0,2.216 1.7,2.215 a 1.721,1.721 0 0 0 1.352,-0.6 2.324,2.324 0 0 0 0.529,-1.582 v -4.039 h 1.121 z"
         fill="#2f2f2f"
         id="path102" />
      <path
         d="M 265.023,22.429 H 263.9 v -3.992 q 0,-2.229 -1.627,-2.228 a 1.766,1.766 0 0 0 -1.391,0.632 2.342,2.342 0 0 0 -0.55,1.6 v 3.992 h -1.121 v -7 h 1.121 v 1.162 h 0.027 a 2.523,2.523 0 0 1 2.3,-1.326 2.137,2.137 0 0 1 1.756,0.742 3.3,3.3 0 0 1 0.609,2.143 z"
         fill="#2f2f2f"
         id="path103" />
      <path
         d="m 273.1,22.429 h -1.121 V 21.24 h -0.027 a 2.589,2.589 0 0 1 -2.406,1.353 2.616,2.616 0 0 1 -2.11,-0.94 3.862,3.862 0 0 1 -0.789,-2.56 4.191,4.191 0 0 1 0.875,-2.782 2.884,2.884 0 0 1 2.33,-1.046 2.246,2.246 0 0 1 2.1,1.135 h 0.027 v -4.334 h 1.121 z m -1.121,-3.165 v -1.032 a 2,2 0 0 0 -0.56,-1.435 1.879,1.879 0 0 0 -1.422,-0.588 1.931,1.931 0 0 0 -1.613,0.752 3.286,3.286 0 0 0 -0.588,2.078 2.957,2.957 0 0 0 0.564,1.91 1.837,1.837 0 0 0 1.514,0.7 1.918,1.918 0 0 0 1.521,-0.677 2.524,2.524 0 0 0 0.581,-1.708 z"
         fill="#2f2f2f"
         id="path104" />
      <path
         d="m 283.972,22.108 a 3.635,3.635 0 0 1 -1.914,0.485 3.167,3.167 0 0 1 -2.416,-0.974 3.529,3.529 0 0 1 -0.92,-2.526 3.871,3.871 0 0 1 0.993,-2.778 3.465,3.465 0 0 1 2.644,-1.05 3.68,3.68 0 0 1 1.627,0.342 v 1.149 a 2.843,2.843 0 0 0 -1.668,-0.547 2.252,2.252 0 0 0 -1.76,0.769 2.912,2.912 0 0 0 -0.687,2.02 2.777,2.777 0 0 0 0.646,1.941 2.225,2.225 0 0 0 1.733,0.711 2.809,2.809 0 0 0 1.722,-0.608 z"
         fill="#2f2f2f"
         id="path105" />
      <path
         d="M 290.717,22.429 H 289.6 v -1.093 h -0.027 a 2.345,2.345 0 0 1 -2.152,1.257 2.3,2.3 0 0 1 -1.637,-0.553 1.916,1.916 0 0 1 -0.592,-1.47 q 0,-1.962 2.311,-2.283 l 2.1,-0.294 q 0,-1.785 -1.441,-1.784 a 3.443,3.443 0 0 0 -2.283,0.861 v -1.148 a 4.329,4.329 0 0 1 2.379,-0.657 q 2.466,0 2.467,2.612 z m -1.117,-3.541 -1.687,0.233 a 2.734,2.734 0 0 0 -1.176,0.386 1.113,1.113 0 0 0 -0.4,0.981 1.065,1.065 0 0 0 0.365,0.837 1.411,1.411 0 0 0 0.975,0.325 1.8,1.8 0 0 0 1.376,-0.584 2.081,2.081 0 0 0 0.543,-1.48 z"
         fill="#2f2f2f"
         id="path106" />
      <path
         d="m 293.859,22.429 h -1.121 V 12.066 h 1.121 z"
         fill="#2f2f2f"
         id="path107" />
      <path
         d="m 297.09,22.429 h -1.122 V 12.066 h 1.122 z"
         fill="#2f2f2f"
         id="path108" />
    </g>
    <g
       id="g118">
      <path
         d="m 285.745,92.829 h -1.272 l -1.039,-2.748 h -4.156 l -0.977,2.748 h -1.279 l 3.76,-9.8 h 1.189 z m -2.687,-3.78 -1.538,-4.177 a 3.98,3.98 0 0 1 -0.15,-0.656 h -0.027 a 3.61,3.61 0 0 1 -0.158,0.656 l -1.524,4.177 z"
         fill="#2f2f2f"
         id="path109" />
      <path
         d="m 288.166,91.818 h -0.028 v 4.231 h -1.121 v -10.22 h 1.121 v 1.231 h 0.028 a 2.651,2.651 0 0 1 2.42,-1.395 2.565,2.565 0 0 1 2.112,0.94 3.892,3.892 0 0 1 0.759,2.519 4.335,4.335 0 0 1 -0.855,2.813 2.843,2.843 0 0 1 -2.338,1.056 2.342,2.342 0 0 1 -2.098,-1.175 z m -0.028,-2.824 v 0.978 a 2.078,2.078 0 0 0 0.565,1.473 2.011,2.011 0 0 0 3.027,-0.174 3.57,3.57 0 0 0 0.578,-2.167 2.815,2.815 0 0 0 -0.54,-1.832 1.786,1.786 0 0 0 -1.463,-0.663 1.986,1.986 0 0 0 -1.572,0.68 2.5,2.5 0 0 0 -0.595,1.705 z"
         fill="#2f2f2f"
         id="path110" />
      <path
         d="M 296.322,91.818 H 296.3 v 4.231 h -1.121 v -10.22 h 1.121 v 1.231 h 0.027 a 2.651,2.651 0 0 1 2.42,-1.395 2.565,2.565 0 0 1 2.112,0.94 3.892,3.892 0 0 1 0.759,2.519 4.341,4.341 0 0 1 -0.854,2.813 2.846,2.846 0 0 1 -2.338,1.056 2.342,2.342 0 0 1 -2.104,-1.175 z m -0.027,-2.824 v 0.978 a 2.077,2.077 0 0 0 0.564,1.473 2.011,2.011 0 0 0 3.027,-0.174 3.57,3.57 0 0 0 0.579,-2.167 2.821,2.821 0 0 0 -0.54,-1.832 1.789,1.789 0 0 0 -1.463,-0.663 1.986,1.986 0 0 0 -1.573,0.68 2.5,2.5 0 0 0 -0.589,1.705 z"
         fill="#2f2f2f"
         id="path111" />
      <path
         d="m 314.718,92.159 a 6.56,6.56 0 0 1 -3.282,0.834 4.485,4.485 0 0 1 -3.394,-1.353 4.963,4.963 0 0 1 -1.295,-3.582 5.094,5.094 0 0 1 1.439,-3.736 4.905,4.905 0 0 1 3.647,-1.46 6.208,6.208 0 0 1 2.686,0.52 v 1.271 A 5.159,5.159 0 0 0 311.7,83.9 a 3.519,3.519 0 0 0 -2.7,1.134 4.741,4.741 0 0 0 -0.076,5.862 3.428,3.428 0 0 0 2.653,1.063 4.1,4.1 0 0 0 1.989,-0.458 v -2.746 h -2.146 v -1.039 h 3.3 z"
         fill="#2f2f2f"
         id="path112" />
      <path
         d="m 321.8,92.829 h -1.121 v -1.093 h -0.027 a 2.346,2.346 0 0 1 -2.153,1.257 2.3,2.3 0 0 1 -1.637,-0.553 1.917,1.917 0 0 1 -0.592,-1.47 q 0,-1.962 2.311,-2.283 l 2.1,-0.294 q 0,-1.785 -1.442,-1.784 a 3.445,3.445 0 0 0 -2.283,0.861 v -1.149 a 4.342,4.342 0 0 1 2.379,-0.656 q 2.467,0 2.467,2.612 z m -1.121,-3.541 -1.688,0.233 a 2.726,2.726 0 0 0 -1.176,0.386 1.112,1.112 0 0 0 -0.4,0.981 1.069,1.069 0 0 0 0.365,0.837 1.412,1.412 0 0 0 0.974,0.325 1.8,1.8 0 0 0 1.377,-0.585 2.078,2.078 0 0 0 0.544,-1.479 z"
         fill="#2f2f2f"
         id="path113" />
      <path
         d="m 327.062,92.761 a 2.159,2.159 0 0 1 -1.046,0.219 q -1.838,0 -1.839,-2.051 v -4.143 h -1.2 v -0.957 h 1.2 V 84.12 l 1.122,-0.362 v 2.071 h 1.763 v 0.957 H 325.3 v 3.945 a 1.641,1.641 0 0 0 0.239,1.005 0.956,0.956 0 0 0 0.793,0.3 1.178,1.178 0 0 0 0.731,-0.232 z"
         fill="#2f2f2f"
         id="path114" />
      <path
         d="m 334.055,89.61 h -4.942 a 2.621,2.621 0 0 0 0.629,1.8 2.167,2.167 0 0 0 1.654,0.636 3.444,3.444 0 0 0 2.174,-0.779 v 1.052 a 4.06,4.06 0 0 1 -2.44,0.67 2.959,2.959 0 0 1 -2.331,-0.953 3.9,3.9 0 0 1 -0.848,-2.683 3.825,3.825 0 0 1 0.926,-2.663 2.97,2.97 0 0 1 2.3,-1.029 2.633,2.633 0 0 1 2.126,0.889 3.706,3.706 0 0 1 0.752,2.468 z m -1.148,-0.951 a 2.283,2.283 0 0 0 -0.468,-1.51 1.6,1.6 0 0 0 -1.282,-0.54 1.813,1.813 0 0 0 -1.347,0.567 2.575,2.575 0 0 0 -0.683,1.483 z"
         fill="#2f2f2f"
         id="path115" />
      <path
         d="m 344.53,85.829 -2.1,7 h -1.162 l -1.442,-5.01 a 3.236,3.236 0 0 1 -0.109,-0.65 h -0.028 a 3.088,3.088 0 0 1 -0.143,0.636 l -1.566,5.024 h -1.12 l -2.119,-7 h 1.176 l 1.449,5.264 a 3.2,3.2 0 0 1 0.1,0.629 h 0.054 a 2.982,2.982 0 0 1 0.123,-0.643 l 1.614,-5.25 h 1.025 l 1.449,5.278 a 3.725,3.725 0 0 1 0.1,0.629 h 0.054 a 2.863,2.863 0 0 1 0.117,-0.629 l 1.422,-5.278 z"
         fill="#2f2f2f"
         id="path116" />
      <path
         d="m 350.7,92.829 h -1.121 v -1.093 h -0.028 a 2.346,2.346 0 0 1 -2.153,1.257 2.3,2.3 0 0 1 -1.637,-0.553 1.92,1.92 0 0 1 -0.591,-1.47 q 0,-1.962 2.31,-2.283 l 2.1,-0.294 q 0,-1.785 -1.443,-1.784 a 3.448,3.448 0 0 0 -2.283,0.861 v -1.149 a 4.346,4.346 0 0 1 2.379,-0.656 q 2.469,0 2.468,2.612 z m -1.121,-3.541 -1.689,0.233 a 2.73,2.73 0 0 0 -1.176,0.386 1.114,1.114 0 0 0 -0.4,0.981 1.069,1.069 0 0 0 0.365,0.837 1.414,1.414 0 0 0 0.975,0.325 1.8,1.8 0 0 0 1.377,-0.585 2.082,2.082 0 0 0 0.544,-1.479 z"
         fill="#2f2f2f"
         id="path117" />
      <path
         d="M 358.215,85.829 355,93.95 q -0.861,2.175 -2.42,2.174 a 2.581,2.581 0 0 1 -0.732,-0.089 v -1 a 2.084,2.084 0 0 0 0.664,0.123 1.373,1.373 0 0 0 1.271,-1.011 l 0.561,-1.326 -2.744,-6.992 h 1.244 l 1.894,5.387 q 0.033,0.1 0.143,0.533 h 0.041 c 0.023,-0.109 0.069,-0.283 0.137,-0.519 l 1.989,-5.4 z"
         fill="#2f2f2f"
         id="path118" />
    </g>
    <g
       id="g125">
      <path
         d="m 28.091,184.819 a 5.748,5.748 0 0 1 -2.707,0.574 4.369,4.369 0 0 1 -3.35,-1.346 4.969,4.969 0 0 1 -1.258,-3.535 5.207,5.207 0 0 1 1.415,-3.8 4.8,4.8 0 0 1 3.589,-1.45 5.754,5.754 0 0 1 2.311,0.4 v 1.223 a 4.69,4.69 0 0 0 -2.325,-0.588 3.567,3.567 0 0 0 -2.738,1.128 4.252,4.252 0 0 0 -1.049,3.015 4.042,4.042 0 0 0 0.981,2.854 3.337,3.337 0 0 0 2.574,1.063 4.835,4.835 0 0 0 2.557,-0.656 z"
         fill="#2f2f2f"
         id="path119" />
      <path
         d="m 30.763,185.229 h -1.121 v -10.363 h 1.121 z"
         fill="#2f2f2f"
         id="path120" />
      <path
         d="m 38.6,185.229 h -1.118 v -1.107 h -0.027 a 2.3,2.3 0 0 1 -2.16,1.271 q -2.5,0 -2.5,-2.98 v -4.184 h 1.114 v 4.006 q 0,2.215 1.7,2.215 a 1.719,1.719 0 0 0 1.351,-0.6 2.32,2.32 0 0 0 0.529,-1.583 v -4.033 H 38.6 Z"
         fill="#2f2f2f"
         id="path121" />
      <path
         d="m 40.365,184.976 v -1.2 a 3.318,3.318 0 0 0 2.017,0.677 q 1.476,0 1.476,-0.985 a 0.856,0.856 0 0 0 -0.126,-0.475 1.287,1.287 0 0 0 -0.342,-0.345 2.665,2.665 0 0 0 -0.506,-0.27 c -0.194,-0.079 -0.4,-0.163 -0.625,-0.249 a 7.942,7.942 0 0 1 -0.818,-0.373 2.5,2.5 0 0 1 -0.588,-0.424 1.6,1.6 0 0 1 -0.355,-0.536 1.915,1.915 0 0 1 -0.119,-0.7 1.675,1.675 0 0 1 0.225,-0.872 2.006,2.006 0 0 1 0.6,-0.636 2.785,2.785 0 0 1 0.858,-0.386 3.823,3.823 0 0 1 0.994,-0.13 4.006,4.006 0 0 1 1.627,0.315 v 1.134 a 3.169,3.169 0 0 0 -1.777,-0.506 2.064,2.064 0 0 0 -0.567,0.072 1.387,1.387 0 0 0 -0.435,0.2 0.916,0.916 0 0 0 -0.279,0.311 0.811,0.811 0 0 0 -0.1,0.4 0.949,0.949 0 0 0 0.1,0.458 0.993,0.993 0 0 0 0.29,0.328 2.225,2.225 0 0 0 0.465,0.26 q 0.273,0.116 0.622,0.253 a 8.711,8.711 0 0 1 0.834,0.365 2.891,2.891 0 0 1 0.629,0.424 1.682,1.682 0 0 1 0.4,0.544 1.756,1.756 0 0 1 0.14,0.731 1.721,1.721 0 0 1 -0.23,0.9 1.942,1.942 0 0 1 -0.611,0.636 2.789,2.789 0 0 1 -0.882,0.376 4.362,4.362 0 0 1 -1.046,0.123 3.97,3.97 0 0 1 -1.871,-0.42 z"
         fill="#2f2f2f"
         id="path122" />
      <path
         d="m 50.018,185.161 a 2.159,2.159 0 0 1 -1.046,0.219 q -1.837,0 -1.838,-2.051 v -4.143 h -1.2 v -0.957 h 1.2 v -1.709 l 1.121,-0.362 v 2.071 h 1.763 v 0.957 h -1.763 v 3.945 a 1.636,1.636 0 0 0 0.239,1 0.953,0.953 0 0 0 0.793,0.3 1.178,1.178 0 0 0 0.731,-0.232 z"
         fill="#2f2f2f"
         id="path123" />
      <path
         d="m 57.011,182.009 h -4.942 a 2.622,2.622 0 0 0 0.629,1.805 2.167,2.167 0 0 0 1.654,0.636 3.444,3.444 0 0 0 2.174,-0.779 v 1.052 a 4.06,4.06 0 0 1 -2.44,0.67 2.959,2.959 0 0 1 -2.331,-0.953 3.9,3.9 0 0 1 -0.848,-2.683 3.83,3.83 0 0 1 0.926,-2.663 2.972,2.972 0 0 1 2.3,-1.029 2.626,2.626 0 0 1 2.125,0.889 3.706,3.706 0 0 1 0.752,2.468 z m -1.148,-0.95 a 2.288,2.288 0 0 0 -0.468,-1.511 1.6,1.6 0 0 0 -1.282,-0.54 1.81,1.81 0 0 0 -1.347,0.568 2.575,2.575 0 0 0 -0.683,1.483 z"
         fill="#2f2f2f"
         id="path124" />
      <path
         d="m 62.344,179.364 a 1.372,1.372 0 0 0 -0.847,-0.226 1.428,1.428 0 0 0 -1.2,0.677 3.118,3.118 0 0 0 -0.483,1.846 v 3.568 h -1.12 v -7 h 1.121 v 1.443 h 0.028 a 2.439,2.439 0 0 1 0.731,-1.152 1.667,1.667 0 0 1 1.1,-0.414 1.819,1.819 0 0 1 0.669,0.1 z"
         fill="#2f2f2f"
         id="path125" />
    </g>
    <g
       id="g141"
       transform="translate(58)">
      <path
         d="m 117.951,142.233 v -1.353 a 2.675,2.675 0 0 0 0.558,0.369 4.536,4.536 0 0 0 0.683,0.277 5.439,5.439 0 0 0 0.721,0.174 4.015,4.015 0 0 0 0.67,0.061 2.615,2.615 0 0 0 1.582,-0.393 1.474,1.474 0 0 0 0.349,-1.821 1.982,1.982 0 0 0 -0.482,-0.537 4.682,4.682 0 0 0 -0.729,-0.465 c -0.279,-0.148 -0.582,-0.3 -0.905,-0.468 q -0.513,-0.261 -0.957,-0.527 a 4.1,4.1 0 0 1 -0.772,-0.587 2.454,2.454 0 0 1 -0.516,-0.728 2.483,2.483 0 0 1 0.106,-2.12 2.533,2.533 0 0 1 0.772,-0.817 3.512,3.512 0 0 1 1.091,-0.478 4.973,4.973 0 0 1 1.247,-0.157 4.787,4.787 0 0 1 2.112,0.348 v 1.289 a 3.828,3.828 0 0 0 -2.228,-0.6 3.693,3.693 0 0 0 -0.752,0.078 2.124,2.124 0 0 0 -0.67,0.257 1.468,1.468 0 0 0 -0.479,0.458 1.214,1.214 0 0 0 -0.184,0.683 1.426,1.426 0 0 0 0.139,0.65 1.615,1.615 0 0 0 0.414,0.5 4.2,4.2 0 0 0 0.666,0.437 c 0.263,0.141 0.565,0.3 0.907,0.465 0.342,0.165 0.683,0.356 1,0.547 a 4.534,4.534 0 0 1 0.827,0.636 2.8,2.8 0 0 1 0.563,0.772 2.16,2.16 0 0 1 0.209,0.971 2.463,2.463 0 0 1 -0.283,1.227 2.34,2.34 0 0 1 -0.765,0.817 3.371,3.371 0 0 1 -1.112,0.454 6.043,6.043 0 0 1 -1.326,0.141 5.417,5.417 0 0 1 -0.574,-0.038 c -0.228,-0.025 -0.46,-0.062 -0.7,-0.109 a 5.663,5.663 0 0 1 -0.674,-0.178 2.153,2.153 0 0 1 -0.508,-0.235 z"
         fill="#2f2f2f"
         id="path139" />
      <path
         d="m 125.241,142.233 v -1.353 a 2.675,2.675 0 0 0 0.558,0.369 4.536,4.536 0 0 0 0.683,0.277 5.439,5.439 0 0 0 0.721,0.174 4.015,4.015 0 0 0 0.67,0.061 2.615,2.615 0 0 0 1.582,-0.393 1.474,1.474 0 0 0 0.349,-1.821 1.982,1.982 0 0 0 -0.482,-0.537 4.682,4.682 0 0 0 -0.729,-0.465 c -0.279,-0.148 -0.582,-0.3 -0.9,-0.468 q -0.513,-0.261 -0.957,-0.527 a 4.1,4.1 0 0 1 -0.772,-0.587 2.454,2.454 0 0 1 -0.516,-0.728 2.483,2.483 0 0 1 0.106,-2.12 2.533,2.533 0 0 1 0.772,-0.817 3.512,3.512 0 0 1 1.091,-0.478 4.973,4.973 0 0 1 1.247,-0.157 4.787,4.787 0 0 1 2.112,0.348 v 1.289 a 3.828,3.828 0 0 0 -2.228,-0.6 3.693,3.693 0 0 0 -0.752,0.078 2.124,2.124 0 0 0 -0.67,0.257 1.478,1.478 0 0 0 -0.479,0.458 1.214,1.214 0 0 0 -0.184,0.683 1.426,1.426 0 0 0 0.139,0.65 1.615,1.615 0 0 0 0.414,0.5 4.2,4.2 0 0 0 0.666,0.437 c 0.263,0.141 0.565,0.3 0.907,0.465 0.342,0.165 0.683,0.356 1,0.547 a 4.534,4.534 0 0 1 0.827,0.636 2.8,2.8 0 0 1 0.563,0.772 2.16,2.16 0 0 1 0.209,0.971 2.463,2.463 0 0 1 -0.283,1.227 2.34,2.34 0 0 1 -0.765,0.817 3.371,3.371 0 0 1 -1.112,0.454 6.043,6.043 0 0 1 -1.326,0.141 5.417,5.417 0 0 1 -0.574,-0.038 c -0.228,-0.025 -0.46,-0.062 -0.7,-0.109 a 5.663,5.663 0 0 1 -0.674,-0.178 2.153,2.153 0 0 1 -0.513,-0.235 z"
         fill="#2f2f2f"
         id="path140" />
      <path
         d="m 138.012,142.63 h -5.086 v -9.8 h 1.149 v 8.763 h 3.937 z"
         fill="#2f2f2f"
         id="path141" />
    </g>
    <g
       id="g146">
      <path
         d="m 57.078,77.6 h -2.406 l -0.7,-2.181 H 50.489 L 49.8,77.6 h -2.395 l 3.569,-9.8 h 2.618 z M 53.469,73.724 52.416,70.429 A 4.331,4.331 0 0 1 52.252,69.547 H 52.2 a 3.756,3.756 0 0 1 -0.17,0.855 l -1.07,3.326 z"
         fill="#2f2f2f"
         id="path142" />
      <path
         d="M 63.984,77.6 H 57.7 V 76.705 L 61.215,72.2 H 58.05 v -1.6 h 5.906 v 1.067 l -3.329,4.34 h 3.357 z"
         fill="#2f2f2f"
         id="path143" />
      <path
         d="m 71.866,77.6 h -2.153 v -1.062 h -0.034 a 2.444,2.444 0 0 1 -2.14,1.237 q -2.433,0 -2.433,-2.946 V 70.6 h 2.153 v 4.033 q 0,1.484 1.176,1.484 a 1.162,1.162 0 0 0 0.929,-0.407 1.637,1.637 0 0 0 0.349,-1.1 V 70.6 h 2.153 z"
         fill="#2f2f2f"
         id="path144" />
      <path
         d="m 78.2,72.552 a 1.872,1.872 0 0 0 -0.909,-0.212 1.307,1.307 0 0 0 -1.1,0.517 2.246,2.246 0 0 0 -0.4,1.4 V 77.6 h -2.16 v -7 h 2.16 v 1.3 h 0.028 a 1.868,1.868 0 0 1 1.845,-1.422 1.385,1.385 0 0 1 0.533,0.082 z"
         fill="#2f2f2f"
         id="path145" />
      <path
         d="m 85.572,74.719 h -4.566 q 0.109,1.526 1.921,1.525 a 3.745,3.745 0 0 0 2.03,-0.547 v 1.559 a 5.337,5.337 0 0 1 -2.522,0.519 3.259,3.259 0 0 1 -3.569,-3.561 3.743,3.743 0 0 1 1.012,-2.762 3.372,3.372 0 0 1 2.488,-1.019 3.063,3.063 0 0 1 2.37,0.909 3.507,3.507 0 0 1 0.836,2.468 z m -2,-1.326 q 0,-1.5 -1.217,-1.5 a 1.16,1.16 0 0 0 -0.9,0.431 1.95,1.95 0 0 0 -0.462,1.073 z"
         fill="#2f2f2f"
         id="path146" />
    </g>
    <g
       id="g157">
      <path
         d="m 65.318,223.531 h -1.271 l -1.039,-2.748 h -4.157 l -0.977,2.748 H 56.6 l 3.76,-9.8 h 1.19 z m -2.686,-3.78 -1.539,-4.177 a 4.142,4.142 0 0 1 -0.15,-0.656 h -0.027 a 3.753,3.753 0 0 1 -0.157,0.656 l -1.525,4.177 z"
         fill="#2f2f2f"
         id="path147" />
      <path
         d="M 72.426,223.531 H 71.3 v -1.19 h -0.027 a 2.586,2.586 0 0 1 -2.406,1.354 2.617,2.617 0 0 1 -2.11,-0.94 3.862,3.862 0 0 1 -0.789,-2.56 4.2,4.2 0 0 1 0.875,-2.782 2.884,2.884 0 0 1 2.331,-1.046 2.243,2.243 0 0 1 2.1,1.135 H 71.3 v -4.334 h 1.122 z M 71.3,220.366 v -1.032 a 2,2 0 0 0 -0.56,-1.436 1.881,1.881 0 0 0 -1.422,-0.588 1.934,1.934 0 0 0 -1.613,0.752 3.3,3.3 0 0 0 -0.588,2.078 2.958,2.958 0 0 0 0.564,1.911 1.842,1.842 0 0 0 1.514,0.7 1.916,1.916 0 0 0 1.521,-0.677 2.524,2.524 0 0 0 0.584,-1.708 z"
         fill="#2f2f2f"
         id="path148" />
      <path
         d="m 84.474,223.531 h -1.121 v -4.02 a 3.022,3.022 0 0 0 -0.359,-1.681 1.36,1.36 0 0 0 -1.206,-0.52 1.493,1.493 0 0 0 -1.22,0.656 2.507,2.507 0 0 0 -0.5,1.573 v 3.992 h -1.124 v -4.156 q 0,-2.066 -1.593,-2.065 a 1.476,1.476 0 0 0 -1.217,0.619 2.556,2.556 0 0 0 -0.478,1.61 v 3.992 h -1.121 v -7 h 1.121 v 1.107 h 0.027 a 2.38,2.38 0 0 1 2.174,-1.271 2.024,2.024 0 0 1 1.983,1.449 2.5,2.5 0 0 1 2.324,-1.449 q 2.31,0 2.31,2.85 z"
         fill="#2f2f2f"
         id="path149" />
      <path
         d="m 87.063,214.754 a 0.709,0.709 0 0 1 -0.512,-0.206 0.688,0.688 0 0 1 -0.212,-0.519 0.717,0.717 0 0 1 0.724,-0.731 0.728,0.728 0 0 1 0.524,0.208 0.734,0.734 0 0 1 0,1.036 0.724,0.724 0 0 1 -0.524,0.212 z m 0.547,8.777 h -1.121 v -7 h 1.121 z"
         fill="#2f2f2f"
         id="path150" />
      <path
         d="m 95.539,223.531 h -1.121 v -3.992 q 0,-2.229 -1.627,-2.229 a 1.762,1.762 0 0 0 -1.391,0.633 2.341,2.341 0 0 0 -0.551,1.6 v 3.992 h -1.121 v -7 h 1.121 v 1.162 h 0.028 a 2.526,2.526 0 0 1 2.3,-1.326 2.139,2.139 0 0 1 1.756,0.742 3.3,3.3 0 0 1 0.609,2.143 z"
         fill="#2f2f2f"
         id="path151" />
      <path
         d="m 58.527,240.078 v -1.2 a 3.317,3.317 0 0 0 2.017,0.676 q 1.476,0 1.476,-0.984 a 0.856,0.856 0 0 0 -0.126,-0.475 1.273,1.273 0 0 0 -0.342,-0.345 2.629,2.629 0 0 0 -0.505,-0.27 c -0.2,-0.08 -0.4,-0.163 -0.626,-0.25 a 8.274,8.274 0 0 1 -0.818,-0.372 2.546,2.546 0 0 1 -0.588,-0.424 1.592,1.592 0 0 1 -0.355,-0.537 1.911,1.911 0 0 1 -0.119,-0.7 1.672,1.672 0 0 1 0.225,-0.871 2.006,2.006 0 0 1 0.6,-0.636 2.785,2.785 0 0 1 0.858,-0.386 3.786,3.786 0 0 1 0.994,-0.13 4.022,4.022 0 0 1 1.627,0.314 v 1.135 a 3.161,3.161 0 0 0 -1.777,-0.506 2.069,2.069 0 0 0 -0.567,0.072 1.409,1.409 0 0 0 -0.435,0.2 0.935,0.935 0 0 0 -0.279,0.311 0.811,0.811 0 0 0 -0.1,0.4 0.946,0.946 0 0 0 0.1,0.458 1,1 0 0 0 0.29,0.329 2.224,2.224 0 0 0 0.465,0.259 q 0.273,0.117 0.622,0.253 a 8.7,8.7 0 0 1 0.834,0.366 2.856,2.856 0 0 1 0.629,0.424 1.678,1.678 0 0 1 0.4,0.543 1.76,1.76 0 0 1 0.14,0.732 1.712,1.712 0 0 1 -0.23,0.9 1.962,1.962 0 0 1 -0.611,0.636 2.812,2.812 0 0 1 -0.882,0.376 4.362,4.362 0 0 1 -1.046,0.123 3.97,3.97 0 0 1 -1.871,-0.421 z"
         fill="#2f2f2f"
         id="path152" />
      <path
         d="M 70.482,237.111 H 65.54 a 2.614,2.614 0 0 0 0.629,1.805 2.166,2.166 0 0 0 1.654,0.635 3.438,3.438 0 0 0 2.177,-0.779 v 1.053 a 4.061,4.061 0 0 1 -2.441,0.67 2.959,2.959 0 0 1 -2.331,-0.954 3.9,3.9 0 0 1 -0.847,-2.683 3.833,3.833 0 0 1 0.919,-2.658 2.972,2.972 0 0 1 2.3,-1.028 2.632,2.632 0 0 1 2.126,0.888 3.708,3.708 0 0 1 0.752,2.468 z m -1.148,-0.95 a 2.288,2.288 0 0 0 -0.468,-1.511 1.6,1.6 0 0 0 -1.282,-0.54 1.811,1.811 0 0 0 -1.347,0.567 2.582,2.582 0 0 0 -0.684,1.484 z"
         fill="#2f2f2f"
         id="path153" />
      <path
         d="m 75.815,234.465 a 1.372,1.372 0 0 0 -0.847,-0.225 1.428,1.428 0 0 0 -1.2,0.677 3.122,3.122 0 0 0 -0.482,1.845 v 3.569 h -1.121 v -7 h 1.121 v 1.442 h 0.027 a 2.445,2.445 0 0 1 0.732,-1.152 1.665,1.665 0 0 1 1.1,-0.413 1.828,1.828 0 0 1 0.67,0.095 z"
         fill="#2f2f2f"
         id="path154" />
      <path
         d="m 83.089,233.331 -2.789,7 h -1.1 l -2.652,-7 h 1.23 l 1.777,5.086 a 4.635,4.635 0 0 1 0.247,0.977 h 0.027 a 4.605,4.605 0 0 1 0.219,-0.95 l 1.859,-5.113 z"
         fill="#2f2f2f"
         id="path155" />
      <path
         d="m 89.729,237.111 h -4.942 a 2.614,2.614 0 0 0 0.629,1.805 2.166,2.166 0 0 0 1.654,0.635 3.438,3.438 0 0 0 2.174,-0.779 v 1.053 a 4.061,4.061 0 0 1 -2.441,0.67 2.959,2.959 0 0 1 -2.331,-0.954 3.9,3.9 0 0 1 -0.847,-2.683 3.829,3.829 0 0 1 0.926,-2.663 2.969,2.969 0 0 1 2.3,-1.028 2.632,2.632 0 0 1 2.126,0.888 3.708,3.708 0 0 1 0.752,2.468 z m -1.148,-0.95 a 2.288,2.288 0 0 0 -0.468,-1.511 1.6,1.6 0 0 0 -1.282,-0.54 1.811,1.811 0 0 0 -1.347,0.567 2.575,2.575 0 0 0 -0.683,1.484 z"
         fill="#2f2f2f"
         id="path156" />
      <path
         d="m 95.063,234.465 a 1.372,1.372 0 0 0 -0.847,-0.225 1.428,1.428 0 0 0 -1.2,0.677 3.122,3.122 0 0 0 -0.482,1.845 v 3.569 h -1.121 v -7 h 1.121 v 1.442 h 0.027 a 2.445,2.445 0 0 1 0.732,-1.152 1.665,1.665 0 0 1 1.1,-0.413 1.828,1.828 0 0 1 0.67,0.095 z"
         fill="#2f2f2f"
         id="path157" />
    </g>
    <g
       id="g165">
      <path
         d="m 77.523,291 -2.768,9.8 h -1.347 l -2.017,-7.164 a 4.5,4.5 0 0 1 -0.157,-1 h -0.027 a 5.124,5.124 0 0 1 -0.178,0.984 L 69,300.8 H 67.666 L 64.8,291 h 1.264 l 2.085,7.52 a 4.839,4.839 0 0 1 0.164,0.984 h 0.035 a 5.737,5.737 0 0 1 0.211,-0.984 L 70.721,291 h 1.1 l 2.078,7.574 a 5.488,5.488 0 0 1 0.164,0.916 h 0.028 a 5.554,5.554 0 0 1 0.184,-0.943 l 2,-7.547 z"
         fill="#2f2f2f"
         id="path158" />
      <path
         d="m 84.031,297.584 h -4.942 a 2.614,2.614 0 0 0 0.629,1.805 2.167,2.167 0 0 0 1.654,0.636 3.441,3.441 0 0 0 2.174,-0.78 v 1.055 a 4.063,4.063 0 0 1 -2.441,0.67 2.959,2.959 0 0 1 -2.331,-0.954 3.9,3.9 0 0 1 -0.848,-2.683 3.829,3.829 0 0 1 0.926,-2.662 2.972,2.972 0 0 1 2.3,-1.029 2.632,2.632 0 0 1 2.126,0.888 3.71,3.71 0 0 1 0.753,2.47 z m -1.148,-0.95 a 2.293,2.293 0 0 0 -0.468,-1.511 1.6,1.6 0 0 0 -1.282,-0.54 1.809,1.809 0 0 0 -1.347,0.568 2.576,2.576 0 0 0 -0.684,1.483 z"
         fill="#2f2f2f"
         id="path159" />
      <path
         d="m 86.862,299.792 h -0.027 v 1.008 h -1.121 v -10.359 h 1.121 v 4.593 h 0.027 a 2.652,2.652 0 0 1 2.42,-1.394 2.566,2.566 0 0 1 2.109,0.94 3.88,3.88 0 0 1 0.762,2.519 4.343,4.343 0 0 1 -0.854,2.813 2.846,2.846 0 0 1 -2.338,1.056 2.3,2.3 0 0 1 -2.099,-1.176 z m -0.027,-2.823 v 0.977 a 2.08,2.08 0 0 0 0.564,1.474 2.01,2.01 0 0 0 3.027,-0.175 3.566,3.566 0 0 0 0.579,-2.167 2.823,2.823 0 0 0 -0.54,-1.832 1.789,1.789 0 0 0 -1.465,-0.663 1.989,1.989 0 0 0 -1.573,0.68 2.5,2.5 0 0 0 -0.592,1.706 z"
         fill="#2f2f2f"
         id="path160" />
      <path
         d="M 99.114,300.8 H 94.028 V 291 h 1.148 v 8.764 h 3.938 z"
         fill="#2f2f2f"
         id="path161" />
      <path
         d="m 103.3,300.968 a 3.249,3.249 0 0 1 -2.479,-0.981 3.636,3.636 0 0 1 -0.926,-2.6 3.788,3.788 0 0 1 0.964,-2.755 3.466,3.466 0 0 1 2.605,-0.991 3.135,3.135 0 0 1 2.443,0.964 3.818,3.818 0 0 1 0.879,2.673 3.764,3.764 0 0 1 -0.947,2.683 3.318,3.318 0 0 1 -2.539,1.007 z m 0.082,-6.385 a 2.132,2.132 0 0 0 -1.709,0.735 3.021,3.021 0 0 0 -0.629,2.027 2.86,2.86 0 0 0 0.635,1.962 2.164,2.164 0 0 0 1.7,0.718 2.049,2.049 0 0 0 1.671,-0.7 3.057,3.057 0 0 0 0.584,-2 3.113,3.113 0 0 0 -0.584,-2.024 2.041,2.041 0 0 0 -1.668,-0.718 z"
         fill="#2f2f2f"
         id="path162" />
      <path
         d="m 114.541,300.243 q 0,3.857 -3.692,3.856 a 4.955,4.955 0 0 1 -2.269,-0.492 v -1.121 a 4.664,4.664 0 0 0 2.256,0.656 q 2.583,0 2.584,-2.748 v -0.766 h -0.028 a 2.832,2.832 0 0 1 -4.508,0.407 3.73,3.73 0 0 1 -0.8,-2.506 4.36,4.36 0 0 1 0.857,-2.836 2.868,2.868 0 0 1 2.349,-1.053 2.281,2.281 0 0 1 2.1,1.135 h 0.028 V 293.8 h 1.121 z m -1.121,-2.6 v -1.032 a 2,2 0 0 0 -0.565,-1.429 1.853,1.853 0 0 0 -1.4,-0.595 1.947,1.947 0 0 0 -1.627,0.756 3.37,3.37 0 0 0 -0.588,2.115 2.888,2.888 0 0 0 0.565,1.87 1.82,1.82 0 0 0 1.493,0.7 1.952,1.952 0 0 0 1.534,-0.67 2.5,2.5 0 0 0 0.588,-1.719 z"
         fill="#2f2f2f"
         id="path163" />
      <path
         d="m 117.23,292.027 a 0.709,0.709 0 0 1 -0.512,-0.206 0.688,0.688 0 0 1 -0.212,-0.519 0.719,0.719 0 0 1 0.724,-0.732 0.729,0.729 0 0 1 0.524,0.209 0.734,0.734 0 0 1 0,1.036 0.724,0.724 0 0 1 -0.524,0.212 z m 0.547,8.777 h -1.121 v -7 h 1.121 z"
         fill="#2f2f2f"
         id="path164" />
      <path
         d="m 124.689,300.483 a 3.649,3.649 0 0 1 -1.914,0.485 3.168,3.168 0 0 1 -2.416,-0.974 3.531,3.531 0 0 1 -0.92,-2.526 3.881,3.881 0 0 1 0.991,-2.779 3.468,3.468 0 0 1 2.646,-1.049 3.683,3.683 0 0 1 1.627,0.342 v 1.148 a 2.848,2.848 0 0 0 -1.668,-0.547 2.254,2.254 0 0 0 -1.76,0.769 2.914,2.914 0 0 0 -0.687,2.02 2.773,2.773 0 0 0 0.646,1.942 2.225,2.225 0 0 0 1.733,0.711 2.808,2.808 0 0 0 1.722,-0.609 z"
         fill="#2f2f2f"
         id="path165" />
    </g>
    <g
       id="g167">
      <path
         d="m 122.84,232.627 -3.63,9.8 h -1.265 l -3.555,-9.8 h 1.279 l 2.714,7.772 a 4.685,4.685 0 0 1 0.2,0.868 h 0.027 a 4.183,4.183 0 0 1 0.226,-0.882 l 2.768,-7.758 z"
         fill="#2f2f2f"
         id="path166" />
      <path
         d="m 134.167,242.429 h -1.142 v -6.576 q 0,-0.779 0.1,-1.907 h -0.028 a 6.164,6.164 0 0 1 -0.293,0.95 l -3.35,7.533 h -0.561 l -3.342,-7.478 a 5.821,5.821 0 0 1 -0.294,-1 h -0.028 q 0.054,0.588 0.055,1.921 v 6.562 h -1.107 v -9.8 h 1.517 l 3.008,6.836 a 8.738,8.738 0 0 1 0.451,1.175 h 0.041 q 0.294,-0.807 0.472,-1.2 l 3.069,-6.808 h 1.436 z"
         fill="#2f2f2f"
         id="path167" />
    </g>
    <g
       id="g180">
      <path
         d="m 234.866,223.531 h -1.142 v -6.576 q 0,-0.78 0.1,-1.907 h -0.027 a 6.176,6.176 0 0 1 -0.294,0.95 l -3.35,7.533 h -0.56 l -3.343,-7.479 a 5.777,5.777 0 0 1 -0.294,-1 h -0.027 q 0.054,0.588 0.054,1.92 v 6.563 h -1.107 v -9.8 h 1.517 l 3.008,6.836 a 8.6,8.6 0 0 1 0.451,1.176 h 0.041 q 0.3,-0.807 0.472,-1.2 l 3.069,-6.809 h 1.436 z"
         fill="#2f2f2f"
         id="path168" />
      <path
         d="m 242.18,223.531 h -1.121 v -1.094 h -0.027 a 2.345,2.345 0 0 1 -2.153,1.258 2.3,2.3 0 0 1 -1.637,-0.554 1.915,1.915 0 0 1 -0.592,-1.469 q 0,-1.963 2.311,-2.284 l 2.1,-0.294 q 0,-1.784 -1.442,-1.784 a 3.44,3.44 0 0 0 -2.283,0.862 v -1.149 a 4.342,4.342 0 0 1 2.379,-0.656 q 2.468,0 2.467,2.611 z m -1.121,-3.541 -1.688,0.232 a 2.738,2.738 0 0 0 -1.176,0.387 1.111,1.111 0 0 0 -0.4,0.981 1.07,1.07 0 0 0 0.365,0.837 1.417,1.417 0 0 0 0.974,0.325 1.8,1.8 0 0 0 1.377,-0.585 2.082,2.082 0 0 0 0.544,-1.48 z"
         fill="#2f2f2f"
         id="path169" />
      <path
         d="m 250.012,223.531 h -1.121 v -3.992 q 0,-2.229 -1.627,-2.229 a 1.761,1.761 0 0 0 -1.39,0.633 2.341,2.341 0 0 0 -0.551,1.6 v 3.992 H 244.2 v -7 h 1.121 v 1.162 h 0.027 a 2.527,2.527 0 0 1 2.3,-1.326 2.139,2.139 0 0 1 1.757,0.742 3.307,3.307 0 0 1 0.608,2.143 z"
         fill="#2f2f2f"
         id="path170" />
      <path
         d="m 257.044,223.531 h -1.121 v -1.094 H 255.9 a 2.345,2.345 0 0 1 -2.153,1.258 2.3,2.3 0 0 1 -1.637,-0.554 1.919,1.919 0 0 1 -0.592,-1.469 q 0,-1.963 2.311,-2.284 l 2.1,-0.294 q 0,-1.784 -1.443,-1.784 a 3.442,3.442 0 0 0 -2.283,0.862 v -1.149 a 4.342,4.342 0 0 1 2.379,-0.656 q 2.468,0 2.468,2.611 z m -1.121,-3.541 -1.689,0.232 a 2.743,2.743 0 0 0 -1.176,0.387 1.113,1.113 0 0 0 -0.4,0.981 1.07,1.07 0 0 0 0.365,0.837 1.418,1.418 0 0 0 0.975,0.325 1.8,1.8 0 0 0 1.377,-0.585 2.086,2.086 0 0 0 0.544,-1.48 z"
         fill="#2f2f2f"
         id="path171" />
      <path
         d="m 265.113,222.97 q 0,3.857 -3.691,3.856 a 4.959,4.959 0 0 1 -2.27,-0.492 v -1.121 a 4.664,4.664 0 0 0 2.256,0.656 q 2.584,0 2.584,-2.748 v -0.766 h -0.027 a 2.832,2.832 0 0 1 -4.508,0.407 3.729,3.729 0 0 1 -0.8,-2.5 4.361,4.361 0 0 1 0.857,-2.837 2.869,2.869 0 0 1 2.349,-1.053 2.282,2.282 0 0 1 2.1,1.135 h 0.027 v -0.971 h 1.121 z m -1.121,-2.6 v -1.032 a 2,2 0 0 0 -0.565,-1.429 1.851,1.851 0 0 0 -1.4,-0.595 1.947,1.947 0 0 0 -1.627,0.756 3.376,3.376 0 0 0 -0.588,2.115 2.888,2.888 0 0 0 0.565,1.87 1.82,1.82 0 0 0 1.493,0.7 1.95,1.95 0 0 0 1.534,-0.67 2.5,2.5 0 0 0 0.588,-1.719 z"
         fill="#2f2f2f"
         id="path172" />
      <path
         d="m 272.934,220.311 h -4.942 a 2.614,2.614 0 0 0 0.629,1.805 2.167,2.167 0 0 0 1.654,0.636 3.439,3.439 0 0 0 2.174,-0.78 v 1.053 a 4.06,4.06 0 0 1 -2.44,0.67 2.96,2.96 0 0 1 -2.332,-0.954 3.9,3.9 0 0 1 -0.847,-2.683 3.824,3.824 0 0 1 0.926,-2.662 2.97,2.97 0 0 1 2.3,-1.029 2.63,2.63 0 0 1 2.126,0.889 3.705,3.705 0 0 1 0.752,2.467 z m -1.148,-0.95 a 2.288,2.288 0 0 0 -0.468,-1.511 1.6,1.6 0 0 0 -1.282,-0.54 1.81,1.81 0 0 0 -1.347,0.568 2.575,2.575 0 0 0 -0.683,1.483 z"
         fill="#2f2f2f"
         id="path173" />
      <path
         d="m 280.666,223.531 h -1.121 v -1.19 h -0.028 a 2.586,2.586 0 0 1 -2.406,1.354 2.614,2.614 0 0 1 -2.109,-0.94 3.857,3.857 0 0 1 -0.789,-2.56 4.2,4.2 0 0 1 0.875,-2.782 2.883,2.883 0 0 1 2.331,-1.046 2.241,2.241 0 0 1 2.1,1.135 h 0.028 v -4.334 h 1.121 z m -1.121,-3.165 v -1.032 a 2,2 0 0 0 -0.561,-1.436 1.881,1.881 0 0 0 -1.422,-0.588 1.937,1.937 0 0 0 -1.613,0.752 3.3,3.3 0 0 0 -0.588,2.078 2.958,2.958 0 0 0 0.565,1.911 1.84,1.84 0 0 0 1.513,0.7 1.92,1.92 0 0 0 1.522,-0.677 2.529,2.529 0 0 0 0.584,-1.708 z"
         fill="#2f2f2f"
         id="path174" />
      <path
         d="m 234.74,240.078 v -1.2 a 3.317,3.317 0 0 0 2.017,0.676 q 1.476,0 1.476,-0.984 a 0.856,0.856 0 0 0 -0.126,-0.475 1.273,1.273 0 0 0 -0.342,-0.345 2.609,2.609 0 0 0 -0.506,-0.27 q -0.291,-0.12 -0.625,-0.25 a 8.17,8.17 0 0 1 -0.818,-0.372 2.525,2.525 0 0 1 -0.588,-0.424 1.592,1.592 0 0 1 -0.355,-0.537 1.911,1.911 0 0 1 -0.119,-0.7 1.672,1.672 0 0 1 0.225,-0.871 2.006,2.006 0 0 1 0.6,-0.636 2.785,2.785 0 0 1 0.858,-0.386 3.781,3.781 0 0 1 0.994,-0.13 4.022,4.022 0 0 1 1.627,0.314 v 1.135 a 3.161,3.161 0 0 0 -1.777,-0.506 2.064,2.064 0 0 0 -0.567,0.072 1.409,1.409 0 0 0 -0.435,0.2 0.935,0.935 0 0 0 -0.279,0.311 0.811,0.811 0 0 0 -0.1,0.4 0.946,0.946 0 0 0 0.1,0.458 1,1 0 0 0 0.29,0.329 2.224,2.224 0 0 0 0.465,0.259 q 0.273,0.117 0.622,0.253 a 8.7,8.7 0 0 1 0.834,0.366 2.856,2.856 0 0 1 0.629,0.424 1.678,1.678 0 0 1 0.4,0.543 1.76,1.76 0 0 1 0.14,0.732 1.721,1.721 0 0 1 -0.23,0.9 1.962,1.962 0 0 1 -0.611,0.636 2.812,2.812 0 0 1 -0.882,0.376 4.362,4.362 0 0 1 -1.046,0.123 3.97,3.97 0 0 1 -1.871,-0.421 z"
         fill="#2f2f2f"
         id="path175" />
      <path
         d="m 246.7,237.111 h -4.942 a 2.614,2.614 0 0 0 0.629,1.805 2.166,2.166 0 0 0 1.654,0.635 3.438,3.438 0 0 0 2.174,-0.779 v 1.053 a 4.063,4.063 0 0 1 -2.441,0.67 2.959,2.959 0 0 1 -2.331,-0.954 3.9,3.9 0 0 1 -0.847,-2.683 3.833,3.833 0 0 1 0.925,-2.663 2.971,2.971 0 0 1 2.3,-1.028 2.632,2.632 0 0 1 2.126,0.888 3.708,3.708 0 0 1 0.752,2.468 z m -1.148,-0.95 a 2.293,2.293 0 0 0 -0.468,-1.511 1.6,1.6 0 0 0 -1.282,-0.54 1.811,1.811 0 0 0 -1.347,0.567 2.582,2.582 0 0 0 -0.684,1.484 z"
         fill="#2f2f2f"
         id="path176" />
      <path
         d="m 252.028,234.465 a 1.373,1.373 0 0 0 -0.848,-0.225 1.427,1.427 0 0 0 -1.2,0.677 3.122,3.122 0 0 0 -0.482,1.845 v 3.569 h -1.121 v -7 h 1.123 v 1.442 h 0.027 a 2.437,2.437 0 0 1 0.732,-1.152 1.665,1.665 0 0 1 1.1,-0.413 1.828,1.828 0 0 1 0.67,0.095 z"
         fill="#2f2f2f"
         id="path177" />
      <path
         d="m 259.3,233.331 -2.789,7 h -1.1 l -2.653,-7 h 1.231 l 1.777,5.086 a 4.566,4.566 0 0 1 0.246,0.977 h 0.028 a 4.673,4.673 0 0 1 0.218,-0.95 l 1.86,-5.113 z"
         fill="#2f2f2f"
         id="path178" />
      <path
         d="M 265.942,237.111 H 261 a 2.614,2.614 0 0 0 0.629,1.805 2.166,2.166 0 0 0 1.654,0.635 3.438,3.438 0 0 0 2.174,-0.779 v 1.053 a 4.061,4.061 0 0 1 -2.441,0.67 2.959,2.959 0 0 1 -2.331,-0.954 3.9,3.9 0 0 1 -0.847,-2.683 3.833,3.833 0 0 1 0.925,-2.663 2.972,2.972 0 0 1 2.3,-1.028 2.632,2.632 0 0 1 2.126,0.888 3.708,3.708 0 0 1 0.752,2.468 z m -1.148,-0.95 a 2.288,2.288 0 0 0 -0.468,-1.511 1.6,1.6 0 0 0 -1.282,-0.54 1.811,1.811 0 0 0 -1.347,0.567 2.582,2.582 0 0 0 -0.684,1.484 z"
         fill="#2f2f2f"
         id="path179" />
      <path
         d="m 271.276,234.465 a 1.373,1.373 0 0 0 -0.848,-0.225 1.428,1.428 0 0 0 -1.2,0.677 3.122,3.122 0 0 0 -0.482,1.845 v 3.569 h -1.121 v -7 h 1.121 v 1.442 h 0.027 a 2.437,2.437 0 0 1 0.732,-1.152 1.665,1.665 0 0 1 1.1,-0.413 1.828,1.828 0 0 1 0.67,0.095 z"
         fill="#2f2f2f"
         id="path180" />
    </g>
    <g
       id="g188">
      <path
         d="m 253.523,291 -2.768,9.8 h -1.347 l -2.017,-7.164 a 4.5,4.5 0 0 1 -0.157,-1 h -0.027 a 5.124,5.124 0 0 1 -0.178,0.984 L 245,300.8 h -1.333 L 240.8,291 h 1.264 l 2.085,7.52 a 4.839,4.839 0 0 1 0.164,0.984 h 0.035 a 5.737,5.737 0 0 1 0.211,-0.984 l 2.167,-7.52 h 1.1 l 2.078,7.574 a 5.488,5.488 0 0 1 0.164,0.916 h 0.028 a 5.554,5.554 0 0 1 0.184,-0.943 l 2,-7.547 z"
         fill="#2f2f2f"
         id="path181" />
      <path
         d="m 260.031,297.584 h -4.942 a 2.614,2.614 0 0 0 0.629,1.805 2.167,2.167 0 0 0 1.654,0.636 3.441,3.441 0 0 0 2.174,-0.78 v 1.055 a 4.063,4.063 0 0 1 -2.441,0.67 2.959,2.959 0 0 1 -2.331,-0.954 3.9,3.9 0 0 1 -0.848,-2.683 3.829,3.829 0 0 1 0.926,-2.662 2.972,2.972 0 0 1 2.3,-1.029 2.632,2.632 0 0 1 2.126,0.888 3.71,3.71 0 0 1 0.752,2.468 z m -1.148,-0.95 a 2.293,2.293 0 0 0 -0.468,-1.511 1.6,1.6 0 0 0 -1.282,-0.54 1.809,1.809 0 0 0 -1.347,0.568 2.576,2.576 0 0 0 -0.684,1.483 z"
         fill="#2f2f2f"
         id="path182" />
      <path
         d="m 262.862,299.792 h -0.027 v 1.008 h -1.121 v -10.359 h 1.121 v 4.593 h 0.027 a 2.652,2.652 0 0 1 2.42,-1.394 2.566,2.566 0 0 1 2.109,0.94 3.88,3.88 0 0 1 0.762,2.519 4.343,4.343 0 0 1 -0.854,2.813 2.846,2.846 0 0 1 -2.338,1.056 2.3,2.3 0 0 1 -2.099,-1.176 z m -0.027,-2.823 v 0.977 a 2.08,2.08 0 0 0 0.564,1.474 2.01,2.01 0 0 0 3.027,-0.175 3.566,3.566 0 0 0 0.579,-2.167 2.823,2.823 0 0 0 -0.54,-1.832 1.789,1.789 0 0 0 -1.463,-0.663 1.989,1.989 0 0 0 -1.573,0.68 2.5,2.5 0 0 0 -0.594,1.706 z"
         fill="#2f2f2f"
         id="path183" />
      <path
         d="m 275.114,300.8 h -5.086 V 291 h 1.148 v 8.764 h 3.938 z"
         fill="#2f2f2f"
         id="path184" />
      <path
         d="m 279.3,300.968 a 3.249,3.249 0 0 1 -2.479,-0.981 3.636,3.636 0 0 1 -0.926,-2.6 3.788,3.788 0 0 1 0.964,-2.755 3.466,3.466 0 0 1 2.605,-0.991 3.135,3.135 0 0 1 2.443,0.964 3.818,3.818 0 0 1 0.879,2.673 3.764,3.764 0 0 1 -0.947,2.683 3.318,3.318 0 0 1 -2.539,1.007 z m 0.082,-6.385 a 2.132,2.132 0 0 0 -1.709,0.735 3.021,3.021 0 0 0 -0.629,2.027 2.86,2.86 0 0 0 0.635,1.962 2.164,2.164 0 0 0 1.7,0.718 2.049,2.049 0 0 0 1.671,-0.7 3.057,3.057 0 0 0 0.584,-2 3.113,3.113 0 0 0 -0.584,-2.024 2.041,2.041 0 0 0 -1.668,-0.718 z"
         fill="#2f2f2f"
         id="path185" />
      <path
         d="m 290.541,300.243 q 0,3.857 -3.692,3.856 a 4.955,4.955 0 0 1 -2.269,-0.492 v -1.121 a 4.664,4.664 0 0 0 2.256,0.656 q 2.583,0 2.584,-2.748 v -0.766 h -0.028 a 2.832,2.832 0 0 1 -4.508,0.407 3.73,3.73 0 0 1 -0.8,-2.506 4.36,4.36 0 0 1 0.857,-2.836 2.868,2.868 0 0 1 2.349,-1.053 2.281,2.281 0 0 1 2.1,1.135 h 0.028 V 293.8 h 1.121 z m -1.121,-2.6 v -1.032 a 2,2 0 0 0 -0.565,-1.429 1.853,1.853 0 0 0 -1.4,-0.595 1.947,1.947 0 0 0 -1.627,0.756 3.37,3.37 0 0 0 -0.588,2.115 2.888,2.888 0 0 0 0.565,1.87 1.82,1.82 0 0 0 1.493,0.7 1.952,1.952 0 0 0 1.534,-0.67 2.5,2.5 0 0 0 0.588,-1.719 z"
         fill="#2f2f2f"
         id="path186" />
      <path
         d="m 293.23,292.027 a 0.709,0.709 0 0 1 -0.512,-0.206 0.688,0.688 0 0 1 -0.212,-0.519 0.719,0.719 0 0 1 0.724,-0.732 0.729,0.729 0 0 1 0.524,0.209 0.734,0.734 0 0 1 0,1.036 0.724,0.724 0 0 1 -0.524,0.212 z m 0.547,8.777 h -1.121 v -7 h 1.121 z"
         fill="#2f2f2f"
         id="path187" />
      <path
         d="m 300.689,300.483 a 3.649,3.649 0 0 1 -1.914,0.485 3.168,3.168 0 0 1 -2.416,-0.974 3.531,3.531 0 0 1 -0.92,-2.526 3.881,3.881 0 0 1 0.991,-2.779 3.468,3.468 0 0 1 2.646,-1.049 3.683,3.683 0 0 1 1.627,0.342 v 1.148 a 2.848,2.848 0 0 0 -1.668,-0.547 2.254,2.254 0 0 0 -1.76,0.769 2.914,2.914 0 0 0 -0.687,2.02 2.773,2.773 0 0 0 0.646,1.942 2.225,2.225 0 0 0 1.733,0.711 2.808,2.808 0 0 0 1.722,-0.609 z"
         fill="#2f2f2f"
         id="path188" />
    </g>
    <g
       id="g190">
      <path
         d="m 303.24,232.627 -3.631,9.8 h -1.264 l -3.554,-9.8 h 1.277 l 2.715,7.772 a 4.609,4.609 0 0 1 0.2,0.868 h 0.028 a 4.244,4.244 0 0 1 0.226,-0.882 L 302,232.627 Z"
         fill="#2f2f2f"
         id="path189" />
      <path
         d="m 314.566,242.429 h -1.14 v -6.576 q 0,-0.779 0.1,-1.907 h -0.027 a 6.007,6.007 0 0 1 -0.3,0.95 l -3.35,7.533 h -0.56 l -3.342,-7.478 a 5.991,5.991 0 0 1 -0.3,-1 h -0.027 q 0.055,0.588 0.054,1.921 v 6.562 h -1.107 v -9.8 h 1.518 l 3.007,6.836 a 8.777,8.777 0 0 1 0.452,1.175 h 0.041 c 0.2,-0.538 0.353,-0.939 0.472,-1.2 l 3.069,-6.808 h 1.435 z"
         fill="#2f2f2f"
         id="path190" />
    </g>
    <g
       id="g203">
      <path
         d="m 366.866,223.531 h -1.142 v -6.576 q 0,-0.78 0.1,-1.907 h -0.027 a 6.176,6.176 0 0 1 -0.294,0.95 l -3.35,7.533 h -0.56 l -3.343,-7.479 a 5.777,5.777 0 0 1 -0.294,-1 h -0.027 q 0.054,0.588 0.054,1.92 v 6.563 h -1.107 v -9.8 h 1.517 l 3.008,6.836 a 8.6,8.6 0 0 1 0.451,1.176 h 0.041 q 0.3,-0.807 0.472,-1.2 l 3.069,-6.809 h 1.436 z"
         fill="#2f2f2f"
         id="path191" />
      <path
         d="m 374.18,223.531 h -1.121 v -1.094 h -0.027 a 2.345,2.345 0 0 1 -2.153,1.258 2.3,2.3 0 0 1 -1.637,-0.554 1.915,1.915 0 0 1 -0.592,-1.469 q 0,-1.963 2.311,-2.284 l 2.1,-0.294 q 0,-1.784 -1.442,-1.784 a 3.44,3.44 0 0 0 -2.283,0.862 v -1.149 a 4.342,4.342 0 0 1 2.379,-0.656 q 2.467,0 2.467,2.611 z m -1.121,-3.541 -1.688,0.232 a 2.738,2.738 0 0 0 -1.176,0.387 1.111,1.111 0 0 0 -0.4,0.981 1.07,1.07 0 0 0 0.365,0.837 1.417,1.417 0 0 0 0.974,0.325 1.8,1.8 0 0 0 1.377,-0.585 2.082,2.082 0 0 0 0.544,-1.48 z"
         fill="#2f2f2f"
         id="path192" />
      <path
         d="m 382.012,223.531 h -1.121 v -3.992 q 0,-2.229 -1.627,-2.229 a 1.761,1.761 0 0 0 -1.39,0.633 2.341,2.341 0 0 0 -0.551,1.6 v 3.992 H 376.2 v -7 h 1.121 v 1.162 h 0.027 a 2.527,2.527 0 0 1 2.3,-1.326 2.139,2.139 0 0 1 1.757,0.742 3.307,3.307 0 0 1 0.608,2.143 z"
         fill="#2f2f2f"
         id="path193" />
      <path
         d="m 389.044,223.531 h -1.121 v -1.094 H 387.9 a 2.345,2.345 0 0 1 -2.153,1.258 2.3,2.3 0 0 1 -1.637,-0.554 1.919,1.919 0 0 1 -0.592,-1.469 q 0,-1.963 2.311,-2.284 l 2.1,-0.294 q 0,-1.784 -1.443,-1.784 a 3.442,3.442 0 0 0 -2.283,0.862 v -1.149 a 4.342,4.342 0 0 1 2.379,-0.656 q 2.467,0 2.468,2.611 z m -1.121,-3.541 -1.689,0.232 a 2.743,2.743 0 0 0 -1.176,0.387 1.113,1.113 0 0 0 -0.4,0.981 1.07,1.07 0 0 0 0.365,0.837 1.418,1.418 0 0 0 0.975,0.325 1.8,1.8 0 0 0 1.377,-0.585 2.086,2.086 0 0 0 0.544,-1.48 z"
         fill="#2f2f2f"
         id="path194" />
      <path
         d="m 397.113,222.97 q 0,3.857 -3.691,3.856 a 4.959,4.959 0 0 1 -2.27,-0.492 v -1.121 a 4.664,4.664 0 0 0 2.256,0.656 q 2.584,0 2.584,-2.748 v -0.766 h -0.027 a 2.832,2.832 0 0 1 -4.508,0.407 3.729,3.729 0 0 1 -0.8,-2.5 4.361,4.361 0 0 1 0.857,-2.837 2.869,2.869 0 0 1 2.349,-1.053 2.282,2.282 0 0 1 2.1,1.135 h 0.027 v -0.971 h 1.121 z m -1.121,-2.6 v -1.032 a 2,2 0 0 0 -0.565,-1.429 1.851,1.851 0 0 0 -1.4,-0.595 1.947,1.947 0 0 0 -1.627,0.756 3.376,3.376 0 0 0 -0.588,2.115 2.888,2.888 0 0 0 0.565,1.87 1.82,1.82 0 0 0 1.493,0.7 1.95,1.95 0 0 0 1.534,-0.67 2.5,2.5 0 0 0 0.588,-1.719 z"
         fill="#2f2f2f"
         id="path195" />
      <path
         d="m 404.934,220.311 h -4.942 a 2.614,2.614 0 0 0 0.629,1.805 2.167,2.167 0 0 0 1.654,0.636 3.439,3.439 0 0 0 2.174,-0.78 v 1.053 a 4.06,4.06 0 0 1 -2.44,0.67 2.96,2.96 0 0 1 -2.332,-0.954 3.9,3.9 0 0 1 -0.847,-2.683 3.824,3.824 0 0 1 0.926,-2.662 2.97,2.97 0 0 1 2.3,-1.029 2.63,2.63 0 0 1 2.126,0.889 3.705,3.705 0 0 1 0.752,2.467 z m -1.148,-0.95 a 2.288,2.288 0 0 0 -0.468,-1.511 1.6,1.6 0 0 0 -1.282,-0.54 1.81,1.81 0 0 0 -1.347,0.568 2.575,2.575 0 0 0 -0.683,1.483 z"
         fill="#2f2f2f"
         id="path196" />
      <path
         d="m 412.666,223.531 h -1.121 v -1.19 h -0.028 a 2.586,2.586 0 0 1 -2.406,1.354 2.614,2.614 0 0 1 -2.109,-0.94 3.857,3.857 0 0 1 -0.789,-2.56 4.2,4.2 0 0 1 0.875,-2.782 2.883,2.883 0 0 1 2.331,-1.046 2.241,2.241 0 0 1 2.1,1.135 h 0.028 v -4.334 h 1.121 z m -1.121,-3.165 v -1.032 a 2,2 0 0 0 -0.561,-1.436 1.881,1.881 0 0 0 -1.422,-0.588 1.937,1.937 0 0 0 -1.613,0.752 3.3,3.3 0 0 0 -0.588,2.078 2.958,2.958 0 0 0 0.565,1.911 1.84,1.84 0 0 0 1.513,0.7 1.92,1.92 0 0 0 1.522,-0.677 2.529,2.529 0 0 0 0.584,-1.708 z"
         fill="#2f2f2f"
         id="path197" />
      <path
         d="m 366.74,240.078 v -1.2 a 3.317,3.317 0 0 0 2.017,0.676 q 1.476,0 1.476,-0.984 a 0.856,0.856 0 0 0 -0.126,-0.475 1.273,1.273 0 0 0 -0.342,-0.345 2.609,2.609 0 0 0 -0.506,-0.27 q -0.291,-0.12 -0.625,-0.25 a 8.17,8.17 0 0 1 -0.818,-0.372 2.525,2.525 0 0 1 -0.588,-0.424 1.592,1.592 0 0 1 -0.355,-0.537 1.911,1.911 0 0 1 -0.119,-0.7 1.672,1.672 0 0 1 0.225,-0.871 2.006,2.006 0 0 1 0.6,-0.636 2.785,2.785 0 0 1 0.858,-0.386 3.781,3.781 0 0 1 0.994,-0.13 4.022,4.022 0 0 1 1.627,0.314 v 1.135 a 3.161,3.161 0 0 0 -1.777,-0.506 2.064,2.064 0 0 0 -0.567,0.072 1.409,1.409 0 0 0 -0.435,0.2 0.935,0.935 0 0 0 -0.279,0.311 0.811,0.811 0 0 0 -0.1,0.4 0.946,0.946 0 0 0 0.1,0.458 1,1 0 0 0 0.29,0.329 2.224,2.224 0 0 0 0.465,0.259 q 0.273,0.117 0.622,0.253 a 8.7,8.7 0 0 1 0.834,0.366 2.856,2.856 0 0 1 0.629,0.424 1.678,1.678 0 0 1 0.4,0.543 1.76,1.76 0 0 1 0.14,0.732 1.721,1.721 0 0 1 -0.23,0.9 1.962,1.962 0 0 1 -0.611,0.636 2.812,2.812 0 0 1 -0.882,0.376 4.362,4.362 0 0 1 -1.046,0.123 3.97,3.97 0 0 1 -1.871,-0.421 z"
         fill="#2f2f2f"
         id="path198" />
      <path
         d="m 378.7,237.111 h -4.942 a 2.614,2.614 0 0 0 0.629,1.805 2.166,2.166 0 0 0 1.654,0.635 3.438,3.438 0 0 0 2.174,-0.779 v 1.053 a 4.063,4.063 0 0 1 -2.441,0.67 2.959,2.959 0 0 1 -2.331,-0.954 3.9,3.9 0 0 1 -0.847,-2.683 3.833,3.833 0 0 1 0.925,-2.663 2.971,2.971 0 0 1 2.3,-1.028 2.632,2.632 0 0 1 2.126,0.888 3.708,3.708 0 0 1 0.752,2.468 z m -1.148,-0.95 a 2.293,2.293 0 0 0 -0.468,-1.511 1.6,1.6 0 0 0 -1.282,-0.54 1.811,1.811 0 0 0 -1.347,0.567 2.582,2.582 0 0 0 -0.684,1.484 z"
         fill="#2f2f2f"
         id="path199" />
      <path
         d="m 384.028,234.465 a 1.373,1.373 0 0 0 -0.848,-0.225 1.427,1.427 0 0 0 -1.2,0.677 3.122,3.122 0 0 0 -0.482,1.845 v 3.569 h -1.121 v -7 h 1.123 v 1.442 h 0.027 a 2.437,2.437 0 0 1 0.732,-1.152 1.665,1.665 0 0 1 1.1,-0.413 1.828,1.828 0 0 1 0.67,0.095 z"
         fill="#2f2f2f"
         id="path200" />
      <path
         d="m 391.3,233.331 -2.789,7 h -1.1 l -2.653,-7 h 1.231 l 1.777,5.086 a 4.566,4.566 0 0 1 0.246,0.977 h 0.028 a 4.673,4.673 0 0 1 0.218,-0.95 l 1.86,-5.113 z"
         fill="#2f2f2f"
         id="path201" />
      <path
         d="M 397.942,237.111 H 393 a 2.614,2.614 0 0 0 0.629,1.805 2.166,2.166 0 0 0 1.654,0.635 3.438,3.438 0 0 0 2.174,-0.779 v 1.053 a 4.061,4.061 0 0 1 -2.441,0.67 2.959,2.959 0 0 1 -2.331,-0.954 3.9,3.9 0 0 1 -0.847,-2.683 3.833,3.833 0 0 1 0.925,-2.663 2.972,2.972 0 0 1 2.3,-1.028 2.632,2.632 0 0 1 2.126,0.888 3.708,3.708 0 0 1 0.752,2.468 z m -1.148,-0.95 a 2.288,2.288 0 0 0 -0.468,-1.511 1.6,1.6 0 0 0 -1.282,-0.54 1.811,1.811 0 0 0 -1.347,0.567 2.582,2.582 0 0 0 -0.684,1.484 z"
         fill="#2f2f2f"
         id="path202" />
      <path
         d="m 403.276,234.465 a 1.373,1.373 0 0 0 -0.848,-0.225 1.428,1.428 0 0 0 -1.2,0.677 3.122,3.122 0 0 0 -0.482,1.845 v 3.569 h -1.121 v -7 h 1.121 v 1.442 h 0.027 a 2.437,2.437 0 0 1 0.732,-1.152 1.665,1.665 0 0 1 1.1,-0.413 1.828,1.828 0 0 1 0.67,0.095 z"
         fill="#2f2f2f"
         id="path203" />
    </g>
    <g
       id="g211">
      <path
         d="m 385.523,291 -2.768,9.8 h -1.347 l -2.017,-7.164 a 4.5,4.5 0 0 1 -0.157,-1 h -0.027 a 5.124,5.124 0 0 1 -0.178,0.984 L 377,300.8 h -1.333 L 372.8,291 h 1.264 l 2.085,7.52 a 4.839,4.839 0 0 1 0.164,0.984 h 0.035 a 5.737,5.737 0 0 1 0.211,-0.984 l 2.167,-7.52 h 1.1 l 2.078,7.574 a 5.488,5.488 0 0 1 0.164,0.916 h 0.028 a 5.554,5.554 0 0 1 0.184,-0.943 l 2,-7.547 z"
         fill="#2f2f2f"
         id="path204" />
      <path
         d="m 392.031,297.584 h -4.942 a 2.614,2.614 0 0 0 0.629,1.805 2.167,2.167 0 0 0 1.654,0.636 3.441,3.441 0 0 0 2.174,-0.78 v 1.055 a 4.063,4.063 0 0 1 -2.441,0.67 2.959,2.959 0 0 1 -2.331,-0.954 3.9,3.9 0 0 1 -0.848,-2.683 3.829,3.829 0 0 1 0.926,-2.662 2.972,2.972 0 0 1 2.3,-1.029 2.632,2.632 0 0 1 2.126,0.888 3.71,3.71 0 0 1 0.752,2.468 z m -1.148,-0.95 a 2.293,2.293 0 0 0 -0.468,-1.511 1.6,1.6 0 0 0 -1.282,-0.54 1.809,1.809 0 0 0 -1.347,0.568 2.576,2.576 0 0 0 -0.684,1.483 z"
         fill="#2f2f2f"
         id="path205" />
      <path
         d="m 394.862,299.792 h -0.027 v 1.008 h -1.121 v -10.359 h 1.121 v 4.593 h 0.027 a 2.652,2.652 0 0 1 2.42,-1.394 2.566,2.566 0 0 1 2.109,0.94 3.88,3.88 0 0 1 0.762,2.519 4.343,4.343 0 0 1 -0.854,2.813 2.846,2.846 0 0 1 -2.338,1.056 2.3,2.3 0 0 1 -2.099,-1.176 z m -0.027,-2.823 v 0.977 a 2.08,2.08 0 0 0 0.564,1.474 2.01,2.01 0 0 0 3.027,-0.175 3.566,3.566 0 0 0 0.579,-2.167 2.823,2.823 0 0 0 -0.54,-1.832 1.789,1.789 0 0 0 -1.463,-0.663 1.989,1.989 0 0 0 -1.573,0.68 2.5,2.5 0 0 0 -0.594,1.706 z"
         fill="#2f2f2f"
         id="path206" />
      <path
         d="m 407.114,300.8 h -5.086 V 291 h 1.148 v 8.764 h 3.938 z"
         fill="#2f2f2f"
         id="path207" />
      <path
         d="m 411.3,300.968 a 3.249,3.249 0 0 1 -2.479,-0.981 3.636,3.636 0 0 1 -0.926,-2.6 3.788,3.788 0 0 1 0.964,-2.755 3.466,3.466 0 0 1 2.605,-0.991 3.135,3.135 0 0 1 2.443,0.964 3.818,3.818 0 0 1 0.879,2.673 3.764,3.764 0 0 1 -0.947,2.683 3.318,3.318 0 0 1 -2.539,1.007 z m 0.082,-6.385 a 2.132,2.132 0 0 0 -1.709,0.735 3.021,3.021 0 0 0 -0.629,2.027 2.86,2.86 0 0 0 0.635,1.962 2.164,2.164 0 0 0 1.7,0.718 2.049,2.049 0 0 0 1.671,-0.7 3.057,3.057 0 0 0 0.584,-2 3.113,3.113 0 0 0 -0.584,-2.024 2.041,2.041 0 0 0 -1.668,-0.718 z"
         fill="#2f2f2f"
         id="path208" />
      <path
         d="m 422.541,300.243 q 0,3.857 -3.692,3.856 a 4.955,4.955 0 0 1 -2.269,-0.492 v -1.121 a 4.664,4.664 0 0 0 2.256,0.656 q 2.583,0 2.584,-2.748 v -0.766 h -0.028 a 2.832,2.832 0 0 1 -4.508,0.407 3.73,3.73 0 0 1 -0.8,-2.506 4.36,4.36 0 0 1 0.857,-2.836 2.868,2.868 0 0 1 2.349,-1.053 2.281,2.281 0 0 1 2.1,1.135 h 0.028 V 293.8 h 1.121 z m -1.121,-2.6 v -1.032 a 2,2 0 0 0 -0.565,-1.429 1.853,1.853 0 0 0 -1.4,-0.595 1.947,1.947 0 0 0 -1.627,0.756 3.37,3.37 0 0 0 -0.588,2.115 2.888,2.888 0 0 0 0.565,1.87 1.82,1.82 0 0 0 1.493,0.7 1.952,1.952 0 0 0 1.534,-0.67 2.5,2.5 0 0 0 0.588,-1.719 z"
         fill="#2f2f2f"
         id="path209" />
      <path
         d="m 425.23,292.027 a 0.709,0.709 0 0 1 -0.512,-0.206 0.688,0.688 0 0 1 -0.212,-0.519 0.719,0.719 0 0 1 0.724,-0.732 0.729,0.729 0 0 1 0.524,0.209 0.734,0.734 0 0 1 0,1.036 0.724,0.724 0 0 1 -0.524,0.212 z m 0.547,8.777 h -1.121 v -7 h 1.121 z"
         fill="#2f2f2f"
         id="path210" />
      <path
         d="m 432.689,300.483 a 3.649,3.649 0 0 1 -1.914,0.485 3.168,3.168 0 0 1 -2.416,-0.974 3.531,3.531 0 0 1 -0.92,-2.526 3.881,3.881 0 0 1 0.991,-2.779 3.468,3.468 0 0 1 2.646,-1.049 3.683,3.683 0 0 1 1.627,0.342 v 1.148 a 2.848,2.848 0 0 0 -1.668,-0.547 2.254,2.254 0 0 0 -1.76,0.769 2.914,2.914 0 0 0 -0.687,2.02 2.773,2.773 0 0 0 0.646,1.942 2.225,2.225 0 0 0 1.733,0.711 2.808,2.808 0 0 0 1.722,-0.609 z"
         fill="#2f2f2f"
         id="path211" />
    </g>
    <g
       id="g213">
      <path
         d="m 435.24,232.627 -3.63,9.8 h -1.265 l -3.554,-9.8 h 1.278 l 2.714,7.772 a 4.606,4.606 0 0 1 0.2,0.868 h 0.028 a 4.238,4.238 0 0 1 0.225,-0.882 L 434,232.627 Z"
         fill="#2f2f2f"
         id="path212" />
      <path
         d="m 446.567,242.429 h -1.141 v -6.576 q 0,-0.779 0.1,-1.907 h -0.027 a 6.14,6.14 0 0 1 -0.294,0.95 l -3.35,7.533 h -0.56 l -3.343,-7.478 a 5.913,5.913 0 0 1 -0.294,-1 h -0.027 q 0.054,0.588 0.054,1.921 v 6.562 h -1.107 v -9.8 h 1.518 l 3.007,6.836 a 8.777,8.777 0 0 1 0.452,1.175 h 0.041 q 0.294,-0.807 0.471,-1.2 l 3.07,-6.808 h 1.435 z"
         fill="#2f2f2f"
         id="path213" />
    </g>
  </g>
</svg>
